<?xml version="1.0" encoding="UTF-8" standalone="no"?>
<!-- Created with Inkscape (http://www.inkscape.org/) -->

<svg
   xmlns:dc="http://purl.org/dc/elements/1.1/"
   xmlns:cc="http://creativecommons.org/ns#"
   xmlns:rdf="http://www.w3.org/1999/02/22-rdf-syntax-ns#"
   xmlns:svg="http://www.w3.org/2000/svg"
   xmlns="http://www.w3.org/2000/svg"
   xmlns:sodipodi="http://sodipodi.sourceforge.net/DTD/sodipodi-0.dtd"
   xmlns:inkscape="http://www.inkscape.org/namespaces/inkscape"
   id="svg2"
   version="1.1"
   inkscape:version="0.91 r13725"
   width="189.89847"
   height="616.67114"
   viewBox="0 0 189.89847 616.67114"
   sodipodi:docname="arrow-left.svg">
  <metadata
     id="metadata8">
    <rdf:RDF>
      <cc:Work
         rdf:about="">
        <dc:format>image/svg+xml</dc:format>
        <dc:type
           rdf:resource="http://purl.org/dc/dcmitype/StillImage" />
        <dc:title></dc:title>
      </cc:Work>
    </rdf:RDF>
  </metadata>
  <defs
     id="defs6" />
  <sodipodi:namedview
     pagecolor="#ffffff"
     bordercolor="#666666"
     borderopacity="1"
     objecttolerance="10"
     gridtolerance="10"
     guidetolerance="10"
     inkscape:pageopacity="0"
     inkscape:pageshadow="2"
     inkscape:window-width="1855"
     inkscape:window-height="1056"
     id="namedview4"
     showgrid="false"
     fit-margin-top="0"
     fit-margin-left="0"
     fit-margin-right="0"
     fit-margin-bottom="0"
     inkscape:zoom="0.36875"
     inkscape:cx="44.406777"
     inkscape:cy="278.71562"
     inkscape:window-x="65"
     inkscape:window-y="24"
     inkscape:window-maximized="1"
     inkscape:current-layer="svg2" />
  <g
     id="g4138"
     transform="translate(-56.25,-11.875)">
    <path
       style="fill:#333"
       d="m 225.625,627.62144 c -1.375,-0.60393 -3.72211,-2.42518 -5.2158,-4.04724 -1.4937,-1.62206 -39.04058,-69.56598 -83.4375,-150.98649 C 72.069401,353.56198 56.25,323.65866 56.25,320 c 0,-3.65828 15.822376,-33.57455 80.70189,-152.58771 C 181.33792,85.991779 219.3175,17.6875 221.35092,15.625 c 3.14014,-3.185023 4.64963,-3.75 10.01917,-3.75 5.7411,0 6.72856,0.443622 10.7465,4.827956 4.03243,4.400146 4.37143,5.341636 3.8257,10.625 -0.48908,4.73481 -14.94655,32.080169 -78.90038,149.234764 l -78.30158,143.43773 78.75483,144.36569 c 87.18285,159.8151 82.64864,150.17171 74.69159,158.85435 -4.32189,4.71598 -11.50101,6.6237 -16.56175,4.40095 z"
       id="path4152"
       inkscape:connector-curvature="0" />
    <path
       style="fill:#333"
       d="M 222.5284,624.0625 C 220.1608,621.89856 188.89336,565.82516 138.13369,472.71338 70.277833,348.24097 57.5,324.02435 57.5,319.89597 c 0,-4.12832 12.717305,-28.23102 80.24639,-152.08838 47.17617,-86.527399 81.89631,-148.85678 84.25,-151.24509 3.25512,-3.302997 4.98512,-4.0625 9.25361,-4.0625 4.30392,0 6.01587,0.765873 9.5,4.25 8.43539,8.435385 13.00784,-1.339167 -73.92865,158.0376 -45.61766,83.62881 -78.026143,144.36597 -77.812495,145.8294 0.20138,1.3794 35.154245,66.26154 77.673035,144.18254 42.51878,77.92098 77.79545,143.37805 78.39258,145.46014 0.73875,2.57586 0.54928,5.06944 -0.59291,7.80308 -3.97485,9.51315 -14.85552,12.48681 -21.95316,5.99974 z"
       id="path4150"
       inkscape:connector-curvature="0" />
    <path
       style="fill:#333"
       d="M 224.9913,625.16991 C 221.07396,623.06902 212.66046,608.22216 139.45717,474.23241 66.077354,339.91951 58.267799,325.08394 58.268157,320 58.268518,314.91725 66.067995,300.09586 139.17622,166.25 183.67545,84.78125 221.33065,17.161771 222.85445,15.984493 231.84332,9.0397539 245,15.592095 245,27.013507 245,29.133066 215.63857,84.238031 166.5625,174.2235 123.42188,253.32579 88.125,318.92521 88.125,320 c 0,1.07479 35.29688,66.67421 78.4375,145.7765 C 215.63857,555.76196 245,610.86694 245,612.98649 c 0,5.20538 -3.19144,10.2136 -7.94635,12.46996 -5.4668,2.59416 -6.74771,2.56374 -12.06235,-0.28654 z"
       id="path4148"
       inkscape:connector-curvature="0" />
    <path
       style="fill:#333"
       d="m 222.66159,622.8125 c -1.86786,-1.89063 -39.5888,-69.81029 -83.8243,-150.93257 C 75.749554,356.18505 58.409091,323.43946 58.409091,320 c 0,-3.43946 17.340463,-36.18505 80.428199,-151.87993 44.2355,-81.122284 81.95644,-149.041945 83.8243,-150.93257 3.99032,-4.038965 11.26227,-4.677168 15.94232,-1.399134 4.17739,2.925957 6.55724,9.291239 5.21874,13.958323 -0.59814,2.085586 -35.55097,66.969831 -77.67296,144.187211 -42.122,77.21739 -77.153194,141.89936 -77.8471,143.73772 -1.150485,3.04799 5.584742,15.89523 76.44171,145.81023 42.73685,78.35726 78.29452,144.02261 79.01705,145.923 4.55221,11.97322 -12.07718,22.54021 -21.09976,13.40765 z"
       id="path4146"
       inkscape:connector-curvature="0" />
    <path
       style="fill:#333"
       d="m 226.875,625.05746 c -1.375,-0.56873 -3.69039,-2.3612 -5.14531,-3.98326 -1.45493,-1.62206 -38.72055,-69.13426 -82.8125,-150.02711 C 80.571361,364.00351 58.75,322.88877 58.75,320 c 0,-5.42665 158.30109,-296.2747 164.47285,-302.1875 4.77992,-4.579347 8.91995,-5.153237 14.29027,-1.980911 3.99147,2.357821 6.23688,6.461302 6.23688,11.397897 0,2.085501 -29.95923,58.299896 -78.91124,148.066184 L 85.927526,320 164.83876,464.70433 c 48.95201,89.76628 78.91124,145.98068 78.91124,148.06618 0,5.28444 -2.4936,9.4416 -6.92461,11.54425 -4.51423,2.14214 -6.25325,2.27194 -9.95039,0.7427 z"
       id="path4144"
       inkscape:connector-curvature="0" />
    <path
       style="fill:#333"
       d="M 223.3414,622.1875 C 221.80416,620.64062 184.31737,553 140.03741,471.875 76.955685,356.3034 59.528401,323.42798 59.528401,320 c 0,-3.42798 17.427284,-36.3034 80.509009,-151.875 C 184.31737,87 221.80416,19.359375 223.3414,17.8125 c 3.31692,-3.33773 10.92771,-3.810341 15.03481,-0.933624 3.78966,2.654385 5.79781,9.343096 4.12559,13.7414 -0.72779,1.91421 -35.71771,66.53179 -77.7554,143.594624 -42.03769,77.06284 -76.999618,141.6176 -77.693175,143.45505 -1.149635,3.04573 5.652191,16.02047 77.009185,146.89792 43.04861,78.95643 78.63489,145.04342 79.08061,146.86 0.95127,3.87692 -1.99442,10.36947 -5.57378,12.28508 -4.25187,2.27552 -11.18979,1.53166 -14.22784,-1.52545 z"
       id="path4142"
       inkscape:connector-curvature="0" />
    <path
       style="fill:#333"
       d="m 226.75048,623.20519 c -3.4398,-1.48834 -13.01177,-18.42874 -85.3125,-150.98555 C 96.64709,390.09962 60.000566,321.55253 60.001259,319.89276 60.00195,318.23299 96.486783,249.9375 141.07866,168.125 215.8997,30.851229 222.49824,19.201836 226.60619,17.130521 c 4.05795,-2.046105 4.84725,-2.079067 8.93055,-0.37296 4.35827,1.821005 6.96326,5.786105 6.96326,10.598918 0,1.206551 -34.96471,66.279307 -77.69936,144.606121 -42.73466,78.32683 -78.258149,143.86038 -78.9411,145.63014 -1.117119,2.89482 6.349537,17.1324 74.40396,141.875 41.60512,76.26149 77.17688,141.6869 79.04831,145.38978 2.58155,5.10796 3.21184,7.74949 2.61199,10.94697 -1.24855,6.65536 -8.60418,10.24302 -15.17332,7.4007 z"
       id="path4140"
       inkscape:connector-curvature="0" />
  </g>
</svg>
