<?xml version="1.0" encoding="UTF-8" standalone="no"?>
<!-- Created with Inkscape (http://www.inkscape.org/) -->

<svg
   xmlns:dc="http://purl.org/dc/elements/1.1/"
   xmlns:cc="http://creativecommons.org/ns#"
   xmlns:rdf="http://www.w3.org/1999/02/22-rdf-syntax-ns#"
   xmlns:svg="http://www.w3.org/2000/svg"
   xmlns="http://www.w3.org/2000/svg"
   xmlns:sodipodi="http://sodipodi.sourceforge.net/DTD/sodipodi-0.dtd"
   xmlns:inkscape="http://www.inkscape.org/namespaces/inkscape"
   id="svg2"
   version="1.1"
   inkscape:version="0.91 r13725"
   width="648.75"
   height="1250"
   viewBox="0 0 648.75 1250"
   sodipodi:docname="cd_string1.svg">
  <metadata
     id="metadata8">
    <rdf:RDF>
      <cc:Work
         rdf:about="">
        <dc:format>image/svg+xml</dc:format>
        <dc:type
           rdf:resource="http://purl.org/dc/dcmitype/StillImage" />
        <dc:title></dc:title>
      </cc:Work>
    </rdf:RDF>
  </metadata>
  <defs
     id="defs6" />
  <sodipodi:namedview
     pagecolor="#ffffff"
     bordercolor="#666666"
     borderopacity="1"
     objecttolerance="10"
     gridtolerance="10"
     guidetolerance="10"
     inkscape:pageopacity="0"
     inkscape:pageshadow="2"
     inkscape:window-width="1855"
     inkscape:window-height="1056"
     id="namedview4"
     showgrid="false"
     fit-margin-top="0"
     fit-margin-left="0"
     fit-margin-right="0"
     fit-margin-bottom="0"
     inkscape:zoom="5.6568542"
     inkscape:cx="442.17216"
     inkscape:cy="1106.2656"
     inkscape:window-x="65"
     inkscape:window-y="24"
     inkscape:window-maximized="1"
     inkscape:current-layer="g4138" />
  <g
     id="g4138">
    <path
       style="fill:#fefefe"
       d="M 0,625 0,0 324.375,0 648.75,0 l 0,625 0,625 -324.375,0 L 0,1250 0,625 Z"
       id="path4154"
       inkscape:connector-curvature="0" />
    <path
       style="fill:#f8ed00"
       d="m 303.71382,1212.3522 c -7.5953,-1.52 -10.99737,-2.8747 -13.68448,-5.4491 -1.9669,-1.8844 -4.14553,-3.0743 -4.84139,-2.6443 -0.69586,0.4301 -1.61852,0.2103 -2.05035,-0.4884 -0.43182,-0.6987 -0.16965,-1.2704 0.58261,-1.2704 0.96916,0 0.9493,-0.7819 -0.0681,-2.683 -1.72799,-3.2288 -0.96826,-11.4297 1.60886,-17.3672 6.7301,-15.5057 6.47141,-11.6619 6.85286,-101.8248 0.65062,-153.78468 1.55887,-186.89229 5.34951,-195 3.64076,-7.78712 3.82713,-12.36155 1.09494,-26.875 -8.52677,-45.29444 -14.89827,-71.64005 -24.1843,-100 C 254.694,698.64661 245.86721,676.21021 224.22683,631.2834 210.06785,601.88847 198.67297,582.52004 190.01095,573.125 184.09539,566.70884 167.23815,540.16962 151.50304,512.5 126.03216,467.71036 107.5631,408.09084 101.35708,350.625 c -2.946854,-27.28695 -1.09829,-76.5356 3.8843,-103.48391 1.42532,-7.70885 2.48689,-17.7103 2.35905,-22.22545 -0.17407,-6.14798 0.88845,-12.18734 4.23143,-24.0514 15.80091,-56.07655 39.39905,-93.36699 78.22691,-123.616296 24.93258,-19.424025 47.58979,-30.751682 76.81623,-38.40489 41.64242,-10.90445 71.764,-10.900494 114.94894,0.0151 18.05853,4.564543 33.57894,10.81082 51.31432,20.651738 39.63577,21.992888 70.41072,56.861288 90.99037,103.093248 11.37021,25.54308 16.86082,43.90045 18.28874,61.14686 1.14974,13.88659 3.27222,30.23485 5.7903,44.5995 2.40183,13.70145 2.34255,57.70638 -0.11212,83.26608 -3.7686,39.24056 -11.54751,71.89516 -26.56354,111.50942 -14.56023,38.41179 -28.04202,62.32255 -57.62668,102.20434 -21.98547,29.63765 -39.34547,63.02416 -64.50005,124.04566 -13.17549,31.9619 -26.64415,74.08478 -36.29305,113.50557 -13.21904,54.0067 -16.53857,78.96968 -11.1013,83.48221 1.06537,0.88419 1.7475,3.92636 1.76077,7.85277 0.0125,3.5252 0.61218,11.7532 1.33393,18.28445 0.8251,7.46652 1.27735,53.06037 1.2182,122.8145 -0.0911,107.4627 -0.0112,111.3994 2.53306,125.6133 1.44492,8.0706 3.11775,15.5905 3.71739,16.7109 2.34206,4.3762 3.41133,16.4354 1.80813,20.3921 -0.85668,2.1143 -1.30256,4.5473 -0.99082,5.4067 0.31172,0.8594 -0.102,1.5625 -0.91944,1.5625 -0.81742,0 -3.07445,1.3364 -5.01562,2.9698 -6.26802,5.2742 -36.832,7.7665 -53.74267,4.3824 z m 28.88233,-374.75605 c 2.30207,-2.30208 3.65885,-4.96115 3.66737,-7.1875 0.007,-1.9435 0.81018,-6.1586 1.78384,-9.36688 0.97366,-3.20827 3.5231,-14.92943 5.66543,-26.04701 C 348.50291,770.13634 365.0945,718.9855 379.39134,685 c 5.35045,-12.71875 10.52575,-25.375 11.50065,-28.125 2.13993,-6.03629 6.53802,-15.6725 12.6136,-27.63638 4.41463,-8.6932 4.46572,-8.95813 2.34976,-12.1875 -1.18964,-1.81562 -2.89167,-3.30112 -3.78229,-3.30112 -4.60632,0 -22.44875,6.64109 -32.49431,12.09462 -3.32639,1.80584 -16.99861,3.31179 -27.25653,3.0022 -2.50402,-0.0755 -6.14542,0.46814 -8.09201,1.20823 -2.54061,0.96594 -9.54442,0.9393 -24.82222,-0.0944 -21.68953,-1.46755 -29.80862,-3.42973 -36.28299,-8.76875 -2.86041,-2.35881 -20.011,-8.02014 -23.50018,-7.75731 -3.45128,0.25998 -5.87482,2.7457 -5.87482,6.02556 0,1.59722 3.0869,9.6504 6.85976,17.89597 27.16205,59.36231 48.09701,122.39678 60.03681,180.7689 3.57479,17.47661 4.21998,19.22109 7.8345,21.18286 5.42072,2.94207 10.0189,2.38446 14.11508,-1.71171 z m -1.0619,-232.0526 c 0.57506,-2.0177 1.32182,-15.1998 1.65947,-29.29355 0.33766,-14.09375 0.83117,-28.88489 1.09671,-32.8692 l 0.48278,-7.24421 -7.6991,0.36921 -7.69911,0.3692 0.16579,30.28056 c 0.0911,16.65431 0.54233,32.79165 1.00257,35.86076 0.72554,4.8382 1.28523,5.64727 4.20923,6.08474 5.04117,0.75421 5.64274,0.43864 6.78166,-3.55751 z m -17.18995,-0.0471 c 1.90634,-2.90943 2.08206,-6.77692 1.66124,-36.5625 l -0.47059,-33.30893 -5.98959,-0.38495 C 299.73252,534.60936 300,533.65064 300,569.45429 c 0,20.97623 0.44751,31.92475 1.3271,32.46836 0.72991,0.45111 1.84099,2.17181 2.46906,3.82377 1.63223,4.29307 7.6651,4.15008 10.54814,-0.25001 z m 35.33699,-1.48604 c 2.74412,-3.31039 2.80643,-4.0829 2.8125,-34.8741 0.004,-17.3188 -0.41567,-31.74435 -0.93129,-32.05676 -0.51563,-0.31243 -3.75,-0.76749 -7.1875,-1.01128 l -6.25,-0.44324 -1.01591,32.32239 c -0.9055,28.80911 -0.79165,32.79501 1.04736,36.67044 1.79413,3.78084 2.49738,4.24564 5.39091,3.56299 1.8302,-0.43179 4.59047,-2.30849 6.13393,-4.17044 z m -53.27632,-0.90064 c 0.43958,-2.0541 0.86579,-17.93786 0.94714,-35.29724 L 297.5,536.25 l -7.52041,0 -7.52043,0 0.33293,33.30197 c 0.28146,28.1553 0.62269,33.43735 2.20791,34.17789 1.03125,0.48174 3,1.50145 4.375,2.26601 3.85953,2.14608 6.15473,1.20379 7.02998,-2.88613 z m 67.51695,0.61335 c 3.04767,-0.84652 4.79373,-2.18376 5.29544,-4.05552 0.41168,-1.53592 0.75619,-16.43319 0.76558,-33.10507 L 370,536.25 l -6.875,0 -6.875,0 -0.24405,17.1875 c -0.13424,9.45312 -0.40255,19.15625 -0.59625,21.5625 -1.02355,12.71474 -0.4486,27.95477 1.09147,28.93169 2.04915,1.29982 1.98352,1.30166 7.42075,-0.2086 z M 278.45924,566.97409 278.125,536.875 l -9.49684,-0.36165 -9.49682,-0.36165 -0.81568,11.49119 c -0.44861,6.32015 -0.81566,18.48791 -0.81566,27.03948 0,18.15748 1.20764,20.80768 11.03626,24.21935 5.26533,1.82769 6.0557,1.83742 8.04798,0.0991 2.01605,-1.75908 2.18001,-4.55975 1.875,-32.02674 z m 109.965,26.64825 c 2.78131,-3.3054 3.88161,-3.7781 7.4474,-3.19945 4.84458,0.78616 11.16069,-2.24948 12.09224,-5.81176 0.33032,-1.26317 1.76733,-2.60177 3.19336,-2.97468 2.49398,-0.6522 2.59276,-1.47865 2.59276,-21.69295 0,-24.36497 -0.23164,-24.9435 -9.98705,-24.9435 -10.51144,0 -9.91597,-1.76474 -9.10119,26.97266 0.48099,16.96425 0.2968,25.52734 -0.54907,25.52734 -1.44032,0 -3.11445,-22.79039 -2.8583,-38.91058 0.0915,-5.75543 0.12788,-11.16755 0.081,-12.02692 -0.11288,-2.06607 -14.02769,-2.12015 -16.08534,-0.0625 -1.08063,1.08063 -1.5,9.62314 -1.5,30.55412 0,28.19097 0.0788,29.10929 2.65165,30.91141 3.42796,2.40103 7.62283,0.88563 12.02259,-4.34319 z M 253.92682,563.125 l 0.44818,-27.5 -8.75,0 -8.75,0 -0.34411,21.24365 c -0.31004,19.14049 -0.12438,21.405 1.875,22.87336 1.22051,0.89634 2.21911,2.85711 2.21911,4.35729 0,1.99773 1.50516,3.45301 5.625,5.43861 3.09375,1.49107 5.98582,2.34564 6.42682,1.89905 0.441,-0.44657 1.0035,-13.18696 1.25,-28.31196 z m -20.33945,-4.91874 c 0.16408,-24.85184 0.71149,-23.73655 -10.90147,-22.21035 l -6.68909,0.87909 -0.2595,10.38639 c -0.14272,5.7125 0.1955,10.66757 0.7516,11.01126 0.5561,0.34369 1.01109,1.74907 1.01109,3.12306 0,3.34609 5.78864,13.69601 9.16625,16.38899 1.48981,1.18784 3.62416,2.17221 4.743,2.1875 1.79685,0.0246 2.05104,-2.51548 2.17812,-21.76594 z M 427.59591,573.75 c 0.63475,0 1.15409,-0.80292 1.15409,-1.78427 0,-0.98136 1.26562,-2.80948 2.8125,-4.0625 2.64938,-2.14609 2.80411,-3.14467 2.66793,-17.21628 -0.1678,-17.33926 -0.69595,-18.09102 -11.32922,-16.12639 l -6.02621,1.11343 0.15349,20.22213 c 0.1873,24.67627 0.3906,25.44599 5.57,21.08783 2.11382,-1.77867 4.36266,-3.23395 4.99742,-3.23395 z m 13.20746,-10.95664 C 443.85724,560.82992 452.5,548.05106 452.5,545.4992 c 0,-1.4812 0.84375,-3.39334 1.875,-4.2492 4.38565,-3.63976 0.96411,-6.19831 -8.33526,-6.23294 -8.50013,-0.0316 -8.53974,0.0385 -8.53974,15.11668 0,13.26571 0.33915,14.56543 3.30337,12.65962 z m -228.57206,-14.6081 c 0.31689,-11.99368 0.13263,-13.40052 -1.66472,-12.71081 -1.11159,0.42655 -5.28988,0.77555 -9.28509,0.77555 -8.25871,0 -10.39081,2.14069 -6.25315,6.27835 1.35941,1.35941 2.47165,3.25078 2.47165,4.20305 0,2.48655 11.35956,15.93994 12.99993,15.3961 0.85638,-0.28393 1.50947,-5.543 1.73138,-13.94224 z M 462.5,536.80123 C 462.5,535.81055 461.65625,535 460.625,535 c -1.88279,0 -2.5696,2.63874 -1.07565,4.13269 1.16655,1.16655 2.95065,-0.24315 2.95065,-2.33146 z m -111.54515,-4.99984 c 1.1185,-0.34425 1.42447,-2.59468 1.04775,-7.70631 -0.29268,-3.97104 -0.58173,-11.86071 -0.64236,-17.53258 L 351.25,496.25 l -6.69774,0 -6.69772,0 -0.6547,17.15733 c -0.36009,9.43653 -0.3866,17.85597 -0.0589,18.70987 0.54629,1.42358 8.77374,1.23547 13.81395,-0.31581 z M 191.25,514.375 l 0,-18.125 -10.625,0 -10.625,0 0,3.67623 c 0,2.02192 0.46871,3.96591 1.04159,4.31996 0.57287,0.35406 0.8117,2.21539 0.53072,4.13627 -0.38311,2.61911 1.07143,5.89148 5.81615,13.08507 5.77945,8.76234 7.69773,10.46046 12.29904,10.88747 1.18482,0.11 1.5625,-4.236 1.5625,-17.98 z m 21.25,-0.0548 0,-18.17976 -9.00166,0.36726 -9.00167,0.36726 -0.50723,17.8125 -0.50725,17.8125 9.50891,0 9.5089,0 0,-18.17976 z m 21.25,-0.002 0,-18.18211 -8.4375,0.36961 -8.4375,0.36961 -0.34683,17.8125 -0.34681,17.8125 8.78431,0 8.78433,0 0,-18.18211 z m 20.97182,-0.25539 0.34682,-17.8125 -8.78432,0 -8.78432,0 0,18.18211 0,18.18212 8.4375,-0.36962 8.4375,-0.36961 0.34682,-17.8125 z m 23.38192,0.3125 -0.0213,-17.5 -9.66624,-0.36507 -9.66625,-0.36495 0,18.23016 0,18.23016 9.6875,-0.36509 9.6875,-0.36507 -0.0213,-17.5 z m 19.39626,0 0,-18.125 -7.5,0 -7.5,0 0,18.125 0,18.125 7.5,0 7.5,0 0,-18.125 z m 18.11054,10.3125 c 0.44523,-4.29687 0.63063,-12.3125 0.41198,-17.8125 l -0.39752,-10 -7.1875,-0.37487 -7.1875,-0.37489 0,18.18739 0,18.18737 6.77551,0 6.7755,0 0.80953,-7.8125 z M 333.75,514.375 l 0,-18.125 -6.0801,0 -6.08009,0 -0.79491,5.79946 C 320.35771,505.23917 320,513.39543 320,520.17446 l 0,12.32554 6.875,0 6.875,0 0,-18.125 z m 36.55144,15.02355 c 0.32608,-1.70579 0.31444,-9.86204 -0.0259,-18.125 l -0.61873,-15.02355 -6.70342,0 -6.70341,0 0,18.125 0,18.125 6.72928,0 c 6.17163,0 6.77841,-0.25701 7.32216,-3.10145 z M 390.625,514.375 l 0,-17.5 -7.23152,-0.64347 c -3.97735,-0.3539 -7.77423,-0.10075 -8.4375,0.5625 -1.37627,1.37626 -1.67105,33.57422 -0.31978,34.92551 0.48741,0.4874 4.28429,0.72177 8.4375,0.52082 l 7.5513,-0.36536 0,-17.5 z m 21.86124,4.6875 c -0.007,-7.39063 -0.36242,-15.54688 -0.78855,-18.125 l -0.77479,-4.6875 -7.96145,0 -7.96145,0 0,18.125 0,18.125 8.75,0 8.75,0 -0.0138,-13.4375 z m 21.26376,-4.6875 0,-18.125 -8.75,0 -8.75,0 0,18.125 0,18.125 8.75,0 8.75,0 0,-18.125 z m 22.5,0.64881 c 0,-19.952 0.40647,-19.32181 -11.95784,-18.53917 l -6.16716,0.39036 -0.34683,17.8125 -0.34681,17.8125 9.40931,0 9.40933,0 0,-17.47619 z m 16.38656,6.91369 c 2.1826,-4.15937 4.81944,-8.54688 5.85964,-9.75 1.69782,-1.96376 1.65986,-2.4432 -0.3712,-4.6875 -2.15748,-2.38397 -2.16078,-2.61236 -0.0713,-4.92124 3.40383,-3.76122 1.29539,-5.07876 -8.12752,-5.07876 l -8.67623,0 -0.006,4.0625 c -0.004,2.23437 -0.36226,9.43438 -0.79711,16 L 459.656,529.5 l 4.5062,0 c 4.24109,0 4.73966,-0.44491 8.47457,-7.5625 z M 166.94231,499.89109 c 1.28815,-2.08428 -1.60901,-4.47439 -3.3334,-2.75 -1.4424,1.4424 -0.53965,4.10891 1.39109,4.10891 0.60635,0 1.48039,-0.61151 1.94231,-1.35891 z M 478.4375,493.07856 C 479.56285,492.71838 480,488.72056 480,478.78922 L 480,465 l -9.21875,0 -9.21875,0 -0.78125,3.90625 c -0.91664,4.58317 -1.05659,24.15175 -0.17901,25.02932 0.65676,0.65675 15.30481,-0.0471 17.83526,-0.85701 z M 192.48086,478.90945 c -0.01,-6.61895 -0.44051,-12.69697 -0.95551,-13.50674 -0.5622,-0.88395 -4.92519,-1.58952 -10.91836,-1.7657 l -9.98199,-0.29341 -0.35171,14.52491 -0.3517,14.52492 9.7267,0.36578 c 5.3497,0.20119 10.42983,-0.125 11.28921,-0.72476 1.06874,-0.74594 1.55645,-4.89353 1.54336,-13.125 z m 155.18986,13.60761 3.29573,-0.017 0.52994,-13.4375 c 0.34095,-8.6454 0.0571,-13.76501 -0.79573,-14.35586 -1.61445,-1.11842 -8.50784,-1.23997 -11.22342,-0.1979 -1.61708,0.62046 -1.97724,2.99263 -1.97724,13.0227 0,14.49987 0.59021,16.68955 4.23489,15.71127 1.45206,-0.38975 4.12318,-0.71632 5.93583,-0.72571 z m 42.72288,-13.14206 -7.9e-4,-13.75 -8.3214,-0.36961 -8.32141,-0.36961 0,13.70295 c 0,9.7779 0.44756,13.89151 1.5625,14.36128 0.85937,0.3621 4.60436,0.5496 8.32219,0.41668 l 6.7597,-0.24169 -7.9e-4,-13.75 z m 21.83484,-0.3125 0.35343,-14.0625 -9.41593,0 -9.41594,0 0,13.64584 c 0,9.73262 0.44807,13.8344 1.5625,14.30339 0.85937,0.36166 4.9375,0.54916 9.0625,0.41667 l 7.5,-0.2409 0.35344,-14.0625 z m 43.70906,12.74649 c 1.12654,-0.34645 1.5625,-4.32799 1.5625,-14.26977 l 0,-13.78922 -9.33102,0 c -7.61848,0 -9.54053,0.40147 -10.47257,2.1875 -0.62785,1.20312 -0.85503,7.92506 -0.50486,14.93764 l 0.63669,12.75015 8.27337,-0.66789 c 4.55037,-0.36735 8.97652,-0.88412 9.83589,-1.14841 z M 167.5,490.69877 c 0,-0.99067 -0.5625,-2.14887 -1.25,-2.57377 -0.6977,-0.4312 -1.25,-6.26297 -1.25,-13.19877 l 0,-12.42623 -8.02084,0 c -5.22116,0 -8.19911,0.53484 -8.53159,1.53228 -0.80265,2.40793 9.97675,25.29609 12.12574,25.74687 1.05968,0.22229 1.92669,0.92541 1.92669,1.5625 0,0.6371 1.125,1.15835 2.5,1.15835 1.375,0 2.5,-0.81055 2.5,-1.80123 z m 45.18931,-4.76127 c 0.10413,-3.60938 0.24474,-9.9375 0.3125,-14.0625 l 0.12313,-7.5 -9.0625,-0.36726 -9.0625,-0.36727 0,14.42977 0,14.42976 8.75,0 8.75,0 0.18931,-6.5625 z m 21.06069,-7.01389 0,-13.57639 -7.79969,-0.70725 c -4.28983,-0.38898 -7.89894,-0.60773 -8.02023,-0.48611 -0.23013,0.23075 -0.73389,25.76995 -0.54064,27.40864 0.0607,0.51562 3.76681,0.9375 8.23556,0.9375 l 8.125,0 0,-13.57639 z M 255,478.75 255,465 l -8.75,0 -8.75,0 0,13.75 0,13.75 8.75,0 8.75,0 0,-13.75 z m 22.77496,0 -0.12804,-13.125 -9.02692,0 -9.02693,0 -0.5361,11.61246 c -0.29485,6.38686 -0.21142,12.45854 0.18539,13.49263 0.56874,1.48211 2.62044,1.80233 9.69106,1.51254 l 8.96959,-0.36763 -0.12805,-13.125 z m 19.72504,0 0,-13.75 -7.5,0 -7.5,0 0,13.75 0,13.75 7.5,0 7.5,0 0,-13.75 z m 18.125,0 0,-13.125 -6.875,0 -6.875,0 -0.3623,11.78122 c -0.19926,6.47968 -0.065,12.55618 0.29853,13.50332 0.47284,1.23225 2.53144,1.61447 7.23729,1.34377 l 6.57648,-0.37831 0,-13.125 z m 18.125,0.64881 c 0,-12.75467 -0.0786,-13.12092 -2.97396,-13.8476 -1.63568,-0.41052 -4.5888,-0.56187 -6.5625,-0.33631 l -3.58854,0.4101 -0.35479,13.4375 -0.35479,13.4375 6.91729,0 6.91729,0 0,-13.10119 z m 35.97979,-0.96131 0.35479,-13.4375 -6.91729,0 -6.91729,0 0,13.81532 0,13.81533 6.5625,-0.37783 6.5625,-0.37782 0.35479,-13.4375 z m 64.02021,0.44624 c 0,-11.26314 -0.3417,-13.74739 -1.97724,-14.375 -2.75322,-1.05652 -13.38012,-0.91545 -14.9083,0.1979 -0.76112,0.55452 -1.08747,6.24215 -0.82372,14.35586 l 0.43682,13.4375 8.63622,0 8.63622,0 0,-13.61626 z m 59.17304,6.58243 c 5.49316,-7.56946 9.18437,-17.60876 7.20287,-19.59026 -0.79256,-0.79256 -4.66074,-1.45449 -8.59596,-1.47096 l -7.15495,-0.0299 -0.36029,12.3967 c -0.3479,11.9703 0.28476,14.38674 3.78564,14.45916 0.50895,0.01 2.81416,-2.58358 5.12269,-5.76468 z M 432.1875,460.56058 c 1.11893,-0.34526 1.55765,-4.13058 1.54544,-13.33386 -0.0252,-18.95885 0.13696,-18.65836 -9.83021,-18.2177 l -8.27773,0.36598 -0.35424,14.92723 c -0.19484,8.20997 -0.0863,15.62576 0.24143,16.47952 0.421,1.09711 2.72408,1.36296 7.85424,0.90662 3.99221,-0.35512 7.96169,-0.86262 8.82107,-1.12779 z m 44.20507,0.74502 3.26759,-0.0556 0.88044,-14.29737 c 1.14765,-18.63654 0.73292,-19.4526 -9.88581,-19.4526 -4.592,0 -8.37865,0.60094 -8.87803,1.40894 -1.11964,1.81162 -2.3423,29.0643 -1.41262,31.487 0.51946,1.35372 2.28746,1.7215 6.73266,1.40053 3.31551,-0.2394 7.49861,-0.46028 9.29577,-0.49087 z M 192.0737,444.62321 c -0.42584,-7.44256 -1.09983,-14.05871 -1.49775,-14.70256 -0.39791,-0.64386 -5.20761,-1.17065 -10.6882,-1.17065 l -9.9647,0 0.35097,15.3125 L 170.625,459.375 180,460 c 5.26832,0.35122 10.13565,0.084 11.11146,-0.60994 1.38453,-0.98464 1.57955,-3.97756 0.96224,-14.76685 z m 62.65227,0.68929 0.35098,-15.3125 -9.5969,0 -9.59689,0 0.80841,9.5636 c 0.44464,5.25997 0.80843,11.96872 0.80843,14.90834 0,6.0297 0.48614,6.31405 10.625,6.21445 l 6.25,-0.0614 0.35097,-15.3125 z m 22.77403,0.3125 0,-15.625 -8.75,0 -8.75,0 0,15.625 0,15.625 8.75,0 8.75,0 0,-15.625 z m 19.72597,-0.3125 0.35098,-15.3125 -7.53848,0 -7.53847,0 0,15.68737 0,15.68739 7.1875,-0.37489 7.1875,-0.37487 0.35097,-15.3125 z m 17.94081,13.125 c 0.25202,-1.54688 0.28023,-8.57813 0.0627,-15.625 L 314.834,430 l -6.79198,0 -6.79198,0 0,14.79166 c 0,8.13543 0.375,15.16668 0.83333,15.625 0.45833,0.45834 3.4865,0.83334 6.72928,0.83334 5.14521,0 5.95429,-0.35811 6.35416,-2.8125 z M 333.75,445.625 l 0,-15.625 -6.875,0 -6.875,0 0,15.625 0,15.625 6.875,0 6.875,0 0,-15.625 z m 17.5,0.14579 c 0,-14.785 -0.1205,-15.51072 -2.68586,-16.18158 -1.47721,-0.3863 -4.28972,-0.3816 -6.25,0.01 l -3.56414,0.71329 0,15.46875 0,15.46875 6.25,0 6.25,0 0,-15.47921 z m 18.47485,-0.43623 -0.34985,-15.91542 -6.25,0.12912 -6.25,0.12914 -0.34985,15.7863 -0.34984,15.7863 6.94969,0 6.94969,0 -0.34984,-15.91544 z m 20,-0.0221 -0.34985,-15.9375 -7.5,0 -7.5,0 -0.34985,15.9375 -0.34984,15.9375 8.19969,0 8.19969,0 -0.34984,-15.9375 z m 21.52515,-0.36955 0,-16.30711 -8.4375,0.36961 -8.4375,0.36961 -0.35565,14.29857 c -0.1956,7.86422 -0.0726,15.03609 0.27327,15.9375 0.42995,1.12043 3.21183,1.63893 8.79315,1.63893 l 8.16423,0 0,-16.30711 z m 45.43054,15.36961 c 0.31793,-0.51563 0.7492,-7.96875 0.95837,-16.5625 l 0.3803,-15.625 -8.42894,0.19577 C 436.81888,428.61741 437.5,427.64476 437.5,445.58577 l 0,15.66423 9.30123,0 c 5.11567,0 9.56136,-0.42188 9.87931,-0.9375 z m 42.13251,-1.6803 c 0.93306,-1.74346 2.2139,-2.40522 3.83484,-1.98134 1.60541,0.41983 3.00961,-0.28465 4.12543,-2.0697 2.84532,-4.55182 7.17506,-19.28561 6.75145,-22.97467 l -0.39977,-3.48149 -14.375,0 -14.375,0 -0.35424,14.92723 c -0.19484,8.20997 -0.0719,15.66309 0.27327,16.5625 0.40103,1.04509 2.88144,1.63527 6.87276,1.63527 5.05961,0 6.51122,-0.49698 7.64626,-2.6178 z M 166.25,444.375 l 0,-15.625 -9.0625,-0.2507 c -12.30386,-0.34037 -18.83079,0.14399 -20.18472,1.49792 -1.26138,1.26138 1.70242,11.8189 6.21279,22.131 l 2.84443,6.50323 8.5325,0.43945 c 4.69288,0.2417 9.23562,0.54962 10.095,0.68427 1.17973,0.18485 1.5625,-3.58293 1.5625,-15.38017 z m 48.12071,5.3125 c 0.46483,-5.67188 0.65595,-12.5625 0.42471,-15.3125 l -0.42042,-5 -9.6875,-0.36508 -9.6875,-0.36508 0,15.67758 0,15.67758 9.26279,0 9.26278,0 0.84514,-10.3125 z M 232.5,445 l 0,-15 -7.5,0 -7.5,0 0,15 0,15 7.5,0 7.5,0 0,-15 z m -42.60709,-19.13478 c 1.41289,-0.19198 1.75166,-3.12696 1.68697,-14.61522 l -0.081,-14.375 -6.06195,-0.73666 c -3.33409,-0.40517 -8.03072,-0.68642 -10.43697,-0.625 l -4.375,0.11162 -0.35468,14.19609 c -0.20532,8.21759 0.17356,14.8326 0.89967,15.7075 1.08405,1.3062 10.35998,1.47297 18.72293,0.33664 z M 166.7852,410.625 l 0.0898,-15 -18.37583,-0.34556 c -22.71746,-0.42722 -22.4387,-0.66385 -18.21032,15.45861 1.73532,6.61665 3.56391,11.04197 4.71115,11.40132 1.03125,0.32303 3,1.09339 4.375,1.71193 2.05139,0.92281 18.53924,2.11255 25.5352,1.84259 1.43871,-0.0555 1.80262,-2.98017 1.875,-15.06889 z m 65.7148,1.25 0,-14.375 -7.5,0 -7.5,0 0,13.54166 c 0,7.44793 0.375,13.91668 0.83334,14.375 0.45832,0.45834 3.83332,0.83334 7.5,0.83334 l 6.66666,0 0,-14.375 z m 20.52276,13.61626 c 1.64289,-0.63043 1.97724,-3.16693 1.97724,-15 l 0,-14.24126 -6.5625,0.017 c -12.51719,0.0325 -12.1875,-0.37105 -12.1875,14.92039 0,7.36773 0.375,13.77088 0.83334,14.22921 1.04186,1.04188 13.26962,1.0991 15.93942,0.0746 z M 315,411.875 l 0,-14.375 -6.875,0 -6.875,0 0,13.54166 c 0,7.44793 0.375,13.91668 0.83334,14.375 0.45832,0.45834 3.55207,0.83334 6.875,0.83334 l 6.04166,0 0,-14.375 z m -101.25,-0.4551 0,-13.58009 -5.79946,-0.79491 c -3.18972,-0.43719 -7.40847,-0.7949 -9.375,-0.7949 l -3.57554,0 0,14.375 0,14.375 9.375,0 9.375,0 0,-13.5801 z m 63.75,-0.0196 0,-13.59977 -7.8125,-0.60332 c -4.29688,-0.33183 -8.23438,-0.36624 -8.75,-0.0765 C 260.42187,397.41045 260,403.80185 260,411.32377 L 260,425 l 8.75,0 8.75,0 0,-13.59976 z m 20,-0.15028 0,-13.75 -7.5,0 -7.5,0 0,13.75 0,13.75 7.5,0 7.5,0 0,-13.75 z m 36.25,0 0,-13.75 -6.11626,0 C 320.14041,397.5 320,397.78929 320,413.22724 L 320,425 l 6.875,0 6.875,0 0,-13.75 z m 17.5,0 0,-13.75 -6.25,0 -6.25,0 0,12.91666 c 0,7.10418 0.375,13.29168 0.83334,13.75 0.45832,0.45834 3.27082,0.83334 6.25,0.83334 l 5.41666,0 0,-13.75 z m 18.75,0 0,-13.75 -6.875,0 -6.875,0 0,13.75 0,13.75 6.875,0 6.875,0 0,-13.75 z m 19.72979,-0.3125 0.35479,-13.4375 -8.16729,0 -8.16729,0 0,13.80965 0,13.80964 7.8125,-0.37214 7.8125,-0.37215 0.35479,-13.4375 z m 21.08065,12.15499 c 0.4026,-1.04913 0.33054,-7.26206 -0.16011,-13.80652 l -0.89212,-11.89898 -7.6916,0.369 -7.69161,0.36901 -0.3623,11.78122 c -0.19926,6.47968 -0.0763,12.52655 0.27326,13.4375 0.95969,2.5009 15.55354,2.27902 16.52448,-0.25123 z m 21.37706,-0.0326 c 1.12115,-0.34541 1.5625,-4.21526 1.5625,-13.70037 l 0,-13.219 -9.0625,0.36726 -9.0625,0.36726 -0.36046,12.41103 c -0.19825,6.82606 -0.0727,13.16087 0.27897,14.07736 0.47844,1.2468 2.45748,1.47895 7.86047,0.92209 3.97156,-0.40933 7.92415,-0.96087 8.78352,-1.22563 z M 457.5,410.625 l 0,-14.375 -9.21875,0 -9.21875,0 -0.78125,3.90625 c -0.42969,2.14844 -0.78125,8.29858 -0.78125,13.66697 0,11.08063 -0.60135,10.58883 13.4375,10.98949 L 457.5,425 l 0,-14.375 z m 22.5,0 0,-14.375 -8.67623,0 c -4.77192,0 -8.96457,0.46655 -9.317,1.03679 -0.35242,0.57022 -0.30087,7.03897 0.11463,14.375 L 462.87667,425 l 8.56167,0 8.56166,0 0,-14.375 z m 34.34615,12.9107 c 1.83829,-0.83758 3.49984,-2.84383 3.88211,-4.6875 0.36758,-1.77276 1.78523,-6.82644 3.15033,-11.2304 1.7948,-5.7902 2.10396,-8.38591 1.11661,-9.375 -0.86494,-0.86646 -8.10125,-1.3678 -19.7428,-1.3678 l -18.3774,0 -0.35344,14.0625 -0.35344,14.0625 13.73213,0 c 7.83224,0 15.11289,-0.62913 16.9459,-1.4643 z M 191,392.25 c 1.88556,-1.88556 2.03004,-21.21996 0.17245,-23.07755 -1.7052,-1.7052 -18.95979,-0.58286 -20.21581,1.31494 -1.5439,2.33278 -1.09982,20.11943 0.54336,21.76261 1.97566,1.97566 17.52434,1.97566 19.5,0 z m 22.48151,-12.0418 -0.35651,-12.0832 -9.375,0 -9.375,0 -0.0825,10.625 c -0.0454,5.84375 0.3195,11.46875 0.81086,12.5 0.70036,1.46993 2.8206,1.78495 9.81403,1.4582 l 8.92065,-0.4168 -0.3565,-12.0832 z m 175.89349,0.4168 0,-12.5 -6.875,0.43916 c -3.78125,0.24155 -6.93725,0.5228 -7.01333,0.625 -0.0761,0.10225 -0.48912,5.351 -0.91787,11.66398 -0.87945,12.94881 -0.9883,12.8107 9.8062,12.44244 l 5,-0.17058 0,-12.5 z m 20.94181,12.1875 c 0.25539,-0.51563 0.23261,-6.14063 -0.0506,-12.5 l -0.51494,-11.5625 -8.00063,0 -8.00062,0 0,12.5 0,12.5 8.05122,0 c 4.42818,0 8.26019,-0.42188 8.51559,-0.9375 z m -243.0824,-12.5 0.3594,-11.5625 -21.84814,0 c -12.43097,0 -22.16406,0.5112 -22.58111,1.18599 -1.00741,1.63002 1.68297,17.8941 3.21556,19.43901 1.1629,1.17224 24.42637,2.89036 35.49488,2.62146 l 5,-0.1215 0.35941,-11.5625 z m 65.26559,0.43314 0,-11.75435 -6.5625,-0.51991 c -3.60938,-0.28596 -6.98438,-0.30704 -7.5,-0.0469 -0.51563,0.26018 -0.9375,5.7836 -0.9375,12.27427 l 0,11.80123 7.5,0 7.5,0 0,-11.75436 z m 23.14714,2.57219 c 1.33292,-14.22429 1.52297,-13.94283 -9.41427,-13.94283 l -9.35787,0 -0.35941,11.5625 -0.3594,11.5625 9.31525,0 9.31526,0 0.86044,-9.18217 z m 22.46932,0.74467 C 279.7066,367.6092 280.6824,369.375 270,369.375 l -9.375,0 -0.35941,11.5625 -0.3594,11.5625 8.69741,0 8.69741,0 0.81545,-8.4375 z m 19.38354,-3.38086 0,-11.81835 -4.36679,-0.81922 c -2.40172,-0.45057 -5.77672,-0.46535 -7.5,-0.0329 -3.06867,0.77024 -3.13321,1.03055 -3.13321,12.63761 l 0,11.85119 7.5,0 7.5,0 0,-11.81836 z M 315,381.25 315,370 l -4.375,-0.20834 c -2.40625,-0.11462 -5.32103,-0.2552 -6.47727,-0.3125 -1.82562,-0.0905 -2.08732,1.3352 -1.98864,10.83334 0.0625,6.01562 0.16477,11.21875 0.22727,11.5625 0.0625,0.34375 2.92614,0.625 6.36364,0.625 l 6.25,0 0,-11.25 z m 18.75,0.0238 c 0,-10.78007 -0.11812,-11.25585 -2.97396,-11.9726 -1.63568,-0.41053 -4.5888,-0.56187 -6.5625,-0.33631 l -3.58854,0.41016 -0.24185,11.5625 -0.24185,11.5625 6.80435,0 6.80435,0 0,-11.22619 z m 17.5,0.122 c 0,-12.1752 -0.29421,-12.58519 -9.0625,-12.62873 l -3.4375,-0.017 0,11.875 0,11.875 6.25,0 6.25,0 0,-11.10421 z m 18.48441,-0.45825 -0.35941,-11.5625 -6.25,0 -6.25,0 -0.35941,11.5625 -0.3594,11.5625 6.96881,0 6.96881,0 -0.3594,-11.5625 z m 64.01559,-0.3125 0,-11.875 -9.375,0 -9.375,0 0,11.18151 0,11.18151 5.9375,0.46818 c 3.26562,0.2575 7.48437,0.56957 9.375,0.69349 l 3.4375,0.22531 0,-11.875 z m 23.48441,0.3125 -0.35941,-11.5625 -9.0625,-0.36726 -9.0625,-0.36727 0,11.92977 0,11.92976 9.42191,0 9.4219,0 -0.3594,-11.5625 z m 23.20095,3.125 c 0.43828,-4.64063 0.80087,-9.98438 0.80575,-11.875 l 0.009,-3.4375 -10,0 -10,0 0,11.04166 c 0,6.07293 0.375,11.41668 0.83334,11.875 0.45832,0.45834 4.59573,0.83334 9.19424,0.83334 l 8.36091,0 0.79687,-8.4375 z M 519.375,391.25 c 0.4249,-0.6875 1.82446,-1.25 3.11015,-1.25 1.84512,0 2.64164,-1.51424 3.78075,-7.1875 0.79374,-3.95313 1.72674,-8.40691 2.07336,-9.89729 1.08271,-4.65553 -2.8545,-5.51116 -23.63064,-5.13538 l -19.08362,0.34517 -0.35776,12.1875 -0.35776,12.1875 16.84648,0 c 9.88264,0 17.16584,-0.51671 17.61904,-1.25 z M 167.83015,364.6875 c 1.00316,-2.91088 -0.67262,-24.05688 -1.97294,-24.8955 -0.71036,-0.45815 -10.45557,-0.89954 -21.65601,-0.98088 -25.33759,-0.184 -25.68501,0.005 -23.93746,13.0487 1.73577,12.95534 2.51603,13.35332 24.25136,12.36948 12.52277,-0.56683 17.89282,-0.38955 18.51127,0.61112 1.16672,1.88779 4.13303,1.79337 4.80378,-0.15292 z m 22.60762,0.61543 c 0.32194,-0.52089 0.75735,-6.28652 0.9676,-12.8125 l 0.38228,-11.86543 -9.20546,-1.13256 C 170.7918,338.04186 170,338.91089 170,353.3018 c 0,8.51365 0.38357,10.54739 2.1875,11.59807 2.53819,1.47837 17.38309,1.8062 18.25028,0.40305 z M 232.5,353.125 l 0,-11.875 -7.5,0 -7.5,0 0,11.16697 0,11.16698 3.4375,0.52074 c 1.89062,0.2864 5.26562,0.60501 7.5,0.70802 L 232.5,365 l 0,-11.875 z m 23.75,0 0,-11.875 -9.19693,0 -9.19693,0 -0.80307,7.68336 c -0.44168,4.22585 -0.80307,9.5696 -0.80307,11.875 l 0,4.19164 10,0 10,0 0,-11.875 z m 22.7662,0.3125 c 0.28323,-6.35938 0.306,-11.98438 0.0506,-12.5 -0.80359,-1.62244 -16.16171,-1.0713 -17.41663,0.625 -0.63576,0.85937 -1.31114,6.48437 -1.50083,12.5 l -0.3449,10.9375 9.3484,0 9.3484,0 0.51495,-11.5625 z m 18.4838,-0.3125 0,-11.875 -6.68934,0 -6.68934,0 -0.76361,10.8205 c -0.41999,5.95126 -0.47034,11.29501 -0.11187,11.875 0.35844,0.57998 3.71227,1.0545 7.45295,1.0545 l 6.80122,0 0,-11.875 z m 17.5,0 0,-11.875 -6.25,0 -6.25,0 0,11.875 0,11.875 6.25,0 6.25,0 0,-11.875 z m 18.125,0 0,-11.19945 -6.5625,-0.23719 -6.5625,-0.23719 0,11.67383 0,11.67383 6.5625,-0.23719 6.5625,-0.23719 0,-11.19945 z M 370,358.92446 c 0,-3.34154 0.35771,-8.68529 0.7949,-11.875 l 0.79491,-5.79946 -7.66991,0 -7.6699,0 0,11.15835 c 0,12.33914 -0.12874,12.16232 9.0625,12.44665 L 370,365 l 0,-6.07554 z m 14.20054,5.28064 5.79946,-0.79491 0,-11.08009 0,-11.0801 -7.5,0 -7.5,0 0,11.875 c 0,13.10895 -0.57239,12.41962 9.20054,11.0801 z m 73.03387,-11.3926 0.3594,-11.5625 -7.2344,0.017 c -11.86957,0.028 -12.86162,0.59304 -12.84565,7.31622 0.022,9.27023 1.33462,15.00236 3.53229,15.42558 1.094,0.21069 5.10306,0.37926 8.90903,0.3746 l 6.91992,-0.008 0.35941,-11.5625 z m 18.21613,11.3926 5.79946,-0.79491 0,-11.08009 0,-11.0801 -10,0 -10,0 0,11.04166 c 0,6.07293 0.375,11.41668 0.83334,11.875 1.04856,1.04858 5.89577,1.0625 13.3672,0.0385 z M 213.75,352.5 l 0,-11.25 -9.375,0 -9.375,0 0,11.25 0,11.25 9.375,0 9.375,0 0,-11.25 z m 137.5,0 0,-11.25 -6.17623,0 c -3.39692,0 -6.52866,0.57024 -6.95941,1.2672 -0.43074,0.69696 -0.3913,5.75946 0.0876,11.25 l 0.87081,9.9828 6.0886,0 6.08859,0 0,-11.25 z m 60,0 0,-11.25 -7.94425,0 -7.94424,0 -0.79687,8.4375 C 393.13283,364.84805 392.5132,363.75 402.5,363.75 l 8.75,0 0,-11.25 z m 22.5,0.625 0,-10.625 -4.0625,-0.0138 c -2.23438,-0.007 -6.09393,-0.34976 -8.57678,-0.76044 l -4.51428,-0.74669 -0.88263,10.11824 c -0.48543,5.56504 -0.53019,10.68849 -0.0995,11.38545 0.43075,0.69696 4.68749,1.2672 9.45941,1.2672 l 8.67623,0 0,-10.625 z m 95.02461,8.60367 c 1.70886,-1.71289 3.28116,-20.47043 1.71831,-20.49937 -0.61486,-0.0113 -10.75158,-0.21762 -22.52605,-0.45829 l -21.40813,-0.43758 -0.7685,6.39578 c -0.42268,3.51769 -0.7734,8.82345 -0.77938,11.7906 l -0.0112,5.39481 21.19079,-0.39481 c 13.43179,-0.25025 21.70085,-0.90607 22.58382,-1.79114 z M 190.625,326.14584 l 0,-10.52084 -9.6875,-0.36508 -9.6875,-0.36508 0,10.62047 0,10.62047 8.4375,0.4244 c 4.64062,0.23341 9,0.35286 9.6875,0.26545 0.72174,-0.0918 1.25,-4.60521 1.25,-10.67979 z m 23.125,0.10416 0,-11.25 -9.375,0 -9.375,0 0,11.25 0,11.25 9.375,0 9.375,0 0,-11.25 z m 19.02492,0.9375 c 0.29681,-5.67188 0.32317,-10.73438 0.0586,-11.25 C 232.56896,315.42187 229.01069,315 224.92626,315 l -7.42626,0 0,10.41666 c 0,5.72918 0.375,10.79168 0.83334,11.25 0.45832,0.45834 3.77377,0.83334 7.36763,0.83334 l 6.53432,0 0.53963,-10.3125 z M 256.25,326.25 l 0,-11.25 -9.375,0 -9.375,0 0,11.25 0,11.25 9.375,0 9.375,0 0,-11.25 z m 21.80642,9.82582 c 0.22902,-0.24795 0.61939,-5.23207 0.86749,-11.07582 l 0.45109,-10.625 -9.375,0 c -8.13492,0 -9.36123,0.28935 -9.27084,2.1875 0.0573,1.20312 0.19793,6.48326 0.3125,11.73364 l 0.20834,9.54613 8.19501,-0.65781 c 4.50726,-0.3618 8.38239,-0.86069 8.61141,-1.10864 z M 314.73616,325.83663 315.09734,315 l -6.29868,0 -6.29866,0 0,10.54954 0,10.54955 4.6875,0.47925 c 2.57812,0.26358 5.25,0.39277 5.9375,0.28707 0.68965,-0.106 1.4119,-5.04998 1.61116,-11.02878 z m 18.74825,-0.52413 0.3594,-11.5625 -6.9219,0 -6.92191,0 0,11.04166 c 0,6.07293 0.40094,11.4426 0.89096,11.93263 0.49003,0.49003 3.44315,0.72441 6.5625,0.52084 l 5.67154,-0.37013 0.35941,-11.5625 z m 17.50088,-0.067 0.3603,-11.62948 -6.6103,0.37948 -6.61029,0.3795 -0.36871,9.88951 c -0.48885,13.11145 -0.3058,13.45519 6.91846,12.992 l 5.95025,-0.38151 0.36029,-11.62949 z m 20.00176,0.63105 0.36206,-10.99843 -7.86206,0.37343 -7.86205,0.37345 0.0657,9.77375 c 0.0755,11.22419 0.7056,12.02239 9.23153,11.69514 l 5.70272,-0.21889 0.36205,-10.99844 z m 19.50536,1.43127 c 1.53366,-13.13096 1.16655,-13.76837 -7.66479,-13.30816 l -7.20262,0.37534 -0.3597,10.83675 c -0.40315,12.14602 -0.3387,12.22992 9.1097,11.85935 l 5,-0.1961 1.11741,-9.56716 z m 20.492,-1.37032 -0.35941,-11.5625 -7.5,0 -7.5,0 -0.35941,11.5625 -0.3594,11.5625 8.21881,0 8.21881,0 -0.3594,-11.5625 z m 21.95233,5.625 c -0.0815,-2.92188 -0.21318,-8.125 -0.29252,-11.5625 l -0.14422,-6.25 -8.75,0 -8.75,0 0,9.89776 c 0,14.06025 -0.0222,14.02946 9.82181,13.59334 l 8.26321,-0.3661 -0.14828,-5.3125 z M 457.5,325.625 l 0,-11.875 -10,0 -10,0 0,11.875 0,11.875 10,0 10,0 0,-11.875 z m 16.35224,10.625 7.39776,0 0,-11.10438 0,-11.10438 -8.26095,-0.88467 c -4.54353,-0.48657 -8.69065,-0.41147 -9.21585,0.16688 -1.22504,1.34902 -2.64295,22.39014 -1.58043,23.45266 0.4409,0.4409 1.58015,0.50289 2.53167,0.13776 0.95152,-0.36513 5.05902,-0.66387 9.1278,-0.66387 z M 167.27882,325.94866 c 0.42118,-9.20716 0.3009,-9.7252 -2.48058,-10.68407 -1.60779,-0.55427 -6.57949,-0.93715 -11.04824,-0.85088 -4.46875,0.0863 -14.5258,0.25349 -22.34901,0.37159 L 117.17697,315 l 0.85932,9.0625 c 0.5888,6.20961 1.51379,9.5631 2.93833,10.65271 1.54185,1.17935 7.73512,1.50232 23.97029,1.25 l 21.89129,-0.34021 0.44262,-9.67634 z m 130.43849,0.19027 c 0.26886,-6.66819 -0.0913,-10.52357 -1.0577,-11.32245 -0.80595,-0.66627 -4.18095,-1.03815 -7.5,-0.82643 -4.81676,0.30726 -6.01359,0.82641 -5.93045,2.57245 0.0573,1.20313 0.19793,6.125 0.3125,10.9375 l 0.20834,8.75 6.77981,0 6.77983,0 0.40767,-10.11107 z m 231.70167,8.09231 C 532.10444,332.47165 532.5,331.2865 532.5,325 c 0,-10.7291 -1.2134,-11.25 -26.20602,-11.25 l -20.04398,0 0,11.25 0,11.25 20.04398,0 c 16.34611,0 20.6124,-0.37244 23.125,-2.01876 z m -362.18524,-34.37758 0.35875,-10.77135 -20.35875,-0.6133 c -19.01051,-0.57268 -20.67184,-0.43882 -25.08671,2.02134 -3.62039,2.01746 -4.57607,3.2203 -4.07956,5.13465 0.35661,1.375 0.65607,4.90875 0.66546,7.85278 0.0139,4.36965 0.53364,5.56317 2.82957,6.49826 1.54688,0.63001 12.375,1.03376 24.0625,0.89722 l 21.25,-0.24826 0.35874,-10.77134 z M 190.625,300 l 0,-10.625 -9.6875,-0.36508 -9.6875,-0.36508 0,11.35516 0,11.35516 9.6875,-0.36509 9.6875,-0.36507 0,-10.625 z m 22.5,0 0,-10.625 -9.0625,-0.36726 L 195,288.64047 195,300 l 0,11.35952 9.0625,-0.36726 9.0625,-0.36726 0,-10.625 z m 19.68926,0.73093 c -0.17091,-5.44174 -0.45216,-10.03397 -0.625,-10.20494 -0.17285,-0.17098 -3.40801,-0.476 -7.18926,-0.67781 l -6.875,-0.36696 -0.37121,9.2049 c -0.20416,5.0627 -0.0861,9.94787 0.26234,10.85592 0.44262,1.15342 2.81476,1.5654 7.87121,1.36697 l 7.23766,-0.28401 -0.31074,-9.89407 z M 255.98805,300.3125 256.3511,290 l -9.42555,0 -9.42555,0 0,9.89584 c 0,6.76071 0.49501,10.08747 1.5625,10.50073 0.85937,0.33271 4.9375,0.5202 9.0625,0.41667 l 7.5,-0.18824 0.36305,-10.3125 z m 23.25321,8.96026 c 1.36793,-3.56475 0.79414,-16.24652 -0.83592,-18.47577 -1.28984,-1.76397 -3.14165,-2.1083 -9.6875,-1.80141 l -8.09284,0.37942 -0.37121,9.25802 c -0.20417,5.0919 -0.0812,10.01378 0.27327,10.9375 0.99819,2.60123 17.70375,2.33544 18.7142,-0.29776 z m 18.90348,-5.90134 c 1.43101,-13.3626 1.14359,-13.93575 -7.20724,-14.3713 l -7.1875,-0.37488 0,11.31238 0,11.31238 6.77551,0 6.7755,0 0.84373,-7.87858 z m 12.16776,7.07627 4.6875,-0.77479 0,-9.83645 0,-9.83645 -6.25,0 -6.25,0 0,10.625 c 0,11.51596 -0.28254,11.16071 7.8125,9.82269 z m 23.17757,-10.76019 0.36509,-9.6875 -6.92759,0 -6.92757,0 0,10.06532 0,10.06533 6.5625,-0.37783 6.5625,-0.37782 0.36507,-9.6875 z m 17.75993,-1.12346 0,-9.94469 -6.5625,0.37782 -6.5625,0.37783 -0.37391,8.62599 c -0.20565,4.74428 -0.13668,9.24428 0.15329,10 0.31987,0.83368 3.04756,1.20368 6.93641,0.94087 l 6.40921,-0.43315 0,-9.94467 z m 20,0.75131 0,-10.68464 -7.8125,0.37214 -7.8125,0.37215 -0.36305,10.3125 -0.36305,10.3125 8.17555,0 8.17555,0 0,-10.68465 z m 20,0.85952 0,-9.82511 -7.1025,-0.73305 c -3.90639,-0.40317 -7.56264,-0.44867 -8.125,-0.10112 -0.56238,0.34756 -1.0225,5.09873 -1.0225,10.55816 l 0,9.92622 8.125,0 8.125,0 0,-9.82512 z m 19.74007,-0.48737 0.36509,-9.6875 -8.17759,0 -8.17757,0 0,9.16666 c 0,5.04168 0.39954,9.56621 0.88787,10.05454 0.48833,0.48834 4.00396,0.72271 7.8125,0.52084 l 6.92463,-0.36704 0.36507,-9.6875 z m 16.19743,9.07956 5.3125,-0.0171 0,-9.375 0,-9.375 -8.75,0 -8.75,0 0,9.16666 c 0,10.01641 0.54871,11.3174 4.34321,10.29779 1.39249,-0.37418 4.92241,-0.688 7.84429,-0.69739 z m 105.70997,-2.9999 c 0.32887,-0.85697 -0.09,-4.61455 -0.93069,-8.35015 l -1.52862,-6.79201 -22.09409,-0.34134 -22.09407,-0.34135 0,9.3721 0,9.3721 19.6875,0.34425 c 19.80144,0.34623 25.85601,-0.3867 26.95997,-3.2636 z M 457.5,299.375 l 0,-9.375 -9.79166,0 c -5.38543,0 -10.02605,0.23199 -10.3125,0.51553 -0.28647,0.28355 -0.33405,4.5023 -0.10575,9.375 l 0.41507,8.85947 9.89743,0 9.89742,0 0,-9.375 z m 23.75,0 0,-9.375 -10,0 -10,0 0,5.46875 c 0,3.00781 0.35156,7.22656 0.78125,9.375 l 0.78125,3.90625 9.21875,0 9.21875,0 0,-9.375 z M 278.97594,275.30922 c 0.21948,-5.81258 0.0675,-11.10028 -0.33784,-11.75046 -0.40529,-0.65017 -4.62404,-1.01375 -9.375,-0.80795 l -8.6381,0.37419 -0.36871,9.88951 c -0.2028,5.43923 -0.12875,10.50173 0.16455,11.25 0.30723,0.78383 4.26814,1.41402 9.34465,1.48677 l 8.81139,0.12627 0.39906,-10.56832 z m 19.14906,-0.93422 0,-11.25 -7.05683,-0.37098 -7.05682,-0.37098 -0.52921,10.99598 c -0.29108,6.04779 -0.31534,11.42 -0.054,11.93827 0.2614,0.51826 3.67512,0.79951 7.58603,0.625 l 7.11083,-0.31729 0,-11.25 z m 16.875,0 0,-11.875 -6.25,0 -6.25,0 0,11.875 0,11.875 6.25,0 6.25,0 0,-11.875 z m 18.48436,-0.4363 -0.35936,-10.8137 -6.5625,-0.37782 -6.5625,-0.37783 0,11.10699 c 0,6.10885 0.2341,11.34137 0.52022,11.62782 0.28612,0.28647 3.40095,0.3245 6.92187,0.0845 l 6.40163,-0.4363 -0.35936,-10.8137 z M 348.28125,285 c 2.9026,0 2.96875,-0.24785 2.96875,-11.12414 l 0,-11.12412 -5.9375,-0.53934 c -3.26563,-0.29664 -6.35938,-0.32009 -6.875,-0.0521 -0.51563,0.26798 -0.9375,5.86811 -0.9375,12.44472 l 0,11.95747 3.90625,-0.78125 c 2.14844,-0.42968 5.24219,-0.78125 6.875,-0.78125 z m 84.23251,-5.9375 c 0.007,-3.95313 0.36667,-9.32309 0.798,-11.93325 l 0.78425,-4.74576 -9.2355,0.37076 -9.23551,0.37075 -0.36871,9.88951 c -0.2028,5.43923 -0.0799,10.64235 0.27326,11.5625 0.44553,1.16103 3.14039,1.67299 8.80623,1.67299 l 8.16422,0 0.0138,-7.1875 z m 24.72065,-5 0.3594,-11.5625 -10.0469,0 -10.04691,0 0,11.92757 0,11.92759 9.6875,-0.36509 9.6875,-0.36507 0.35941,-11.5625 z m 24.52137,0.73594 c 0.99762,-13.21532 0.80997,-13.5091 -8.63078,-13.51223 -11.979,-0.004 -11.875,-0.11987 -11.875,13.23458 l 0,11.72921 9.82065,0 9.82065,0 0.86447,-11.45156 z M 526.25,285 c 0,-0.6875 1.0918,-1.25 2.42623,-1.25 3.48714,0 3.65722,-0.89339 2.02276,-10.625 -1.01627,-6.05083 -2.02554,-8.76783 -3.2718,-8.80779 -0.9912,-0.0317 -3.06058,-0.75084 -4.59862,-1.59787 -1.93063,-1.06328 -8.12276,-1.43239 -20,-1.19222 l -17.20357,0.34788 -0.36641,10.52051 c -0.20153,5.78629 -0.0785,11.27066 0.27326,12.1875 0.49633,1.29339 5.13075,1.66699 20.67892,1.66699 12.52615,0 20.03923,-0.46865 20.03923,-1.25 z m -359.375,-10.625 0,-10 -21.77761,0.27761 c -11.9777,0.1527 -22.17271,0.7152 -22.65558,1.25 -0.48288,0.53482 -1.24133,4.72864 -1.68544,9.3196 -0.96833,10.00983 -3.35548,9.15279 25.49363,9.15279 l 20.625,0 0,-10 z m 23.33334,9.40377 c 0.22916,-0.67166 0.2316,-5.45291 0.005,-10.625 l -0.41085,-9.40377 -9.27624,0 -9.27625,0 0,10.625 0,10.625 9.27084,0 c 5.09895,0 9.45832,-0.54955 9.6875,-1.22123 z m 23.54166,-9.33 c 0,-5.80317 -0.42188,-10.74967 -0.9375,-10.99222 -0.51563,-0.24255 -4.73438,-0.22775 -9.375,0.0329 L 195,263.9633 l 0,10.51835 0,10.51834 9.375,0 9.375,0 0,-10.55123 z m 18.75,-0.76115 0,-11.31238 -7.1875,0.37488 -7.1875,0.37488 -0.36116,10.9375 -0.36118,10.9375 7.54868,0 7.54866,0 0,-11.31238 z m 23.75,0.0624 0,-11.25 -9.375,0 -9.375,0 0,11.25 0,11.25 9.375,0 9.375,0 0,-11.25 z m 115,-0.0596 0,-11.30964 -7.8125,0.37214 -7.8125,0.37214 -0.37121,9.25803 c -0.20416,5.0919 -0.0812,10.01378 0.27327,10.9375 0.44095,1.1491 3.02537,1.67947 8.18371,1.67947 l 7.53923,0 0,-11.30964 z m 19.73616,0.37212 -0.36116,-10.9375 -7.8125,-0.37215 -7.8125,-0.37214 0,10.47632 c 0,5.76196 0.375,10.85131 0.83334,11.30963 0.45832,0.4583 4.13647,0.8333 8.17366,0.8333 l 7.34034,0 -0.36118,-10.9375 z M 411.25,273.75 l 0,-11.25 -8.125,0 -8.125,0 0,11.25 0,11.25 8.125,0 8.125,0 0,-11.25 z M 149.47724,260 167.5,260 l 0,-11.68056 0,-11.68056 -17.64321,-0.80258 c -21.88359,-0.99549 -23.43576,-0.29455 -25.91362,11.70208 -1.53815,7.44693 -1.48908,7.87662 1.22989,10.77083 1.55757,1.65796 3.60808,2.71664 4.55668,2.35263 C 130.67834,260.29782 139.56471,260 149.47724,260 Z M 190,248.125 l 0,-11.875 -9.375,0 -9.375,0 0,11.875 0,11.875 9.375,0 9.375,0 0,-11.875 z m 17.23355,11.05956 6.60855,-0.7937 -0.35855,-10.75792 -0.35855,-10.75794 -8.62609,-0.37391 c -4.74435,-0.20565 -9.08556,0.0855 -9.64715,0.64715 -0.56157,0.56157 -0.67441,5.93296 -0.25073,11.9364 0.86755,12.29327 0.019,11.61485 12.63252,10.09992 z M 315,250.65539 c 0,-4.31359 0.35156,-9.6007 0.78125,-11.74914 L 316.5625,235 l -6.84559,0 -6.84559,0 -0.76657,10.86254 c -0.42162,5.9744 -0.26564,11.46615 0.34664,12.20389 0.61226,0.73773 3.68617,1.13669 6.83091,0.88658 l 5.7177,-0.45475 0,-7.84287 z m 32.1875,8.11167 4.0625,-0.0171 0,-11.25 0,-11.25 -6.71875,0 c -6.525,0 -6.74127,0.11262 -7.5,3.90625 -0.99299,4.96492 -0.97684,13.36084 0.033,17.13202 0.5966,2.22808 1.40107,2.74659 3.42043,2.20457 1.4522,-0.38979 4.46848,-0.71639 6.70286,-0.72578 z M 232.97982,248.68653 c 0.46159,-5.53492 0.50927,-10.59742 0.106,-11.25 -0.40337,-0.65259 -4.07517,-1.18653 -8.1596,-1.18653 l -7.42622,0 0,11.25 0,11.25 7.32027,0 7.32029,0 0.83927,-10.06348 z m 23.27018,-1.24129 0,-11.30477 -9.0625,0.36727 -9.0625,0.36726 -0.36116,10.9375 -0.36118,10.9375 9.42368,0 9.42366,0 0,-11.30476 z m 23.50114,1.95591 C 280.34846,235.54741 280.0283,235 271.32842,235 c -10.98371,0 -10.74422,-0.2805 -10.41736,12.20129 0.15733,6.00803 0.29795,11.08897 0.3125,11.29097 0.0145,0.20199 4.10456,0.20199 9.08894,0 l 9.0625,-0.36726 0.37614,-8.72385 z m 18.73327,-2.83865 0.3594,-11.5625 -5.56967,0 c -9.43024,0 -9.52414,0.12516 -9.52414,12.69611 l 0,11.17865 7.1875,-0.37489 7.1875,-0.37487 0.35941,-11.5625 z M 333.75,247.5 l 0,-11.25 -6.77568,0 c -6.38936,0 -6.81542,0.196 -7.47267,3.4375 -0.52256,2.5772 -0.25791,13.45411 0.45621,18.75 0.0231,0.17187 3.13589,0.3125 6.91714,0.3125 l 6.875,0 0,-11.25 z m 37.5,-0.0596 0,-11.30964 -7.8125,0.37214 -7.8125,0.37214 -0.37121,9.25803 c -0.20416,5.0919 -0.0812,10.01378 0.27327,10.9375 0.44095,1.1491 3.02537,1.67947 8.18371,1.67947 l 7.53923,0 0,-11.30964 z m 19.7365,0.46821 0.3615,-10.21643 -6.82944,-0.85328 c -3.75619,-0.4693 -7.43449,-0.47934 -8.174,-0.0222 C 375.556,237.30391 375,242.03535 375,248.25841 l 0,10.61088 7.8125,-0.37214 7.8125,-0.37215 0.3615,-10.21644 z m 20.2635,0.21641 0,-10.625 -8.125,0 -8.125,0 0,9.79166 c 0,5.38543 0.375,10.16668 0.83334,10.625 0.45832,0.45834 4.11457,0.83334 8.125,0.83334 l 7.29166,0 0,-10.625 z m 22.23895,-0.3683 0.36396,-10.3683 -9.01696,0.3683 -9.01696,0.3683 0.16478,10 c 0.0906,5.5 0.18762,10.16633 0.21552,10.36961 0.0279,0.20329 3.84758,0.20329 8.48821,0 l 8.4375,-0.36961 0.36395,-10.3683 z M 456.875,247.5 l 0,-10.625 -9.6875,-0.36508 -9.6875,-0.36508 0,10.46925 c 0,5.75809 0.3973,10.86655 0.88289,11.35213 0.48558,0.48559 4.84496,0.71997 9.6875,0.52084 l 8.80461,-0.36206 0,-10.625 z m 23.75,9.45551 c 0.7443,-0.22676 1.08508,-4.49207 0.84231,-10.54317 l -0.40767,-10.16234 -9.90483,0 -9.90481,0 0,10.41666 c 0,5.72918 0.26225,10.67891 0.58276,10.99944 0.5908,0.59079 16.49469,-0.01 18.79224,-0.71059 z m 47.17464,-3.83051 c -0.64386,-7.42092 -3.08743,-14.375 -5.05117,-14.375 -1.05963,0 -2.81466,-0.77734 -3.90004,-1.72741 -1.54698,-1.35413 -5.41748,-1.58778 -17.91093,-1.08124 L 485,236.58752 l 0,4.65678 c 0,2.56122 0.35953,7.27977 0.79894,10.48568 l 0.79893,5.82889 20.76357,-0.34193 20.76356,-0.34194 -0.32536,-3.75 z M 311.97724,232.5 C 314.97095,232.5 315,232.38092 315,220.10987 l 0,-12.39012 -5.15468,-0.87089 c -6.71945,-1.13524 -7.30236,-0.0839 -7.32618,13.21364 -0.0194,10.82825 1.27863,14.41631 4.73541,13.08982 0.93496,-0.35878 3.06016,-0.65232 4.72269,-0.65232 z m 169.00552,-12.8125 0.35776,-12.1875 -10.04526,0 -10.04526,0 0,12.29166 c 0,6.76043 0.23307,12.52605 0.51796,12.8125 0.28488,0.28646 4.64425,0.23959 9.6875,-0.10412 l 9.16954,-0.625 0.35776,-12.1875 z m -313.7437,1.0402 c 0.20023,-6.11851 -0.081,-11.563 -0.625,-12.09886 -0.80037,-0.78842 -20.5122,-1.50414 -29.34319,-1.06544 -2.96061,0.14707 -4.0372,1.96562 -6.42631,10.85522 -2.41545,8.98763 -2.62714,12.45205 -0.79676,13.03972 0.71379,0.22916 9.29191,0.41155 19.0625,0.4053 l 17.7647,-0.0112 0.36406,-11.12458 z m 23.02218,-0.4152 c 0.36353,-7.92002 0.0875,-12.50906 -0.7884,-13.10586 -0.74132,-0.5051 -4.72284,-0.91835 -8.84784,-0.91835 -4.125,0 -8.07505,0.41325 -8.7779,0.91835 -0.77708,0.55845 -1.0972,5.69475 -0.81684,13.10586 l 0.46107,12.1875 9.10523,0 9.10524,0 0.55944,-12.1875 z m 23.21998,-1.25 0.35624,-12.8125 -8.71996,0 c -4.79598,0 -9.06225,0.55384 -9.4806,1.23074 -1.07096,1.73285 -2.09021,22.42901 -1.17734,23.90609 0.41416,0.67012 4.78331,1.05409 9.70923,0.85328 l 8.95621,-0.36511 0.35622,-12.8125 z m 20.26878,0.25285 0,-13.18464 -7.8125,0.37214 -7.8125,0.37215 -0.35623,12.8125 -0.35623,12.8125 8.16873,0 8.16873,0 0,-13.18465 z M 256.47321,222.5 c 0.12275,-5.5 0.2634,-11.26563 0.3125,-12.8125 0.0849,-2.6746 -0.37036,-2.8125 -9.28571,-2.8125 l -9.375,0 -0.35623,12.8125 -0.35623,12.8125 9.41873,0 9.41873,0 0.22321,-10 z m 23.27242,-0.6208 c 0.57844,-15.60068 0.56062,-15.6292 -9.76944,-15.6292 l -8.72619,0 0,13.17976 0,13.17977 9.0625,-0.36727 9.0625,-0.36726 0.37063,-9.9958 z m 18.37937,-2.5042 0,-12.5 -7.1875,-0.37488 -7.1875,-0.37488 0,13.24976 0,13.24976 7.1875,-0.37489 7.1875,-0.37487 0,-12.5 z m 35.35776,0.9375 -0.35776,-12.1875 -6.875,0 -6.875,0 -0.36641,10.52051 c -0.20153,5.78629 -0.0785,11.27066 0.27326,12.1875 0.42715,1.11312 2.95205,1.66699 7.59919,1.66699 l 6.95949,0 -0.35777,-12.1875 z M 351.25,220 l 0,-12.5 -6.875,0 -6.875,0 0,12.5 0,12.5 6.875,0 6.875,0 0,-12.5 z m 20,-0.0596 0,-12.55964 -7.8125,0.37214 -7.8125,0.37214 -0.36641,10.52052 c -0.20153,5.78629 -0.0785,11.27066 0.27326,12.1875 0.4353,1.13435 3.04861,1.66698 8.17892,1.66698 l 7.53923,0 0,-12.55964 z m 19.375,0.0596 0,-11.875 -7.5,0 -7.5,0 -0.36641,10.52051 c -0.20153,5.78629 -0.0678,11.29894 0.29737,12.25034 0.4837,1.26049 2.61798,1.62798 7.86642,1.35448 l 7.20262,-0.37533 0,-11.875 z m 20.9985,1.02309 c 0.40896,-6.3123 0.45903,-11.9373 0.11125,-12.5 -0.34776,-0.5627 -4.25535,-1.02309 -8.68352,-1.02309 l -8.05123,0 0,11.66666 c 0,6.41668 0.375,12.04168 0.83334,12.5 0.45832,0.45834 4.03131,0.83334 7.93997,0.83334 l 7.10664,0 0.74355,-11.47691 z M 433.125,220 l 0,-11.875 -8.4375,-0.36961 -8.4375,-0.36962 0,12.61423 0,12.61422 8.4375,-0.36961 8.4375,-0.36961 0,-11.875 z m 23.97708,10.48399 c 0.42548,-1.10881 0.82971,-6.59319 0.89827,-12.1875 L 458.125,208.125 447.8125,207.76195 437.5,207.3989 l 0,12.55055 0,12.55055 9.41422,0 c 7.50777,0 9.57091,-0.40826 10.18786,-2.01601 z m 64.55077,-0.79649 c 1.9907,-1.45985 1.9343,-2.16151 -0.85835,-10.68059 -1.64395,-5.01495 -3.33128,-9.46035 -3.7496,-9.87867 -0.41833,-0.41833 -7.79956,-1.03175 -16.40275,-1.36318 L 485,207.16248 l 0,12.04376 0,12.04376 17.26109,0 c 11.83917,0 17.93036,-0.4908 19.39176,-1.5625 z M 157.1875,203.76706 166.25,203.75 l 0,-14.375 0,-14.375 -7.34695,0 c -5.00568,0 -7.84283,0.59751 -8.90305,1.875 -0.85586,1.03125 -2.82295,1.875 -4.3713,1.875 -2.38611,0 -3.21043,1.28601 -5.40823,8.4375 -4.47331,14.55575 -4.44218,13.72585 -0.59433,15.84837 1.92437,1.0615 4.62386,1.66413 5.99886,1.33914 1.375,-0.32499 6.57812,-0.59856 11.5625,-0.60795 z m 316.91594,0 7.22843,-0.0171 -0.35343,-14.0625 -0.35344,-14.0625 -9.2192,0.17976 c -6.23578,0.12163 -9.5668,0.72836 -10.29335,1.875 -1.30205,2.05489 -1.48286,25.28316 -0.20674,26.55929 0.49815,0.49814 2.04503,0.59957 3.4375,0.2254 1.39249,-0.37417 5.78459,-0.688 9.76023,-0.69739 z m 25.6863,-0.0449 c 7.16402,-0.0208 10.27471,-0.57333 12.31467,-2.1875 l 2.72941,-2.1597 -3.43608,-9.88241 -3.43609,-9.88242 -6.16833,-1.62492 c -6.80878,-1.79364 -16.76705,-2.26539 -16.8398,-0.79775 -1.21407,24.49176 -0.66076,28.83103 3.47398,27.24438 0.97734,-0.37503 6.09034,-0.69439 11.36224,-0.70968 z m -309.19839,-13.0294 c 0.48949,-7.18147 0.52349,-13.65022 0.0755,-14.375 -0.9909,-1.6033 -18.98488,-1.77809 -19.96395,-0.19392 -0.38203,0.61813 -0.32974,7.08688 0.11612,14.375 l 0.81078,13.25113 9.03574,0 9.03572,0 0.88998,-13.05721 z m 22.7695,11.3271 c 0.12972,-0.11 0.34691,-6.09379 0.48265,-13.2974 l 0.2468,-13.09749 -9.54515,-0.36508 -9.54515,-0.36508 0,14.55445 0,14.55444 9.0625,-0.89197 c 4.98437,-0.49057 9.16864,-0.98192 9.29835,-1.09187 z m 20.38915,-13.44057 0,-13.69861 -7.8125,0.37214 -7.8125,0.37215 -0.36046,12.41102 c -0.19825,6.82607 -0.13022,13.01357 0.1512,13.75 0.31227,0.81719 3.49721,1.17393 8.17296,0.91546 l 7.6613,-0.42353 0,-13.69863 z M 334.02925,190 c -0.19016,-7.21875 -0.59439,-13.82813 -0.89827,-14.6875 -0.85787,-2.426 -12.67015,-2.06638 -13.62224,0.41474 -1.0626,2.76907 -0.95171,26.16312 0.12914,27.24396 0.48832,0.48834 4.00395,0.72271 7.8125,0.52084 L 334.375,203.125 334.02925,190 Z m 17.22075,-0.49914 0,-14.24912 -5.71315,-0.45439 c -3.14222,-0.24991 -5.95472,-0.2128 -6.25,0.0825 -0.29526,0.29524 -0.53685,6.91181 -0.53685,14.70349 l 0,14.16666 6.25,0 6.25,0 0,-14.24914 z m 20,-0.18551 0,-14.43464 -7.8125,0.37214 -7.8125,0.37215 -0.32216,12.5 c -0.17719,6.875 -0.0543,13.20312 0.27327,14.0625 0.38545,1.01147 3.25417,1.5625 8.13466,1.5625 l 7.53923,0 0,-14.43465 z m 19.375,0.0596 0,-13.75 -7.5,0 -7.5,0 -0.36046,12.41103 c -0.19825,6.82606 -0.0645,13.18246 0.29737,14.12534 0.4767,1.24223 2.6412,1.61095 7.86047,1.33896 l 7.20262,-0.3753 0,-13.75 z m 21.60344,0.3125 -0.35344,-14.0625 -8.125,0 -8.125,0 -0.35344,14.0625 -0.35344,14.0625 8.83188,0 8.83187,0 -0.35343,-14.0625 z m 21.52156,-0.36958 0,-14.43212 -8.4375,0.36962 -8.4375,0.36961 -0.35344,14.0625 -0.35344,14.0625 8.79094,0 8.79094,0 0,-14.43211 z m 23.75,0.83836 0,-13.59375 -3.90625,-0.78125 C 451.44531,175.35156 446.94531,175 443.59375,175 l -6.09375,0 0,14.375 0,14.375 10,0 10,0 0,-13.59375 z M 257.22979,188.4375 257.58457,175 l -9.41728,0 -9.41729,0 0,13.80476 0,13.80477 9.0625,-0.36727 9.0625,-0.36726 0.35479,-13.4375 z m 21.83271,12.5 C 278.89062,200.42187 278.75,194.375 278.75,187.5 l 0,-12.5 -8.75,0 -8.75,0 0,13.80476 0,13.80477 9.0625,-0.36727 c 4.98437,-0.202 8.92187,-0.78914 8.75,-1.30476 z M 298.75,188.88374 c 0,-9.77385 -0.44093,-13.7675 -1.5625,-14.1522 -0.85938,-0.29477 -4.23438,-0.2983 -7.5,-0.007 l -5.9375,0.52806 0,13.62412 0,13.62414 7.5,0 7.5,0 0,-13.61626 z m 15.97844,-0.44624 -0.35344,-14.0625 -4.87276,-0.399 c -3.05326,-0.25001 -5.2632,0.21674 -5.91837,1.25 -1.23816,1.9527 -1.45875,25.23246 -0.25053,26.44066 0.45832,0.45834 3.28925,0.83334 6.29093,0.83334 l 5.45761,0 -0.35344,-14.0625 z M 433.125,171.93092 c 0.76411,-0.21806 1.09806,-5.48122 0.85912,-13.54016 -0.44853,-15.12851 -0.54566,-15.25026 -11.11307,-13.92995 l -6.62105,0.82725 0,12.91885 c 0,10.99945 0.32501,13.10251 2.1875,14.15498 1.84936,1.04503 10.3939,0.79432 14.6875,-0.43097 z m 19.0625,0.58614 5.3125,-0.0171 -0.009,-5.3125 c -0.005,-2.92188 -0.36747,-9.10938 -0.80575,-13.75 L 455.88862,145 l -9.19423,0 -9.19425,0 0,12.6747 c 0,10.59144 0.35955,12.95357 2.1875,14.37141 1.20312,0.9332 3.3125,1.42476 4.6875,1.09238 1.375,-0.3324 4.89062,-0.61204 7.8125,-0.62143 z m -219.0625,-0.9737 c 0.69566,-0.5111 1.25,-6.73894 1.25,-14.04336 l 0,-13.125 -8.4375,-0.36961 -8.4375,-0.36961 0,13.59877 c 0,7.47934 0.375,13.97379 0.83334,14.43211 1.12746,1.12748 13.22648,1.02662 14.79166,-0.12325 z m 247.5,-13.21875 c 0,-7.45271 -0.36441,-13.77852 -0.8098,-14.05735 -0.4454,-0.27884 -5.08603,-0.1455 -10.3125,0.2963 l -9.5027,0.80328 0,12.73325 c 0,7.00328 0.39659,13.12982 0.8813,13.61455 0.48471,0.48471 5.12534,0.71908 10.3125,0.52082 l 9.4312,-0.36046 0,-13.55039 z m 19.0625,13.38753 c 3.8846,-1.04103 3.58126,-2.86602 -2.37282,-14.27565 -4.24191,-8.12862 -5.72019,-9.93649 -8.125,-9.93649 -1.61683,0 -2.93968,-0.675 -2.93968,-1.5 0,-0.9066 -0.39612,-1.03023 -1.00133,-0.3125 -0.55073,0.65312 -0.77927,6.95312 -0.50786,14 l 0.49345,12.8125 5.82038,-0.0171 c 3.2012,-0.01 7.08598,-0.35625 8.63286,-0.77079 z M 166.15131,157.8125 c -0.0542,-7.39063 -0.3824,-12.73438 -0.72916,-11.875 -0.34676,0.85937 -1.90965,1.5625 -3.47306,1.5625 -2.22866,0 -4.12253,2.16752 -8.76894,10.0361 -7.27976,12.32806 -6.7646,13.7139 5.0979,13.7139 l 7.97195,0 -0.0986,-13.4375 z m 24.82794,0.17906 0.35425,-12.63345 -6.60425,-0.79319 c -3.63234,-0.43626 -8.43238,-0.79808 -10.66675,-0.80406 L 170,143.75 l 0,13.80055 0,13.80055 10.3125,-0.36305 10.3125,-0.36305 0.35425,-12.63344 z m 23.02462,-0.49156 0.0934,-13.125 -9.86111,0 c -7.12224,0 -9.82642,0.43397 -9.73613,1.5625 0.0687,0.85937 0.20938,6.92991 0.3125,13.49007 l 0.1875,11.92759 9.45526,-0.36509 9.45525,-0.36507 0.0934,-13.125 z m 43.55257,0.625 c 0.43826,-8.03945 0.21524,-12.82771 -0.625,-13.41836 -1.91064,-1.34308 -16.22729,-1.15987 -17.61894,0.22547 -0.65313,0.65016 -1.009,6.86154 -0.79084,13.80306 l 0.39665,12.62096 8.97835,-0.36557 8.97834,-0.36556 0.68144,-12.5 z M 275.3125,170.01376 278.75,170 l 0,-12.55711 0,-12.55712 -8.4375,0.36962 -8.4375,0.36961 -0.36427,11.15107 c -0.4676,14.31354 -0.19019,14.99614 5.69892,14.02264 2.56594,-0.42416 6.21222,-0.77739 8.10285,-0.78495 z m 95.9375,-11.81217 0,-13.0484 -5.47823,-0.82152 c -10.12037,-1.51765 -10.10166,-1.5404 -10.5019,12.77063 -0.40026,14.31184 -0.8121,13.73761 10.04263,14.0027 l 5.9375,0.145 0,-13.04841 z M 390.98122,158.4375 390.625,145.625 385,144.79183 c -9.92344,-1.46988 -10,-1.36716 -10,13.41741 l 0,13.04076 8.16872,0 8.16874,0 -0.35624,-12.8125 z m 21.25,0 -0.35622,-12.8125 -8.125,0 -8.125,0 -0.35623,12.8125 -0.35623,12.8125 8.83746,0 8.83746,0 -0.35624,-12.8125 z m -113.74846,-0.625 -0.35776,-12.1875 -7.8125,-0.37215 -7.8125,-0.37214 0,12.55964 0,12.55965 8.17026,0 8.17027,0 -0.35777,-12.1875 z M 315.20834,160 c 0.11462,-5.5 0.2552,-10.96131 0.3125,-12.13625 0.0714,-1.46459 -1.27141,-2.42968 -4.27084,-3.06946 -8.29015,-1.76833 -8.75,-1.09617 -8.75,12.78995 l 0,12.41576 6.25,0 6.25,0 0.20834,-10 z m 19.17559,4.6875 c 0.43291,-2.92188 0.608,-8.40625 0.38908,-12.1875 l -0.39801,-6.875 -7.5,0 -7.5,0 -0.3683,10.51559 c -0.20257,5.78356 -0.0796,11.26793 0.27326,12.1875 0.42747,1.11392 2.92357,1.67191 7.47922,1.67191 l 6.83763,0 0.78712,-5.3125 z M 351.25,160.78125 c 0,-5.07031 0.35797,-11.00863 0.7955,-13.19624 l 0.7955,-3.97749 -6.733,0.38374 -6.733,0.38374 -0.35623,12.8125 -0.35623,12.8125 6.29373,0 6.29373,0 0,-9.21875 z M 329.20054,141.7051 335,140.91019 334.98087,127.0176 c -0.01,-7.64093 -0.48565,-14.62815 -1.05581,-15.52716 -0.69949,-1.10291 -3.2343,-1.50948 -7.79336,-1.25 l -6.7567,0.38456 -0.35565,14.29857 c -0.1956,7.86422 -0.0726,15.03609 0.27327,15.9375 0.71452,1.86199 1.80394,1.9548 9.90792,0.84403 z M 390.625,126.25 l 0,-15.625 -7.8125,-0.37215 -7.8125,-0.37214 0,15.60919 0,15.60919 4.6875,0.51571 c 2.57812,0.28364 6.09375,0.45822 7.8125,0.38796 l 3.125,-0.12776 0,-15.625 z m 20.98038,13.87144 c 0.53921,-0.52645 0.82046,-7.37853 0.625,-15.22682 L 411.875,110.625 l -8.01117,-0.3773 c -4.40616,-0.20752 -8.34365,0.15684 -8.75,0.80969 -0.40635,0.65284 -0.56405,8.0633 -0.35044,16.46767 l 0.3884,15.28068 7.7366,-0.86355 c 4.25514,-0.47496 8.17779,-1.29429 8.71699,-1.82075 z m -243.41307,-0.23035 c 1.28815,-2.08428 -1.60901,-4.47439 -3.3334,-2.75 -1.4424,1.4424 -0.53965,4.10891 1.39109,4.10891 0.60635,0 1.48039,-0.61151 1.94231,-1.35891 z M 213.75,126.875 l 0,-14.375 -9.375,0 -9.375,0 0,13.66306 c 0,15.52054 -0.76791,14.58065 12.1875,14.91671 l 6.5625,0.17023 0,-14.375 z m 21.25,0 0,-14.375 -8.75,0 -8.75,0 0,13.54166 c 0,7.44793 0.375,13.91668 0.83334,14.375 0.45832,0.45834 4.39582,0.83334 8.75,0.83334 l 7.91666,0 0,-14.375 z m 22.5,-0.625 0,-15 -9.375,0 -9.375,0 0,15 0,15 9.375,0 9.375,0 0,-15 z m 20.97782,0.37806 c 0.40768,-16.17278 -0.17231,-17.06012 -10.70787,-16.38231 l -5.89495,0.37925 -0.35715,13.66967 c -0.19643,7.51832 -0.0631,14.43597 0.29633,15.37257 0.47766,1.24476 2.75963,1.60266 8.48215,1.33032 l 7.82867,-0.37256 0.35282,-13.99694 z m 21.05089,11.32951 c 1.00938,-4.02166 -0.36892,-26.81588 -1.69795,-28.08046 -0.52566,-0.50019 -4.32547,-0.53653 -8.444,-0.0808 l -7.48824,0.82866 0.42452,14.375 c 0.23349,7.90625 0.68326,14.79687 0.99951,15.3125 0.31625,0.51562 3.90608,0.9375 7.9774,0.9375 6.95381,0 7.4525,-0.19954 8.22876,-3.29242 z m 15.19726,-11.96603 -0.35097,-15.25846 -4.85383,-1.00656 c -2.78013,-0.57654 -5.4503,-0.51321 -6.25,0.14821 -0.92855,0.76801 -1.26688,6.21567 -1.01017,16.26502 l 0.386,15.11025 6.21497,0 6.21498,0 -0.35098,-15.25846 z m 36.52403,-0.23524 0,-15.49371 -4.92295,-0.46948 c -2.70761,-0.25821 -5.52011,-0.27042 -6.25,-0.0271 -0.84106,0.28035 -1.32705,6.12628 -1.32705,15.96317 l 0,15.52084 6.25,0 6.25,0 0,-15.4937 z m 19.72597,0.1812 -0.35097,-15.3125 -7.73348,-0.37009 -7.73346,-0.3701 -0.39154,13.65664 c -0.21533,7.51116 -0.20964,14.56833 0.0126,15.6826 0.32259,1.61705 2.03331,2.02595 8.47598,2.02595 l 8.07182,0 -0.35097,-15.3125 z m 63.00915,0.625 c 0.24765,-8.07812 0.43668,-14.76732 0.42008,-14.86487 -0.0166,-0.0975 -3.9677,-0.37881 -8.7802,-0.625 l -8.75,-0.44763 -0.35098,15.3125 -0.35097,15.3125 8.68091,0 8.6809,0 0.45026,-14.6875 z m 22.4994,0.625 c 0.21477,-7.73437 0.10425,-14.46128 -0.24569,-14.94868 -0.34991,-0.4874 -4.56866,-1.0499 -9.375,-1.25 l -8.73883,-0.36382 -0.35098,15.3125 -0.35097,15.3125 9.3355,0 9.33549,0 0.39048,-14.0625 z M 480,136.77625 c 0,-1.66444 -0.62347,-3.02625 -1.38551,-3.02625 -0.84023,0 -1.08769,-1.18661 -0.62878,-3.01505 0.59008,-2.35106 -0.51102,-4.57136 -4.99981,-10.08181 -3.75619,-4.61112 -6.39659,-6.82115 -7.59845,-6.35995 C 464.37439,114.68194 462.74779,115 461.77276,115 460.3626,115 460,117.51412 460,127.29166 c 0,6.76043 0.23187,12.52605 0.51527,12.8125 0.2834,0.28646 4.7834,0.33578 10,0.10963 C 479.6032,139.8197 480,139.67589 480,136.77625 Z M 191.25,126.25 c 0,-8.93162 -0.46863,-13.75 -1.33727,-13.75 -2.20407,0 -11.88491,7.13683 -15.48593,11.4164 -1.97286,2.34461 -3.11328,4.9415 -2.76124,6.2877 0.32985,1.26137 0.09,2.60841 -0.53291,2.99342 C 170.50969,133.58254 170,135.2706 170,136.94877 170,139.94442 170.1935,140 180.625,140 l 10.625,0 0,-13.75 z m 22.5,-24.89777 c 0,-3.381266 0.33961,-7.032775 0.75469,-8.114459 0.44788,-1.167147 -0.0406,-2.271897 -1.20164,-2.717415 -2.64896,-1.016502 -14.03589,8.697649 -15.66145,13.360744 l -1.26155,3.6189 8.68497,0 8.68498,0 0,-6.14777 z M 235,93.125 c 0,-14.353914 -0.005,-14.375 -3.01028,-14.375 -1.87325,0 -5.17828,2.107055 -8.75,5.57837 l -5.73972,5.578369 0,8.796631 0,8.79663 8.75,0 8.75,0 0,-14.375 z m 23.1012,11.5625 c 1.15182,-4.992768 -0.14364,-33.479933 -1.58819,-34.924484 -1.00162,-1.001626 -2.91943,-0.944144 -7.04586,0.211183 -5.89251,1.649802 -8.95514,4.070431 -7.7064,6.090947 0.39929,0.646063 -0.11137,2.780078 -1.13469,4.742256 -1.2542,2.404787 -1.86317,7.33624 -1.86836,15.130098 l -0.008,11.5625 9.35119,0 c 8.67193,0 9.39831,-0.20429 10.00001,-2.8125 z m 19.37966,-18.75 c -0.01,-11.859375 -0.53002,-22.369854 -1.15442,-23.356619 -1.72104,-2.71982 -10.40138,0.553812 -13.85508,5.225191 -2.65561,3.591906 -2.72545,4.407069 -1.86032,21.712972 L 261.5099,107.5 l 7.99505,0 7.99505,0 -0.0191,-21.5625 z M 298.75,85.13848 c 0,-19.575031 -0.27716,-22.703808 -2.22426,-25.10837 -1.86952,-2.308743 -2.97306,-2.606374 -6.91913,-1.86609 -7.4288,1.393653 -8.35661,4.48195 -8.35661,27.815571 0,10.919559 0.375,20.228739 0.83334,20.687079 0.45832,0.45833 4.39582,0.83333 8.75,0.83333 l 7.91666,0 0,-22.36152 z M 315,85.15626 c 0,-28.363145 -0.32648,-30.162306 -5.46875,-30.137109 -7.57071,0.0371 -7.61716,0.184728 -8.06922,25.6452 -0.22714,12.792459 -0.10413,24.063769 0.27327,25.047339 0.46939,1.22321 2.67364,1.78832 6.97547,1.78832 l 6.28923,0 0,-22.343755 z M 333.93182,83.75 C 333.42519,57.313539 332.75193,55 325.56525,55 319.33474,55 318.75,57.532424 318.75,84.516021 l 0,23.103269 7.8125,-0.37214 7.8125,-0.37215 -0.44318,-23.125 z m 16.71617,0.972037 c -0.50668,-12.527879 -1.38852,-24.007027 -1.95965,-25.509217 -1.05084,-2.763904 -7.46052,-5.119197 -9.87329,-3.628024 -0.7663,0.473596 -1.07271,7.36652 -0.79595,17.90512 0.2475,9.424297 0.5132,20.931959 0.59045,25.572584 l 0.14045,8.4375 6.4096,0 6.40961,0 -0.92122,-22.777963 z M 370.22582,86.875 c -0.47933,-24.016847 -1.59613,-27.424953 -9.39552,-28.672124 -2.74224,-0.438502 -5.5077,-0.275476 -6.14546,0.36228 -0.6961,0.696108 -0.79526,10.728985 -0.2481,25.102329 l 0.91145,23.942775 7.63841,-0.36763 7.6384,-0.36763 -0.39918,-20 z m 19.85007,2.528473 c -0.142,-12.25158 -0.68702,-18.040226 -1.8242,-19.375 -0.89193,-1.04691 -1.94353,-2.816822 -2.33689,-3.933137 -0.81979,-2.326475 -9.63123,-4.419157 -10.78485,-2.561362 -0.41523,0.668664 -0.58846,10.860733 -0.38496,22.649044 l 0.36997,21.433292 7.58171,-0.37065 7.58172,-0.37066 -0.2025,-17.471527 z m 22.37916,4.034027 c -0.0405,-12.653712 -0.32221,-14.392502 -2.8125,-17.356578 -3.16638,-3.768783 -12.00547,-8.504899 -14.33005,-7.678241 -1.14396,0.406813 -1.55792,4.964248 -1.54544,17.013985 C 393.79081,108.31131 393.4187,107.5 403.89579,107.5 l 8.60421,0 -0.0449,-14.0625 z M 433.75,98.883736 c 0,-6.505789 -0.45926,-8.7925 -1.875,-9.335769 -1.03125,-0.395728 -1.875,-1.52746 -1.875,-2.514958 0,-2.058208 -11.01532,-8.932697 -12.28564,-7.667268 -0.46165,0.459879 -1.02975,6.978219 -1.26246,14.485202 L 416.02881,107.5 l 8.86059,0 8.8606,0 0,-8.616264 z m 18.75,5.130964 c 0,-2.59388 -1.41964,-4.671961 -5.55057,-8.124998 C 438.79899,89.076776 437.5,89.55589 437.5,99.375 l 0,8.125 7.5,0 c 7.37342,0 7.5,-0.0588 7.5,-3.4853 z"
       id="path4144"
       inkscape:connector-curvature="0" />
    <path
       style="fill:#909090"
       d="m 303.71382,1212.3522 c -7.5953,-1.52 -10.99737,-2.8747 -13.68448,-5.4491 -1.9669,-1.8844 -4.14553,-3.0743 -4.84139,-2.6443 -0.69586,0.4301 -1.61852,0.2103 -2.05035,-0.4884 -0.43182,-0.6987 -0.16965,-1.2704 0.58261,-1.2704 0.96916,0 0.9493,-0.7819 -0.0681,-2.683 -1.72799,-3.2288 -0.96826,-11.4297 1.60886,-17.3672 6.7301,-15.5057 6.47141,-11.6619 6.85286,-101.8248 0.65062,-153.78468 1.55887,-186.89229 5.34951,-195 3.64076,-7.78712 3.82713,-12.36155 1.09494,-26.875 -8.52677,-45.29444 -14.89827,-71.64005 -24.1843,-100 C 254.694,698.64661 245.86721,676.21021 224.22683,631.2834 210.06785,601.88847 198.67297,582.52004 190.01095,573.125 184.09539,566.70884 167.23815,540.16962 151.50304,512.5 126.03216,467.71036 107.5631,408.09084 101.35708,350.625 c -2.946854,-27.28695 -1.09829,-76.5356 3.8843,-103.48391 1.42532,-7.70885 2.48689,-17.7103 2.35905,-22.22545 -0.17407,-6.14798 0.88845,-12.18734 4.23143,-24.0514 15.80091,-56.07655 39.39905,-93.36699 78.22691,-123.616296 24.93258,-19.424025 47.58979,-30.751682 76.81623,-38.40489 41.64242,-10.90445 71.764,-10.900494 114.94894,0.0151 18.05853,4.564543 33.57894,10.81082 51.31432,20.651738 39.63577,21.992888 70.41072,56.861288 90.99037,103.093248 11.37021,25.54308 16.86082,43.90045 18.28874,61.14686 1.14974,13.88659 3.27222,30.23485 5.7903,44.5995 2.40183,13.70145 2.34255,57.70638 -0.11212,83.26608 -3.7686,39.24056 -11.54751,71.89516 -26.56354,111.50942 -14.56023,38.41179 -28.04202,62.32255 -57.62668,102.20434 -21.98547,29.63765 -39.34547,63.02416 -64.50005,124.04566 -13.17549,31.9619 -26.64415,74.08478 -36.29305,113.50557 -13.21904,54.0067 -16.53857,78.96968 -11.1013,83.48221 1.06537,0.88419 1.7475,3.92636 1.76077,7.85277 0.0125,3.5252 0.61218,11.7532 1.33393,18.28445 0.8251,7.46652 1.27735,53.06037 1.2182,122.8145 -0.0911,107.4627 -0.0112,111.3994 2.53306,125.6133 1.44492,8.0706 3.11775,15.5905 3.71739,16.7109 2.34206,4.3762 3.41133,16.4354 1.80813,20.3921 -0.85668,2.1143 -1.30256,4.5473 -0.99082,5.4067 0.31172,0.8594 -0.102,1.5625 -0.91944,1.5625 -0.81742,0 -3.07445,1.3364 -5.01562,2.9698 -6.26802,5.2742 -36.832,7.7665 -53.74267,4.3824 z m 28.88233,-374.75605 c 2.30207,-2.30208 3.65885,-4.96115 3.66737,-7.1875 0.007,-1.9435 0.81018,-6.1586 1.78384,-9.36688 0.97366,-3.20827 3.5231,-14.92943 5.66543,-26.04701 C 348.50291,770.13634 365.0945,718.9855 379.39134,685 c 5.35045,-12.71875 10.52575,-25.375 11.50065,-28.125 2.13993,-6.03629 6.53802,-15.6725 12.6136,-27.63638 4.41463,-8.6932 4.46572,-8.95813 2.34976,-12.1875 -1.18964,-1.81562 -2.89167,-3.30112 -3.78229,-3.30112 -4.60632,0 -22.44875,6.64109 -32.49431,12.09462 -3.32639,1.80584 -16.99861,3.31179 -27.25653,3.0022 -2.50402,-0.0755 -6.14542,0.46814 -8.09201,1.20823 -2.54061,0.96594 -9.54442,0.9393 -24.82222,-0.0944 -21.68953,-1.46755 -29.80862,-3.42973 -36.28299,-8.76875 -2.86041,-2.35881 -20.011,-8.02014 -23.50018,-7.75731 -3.45128,0.25998 -5.87482,2.7457 -5.87482,6.02556 0,1.59722 3.0869,9.6504 6.85976,17.89597 27.16205,59.36231 48.09701,122.39678 60.03681,180.7689 3.57479,17.47661 4.21998,19.22109 7.8345,21.18286 5.42072,2.94207 10.0189,2.38446 14.11508,-1.71171 z m -1.58906,-230.99914 c 0.23871,-1.61324 1.56247,-2.80782 3.52777,-3.18351 2.48435,-0.47491 3.39348,0.0504 4.32421,2.49837 0.9897,2.60312 1.72622,2.96565 4.59722,2.26294 1.88028,-0.46022 5.24683,-2.87126 7.48121,-5.35786 3.49177,-3.88594 4.0625,-4.15675 4.0625,-1.92775 0,3.4659 2.98182,4.41401 8.88386,2.82475 2.67638,-0.72066 4.97035,-1.42925 5.09771,-1.57463 2.79968,-36.92858 10.07643,47.77358 2.31163,-7.76432 l 3.89212,2.71931 c 4.71754,3.296 8.34438,2.34485 13.23892,-3.47197 2.78131,-3.3054 3.88161,-3.7781 7.4474,-3.19945 4.84458,0.78616 11.16069,-2.24948 12.09224,-5.81176 0.33032,-1.26317 1.73597,-2.59357 3.12367,-2.95647 1.71388,-0.44818 2.64566,-1.89093 2.90526,-4.49846 0.46275,-4.64786 3.50719,-6.2483 3.50719,-1.8437 0,4.56826 1.23151,4.92529 5.26939,1.52765 2.01983,-1.69959 4.19176,-3.09015 4.82652,-3.09015 0.63475,0 1.15409,-0.80292 1.15409,-1.78427 0,-0.98136 3.05012,-1.17092 4.63231,-2.42394 2.68665,-2.1277 2.45382,8.59982 2.26622,-3.07427 -0.1105,-6.875 5.3059,0.67882 5.58954,3.96243 0.28697,3.32281 -5.3525,-7.95813 -5.38977,-7.18465 -2.28518,47.43188 1.6517,-9.47989 1.6517,-5.81907 0,8.87281 1.72581,8.45428 9.86587,-2.39259 2.82378,-3.76275 5.13413,-8.05325 5.13413,-9.53444 0,-1.4812 0.84375,-3.39334 1.875,-4.2492 2.96169,-2.45797 2.20029,-4.72991 -1.88591,-5.6274 -4.32326,-0.94955 -3.82939,-3.1226 0.70968,-3.1226 3.45673,0 -1.35195,52.81716 -1.58255,31.04604 0,0 -7.34225,8.93778 5.61267,-8.09939 0.21761,8.61422 0.81931,-30.63791 1.5625,-31.09722 0.66474,-0.41084 1.20861,0.57997 1.20861,2.2018 0,2.53138 0.61346,2.94877 4.33409,2.94877 4.03058,0 4.612,-0.52959 8.30247,-7.5625 2.1826,-4.15937 4.81944,-8.54688 5.85964,-9.75 1.69782,-1.96376 1.65986,-2.4432 -0.3712,-4.6875 -2.15748,-2.38397 -2.16078,-2.61236 -0.0713,-4.92124 10.93795,18.55574 -9.54516,18.54273 -10.33135,32.36771 3.29244,42.48521 15.4515,-9.0217 23.0744,-20.21878 1.16116,-1.73919 -4.4987,-24.11583 -3.67624,-23.83134 2.73703,0.94672 11.47337,-12.98323 13.69564,-21.83748 0.5796,-2.3093 0.15843,-3.11497 -1.91131,-3.65622 -3.17568,-0.83046 -3.16963,-0.7811 -0.68504,-5.58575 1.41618,-2.7386 2.63269,-3.63558 4.32904,-3.19198 3.19265,0.8349 4.4609,-0.99527 8.09616,-11.68341 3.452,-10.14927 3.877,-14.90892 1.54261,-17.27566 -1.25223,-1.26959 -1.09293,-1.93081 0.80227,-3.32993 1.30062,-0.96017 2.83817,-1.90667 3.4168,-2.10335 0.57862,-0.19666 2.12647,-4.29507 3.43967,-9.10757 1.3132,-4.8125 2.80306,-10.04886 3.3108,-11.63635 0.73121,-2.2862 0.39305,-3.02498 -1.62636,-3.55306 -4.9624,-1.29774 -4.0166,-7.93564 1.13064,-7.93564 1.63058,0 2.51578,-1.7651 3.60452,-7.1875 0.79374,-3.95313 1.73869,-8.4545 2.0999,-10.00304 0.524,-2.24646 -0.114,-3.13965 -3.15674,-4.419 -4.27421,-1.79717 -3.85565,-3.79116 1.19923,-5.71301 2.445,-0.9296 3.42505,-2.39497 4.0233,-6.0157 1.4071,-8.51619 0.96951,-15.0863 -1.05659,-15.86379 -2.70108,-1.03648 -2.30714,-5.47872 0.625,-7.04796 2.06261,-1.10388 2.5,-2.61728 2.5,-8.65021 7.7575,-10.49658 2.51053,-11.09515 -7.50005,-13.84974 17.17456,0.73437 -0.82623,13.22465 7.89747,-5.48284 0.69917,-1.82196 -1.83912,-13.87548 -3.21081,-15.24717 -1.53129,-1.53128 -1.06627,-5.76563 0.79698,-7.25719 2.3202,-1.85735 -0.1536,-16.87469 -3.29614,-20.00935 -2.69418,-2.68742 -2.81019,-5.24703 -0.2818,-6.21726 1.9814,-0.76034 1.90141,-1.92803 -0.88869,-12.97369 -0.90772,-3.59361 -2.01735,-5.3125 -3.42946,-5.3125 -1.14815,0 -2.76255,-0.675 -3.58755,-1.5 -1.68883,-1.68883 -2.04013,-6 -0.48891,-6 0.5561,0 1.97544,-0.70515 3.15407,-1.56699 1.99873,-1.46151 2.00783,-1.98742 0.13504,-7.8125 -3.7003,-11.50941 -4.54854,-13.12051 -6.90787,-13.12051 -1.2674,0 -2.95345,-1.21283 -3.74678,-2.69516 -1.20965,-2.26025 -1.02844,-3.01666 1.12294,-4.6875 l 2.56534,-1.99234 -3.47093,-9.98351 c -3.44968,-9.92238 -3.50274,-9.98979 -8.66691,-11.01105 -3.21569,-0.63594 -5.19599,-1.71413 -5.19599,-2.829 0,-1.16932 -1.42553,-1.85232 -4.0625,-1.94644 -4.21288,-0.15038 -3.5421,-0.41154 4.375,-1.7034 3.00224,-0.48989 4.6875,-1.44146 4.6875,-2.64675 0,-1.03504 -2.3334,-6.3533 -5.18532,-11.81836 -4.24191,-8.12862 -5.72019,-9.93649 -8.125,-9.93649 -1.61683,0 -2.93968,-0.54485 -2.93968,-1.21078 0,-0.66591 -0.80061,-0.90353 -1.77914,-0.52805 -1.01894,0.39102 -2.37299,-0.4269 -3.16897,-1.91422 21.10297,-36.29419 -1.44995,9.8318 -1.30189,-7.02671 0,-1.68863 -0.62347,-3.07024 -1.38551,-3.07024 -0.84023,0 -1.08769,-1.18661 -0.62878,-3.01505 0.58862,-2.34523 -0.493,-4.54924 -4.86861,-9.92075 -5.17804,-6.35659 -5.95355,-6.85242 -9.75319,-6.23583 -3.61593,0.58679 -4.54553,0.12224 -7.49588,-3.74585 -1.85242,-2.42864 -3.36803,-5.74038 -3.36803,-7.35941 0,-3.47212 -10.06484,-12.526842 -13.45377,-12.103539 C 435.72759,91.784094 430,89.033165 430,87.024716 c 0,-0.982939 -2.49079,-3.246861 -5.53509,-5.030939 -6.46079,-3.786274 -6.96491,-3.88178 -6.96491,-1.319493 0,2.179196 -1.41359,1.303165 -7.37088,-4.567894 -4.03208,-3.973721 -12.67251,-8.466196 -14.81662,-7.703709 -0.85938,0.305609 -1.5625,1.421403 -1.5625,2.479541 0,1.568397 -0.34646,1.636354 -1.875,0.367778 C 390.84375,70.394139 390,70.084192 390,70.56123 c 0,1.331496 -3.16589,-2.174521 -4.03265,-4.465894 -0.86815,-2.295073 -10.03561,-4.515563 -10.67862,-2.586516 -0.22473,0.674181 -1.366,0.97433 -2.53617,0.666996 -3.84094,-12.047611 19.03457,-0.35349 -12.00467,-5.986105 -3.82459,-0.611576 -5.41549,-0.335542 -6.48341,1.124923 -1.92283,2.62963 -3.63028,2.43141 -5.6827,-0.659718 -1.13088,-1.703176 -3.22394,-2.669807 -6.08997,-2.8125 -3.95761,-0.197039 -4.33726,0.07547 -4.05061,2.907584 0.22734,2.246248 -8.1e-4,2.634404 -0.81135,1.380354 -0.62019,-0.959557 -1.92789,-1.437558 -2.90599,-1.062225 -0.9781,0.375332 -2.44588,-0.386452 -3.26175,-1.692853 -2.08293,-3.335316 -10.19695,-3.328605 -11.06978,0.0091 -0.61184,2.339648 -4.57225,4.269069 -5.94504,2.896282 C 314.06382,59.897155 313.75,58.552084 313.75,57.291666 313.75,55.592976 312.80612,55 310.10224,55 304.87487,55 302.5,56.184614 302.5,58.792081 c 0,3.133008 -3.96137,3.648519 -6.28676,0.818125 -2.64993,-3.225411 -10.85829,-1.756875 -12.69349,2.270959 -0.9354,2.052979 -2.00939,2.63267 -3.96389,2.139531 -1.47447,-0.372024 -3.05972,-1.25185 -3.52279,-1.95517 -1.07071,-1.62627 -10.76212,1.422285 -12.09542,3.804769 -0.51704,0.923881 -4.00514,2.184707 -7.75135,2.801836 -9.12376,1.502993 -13.57982,3.33593 -14.57836,5.996609 -1.33298,3.551769 -4.38545,5.129049 -8.60195,4.444806 -3.4717,-0.56338 -4.72164,0.163238 -10.6592,6.196423 -5.39809,5.485026 -7.12679,6.582032 -8.75437,5.555385 -1.59511,-1.006175 -3.37943,-0.139745 -8.35864,4.058791 -6.93637,5.848825 -10.48214,12.515065 -6.73125,12.655085 1.61877,0.0604 1.48676,0.33578 -0.55628,1.16025 -1.47331,0.59455 -3.52266,2.28586 -4.55411,3.75845 -1.32043,1.88517 -2.03924,2.18914 -2.4292,1.02726 -0.81378,-2.42466 -6.39083,0.76881 -13.91175,7.96601 -4.57,4.37329 -5.95902,6.52025 -5.45798,8.43625 0.36965,1.41354 0.1624,2.88506 -0.46056,3.27008 -0.62296,0.38501 -1.13265,2.32533 -1.13265,4.31184 0,4.2653 -4.81526,9.99063 -8.40259,9.99063 -1.78773,0 -4.15401,2.81641 -8.38226,9.97682 -5.95265,10.08064 -6.1971,11.96305 -1.76636,13.60209 2.39769,0.88697 2.39364,0.96644 -0.21863,4.2874 -1.5162,1.92753 -3.89995,3.38369 -5.53913,3.38369 -2.46307,0 -3.25102,1.21529 -5.47055,8.4375 -4.47933,14.57533 -4.43008,13.90669 -1.13484,15.4081 1.64874,0.75121 2.9977,2.13728 2.9977,3.08014 0,0.94286 -0.42989,1.44861 -0.9553,1.12389 -0.52541,-0.32473 -1.29343,-0.0433 -1.7067,0.62538 -0.41326,0.6687 -1.48701,0.93353 -2.3861,0.58852 -2.34883,-0.90133 -3.81376,1.5609 -6.19068,10.4051 -3.18962,11.86823 -2.83998,13.62517 2.57298,12.92926 2.63704,-0.33903 0.47296,2.90029 -3.78346,5.66329 -3.42798,2.22522 -4.3124,3.85312 -5.67346,10.44271 -1.36531,6.61017 -1.34046,8.12181 0.1622,9.86382 0.97603,1.1315 2.08253,3.32292 2.45887,4.86979 0.53146,2.18448 0.14339,2.8125 -1.73794,2.8125 -2.87185,0 -3.15907,0.75105 -4.18277,10.9375 -0.71952,7.15971 -0.58322,7.8125 1.63116,7.8125 1.32896,0 2.69667,1.07221 3.03937,2.3827 0.45865,1.7539 -0.50882,2.99095 -3.66603,4.6875 -3.26414,1.75403 -4.12906,2.90223 -3.61937,4.8048 0.36837,1.375 0.67743,4.94329 0.68682,7.92953 0.0135,4.3051 0.51689,5.56022 2.43057,6.06067 1.39763,0.36549 2.13838,1.34813 1.75985,2.33454 6.94272,4.06038 36.22203,2.28481 8.47764,2.79084 L 117.17697,315 l 0.85932,9.0625 c 0.47263,4.98437 1.57905,9.625 2.45873,10.3125 2.63897,2.06246 2.91108,4.7189 0.70896,6.92102 -1.77697,1.77697 -1.91131,3.31598 -0.92923,10.64595 0.81221,6.06214 1.8361,9.05062 3.50021,10.2162 1.29369,0.90614 3.18338,2.47874 4.19931,3.49468 -18.28709,-4.63817 -13.79465,-1.43611 -4.84927,3.72215 l 0.39129,6.4529 c 0.64682,10.66679 1.79936,13.36481 6.25506,14.64269 4.02844,1.15534 5.57554,4.52941 2.07685,4.52941 -4.04362,0 -4.49434,5.14214 -1.4219,16.22195 2.49622,9.00184 3.38991,10.70351 5.93706,11.30481 3.70499,0.87463 4.61314,4.6086 1.64815,6.77665 -2.10898,1.54213 -2.10558,1.94487 0.0757,8.96812 3.72745,12.00132 7.85415,20.47847 9.96895,20.47847 2.13443,0 2.50761,2.17469 0.82808,4.82551 -1.40869,2.22335 9.04072,25.64812 11.68902,26.20364 1.05968,0.22229 1.92669,0.92541 1.92669,1.5625 0,0.6371 1.03471,1.15835 2.29935,1.15835 2.40823,0 5.20065,4.69018 5.20065,8.73505 0,1.30208 0.46871,2.65709 1.04159,3.01114 0.57287,0.35406 0.8117,2.21539 0.53072,4.13627 -0.77594,5.30472 10.78064,22.36205 15.91455,23.48965 3.82261,0.83959 6.9923,4.6868 5.65035,6.85813 -0.40062,0.64821 0.41711,2.32408 1.8172,3.72417 1.40008,1.40008 2.54559,3.32472 2.54559,4.27699 0,2.10431 11.06595,15.7686 12.77012,15.7686 0.66767,0 1.50812,-1.125 1.86769,-2.5 0.73484,-2.81 0.67718,-2.78034 3.38495,-1.74126 1.08749,0.4173 1.97724,1.85592 1.97724,3.19693 0,3.29664 5.81642,13.6582 9.16625,16.32903 4.04297,3.2235 7.08375,2.83299 7.08375,-0.9097 0,-1.71875 0.5625,-3.125 1.25,-3.125 0.6875,0 1.25,1.10521 1.25,2.45602 0,1.35082 1.11574,3.05314 2.47942,3.78297 1.50049,0.80303 2.36417,2.40192 2.1875,4.04962 -0.226,2.10785 0.97829,3.34619 5.33308,5.48385 5.06681,2.48717 5.77744,2.56571 7.16111,0.79153 1.3527,-1.73447 2.02738,-1.44875 5.65053,2.3929 4.1058,4.35341 15.31246,9.31711 16.5424,7.32702 0.99441,-1.609 6.07192,0.11138 7.90434,2.67813 0.89836,1.25837 2.61398,2.28796 3.8125,2.28796 1.19852,0 2.81631,0.63719 3.5951,1.41597 2.21346,2.21347 5.33402,0.25887 5.33402,-3.34102 0,-2.95775 0.17858,-3.07495 1.96429,-1.28924 1.08035,1.08037 2.70225,1.96429 3.60421,1.96429 0.90195,0 1.93411,1.125 2.29369,2.5 0.47399,1.81255 1.70501,2.5 4.47681,2.5 2.54373,0 4.27076,-0.83659 5.161,-2.5 1.79849,-3.3605 7.5,-3.42361 7.5,-0.083 0,1.67953 1.04883,2.57283 3.4375,2.9278 4.98596,0.74095 5.89343,0.38228 6.31959,-2.49776 z M 232.69736,565 c 0,-1.71875 0.28373,-2.42188 0.63049,-1.5625 0.34676,0.85937 0.34676,2.26562 0,3.125 -0.34676,0.85937 -0.63049,0.15625 -0.63049,-1.5625 z m -17.38214,-16.875 c 0.2492,-6.61394 1.15532,0.32378 0.54366,2.82708 -0.31287,1.19511 -0.5575,-0.0771 -0.54363,-2.82708 z M 449.08626,110.38346 c 1.21621,-0.31693 2.90371,-0.29608 3.75,0.0463 0.84628,0.34241 -0.14879,0.60172 -2.21129,0.57624 -2.0625,-0.0255 -2.75493,-0.30562 -1.53871,-0.62254 z M 462.5,536.80123 C 462.5,535.81055 461.65625,535 460.625,535 c -1.88279,0 -2.5696,2.63874 -1.07565,4.13269 1.16655,1.16655 2.95065,-0.24315 2.95065,-2.33146 z M 166.94231,499.89109 c 1.28815,-2.08428 -1.60901,-4.47439 -3.3334,-2.75 -1.4424,1.4424 -0.53965,4.10891 1.39109,4.10891 0.60635,0 1.48039,-0.61151 1.94231,-1.35891 z m 1.25,-360 c 1.28815,-2.08428 -1.60901,-4.47439 -3.3334,-2.75 -1.4424,1.4424 -0.53965,4.10891 1.39109,4.10891 0.60635,0 1.48039,-0.61151 1.94231,-1.35891 z"
       id="path4142"
       inkscape:connector-curvature="0"
       sodipodi:nodetypes="cscsscssssssssssssssssssssssssscssccscssccccsssssssscsssssssscccssssssccsssscssssssscssssssscccssssscccsssssssscsscsssssssscccssssssssssssscssssssssscccsssssssssssssssssccsssssssscsssssscssssssscsssssssssssssssccssssssssssssssscccsssssccssssssssssssscssssssscssssssssssssssssssssssccssssccccscssssssssssssss" />
    <path
       style="fill:#616161"
       d="m 303.71382,1212.3522 c -7.5953,-1.52 -10.99737,-2.8747 -13.68448,-5.4491 -1.9669,-1.8844 -4.14553,-3.0743 -4.84139,-2.6443 -0.69586,0.4301 -1.61852,0.2103 -2.05035,-0.4884 -0.43182,-0.6987 -0.16965,-1.2704 0.58261,-1.2704 0.96916,0 0.9493,-0.7819 -0.0681,-2.683 -1.72799,-3.2288 -0.96826,-11.4297 1.60886,-17.3672 6.7301,-15.5057 6.47141,-11.6619 6.85286,-101.8248 0.51893,-122.65933 1.12432,-162.03792 2.73838,-178.125 1.3035,-12.99174 2.05753,-16.30228 5.1337,-22.53935 1.39123,-2.8208 0.79696,-11.75804 -1.53505,-23.08565 -1.13229,-5.5 -3.51533,-17.875 -5.29565,-27.5 -1.78032,-9.625 -4.00684,-19.75 -4.94781,-22.5 -0.941,-2.75 -2.9521,-10.34375 -4.46914,-16.875 -2.66091,-11.45596 -16.34667,-53.73239 -27.97344,-86.41223 C 240.2862,660.08135 205.48178,590.46721 190.94899,573.94624 187.52785,570.05705 182.72896,563.78125 180.2848,560 c -5.74584,-8.88911 -20.24879,-32.76776 -24.29441,-40 -1.73062,-3.09375 -5.23987,-9.17519 -7.79835,-13.5143 -6.12329,-10.38486 -21.71873,-47.27658 -27.31328,-64.6107 -9.01145,-27.92104 -15.17173,-56.55765 -18.95735,-88.125 -3.541171,-29.52898 -1.16988,-87.61305 4.64387,-113.75 0.84108,-3.78125 1.54401,-11.375 1.56208,-16.875 0.0753,-22.91584 20.59733,-75.28067 40.24164,-102.68205 25.60729,-35.71897 68.00599,-66.512929 108.03387,-78.464439 13.3838,-3.996131 19.77602,-5.419648 42.34713,-9.430515 13.38215,-2.377996 41.04146,-1.823446 58.125,1.165365 51.16568,8.951575 87.2836,26.724869 119.43841,58.77453 18.28871,18.228899 31.94531,37.519669 43.67984,61.700399 12.1584,25.05417 22.73036,57.80455 22.36021,69.26856 -0.10512,3.25497 0.70333,11.54315 1.79652,18.41815 4.31688,27.1488 5.86372,44.52537 5.84183,65.625 -0.0464,44.65917 -5.82877,85.29803 -17.69719,124.375 -12.17571,40.08874 -30.77912,80.11309 -49.52422,106.54901 -3.29583,4.64804 -7.09559,10.2007 -8.4439,12.33923 -1.34832,2.13854 -6.23924,8.88854 -10.86869,15 -9.61089,12.68758 -27.9105,42.96421 -36.55904,60.48676 -9.00336,18.24142 -30.56333,68.99546 -36.90393,86.875 -17.36985,48.98034 -27.47138,86.23063 -38.30418,141.25 -2.92074,14.83434 -2.95411,28.40706 -0.0776,31.5855 1.39802,1.54481 2.14447,4.48854 2.15865,8.51293 0.0125,3.38336 0.61217,11.49532 1.33392,18.02657 0.8251,7.46651 1.27735,53.06036 1.2182,122.8145 -0.0911,107.4626 -0.0112,111.3994 2.53307,125.6133 1.44492,8.0706 3.11774,15.5905 3.71738,16.7109 2.34207,4.3762 3.41134,16.4354 1.80814,20.3921 -0.85669,2.1143 -1.30256,4.5473 -0.99083,5.4067 0.31173,0.8594 -0.10199,1.5625 -0.91943,1.5625 -0.81743,0 -3.07445,1.3364 -5.01563,2.9698 -6.26801,5.2742 -36.832,7.7665 -53.74266,4.3824 z M 330.4817,839.83785 c 1.70462,-0.77669 3.63042,-2.88606 4.27954,-4.6875 1.83759,-5.09976 6.26568,-24.38228 9.07672,-39.52535 2.9701,-15.99995 8.35405,-35.64378 14.48385,-52.84562 2.38214,-6.68491 5.76703,-16.65438 7.52196,-22.15438 1.75495,-5.5 5.58564,-15.90625 8.51264,-23.125 9.86406,-24.32738 18.21454,-44.344 20.59811,-49.375 8.61892,-18.1919 12.54548,-27.13691 12.54548,-28.57953 0,-0.9119 -1.12926,-2.67997 -2.50948,-3.92905 -2.4056,-2.17703 -2.83242,-2.1813 -10.3125,-0.10275 -4.29166,1.19256 -9.49052,2.92498 -11.55302,3.84985 -2.0625,0.92487 -6.5625,2.9476 -10,4.49498 -4.38061,1.97191 -11.29734,3.339 -23.125,4.57065 -19.02114,1.98074 -25.32905,2.13665 -38.75,0.9578 -5.15625,-0.4529 -12.62931,-0.74794 -16.60681,-0.65564 -5.33596,0.12388 -8.32388,-0.50711 -11.39754,-2.40674 -2.29116,-1.41602 -4.99654,-2.57457 -6.01196,-2.57457 -1.01542,0 -2.81503,-1.07051 -3.99912,-2.37891 -1.18408,-1.30841 -6.94437,-3.87283 -12.80063,-5.69871 -9.9117,-3.09032 -10.85639,-3.1831 -13.66585,-1.34228 -4.52078,2.96213 -3.84414,7.56713 3.35098,22.80576 9.31859,19.73595 15.77423,35.55908 30.49265,74.73914 4.79925,12.77549 20.54477,63.54066 21.86149,70.48375 0.68682,3.62154 1.47994,6.96297 1.7625,7.42542 0.28258,0.46245 2.28906,9.55958 4.45888,20.21583 2.16981,10.65625 4.52176,21.20904 5.22654,23.45064 2.05248,6.52802 9.74222,9.49386 16.56057,6.38721 z M 331.25,607.336 c 0,-1.35847 1.23145,-2.88094 2.8125,-3.47716 2.27655,-0.85849 3.11785,-0.49353 4.41493,1.91529 0.88132,1.63672 2.28757,2.9682 3.125,2.95881 3.72117,-0.0417 7.12166,-1.68209 7.77876,-3.75243 1.01121,-3.18605 4.40532,-4.15841 6.15637,-1.7637 1.16013,1.58658 2.6795,1.82884 7.20937,1.14955 5.14493,-0.77153 5.83341,-1.26883 6.64672,-4.80102 0.49901,-2.16719 0.88794,-5.62784 0.8643,-7.69034 -0.0361,-3.15197 0.0576,-3.26914 0.58805,-0.7347 0.61931,2.95929 1.53814,4.17028 5.53636,7.29669 2.8624,2.23825 8.78628,-0.11025 12.31413,-4.88194 2.48596,-3.36246 3.37927,-3.74815 7.23281,-3.12281 5.43586,0.88212 11.23192,-1.87844 12.84346,-6.11711 0.64095,-1.68582 1.98739,-3.06513 2.9921,-3.06513 1.13621,0 1.97481,-1.49929 2.21844,-3.96624 0.21544,-2.18142 1.17444,-4.22358 2.13111,-4.53813 1.28708,-0.42318 1.57446,0.29093 1.10513,2.74607 -0.34884,1.82489 -0.13569,3.6261 0.47368,4.00273 0.98619,0.60948 7.08594,-3.54037 10.43178,-7.09708 0.6875,-0.73082 2.50711,-2.6102 4.04359,-4.17637 2.18423,-2.22648 2.7386,-4.11067 2.54155,-8.63834 -0.13995,-3.21571 1.08639,2.1399 1.93099,1.2953 1.1946,-1.1946 0.85887,-8.73323 0.85887,-3.62794 0,4.62935 0.48654,6.5 1.6906,6.5 2.61201,0 13.3094,-14.36005 13.3094,-17.86637 0,-1.69264 0.84375,-3.77777 1.875,-4.63363 2.98861,-2.48034 2.18382,-5.00074 -1.85471,-5.80844 -4.31078,-0.86216 -3.83115,-2.94156 0.67848,-2.94156 3.02175,0 3.65507,-1.71263 3.2357,-8.75 -0.0756,-1.26987 0.11263,-1.36821 0.58367,-0.30471 0.38246,0.86366 1.20985,1.25234 1.83862,0.86372 0.62878,-0.3886 1.14324,0.62142 1.14324,2.24448 0,2.52089 0.6437,2.96929 4.41605,3.07622 4.10514,0.11638 4.64445,-0.32822 7.66031,-6.31477 1.78434,-3.54197 4.32223,-7.96829 5.63974,-9.83627 2.20815,-3.1307 2.24229,-3.63013 0.43654,-6.38607 -1.75243,-2.67452 -1.7583,-3.15628 -0.0558,-4.56922 1.04673,-0.86873 1.90316,-2.10295 1.90316,-2.74276 0,-2.27723 5.64997,-9.37552 7.0763,-8.89022 2.22111,0.75572 6.44125,-4.44498 10.50354,-12.94411 4.34213,-9.08462 4.5225,-11.15217 1.13121,-12.96714 l -2.53896,-1.35881 2.58386,-3.6287 c 1.49114,-2.09412 3.31847,-3.34682 4.32091,-2.96214 2.36548,0.90771 5.3591,-3.99244 8.25313,-13.50924 2.79602,-9.19455 3.03695,-13.64726 0.85751,-15.84811 -1.25138,-1.26366 -1.13921,-1.81674 0.5633,-2.77758 3.57736,-2.01896 5.9992,-4.96113 5.9992,-7.28817 0,-1.21826 1.125,-5.48489 2.5,-9.4814 3.09935,-9.00841 3.12152,-10.625 0.14579,-10.625 -1.33227,0 -2.64902,-1.12734 -3.03334,-2.59698 -0.52998,-2.02666 0.11312,-2.87313 2.92814,-3.85447 3.88408,-1.354 4.04492,-1.68361 6.25507,-12.8188 1.41163,-7.11204 1.35643,-7.47928 -1.44146,-9.58973 -1.60011,-1.20697 -3.34046,-1.92802 -3.86744,-1.60233 -0.52696,0.32568 -0.66829,-0.16317 -0.31402,-1.08633 0.35425,-0.92317 2.22971,-2.277 4.16768,-3.0085 2.77663,-1.04806 3.69408,-2.36216 4.32783,-6.19894 1.42946,-8.65408 0.99034,-15.51152 -1.04325,-16.29188 -2.69259,-1.03325 -2.31045,-5.13103 0.625,-6.70204 2.09415,-1.12075 2.5,-2.61728 2.5,-9.21834 0,-7.36222 -0.22603,-7.98919 -3.4375,-9.53536 -1.89063,-0.91024 -4.84375,-1.59923 -6.5625,-1.53106 -2.48564,0.0986 -2.61351,-0.0171 -0.625,-0.56527 1.375,-0.37905 2.78125,-1.09977 3.125,-1.60161 0.34375,-0.50184 2.3125,-1.71914 4.375,-2.70512 3.88879,-1.85904 3.84674,-1.68203 3.00744,-12.66068 -0.14474,-1.89334 -1.02125,-4.07159 -1.9478,-4.84055 -2.20059,-1.82632 -2.15568,-6.07155 0.0827,-7.82921 2.50431,-1.96638 0.16621,-16.76361 -3.14027,-19.874 -2.82871,-2.66094 -3.07195,-5.35473 -0.57017,-6.31474 1.31462,-0.50447 1.6241,-1.98849 1.13575,-5.44624 -1.27258,-9.0103 -2.80846,-12.2081 -6.68835,-13.92551 -3.83994,-1.69972 -5.337,-6.45231 -2.03245,-6.45231 0.94706,0 2.39446,-0.81034 3.21644,-1.80076 2.37532,-2.86209 -3.6894,-19.93813 -7.27154,-20.47404 -4.14865,-0.62066 -5.77294,-4.73071 -2.85647,-7.22787 2.38306,-2.04044 2.41129,-4.75709 0.10262,-9.87233 -0.62058,-1.375 -1.83925,-4.72836 -2.70816,-7.45193 -1.28293,-4.02127 -2.30512,-5.09967 -5.43895,-5.73803 -7.48501,-1.52469 -9.07936,-4.72967 -3.59574,-7.22817 l 3.17015,-1.44442 -5.84774,-11.25623 C 493.1408,149.41712 491.64284,147.5 489.19741,147.5 c -1.62107,0 -2.94741,-0.62268 -2.94741,-1.38374 0,-0.76105 -0.83518,-1.06325 -1.85594,-0.67155 -2.4277,0.9316 -4.82357,-3.56322 -3.88744,-7.29311 0.42792,-1.70493 0.017,-3.44836 -1.01466,-4.30454 -0.95364,-0.79143 -1.45326,-2.51206 -1.11029,-3.82358 0.40594,-1.55229 -1.26161,-4.79842 -4.77746,-9.3001 -5.12672,-6.56422 -5.6289,-6.87905 -9.8868,-6.19818 -4.03744,0.64561 -4.8221,0.27628 -7.85157,-3.69555 -1.85121,-2.42707 -3.36584,-5.80878 -3.36584,-7.51491 0,-2.23919 -1.79738,-4.533169 -6.46156,-8.246844 -3.84343,-3.060184 -6.91876,-4.687567 -7.58995,-4.016389 -1.54679,1.546796 -7.02449,-1.126778 -7.90831,-3.85992 -1.01189,-3.129181 -11.18413,-8.802409 -14.11502,-7.872182 -1.64287,0.52143 -3.53025,-0.359318 -5.97573,-2.788598 -1.96594,-1.952908 -5.95388,-4.881054 -8.86209,-6.50699 -5.11444,-2.859406 -5.36935,-2.882321 -7.78135,-0.69949 -2.42618,2.195665 -2.60079,2.142302 -6.44993,-1.971285 -3.7508,-4.008492 -4.36227,-4.214838 -11.77559,-3.973776 -6.67277,0.216983 -7.90778,-0.08389 -8.42242,-2.051864 -0.86694,-3.315205 -10.75752,-4.933868 -12.82991,-2.099706 -1.96658,2.689456 -3.95562,2.554031 -5.52377,-0.376094 -1.80932,-3.38075 -8.79538,-4.764498 -10.72581,-2.12449 -1.85221,2.533053 -4.79614,2.59681 -6.82856,0.147888 -2.34455,-2.825015 -10.08054,-2.462046 -10.85759,0.509432 -1.00176,3.83071 -5.2566,4.216925 -6.17431,0.560447 -0.68521,-2.73011 -1.34852,-3.03165 -5.93229,-2.696839 -4.2614,0.311264 -5.23042,0.867115 -5.56025,3.18946 -0.47522,3.346105 -4.53117,3.831324 -6.25642,0.748466 -1.59311,-2.846728 -10.20914,-1.458864 -12.5591,2.023014 -1.91013,2.830175 -5.1473,3.303756 -7.3725,1.078557 -1.76563,-1.76562 -11.09068,0.885944 -12.59989,3.582758 -0.51704,0.923881 -4.00514,2.184707 -7.75135,2.801836 -9.2814,1.528962 -13.8171,3.433048 -14.51253,6.092364 -0.89312,3.415282 -5.2132,5.716378 -7.37055,3.925932 -2.38911,-1.982783 -12.26166,4.215436 -15.56816,9.774052 -2.12064,3.565064 -2.73882,3.898227 -4.8207,2.598072 -2.02085,-1.262036 -3.13029,-0.902877 -7.21375,2.335304 -6.91148,5.480805 -8.97355,8.045265 -9.47399,11.782195 -0.24258,1.81141 -1.11918,4.11057 -1.948,5.10923 -0.82881,0.99866 -1.08993,2.27605 -0.58027,2.83864 0.50965,0.56259 0.22352,0.61826 -0.63585,0.12371 -0.89628,-0.51578 -1.5625,-0.23287 -1.5625,0.66351 0,0.93811 -0.62896,0.70252 -1.57368,-0.58944 -1.48626,-2.03259 -1.7394,-2.0285 -4.55766,0.0736 -1.6412,1.22414 -5.66236,4.64473 -8.93592,7.60131 -5.51512,4.98108 -6.01692,5.93565 -6.83762,13.00683 -0.9414,8.11114 -4.32806,12.93862 -9.6333,13.73167 -1.41982,0.21225 -3.18133,1.5109 -3.91446,2.8859 -0.73312,1.375 -2.8647,4.79286 -4.73682,7.59526 -1.87213,2.8024 -3.76578,6.53726 -4.20813,8.29969 -0.67226,2.67853 -0.27162,3.38197 2.44118,4.28625 3.07505,1.02501 3.14303,1.22801 1.29491,3.86657 -1.07279,1.53163 -3.70114,3.2384 -5.84079,3.79284 -3.59647,0.93195 -4.12281,1.7977 -6.9699,11.46451 l -3.07964,10.45645 2.83069,2.1352 c 3.08044,2.32358 2.44076,4.97823 -1.19957,4.97823 -3.19789,0 -4.50493,2.02677 -6.93159,10.74853 -2.66565,9.58075 -2.2401,13.65733 1.41354,13.54078 3.50493,-0.11175 2.54227,1.96069 -2.3623,5.08569 -3.26015,2.07723 -4.21879,3.83722 -5.66885,10.40773 -1.5561,7.0509 -1.53038,8.1451 0.23736,10.09843 2.48367,2.74442 2.59969,7.61884 0.18132,7.61884 -2.4964,0 -3.29022,1.65671 -3.93147,8.20505 -0.30453,3.10977 -0.61212,6.05143 -0.68352,6.53703 -0.36874,2.50763 0.40713,3.77934 2.66622,4.3701 3.59962,0.94133 3.07522,4.27615 -1.00417,6.38569 -3.3099,1.71161 -3.49307,2.24411 -3.30409,9.60541 0.13273,5.17045 0.81228,8.25247 2.01913,9.15753 1.98943,1.49196 4.20768,6.29992 2.38761,5.17505 -0.61758,-0.38169 -2.08998,-0.32286 -3.27199,0.13072 -1.86053,0.71395 -2.04057,1.99265 -1.34075,9.52243 0.53768,5.78527 1.62903,9.74104 3.25919,11.81346 2.43464,3.09513 2.43461,3.12929 -0.004,5.16913 -2.25311,1.88426 -2.35196,2.77416 -1.19999,10.8034 0.82476,5.74858 1.99788,9.29411 3.41999,10.33623 1.19054,0.87243 3.11044,2.38079 4.26644,3.35192 1.15601,0.97112 3.96851,2.00303 6.25,2.29313 2.52202,0.32069 1.55597,0.52084 -2.4643,0.51057 -9.14121,-0.0234 -9.71388,0.86552 -7.62305,11.83225 1.65014,8.65521 1.93539,9.15987 5.79802,10.25781 4.54108,1.29077 5.37822,3.90744 1.56882,4.90362 -4.01972,1.05118 -4.2227,4.031 -1.06284,15.60189 2.49687,9.14313 3.42261,10.97609 5.70921,11.30428 3.83965,0.55107 5.0034,4.98827 1.88174,7.17477 -2.40723,1.68609 -2.36734,1.96731 2.068,14.57639 3.38947,9.63586 5.22722,13.16629 7.33507,14.09105 3.10047,1.36024 3.56478,3.13881 1.38775,5.31584 -1.06633,1.06633 -0.0605,4.3524 3.9985,13.0625 5.44742,11.6896 8.79387,15.93337 12.60502,15.98495 2.87718,0.039 4.84725,5.45057 5.29077,14.53337 0.10813,2.21494 2.86485,8.20808 6.42248,13.96268 5.23942,8.47498 6.87357,10.20536 10.25163,10.85533 4.51453,0.86865 5.43513,1.88864 5.95167,6.59418 0.19772,1.80121 1.26966,3.94046 2.38208,4.75389 1.11244,0.81342 2.0226,2.45222 2.0226,3.64178 0,2.38317 10.82898,15.68657 12.76887,15.68657 0.66835,0 1.5154,-1.148 1.88231,-2.55112 0.72861,-2.7862 2.82055,-2.72233 4.11134,0.12552 0.44886,0.99032 1.75467,3.67431 2.9018,5.9644 1.14712,2.29008 2.08568,4.9147 2.08568,5.83246 0,2.24524 9.62283,9.75939 11.22783,8.76744 0.69965,-0.43244 1.27213,-2.1593 1.27213,-3.83747 0,-1.67818 0.5625,-3.05123 1.25,-3.05123 0.6875,0 1.25,1.10521 1.25,2.45602 0,1.35082 1.11574,3.05314 2.47942,3.78297 1.50049,0.80303 2.36417,2.40192 2.1875,4.04962 -0.4005,3.73531 10.15339,9.26959 12.34812,6.47514 1.1772,-1.49886 1.89493,-1.37271 4.6875,0.82391 1.8136,1.42659 3.30299,3.25609 3.30975,4.06557 0.0152,1.82132 12.38437,6.06358 14.25357,4.88856 2.02299,-1.2717 6.21795,-0.29306 7.36545,1.71829 1.06648,1.86932 8.74723,5.48992 11.64634,5.48992 0.9473,0 1.72235,-1.125 1.72235,-2.5 0,-1.375 0.42187,-2.49232 0.9375,-2.48294 3.2679,0.0595 6.42021,1.80384 6.95491,3.8485 0.91064,3.48233 9.05359,3.38794 9.96978,-0.1155 0.91796,-3.51031 5.66126,-3.25862 7.04226,0.37368 0.8452,2.22303 2.11177,2.90257 5.59406,3.00129 3.66035,0.10368 4.50149,-0.32403 4.50149,-2.28903 z M 504.70208,231.61595 c 1.55488,-0.29899 3.80488,-0.28764 5,0.0252 1.19511,0.31286 -0.0771,0.5575 -2.82708,0.54362 -2.75,-0.0139 -3.72781,-0.26986 -2.17292,-0.56885 z M 168.51204,139.0625 c -112.34136,740.625 -56.17068,370.3125 0,0 z"
       id="path4140"
       inkscape:connector-curvature="0"
       sodipodi:nodetypes="cscsscsssssssssssssssssssssssssssssssssccssccssssccsssssssssssssscsssssssscssscsssssssscsssssssscsssssssssscccssssscsssscssssssssssssscsssssssssssscsssssssssssscsssssssssssssssssssssssssssssssssssssssssssssssssssssssscssscssssscsssssssscsssssssssssssssccssscsssssscsssssssssssscssscccccscccc" />
  </g>
</svg>
