<?xml version="1.0" encoding="UTF-8" standalone="no"?>
<!-- Created with Inkscape (http://www.inkscape.org/) -->

<svg
   xmlns:dc="http://purl.org/dc/elements/1.1/"
   xmlns:cc="http://creativecommons.org/ns#"
   xmlns:rdf="http://www.w3.org/1999/02/22-rdf-syntax-ns#"
   xmlns:svg="http://www.w3.org/2000/svg"
   xmlns="http://www.w3.org/2000/svg"
   xmlns:sodipodi="http://sodipodi.sourceforge.net/DTD/sodipodi-0.dtd"
   xmlns:inkscape="http://www.inkscape.org/namespaces/inkscape"
   width="233.58157mm"
   height="146.25475mm"
   viewBox="0 0 827.65126 518.2255"
   id="svg2"
   version="1.1"
   inkscape:version="0.91 r13725"
   sodipodi:docname="free_strings.svg">
  <defs
     id="defs4" />
  <sodipodi:namedview
     id="base"
     pagecolor="#000000"
     bordercolor="#666666"
     borderopacity="1.0"
     inkscape:pageopacity="0"
     inkscape:pageshadow="2"
     inkscape:zoom="0.35"
     inkscape:cx="-1034.8731"
     inkscape:cy="-572.45958"
     inkscape:document-units="px"
     inkscape:current-layer="flowRoot4162"
     showgrid="false"
     units="mm"
     fit-margin-top="0"
     fit-margin-left="0"
     fit-margin-right="0"
     fit-margin-bottom="0"
     inkscape:window-width="1855"
     inkscape:window-height="1056"
     inkscape:window-x="65"
     inkscape:window-y="24"
     inkscape:window-maximized="1" />
  <metadata
     id="metadata7">
    <rdf:RDF>
      <cc:Work
         rdf:about="">
        <dc:format>image/svg+xml</dc:format>
        <dc:type
           rdf:resource="http://purl.org/dc/dcmitype/StillImage" />
        <dc:title></dc:title>
      </cc:Work>
    </rdf:RDF>
  </metadata>
  <g
     inkscape:label="Layer 1"
     inkscape:groupmode="layer"
     id="layer1"
     transform="translate(299.16627,-253.94775)">
    <g
       transform="translate(-328.57143,393.98201)"
       style="font-style:normal;font-variant:normal;font-weight:normal;font-stretch:normal;font-size:40px;line-height:125%;font-family:Play;-inkscape-font-specification:'Play, Normal';text-align:start;letter-spacing:0px;word-spacing:0px;writing-mode:lr-tb;text-anchor:start;fill:#ffffff;fill-opacity:1;stroke:none;stroke-width:1px;stroke-linecap:butt;stroke-linejoin:miter;stroke-opacity:1"
       id="flowRoot4162">
      <path
         d="m 452.51723,-140.03426 0,61.519847 58.18444,0 0,24.8303 -58.18444,0 0,61.890453 -24.8303,0 0,-61.890453 -57.81383,0 0,-24.8303 57.81383,0 0,-61.519847 24.8303,0 z"
         style="font-size:180px;line-height:0%"
         id="path4453"
         inkscape:connector-curvature="0" />
      <path
         d="m 215.77828,169.0312 q -11.88,2.52 -27.9,2.52 -7.92,0 -12.42,-0.36 -4.32,-0.18 -10.08,-1.62 -5.58,-1.62 -8.64,-4.5 -2.88,-2.88 -5.04,-8.28 -2.16,-5.58 -2.16,-13.68 l 0,-32.04 q 0,-7.2 1.26,-12.419999 1.44,-5.22 4.32,-8.46 2.88,-3.24 5.94,-5.22 3.06,-1.98 8.28,-2.7 5.4,-0.9 9.36,-1.08 4.14,-0.36 10.98,-0.36 12.42,0 24.84,2.7 l 0,11.88 q -14.04,-3.6 -26.82,-3.6 -13.86,0 -17.82,2.88 -3.78,2.88 -3.78,14.039999 l 0,36 q 0,9.54 4.5,12.6 4.5,2.88 18.9,2.88 12.78,0 26.28,-3.42 l 0,12.24 z"
         style="font-size:180px;line-height:95.99999785%"
         id="path4455"
         inkscape:connector-curvature="0" />
      <path
         d="m 311.15016,94.511201 -34.02,0 0,75.239999 -16.2,0 0,-75.239999 -34.2,0 0,-11.88 84.42,0 0,11.88 z"
         style="font-size:180px;line-height:95.99999785%"
         id="path4457"
         inkscape:connector-curvature="0" />
      <path
         d="m 408.99422,105.4912 0,35.82 q 0,7.92 -2.34,13.68 -2.34,5.76 -5.94,9 -3.42,3.06 -9.18,4.86 -5.76,1.8 -10.8,2.16 -5.04,0.54 -12.24,0.54 -7.2,0 -14.04,-1.8 -6.84,-1.8 -8.64,-5.58 l 0,41.22 -16.2,0 0,-122.759999 16.2,0 0,9.36 q 1.98,-11.16 29.7,-11.16 17.46,0 25.38,7.38 8.1,7.2 8.1,17.279999 z m -16.56,37.8 0,-32.04 q 0,-12.059999 -5.22,-15.299999 -5.22,-3.42 -18.54,-3.42 -13.5,0 -18.72,3.42 -5.04,3.24 -5.04,15.299999 l 0,32.04 q 0,10.98 5.22,14.22 5.4,3.06 18.72,3.06 13.32,0 18.36,-3.06 5.22,-3.24 5.22,-14.22 z"
         style="font-size:180px;line-height:95.99999785%"
         id="path4459"
         inkscape:connector-curvature="0" />
      <path
         d="m 501.35672,82.631201 -43.2,122.759999 -16.92,0 13.14,-34.38 -33.66,-88.379999 17.64,0 24.3,71.099999 0.36,0 21.96,-71.099999 16.38,0 z"
         style="font-size:180px;line-height:95.99999785%"
         id="path4461"
         inkscape:connector-curvature="0" />
      <path
         d="m 591.88547,169.7512 -16.2,0 0,-39.06 -42.84,0 0,39.06 -16.2,0 0,-87.119999 16.2,0 0,36.179999 42.84,0 0,-36.179999 16.2,0 0,87.119999 z"
         style="font-size:180px;line-height:95.99999785%"
         id="path4463"
         inkscape:connector-curvature="0" />
      <path
         d="m 722.24484,169.7512 -16.2,0 0,-87.119999 16.2,0 0,87.119999 z m -61.92,0 -39.24,0 0,-87.119999 16.56,0 0,31.499999 24.12,0 q 16.02,0 23.22,3.78 7.2,3.78 7.2,14.94 l 0,18 q 0,18.9 -31.86,18.9 z m 16.02,-21.06 0,-10.98 q 0,-7.56 -3.24,-10.08 -3.06,-2.7 -13.5,-2.7 l -22.14,0 0,34.38 21.78,0 q 3.24,0 5.4,-0.18 2.34,-0.36 5.4,-1.08 3.06,-0.9 4.68,-3.24 1.62,-2.52 1.62,-6.12 z"
         style="font-size:180px;line-height:95.99999785%"
         id="path4465"
         inkscape:connector-curvature="0" />
      <path
         d="m 106.62516,314.2912 0,5.22 q 0,12.96 -8.280004,18 -8.1,5.04 -29.52,5.04 l -39.42,0 0,-87.12 38.16,0 q 11.52,0 18.54,1.44 7.2,1.26 10.26,4.5 3.24,3.24 4.140004,6.48 0.9,3.24 0.9,8.82 l 0,3.06 q 0,7.2 -3.780004,10.62 -3.78,3.24 -11.88,5.04 l 0,0.72 q 20.880004,3.42 20.880004,18.18 z m -20.700004,-35.1 0,-1.08 q 0,-6.84 -3.24,-9.18 -3.24,-2.34 -14.22,-2.34 l -22.86,0 0,25.56 23.4,0 q 10.8,0 13.86,-2.7 3.06,-2.7 3.06,-10.26 z m 4.14,39.78 0,-5.76 q 0,-4.68 -3.96,-7.56 -3.78,-2.88 -15.48,-2.88 l -25.02,0 0,28.08 24.12,0 q 12.6,0 16.38,-2.52 3.96,-2.52 3.96,-9.36 z"
         style="font-size:180px;line-height:95.99999785%"
         id="path4467"
         inkscape:connector-curvature="0" />
      <path
         d="m 247.51734,342.5512 -16.2,0 0,-75.24 -41.22,0 0,75.24 -16.2,0 0,-87.12 73.62,0 0,87.12 z"
         style="font-size:180px;line-height:95.99999785%"
         id="path4469"
         inkscape:connector-curvature="0" />
      <path
         d="m 353.56828,284.7712 0,30.24 q 0,8.1 -1.98,13.68 -1.98,5.58 -5.04,8.64 -3.06,3.06 -8.82,4.68 -5.58,1.62 -10.8,1.98 -5.04,0.36 -13.5,0.36 -10.8,0 -16.92,-0.72 -5.94,-0.72 -12.06,-3.42 -5.94,-2.88 -8.64,-9 -2.52,-6.12 -2.52,-16.2 l 0,-30.24 q 0,-8.64 1.98,-14.58 2.16,-5.94 5.04,-9.18 3.06,-3.24 8.82,-4.86 5.76,-1.8 10.62,-2.16 5.04,-0.36 13.68,-0.36 8.64,0 13.5,0.36 5.04,0.36 10.8,2.16 5.76,1.62 8.64,4.86 3.06,3.24 5.04,9.18 2.16,5.94 2.16,14.58 z m -16.56,32.58 0,-35.28 q 0,-12.06 -4.86,-14.94 -4.86,-2.88 -18.72,-2.88 -13.86,0 -18.72,2.88 -4.86,2.88 -4.86,14.94 l 0,35.28 q 0,5.76 1.26,9.18 1.26,3.42 4.68,5.04 3.42,1.44 7.02,1.8 3.6,0.36 10.62,0.36 7.02,0 10.62,-0.36 3.6,-0.36 7.02,-1.8 3.42,-1.62 4.68,-5.04 1.26,-3.42 1.26,-9.18 z"
         style="font-size:180px;line-height:95.99999785%"
         id="path4471"
         inkscape:connector-curvature="0" />
      <path
         d="m 428.69297,331.0312 0,-64.08 -27.18,0 0,4.5 q 0,34.2 -9.72,59.58 l 36.9,0 z m -41.58,-69.48 0,-6.12 55.98,0 0,75.6 8.64,0 0,35.64 -13.86,0 0,-24.12 -56.34,0 0,24.12 -13.86,0 0,-35.64 8.28,0 q 11.16,-25.02 11.16,-69.48 z"
         style="font-size:180px;line-height:95.99999785%"
         id="path4473"
         inkscape:connector-curvature="0" />
      <path
         d="m 543.56953,342.5512 -15.66,0 0,-8.28 q -1.98,10.08 -26.28,10.08 -18,0 -25.02,-5.4 -6.84,-5.58 -6.84,-22.32 0,-14.58 6.48,-19.98 6.48,-5.58 25.02,-5.58 l 26.1,0 0,-13.86 q 0,-7.2 -4.5,-9.72 -4.32,-2.52 -16.56,-2.52 -13.32,0 -29.88,2.16 l 0,-11.88 q 17.82,-1.62 32.22,-1.62 21.96,0 28.44,5.4 6.48,5.22 6.48,21.96 l 0,61.56 z m -16.2,-17.28 0,-24.12 -25.02,0 q -11.16,0 -14.04,2.88 -2.7,2.88 -2.7,13.14 0,9.36 2.88,13.14 3.06,3.78 12.6,3.78 l 3.24,0 q 4.68,0 7.74,-0.18 3.24,-0.18 7.2,-0.9 3.96,-0.9 5.94,-2.7 2.16,-1.98 2.16,-5.04 z"
         style="font-size:180px;line-height:95.99999785%"
         id="path4475"
         inkscape:connector-curvature="0" />
      <path
         d="m 650.86922,278.2912 0,35.82 q 0,7.92 -2.34,13.68 -2.34,5.76 -5.94,9 -3.42,3.06 -9.18,4.86 -5.76,1.8 -10.8,2.16 -5.04,0.54 -12.24,0.54 -7.2,0 -14.04,-1.8 -6.84,-1.8 -8.64,-5.58 l 0,41.22 -16.2,0 0,-122.76 16.2,0 0,9.36 q 1.98,-11.16 29.7,-11.16 17.46,0 25.38,7.38 8.1,7.2 8.1,17.28 z m -16.56,37.8 0,-32.04 q 0,-12.06 -5.22,-15.3 -5.22,-3.42 -18.54,-3.42 -13.5,0 -18.72,3.42 -5.04,3.24 -5.04,15.3 l 0,32.04 q 0,10.98 5.22,14.22 5.4,3.06 18.72,3.06 13.32,0 18.36,-3.06 5.22,-3.24 5.22,-14.22 z"
         style="font-size:180px;line-height:95.99999785%"
         id="path4477"
         inkscape:connector-curvature="0" />
      <path
         d="m 752.59172,284.7712 0,30.24 q 0,8.1 -1.98,13.68 -1.98,5.58 -5.04,8.64 -3.06,3.06 -8.82,4.68 -5.58,1.62 -10.8,1.98 -5.04,0.36 -13.5,0.36 -10.8,0 -16.92,-0.72 -5.94,-0.72 -12.06,-3.42 -5.94,-2.88 -8.64,-9 -2.52,-6.12 -2.52,-16.2 l 0,-30.24 q 0,-8.64 1.98,-14.58 2.16,-5.94 5.04,-9.18 3.06,-3.24 8.82,-4.86 5.76,-1.8 10.62,-2.16 5.04,-0.36 13.68,-0.36 8.64,0 13.5,0.36 5.04,0.36 10.8,2.16 5.76,1.62 8.64,4.86 3.06,3.24 5.04,9.18 2.16,5.94 2.16,14.58 z m -16.56,32.58 0,-35.28 q 0,-12.06 -4.86,-14.94 -4.86,-2.88 -18.72,-2.88 -13.86,0 -18.72,2.88 -4.86,2.88 -4.86,14.94 l 0,35.28 q 0,5.76 1.26,9.18 1.26,3.42 4.68,5.04 3.42,1.44 7.02,1.8 3.6,0.36 10.62,0.36 7.02,0 10.62,-0.36 3.6,-0.36 7.02,-1.8 3.42,-1.62 4.68,-5.04 1.26,-3.42 1.26,-9.18 z"
         style="font-size:180px;line-height:95.99999785%"
         id="path4479"
         inkscape:connector-curvature="0" />
      <path
         d="m 777.67641,342.5512 0,-87.12 16.2,0 0,37.62 q 6.3,0 9.54,-1.8 3.42,-1.8 7.38,-8.1 l 8.82,-14.22 q 5.04,-8.28 10.26,-10.8 5.4,-2.7 15.3,-2.7 l 6.12,0 0,9.18 -3.42,0 q -9.18,0 -15.12,9.54 l -6.84,11.16 q -6.3,10.98 -12.96,12.6 5.04,1.26 19.8,17.64 l 24.3,27 -19.98,0 -23.76,-27 q -5.22,-5.94 -9.54,-8.82 -4.32,-2.88 -5.76,-3.06 -1.44,-0.18 -4.14,-0.18 l 0,39.06 -16.2,0 z"
         style="font-size:180px;line-height:95.99999785%"
         id="path4481"
         inkscape:connector-curvature="0" />
    </g>
  </g>
</svg>
