<?xml version="1.0" encoding="UTF-8" standalone="no"?>
<!-- Created with Inkscape (http://www.inkscape.org/) -->

<svg
   xmlns:dc="http://purl.org/dc/elements/1.1/"
   xmlns:cc="http://creativecommons.org/ns#"
   xmlns:rdf="http://www.w3.org/1999/02/22-rdf-syntax-ns#"
   xmlns:svg="http://www.w3.org/2000/svg"
   xmlns="http://www.w3.org/2000/svg"
   xmlns:sodipodi="http://sodipodi.sourceforge.net/DTD/sodipodi-0.dtd"
   xmlns:inkscape="http://www.inkscape.org/namespaces/inkscape"
   id="svg2"
   version="1.1"
   inkscape:version="0.91 r13725"
   width="22.369009"
   height="22.367336"
   viewBox="0 0 22.369009 22.367337"
   sodipodi:docname="plus_active.svg">
  <metadata
     id="metadata8">
    <rdf:RDF>
      <cc:Work
         rdf:about="">
        <dc:format>image/svg+xml</dc:format>
        <dc:type
           rdf:resource="http://purl.org/dc/dcmitype/StillImage" />
        <dc:title></dc:title>
      </cc:Work>
    </rdf:RDF>
  </metadata>
  <defs
     id="defs6" />
  <sodipodi:namedview
     pagecolor="#ffffff"
     bordercolor="#666666"
     borderopacity="1"
     objecttolerance="10"
     gridtolerance="10"
     guidetolerance="10"
     inkscape:pageopacity="0"
     inkscape:pageshadow="2"
     inkscape:window-width="1855"
     inkscape:window-height="1056"
     id="namedview4"
     showgrid="false"
     fit-margin-top="0"
     fit-margin-left="0"
     fit-margin-right="0"
     fit-margin-bottom="0"
     inkscape:zoom="10.557517"
     inkscape:cx="35.337912"
     inkscape:cy="1.8056265"
     inkscape:window-x="65"
     inkscape:window-y="24"
     inkscape:window-maximized="1"
     inkscape:current-layer="svg2" />
  <g
     id="g4138"
     transform="translate(0.00763574,0.00763445)">
    <path
       style="fill:#edede8"
       d="m 8.5682064,22.288434 c -0.042851,-0.04867 -0.054575,-0.962786 -0.054575,-4.255156 l 0,-4.193169 -4.194445,0 c -3.57697274,0 -4.20362669,-0.0092 -4.25681587,-0.06237 -0.0933417,-0.09334 -0.0933417,-5.1083936 0,-5.2017353 0.05318918,-0.053189 0.67984313,-0.062371 4.25681587,-0.062371 l 4.194445,0 0,-4.194445 c 0,-3.57697274 0.00918,-4.20362669 0.062371,-4.25681587 0.093342,-0.0933417 5.1083946,-0.0933417 5.2017356,0 0.05319,0.05318918 0.06237,0.67984313 0.06237,4.25681587 l 0,4.194445 4.194445,0 c 3.576973,0 4.203627,0.00918 4.256816,0.062371 0.09334,0.093342 0.09334,5.1083943 0,5.2017353 -0.05319,0.05319 -0.679843,0.06237 -4.256816,0.06237 l -4.194445,0 0,4.194445 c 0,3.576973 -0.0092,4.203627 -0.06237,4.256816 -0.09299,0.09299 -5.1275731,0.09015 -5.2095319,-0.0029 z"
       id="path4152"
       inkscape:connector-curvature="0" />
    <path
       style="fill:#c5c4b7"
       d="m 8.5837924,22.284681 c -0.014576,-0.03798 -0.026501,-1.963374 -0.026501,-4.278646 l 0,-4.209585 -4.2095855,0 c -2.315272,0 -4.24066255,-0.01193 -4.27864571,-0.0265 C 0.00717006,13.746199 0,13.476977 0,11.176871 0,8.8767635 0.00717006,8.607542 0.06906029,8.5837924 0.10704345,8.5692167 2.032434,8.5572915 4.347706,8.5572915 l 4.2095855,0 0,-4.2095855 c 0,-2.315272 0.011925,-4.24066255 0.026501,-4.27864571 C 8.607542,0.00717006 8.8767635,0 11.176871,0 c 2.300106,0 2.569328,0.00717006 2.593078,0.06906029 0.01457,0.03798316 0.0265,1.96337371 0.0265,4.27864571 l 0,4.2095855 4.209585,0 c 2.315272,0 4.240663,0.011925 4.278646,0.026501 0.06189,0.02375 0.06906,0.2929711 0.06906,2.5930785 0,2.300106 -0.0072,2.569328 -0.06906,2.593078 -0.03798,0.01457 -1.963374,0.0265 -4.278646,0.0265 l -4.209585,0 0,4.209585 c 0,2.315272 -0.01193,4.240663 -0.0265,4.278646 -0.02375,0.06189 -0.292972,0.06906 -2.593078,0.06906 -2.3001075,0 -2.569329,-0.0072 -2.5930786,-0.06906 z"
       id="path4150"
       inkscape:connector-curvature="0" />
    <path
       style="fill:#b0b09d"
       d="m 8.6009511,18.105657 c 0,-3.245852 -0.01236,-4.260444 -0.052392,-4.300476 C 8.5085284,13.76515 7.4939362,13.75279 4.248084,13.75279 l -4.248084,0 0,-2.575919 0,-2.5759199 4.248084,0 c 3.2458522,0 4.2604444,-0.01236 4.3004755,-0.052392 0.040031,-0.040031 0.052392,-1.0546233 0.052392,-4.3004755 l 0,-4.248084 2.5759195,0 2.575919,0 0,4.248084 c 0,3.2458522 0.01236,4.2604444 0.05239,4.3004755 0.04003,0.040031 1.054624,0.052392 4.300476,0.052392 l 4.248084,0 0,2.5759199 0,2.575919 -4.248084,0 c -3.245852,0 -4.260444,0.01236 -4.300476,0.05239 -0.04003,0.04003 -0.05239,1.054624 -0.05239,4.300476 l 0,4.248084 -2.575919,0 -2.5759195,0 0,-4.248084 z"
       id="path4148"
       inkscape:connector-curvature="0" />
    <path
       style="fill:#909075"
       d="M 8.5902501,18.06418 8.5791213,13.77462 4.2895607,13.763491 0,13.752362 0,11.176871 0,8.601379 4.2895607,8.5902501 8.5791213,8.5791213 8.5902501,4.2895607 8.601379,0 l 2.575492,0 2.575491,0 0.01113,4.2895607 0.01113,4.2895606 4.28956,0.011129 4.289561,0.011129 0,2.5754917 0,2.575491 -4.289561,0.01113 -4.28956,0.01113 -0.01113,4.28956 -0.01113,4.289561 -2.575492,0 -2.575491,0 -0.011129,-4.289561 z"
       id="path4146"
       inkscape:connector-curvature="0" />
    <path
       style="fill:#696845"
       d="m 8.622781,18.042354 0,-4.311394 -4.3113934,0 -4.3113933417858,0 0,-2.554089 0,-2.55409 4.3113933417858,0 4.3113934,0 0,-4.3113934 0,-4.3113933417858 2.55409,0 2.554089,0 0,4.3113933417858 0,4.3113934 4.311394,0 4.311393,0 0,2.55409 0,2.554089 -4.311393,0 -4.311394,0 0,4.311394 0,4.311393 -2.554089,0 -2.55409,0 0,-4.311393 z"
       id="path4144"
       inkscape:connector-curvature="0" />
    <path
       style="fill:#63623d"
       d="m 8.6009511,22.310081 c 0,-0.02401 0.019647,-0.04366 0.04366,-0.04366 0.028806,0 0.04366,-1.439729 0.04366,-4.231868 0,-3.788939 -0.00718,-4.239048 -0.068608,-4.300475 -0.061427,-0.06143 -0.5115361,-0.06861 -4.3004755,-0.06861 -2.7921386,0 -4.2318675,0.01485 -4.2318675,0.04366 0,0.02401 -0.01964684,0.04366 -0.04365965,0.04366 C 0.01504655,13.75279 0,12.865044 0,11.176871 0,9.4886972 0.01504655,8.6009511 0.04365965,8.6009511 c 0.02401281,0 0.04365965,0.019647 0.04365965,0.04366 0,0.028806 1.4397289,0.04366 4.2318675,0.04366 3.7889394,0 4.2390486,-0.00718 4.3004755,-0.068608 0.061427,-0.061427 0.068608,-0.5115361 0.068608,-4.3004755 0,-2.7921386 -0.014853,-4.2318675 -0.04366,-4.2318675 -0.024013,0 -0.04366,-0.01964684 -0.04366,-0.04365965 C 8.6009511,0.01504655 9.4886972,0 11.176871,0 c 1.688173,0 2.575919,0.01504655 2.575919,0.04365965 0,0.02401281 -0.01965,0.04365965 -0.04366,0.04365965 -0.02881,0 -0.04366,1.4397289 -0.04366,4.2318675 0,3.7889394 0.0072,4.2390486 0.06861,4.3004755 0.06143,0.061427 0.511536,0.068608 4.300475,0.068608 2.792139,0 4.231868,-0.014853 4.231868,-0.04366 0,-0.024013 0.01965,-0.04366 0.04366,-0.04366 0.02861,0 0.04366,0.8877461 0.04366,2.5759197 0,1.688173 -0.01505,2.575919 -0.04366,2.575919 -0.02401,0 -0.04366,-0.01965 -0.04366,-0.04366 0,-0.02881 -1.439729,-0.04366 -4.231868,-0.04366 -3.788939,0 -4.239048,0.0072 -4.300475,0.06861 -0.06143,0.06143 -0.06861,0.511536 -0.06861,4.300475 0,2.792139 0.01485,4.231868 0.04366,4.231868 0.02401,0 0.04366,0.01965 0.04366,0.04366 0,0.02861 -0.887746,0.04366 -2.575919,0.04366 -1.6881738,0 -2.5759199,-0.01505 -2.5759199,-0.04366 z"
       id="path4142"
       inkscape:connector-curvature="0" />
    <path
       style="fill:#58572f"
       d="m 8.6009511,22.310081 c 0,-0.02401 0.019743,-0.04366 0.043874,-0.04366 0.02917,0 0.040144,-1.437631 0.032745,-4.289561 L 8.6664406,13.6873 4.37688,13.676172 c -2.8519294,-0.0074 -4.2895607,0.0036 -4.2895607,0.03274 0,0.02413 -0.01964684,0.04387 -0.04365965,0.04387 C 0.01504655,13.75279 0,12.865044 0,11.176871 0,9.4886972 0.01504655,8.6009511 0.04365965,8.6009511 c 0.02401281,0 0.04365965,0.019743 0.04365965,0.043874 0,0.02917 1.4376313,0.040144 4.2895607,0.032745 L 8.6664406,8.6664406 8.6775694,4.37688 c 0.0074,-2.8519294 -0.00358,-4.2895607 -0.032745,-4.2895607 -0.02413,0 -0.043874,-0.01964684 -0.043874,-0.04365965 C 8.6009511,0.01504655 9.4886972,0 11.176871,0 c 1.688173,0 2.575919,0.01504655 2.575919,0.04365965 0,0.02401281 -0.01974,0.04365965 -0.04387,0.04365965 -0.02917,0 -0.04014,1.4376313 -0.03274,4.2895607 l 0.01113,4.2895606 4.289561,0.011129 c 2.85193,0.0074 4.289561,-0.00358 4.289561,-0.032745 0,-0.02413 0.01965,-0.043874 0.04366,-0.043874 0.02861,0 0.04366,0.8877461 0.04366,2.5759204 0,1.688172 -0.01505,2.575918 -0.04366,2.575918 -0.02401,0 -0.04366,-0.01974 -0.04366,-0.04387 0,-0.02917 -1.437631,-0.04014 -4.289561,-0.03274 l -4.289561,0.01113 -0.01113,4.289561 c -0.0074,2.85193 0.0036,4.289561 0.03274,4.289561 0.02413,0 0.04387,0.01965 0.04387,0.04366 0,0.02861 -0.887746,0.04366 -2.575919,0.04366 -1.6881738,0 -2.5759199,-0.01505 -2.5759199,-0.04366 z"
       id="path4140"
       inkscape:connector-curvature="0" />
  </g>
</svg>
