<?xml version="1.0" encoding="UTF-8" standalone="no"?>
<!-- Created with Inkscape (http://www.inkscape.org/) -->

<svg
   xmlns:dc="http://purl.org/dc/elements/1.1/"
   xmlns:cc="http://creativecommons.org/ns#"
   xmlns:rdf="http://www.w3.org/1999/02/22-rdf-syntax-ns#"
   xmlns:svg="http://www.w3.org/2000/svg"
   xmlns="http://www.w3.org/2000/svg"
   xmlns:sodipodi="http://sodipodi.sourceforge.net/DTD/sodipodi-0.dtd"
   xmlns:inkscape="http://www.inkscape.org/namespaces/inkscape"
   id="svg2"
   version="1.1"
   inkscape:version="0.91 r13725"
   width="648.75"
   height="787.5"
   viewBox="0 0 648.75 787.5"
   sodipodi:docname="sd_m_strung.svg">
  <metadata
     id="metadata8">
    <rdf:RDF>
      <cc:Work
         rdf:about="">
        <dc:format>image/svg+xml</dc:format>
        <dc:type
           rdf:resource="http://purl.org/dc/dcmitype/StillImage" />
        <dc:title></dc:title>
      </cc:Work>
    </rdf:RDF>
  </metadata>
  <defs
     id="defs6" />
  <sodipodi:namedview
     pagecolor="#ffffff"
     bordercolor="#666666"
     borderopacity="1"
     objecttolerance="10"
     gridtolerance="10"
     guidetolerance="10"
     inkscape:pageopacity="0"
     inkscape:pageshadow="2"
     inkscape:window-width="1855"
     inkscape:window-height="1056"
     id="namedview4"
     showgrid="false"
     fit-margin-top="0"
     fit-margin-left="0"
     fit-margin-right="0"
     fit-margin-bottom="0"
     inkscape:zoom="0.29968254"
     inkscape:cx="941.69496"
     inkscape:cy="-133.47458"
     inkscape:window-x="65"
     inkscape:window-y="24"
     inkscape:window-maximized="1"
     inkscape:current-layer="svg2" />
  <g
     id="g4138">
    <path
       style="fill:#fefefe"
       d="M 0,393.75 0,0 324.375,0 648.75,0 l 0,393.75 0,393.75 -324.375,0 L 0,787.5 0,393.75 Z"
       id="path4154"
       inkscape:connector-curvature="0" />
    <path
       style="fill:#fcf8a0"
       d="m 264.05182,730.9375 c -0.68985,-0.85938 -4.66642,-11.1453 -8.83683,-22.85761 -8.90908,-25.02057 -18.52244,-47.23413 -34.60208,-79.95489 -13.97559,-28.43919 -23.87502,-45.18231 -31.97948,-54.08763 -6.45188,-7.08941 -17.36283,-24.13103 -35.79804,-55.91237 -30.99756,-53.43816 -50.56998,-119.85676 -54.147986,-183.75 -1.513663,-27.02984 0.136859,-59.9617 4.166166,-83.125 1.4949,-8.59375 2.81168,-20.40625 2.92618,-26.25 0.45892,-23.42205 18.63065,-72.06214 37.59305,-100.625 19.66945,-29.627856 51.02245,-56.716791 84.7522,-73.225732 35.36265,-17.308162 83.21582,-25.503263 119.99491,-20.549744 33.15956,4.466031 59.54954,12.848497 85.00509,27.000872 18.34439,10.198818 27.21779,16.677754 41.36567,30.203214 31.02893,29.66385 50.02244,63.3056 67.45945,119.48575 1.13765,3.66539 2.22793,10.97789 2.42283,16.25 0.32884,8.89506 2.19852,23.52469 5.93774,46.46064 2.01721,12.37342 1.99283,58.7891 -0.0417,79.375 -4.04418,40.92004 -12.50443,76.81297 -26.65751,113.09549 -3.35858,8.60997 -6.10763,16.09347 -6.10899,16.62998 -0.004,1.66605 -14.28123,29.87135 -20.09201,39.69332 -7.29113,12.32421 -22.231,34.45185 -31.4191,46.53521 -11.14332,14.65469 -25.36508,38.13154 -35.73675,58.99314 -12.6258,25.39553 -30.97847,68.38877 -39.24157,91.92786 -5.82077,16.58164 -5.45431,16.25 -17.95611,16.25 -8.19026,0 -10.79706,-0.42124 -11.33851,-1.83224 -0.9843,-2.56506 5.71742,-22.06981 15.34492,-44.65997 4.48473,-10.52304 9.39424,-22.50779 10.91003,-26.63279 3.05806,-8.32207 7.83468,-18.87086 13.37319,-29.53359 8.92891,-17.18995 2.14495,-17.68634 -31.97158,-2.33939 -3.36296,1.51279 -9.86141,2.53822 -19.84823,3.13194 -8.16653,0.48552 -16.54492,1.36935 -18.61866,1.96409 -2.24026,0.6425 -6.02272,0.57659 -9.32029,-0.16241 -3.05242,-0.68407 -12.11152,-1.43831 -20.13133,-1.67611 -12.43098,-0.3686 -15.55665,-0.89543 -21.19359,-3.5721 -3.63665,-1.72685 -7.57415,-3.94613 -8.75,-4.93172 -2.89214,-2.42418 -20.81101,-7.79252 -23.09064,-6.91775 -3.9323,1.50897 -3.0775,5.94301 4.31954,22.40645 15.85506,35.28828 36.68101,89.9493 35.47162,93.10091 -0.86717,2.25981 -22.35575,2.34178 -24.1616,0.0921 z m 96.06183,-126.38714 c 4.53126,-1.05719 11.84376,-3.28586 16.25,-4.95262 10.91746,-4.12976 29.88635,-13.51968 29.88635,-14.79423 0,-1.7571 10.07672,-8.44561 11.75415,-7.80191 1.78016,0.68311 13.27209,-9.81619 15.65067,-14.29884 1.15288,-2.17269 2.26998,-2.74167 4.35527,-2.2183 2.31132,0.5801 3.72246,-0.5463 8.02228,-6.40357 2.8697,-3.90912 5.21763,-7.97913 5.21763,-9.04447 0,-1.06533 1.53205,-3.58922 3.40456,-5.60863 1.87252,-2.01943 4.26314,-5.37247 5.3125,-7.45121 1.0933,-2.16579 3.24223,-4.08544 5.03294,-4.49598 2.26585,-0.51946 4.41374,-3.07304 7.8125,-9.28811 2.57812,-4.71442 4.6875,-9.29997 4.6875,-10.19012 0,-2.16611 8.37207,-16.58131 11.90739,-20.50237 3.9208,-4.34861 7.98773,-12.81656 10.13844,-21.10971 1.00062,-3.85842 3.15292,-8.98404 4.78288,-11.39029 1.62996,-2.40625 4.14495,-8.4055 5.58885,-13.33168 2.16176,-7.37532 2.36348,-9.53125 1.1425,-12.211 -1.31476,-2.88558 -1.10399,-3.64967 1.86021,-6.74363 3.86628,-4.03553 7.41312,-15.39985 7.77057,-24.89745 0.13576,-3.60732 0.81865,-7.26357 1.51752,-8.125 2.11079,-2.60174 4.24135,-15.48052 3.34841,-20.24032 -0.57762,-3.07897 -0.17507,-5.85558 1.29943,-8.96285 2.23619,-4.71241 2.84269,-14.60708 1.30467,-21.2846 -0.64673,-2.8079 -0.29098,-4.85596 1.25275,-7.21198 2.14799,-3.27825 2.12104,-5.89764 -0.18557,-18.03069 -0.47224,-2.48404 -0.15016,-5.36282 0.79826,-7.13498 1.28746,-2.40562 1.28503,-4.34808 -0.0127,-10.2108 -0.88149,-3.98201 -1.50425,-8.64627 -1.38392,-10.36502 0.61642,-8.80544 -0.19976,-18.24325 -1.8544,-21.44298 -1.29549,-2.50518 -1.61739,-5.39585 -1.06479,-9.5616 0.64248,-4.84323 0.15896,-7.47506 -2.56029,-13.93571 -2.32669,-5.52795 -3.1288,-9.15651 -2.62167,-11.85976 0.7949,-4.23715 -2.19328,-14.04265 -6.02678,-19.7765 -1.26919,-1.89835 -2.45818,-6.1171 -2.64221,-9.375 -0.348,-6.16079 -4.4381,-18.77099 -6.53164,-20.13773 -1.8277,-1.19316 -4.07786,-5.95263 -4.07786,-8.62532 0,-3.31113 -9.75811,-22.4251 -11.86035,-23.23181 -1.90919,-0.73263 -10.12867,-13.07424 -12.60639,-18.92859 -1.9604,-4.63204 -10.20253,-14.36599 -12.19316,-14.40011 -0.80581,-0.0138 -4.2776,-2.83282 -7.7151,-6.26446 -3.4375,-3.43165 -8.5,-8.47584 -11.25,-11.20931 -2.75,-2.733475 -5.68636,-4.976966 -6.52526,-4.985538 -0.8389,-0.0086 -5.62015,-2.712552 -10.625,-6.008848 -15.06378,-9.921297 -28.75481,-15.593673 -59.55,-24.672343 -14.641,-4.316286 -56.52894,-6.631267 -65.33098,-3.610585 -2.49217,0.855266 -7.0726,1.51661 -10.17871,1.469654 -4.01261,-0.06066 -6.65552,0.707545 -9.12962,2.653677 -2.79849,2.201285 -4.48133,2.58933 -8.57129,1.976457 -4.1656,-0.624208 -5.93669,-0.187287 -9.75956,2.407648 -2.56874,1.743635 -6.78749,3.42951 -9.375,3.746388 -6.75965,0.827815 -11.59817,2.927364 -14.86182,6.448905 C 239.76636,79.032136 237.52855,80 234.61156,80 c -3.37906,0 -5.64624,1.28991 -10.98516,6.25 -4.51955,4.198869 -7.80245,6.25 -10.00333,6.25 -3.0848,0 -10.82531,6.272804 -16.20367,13.13124 -1.07559,1.37157 -6.18848,5.94251 -11.36198,10.15765 -9.84951,8.02494 -15.7574,15.6352 -27.62103,35.58006 -10.01033,16.8291 -14.97678,29.23797 -20.71454,51.75605 -0.70073,2.75 -2.46608,8.375 -3.92301,12.5 -1.45694,4.125 -3.1539,10.59375 -3.77103,14.375 -0.61712,3.78125 -2.01486,9.96875 -3.10609,13.75 -1.34602,4.6642 -1.72477,9.00082 -1.17781,13.48576 0.61273,5.0243 0.34917,7.12414 -1.09828,8.75 -2.12769,2.38995 -3.08258,12.86966 -1.63486,17.94212 0.63816,2.23593 0.25175,4.63896 -1.19621,7.43899 -1.70867,3.30422 -1.98211,5.99067 -1.35949,13.35633 0.42867,5.0711 0.25005,10.20927 -0.39692,11.41815 -0.74961,1.40066 -0.67235,5.10641 0.21299,10.21581 0.76412,4.40981 1.2833,11.39284 1.15374,15.51784 -0.12957,4.125 0.58984,12 1.59869,17.5 1.00885,5.5 2.12643,13.39649 2.48351,17.54775 0.35708,4.15126 1.51407,9.61756 2.57108,12.14735 1.05701,2.52979 1.92184,6.72884 1.92184,9.33123 0,5.32288 4.16793,20.96493 6.25695,23.48204 0.75089,0.90477 1.55431,4.08551 1.7854,7.06833 0.4915,6.34427 5.7679,21.95316 9.41681,27.85724 1.39746,2.26112 2.54084,5.36811 2.54084,6.90441 0,3.32303 8.77829,22.46417 12.43313,27.11054 1.41177,1.79478 2.56687,4.24352 2.56687,5.44162 0,1.19811 0.9347,2.95038 2.07711,3.89394 1.14242,0.94355 3.41122,4.72723 5.04178,8.40815 3.84716,8.68483 12.52192,21.4324 14.5848,21.4324 2.40706,0 6.34775,4.78719 10.28966,12.5 4.52176,8.84736 11.37943,17.1343 14.913,18.02117 1.5252,0.38281 4.83958,3.09402 7.36528,6.02492 9.00757,10.45267 10.91657,12.20391 13.30333,12.20391 1.32982,0 4.52883,1.90191 7.10894,4.22649 2.5801,2.32456 7.3561,5.12806 10.61333,6.22997 3.25722,1.10193 8.72763,3.47041 12.15647,5.2633 3.42884,1.7929 8.63884,3.56839 11.57777,3.94555 2.93894,0.37716 7.95844,1.99363 11.15446,3.59214 3.69297,1.84707 7.85883,2.86527 11.42967,2.7936 3.09031,-0.062 6.38164,0.37286 7.31408,0.96641 4.89441,3.11561 40.96222,2.33429 56.18397,-1.2171 z M 388.95066,501.5625 c -0.62551,-1.20313 -1.52067,-5.5625 -1.98926,-9.6875 -1.51513,-13.33771 -2.60315,-15.34751 -9.40145,-17.3664 -3.3058,-0.98171 -9.12768,-3.31125 -12.93751,-5.17674 l -6.92697,-3.39181 -9.97556,7.02997 C 342.23335,476.83651 336.9038,480 335.87648,480 333.35239,480 316.25,462.76263 316.25,460.21861 c 0,-1.11252 3.18071,-6.65753 7.06825,-12.32226 5.1918,-7.5652 6.72708,-10.72714 5.78309,-11.91041 -0.70685,-0.88601 -3.29319,-6.67344 -5.74744,-12.86094 -4.95295,-12.48711 -3.03545,-11.11779 -20.2289,-14.4458 -4.125,-0.79845 -8.20313,-1.654 -9.0625,-1.90124 -1.12775,-0.32442 -1.5625,-4.26566 -1.5625,-14.16496 0,-9.59969 0.46887,-14.01892 1.5625,-14.72672 0.85937,-0.5562 6.8127,-1.86202 13.22961,-2.9018 l 11.66713,-1.89052 2.95285,-8.44415 c 1.62407,-4.64427 4.20653,-10.67475 5.73881,-13.40106 l 2.78594,-4.95692 -6.15592,-8.81127 c -3.38576,-4.84618 -6.95398,-9.95775 -7.92938,-11.35901 -1.65843,-2.38249 -1.09132,-3.19076 8.74193,-12.45965 5.78347,-5.45155 10.83932,-9.9119 11.2352,-9.9119 0.3959,0 3.77453,2.28544 7.50807,5.07874 3.73355,2.79331 8.54376,6.1693 10.68937,7.50221 l 3.90111,2.42346 5.90023,-3.2977 c 3.24511,-1.81372 9.08336,-4.2812 12.97389,-5.48327 l 7.07366,-2.18558 1.68216,-11.08142 c 0.9252,-6.09479 2.11019,-11.92519 2.63333,-12.95644 0.74172,-1.46219 4.00348,-1.95269 14.81476,-2.22782 16.11607,-0.41015 15.23975,-1.07938 17.6487,13.47782 0.85326,5.15625 1.962,10.17695 2.46385,11.15711 0.50186,0.98015 3.69004,2.72685 7.08484,3.88153 3.3948,1.15469 9.06385,3.56535 12.59787,5.35704 l 6.42553,3.25761 10.44527,-7.45165 c 5.7449,-4.0984 10.92373,-7.45164 11.50851,-7.45164 1.35582,0 18.19694,16.20407 19.64887,18.90561 0.80807,1.50355 -0.86978,4.84134 -6.46433,12.85964 l -7.55567,10.82904 2.42023,4.102 c 1.33114,2.2561 3.67206,7.71926 5.20204,12.14035 1.52998,4.4211 3.32783,8.69634 3.9952,9.50054 0.66739,0.8042 6.24161,2.14931 12.38718,2.98913 6.14556,0.83984 11.75879,2.2319 12.47382,3.09348 0.77605,0.93507 1.15654,7.02846 0.94397,15.11692 l -0.35613,13.55044 -5,0.9581 c -2.75,0.52696 -8.78377,1.58586 -13.40837,2.35311 -8.34515,1.38452 -8.41448,1.42917 -9.21873,5.93583 -0.44569,2.49745 -2.74711,8.445 -5.11429,13.21677 l -4.30396,8.67598 7.72838,11.15232 7.72837,11.15234 -9.80137,9.8592 C 477.59428,475.56336 472.48725,480 471.6361,480 c -0.85115,0 -3.9581,-1.70873 -6.90433,-3.79716 -2.94622,-2.08844 -7.47848,-5.2651 -10.07168,-7.05925 l -4.71493,-3.26209 -9.66007,4.47765 c -5.31305,2.46271 -11.00889,4.65501 -12.65743,4.87176 -3.84242,0.5052 -4.60619,2.12163 -6.38777,13.51909 -2.47567,15.83765 -1.50293,15 -17.41912,15 -11.81228,0 -13.89186,-0.30593 -14.87011,-2.1875 z m 34.57757,-68.49704 c 19.03803,-9.52434 29.11251,-28.79611 25.26821,-48.3363 -3.13871,-15.95381 -11.7168,-27.09722 -26.10738,-33.91492 -7.45587,-3.5323 -9.4753,-3.9333 -19.56406,-3.88488 -10.31111,0.0495 -11.90065,0.40234 -19.04625,4.22782 -9.54573,5.11041 -18.20193,14.12548 -22.4292,23.35907 -2.89569,6.325 -3.12853,8.05683 -2.64161,19.64757 0.50341,11.9833 0.79882,13.15473 5.15886,20.45707 6.3262,10.59532 17.26809,19.16865 27.7082,21.71027 2.0625,0.50211 8.0338,0.97051 13.26955,1.04089 8.54037,0.11475 10.43132,-0.32819 18.38367,-4.30659 z M 189.375,397.38797 c -12.53439,-5.40395 -12.76913,-5.74216 -10.10125,-14.55355 l 2.20208,-7.27296 -8.91697,-9.07757 -8.91696,-9.07757 -6.90321,2.17605 c -8.7715,2.76497 -10.01226,2.00008 -14.49383,-8.93491 -5.06356,-12.35506 -4.80802,-13.78059 3.1718,-17.69426 l 6.66668,-3.26964 0,-12.85069 0,-12.85068 -6.13559,-2.87375 c -3.37457,-1.58057 -6.61914,-3.77729 -7.21015,-4.88162 -1.16752,-2.18153 6.33651,-22.22755 8.91789,-23.82292 0.78241,-0.48355 4.64165,0.20791 8.57609,1.5366 l 7.15352,2.41579 9.07503,-9.07503 9.07502,-9.07502 -2.01757,-6.40049 c -1.10967,-3.52026 -2.01758,-7.27916 -2.01758,-8.3531 0,-1.88628 19.23092,-10.95265 23.23196,-10.95265 0.95263,0 3.3663,3.23744 5.36373,7.1943 l 3.63166,7.1943 11.83919,-0.13914 c 6.51155,-0.0765 12.48062,-0.53557 13.26461,-1.02011 0.78399,-0.48453 2.57574,-3.40603 3.98166,-6.49223 1.40593,-3.0862 3.39424,-5.93283 4.41848,-6.32587 2.12566,-0.8157 24.26871,8.10671 24.26871,9.77892 0,0.60367 -0.91169,4.37674 -2.02598,8.38462 l -2.02598,7.28705 8.8306,8.83059 8.83059,8.83058 7.25788,-2.25924 c 4.79154,-1.49151 7.76138,-1.84851 8.73951,-1.05056 2.00894,1.63883 9.14338,18.97168 9.14338,22.21348 0,1.91005 -1.8253,3.49568 -6.875,5.97228 l -6.875,3.37183 0,12.82797 0,12.82799 6.875,3.2524 c 5.23189,2.47508 6.875,3.90274 6.875,5.97354 0,3.70204 -7.75212,21.88999 -9.6489,22.63814 -0.83814,0.33059 -4.6776,-0.48397 -8.53213,-1.81011 l -7.00823,-2.41119 -8.78795,8.91085 -8.78794,8.91084 2.1612,7.9841 c 1.18865,4.39126 1.93741,8.20787 1.66391,8.48137 -1.11339,1.1134 -21.40894,9.3933 -23.02467,9.3933 -0.95875,0 -3.22657,-2.95313 -5.0396,-6.5625 -1.81305,-3.60938 -3.46128,-6.74813 -3.66273,-6.975 C 235.3815,387.48562 229.49416,387.3 222.5,387.3 c -6.99416,0 -12.8815,0.18563 -13.08296,0.4125 -0.20145,0.22688 -1.84968,3.36562 -3.66273,6.975 -2.10419,4.18901 -4.07997,6.54629 -5.46287,6.51769 -1.19154,-0.0246 -6.10394,-1.74239 -10.91644,-3.81721 z m 47.82789,-51.01087 c 8.86237,-4.5677 15.30031,-13.36089 17.73442,-24.22239 2.14684,-9.57958 -3.00342,-23.76089 -11.13645,-30.66444 -4.64458,-3.94245 -15.30251,-7.73951 -21.649,-7.71282 -10.89792,0.0459 -24.034,8.01771 -29.096,17.65742 -9.70906,18.4893 0.86044,42.24245 21.10912,47.4391 5.90845,1.51635 17.73912,0.23413 23.03791,-2.49687 z m 99.60485,-70.67099 c -0.44304,-2.36165 -0.42685,-4.90662 0.036,-5.6555 0.46283,-0.74889 0.47571,-3.02711 0.0286,-5.06274 -0.66049,-3.00717 -2.25984,-4.39984 -8.53012,-7.42778 -4.24447,-2.04968 -9.3967,-5.09199 -11.4494,-6.76069 l -3.7322,-3.03403 -8.22845,4.14379 c -4.52565,2.27909 -8.81828,3.76625 -9.53915,3.30481 -0.72088,-0.46143 -4.26358,-6.04603 -7.87265,-12.41022 -7.45028,-13.1377 -7.44918,-13.14546 2.6407,-18.63705 l 6.08891,-3.31403 0,-14.09526 0,-14.09527 -5.08445,-3.51858 c -10.7831,-7.46219 -10.74009,-7.4099 -8.74071,-10.62465 0.98991,-1.59165 3.97501,-6.83141 6.63355,-11.64391 2.65855,-4.8125 5.29486,-9.215 5.85848,-9.78333 0.56363,-0.56832 4.45312,0.6973 8.6433,2.8125 4.1902,2.1152 8.2346,3.84583 8.98759,3.84583 0.75298,0 3.18853,-1.38779 5.41235,-3.08398 2.22381,-1.6962 7.16345,-4.46386 10.97695,-6.15037 l 6.93364,-3.06638 0.74209,-8.8516 c 0.40815,-4.86836 1.08918,-9.4132 1.51342,-10.09962 1.10568,-1.78903 27.74024,-1.62991 28.85411,0.17236 0.48283,0.78123 1.1503,5.22818 1.48329,9.88209 l 0.60544,8.46169 5.14001,2.3054 c 2.82701,1.26797 7.80416,4.13353 11.06035,6.36791 7.12713,4.89061 9.22828,5.0149 15.28568,0.90425 8.05782,-5.4682 9.03118,-5.02323 16.47896,7.53325 3.67006,6.1875 6.68255,11.93216 6.6944,12.76592 0.0113,0.83377 -3.2747,3.75437 -7.30345,6.49024 l -7.325,4.97432 0,13.8958 0,13.89579 6.7441,4.31414 c 3.70925,2.37279 7.04651,5.10224 7.41614,6.06546 C 424.26617,233.14811 411.10187,255 408.5167,255 c -1.17393,0 -4.77921,-1.40625 -8.01173,-3.125 -7.2721,-3.86661 -8.04916,-3.86795 -13.71407,-0.0236 -2.51357,1.70575 -7.60105,4.58427 -11.30551,6.39669 l -6.73539,3.29532 0,7.25107 C 368.75,280.3989 369.33121,280 352.4229,280 l -14.80961,0 -0.80555,-4.29389 z m 29.0155,-42.14735 c 15.48315,-7.21149 21.63162,-25.4698 13.83196,-41.07494 -9.30141,-18.60976 -34.75781,-22.75422 -48.59025,-7.9108 -6.61923,7.10302 -8.5553,11.75912 -8.56028,20.58683 -0.007,12.36069 4.30018,20.75269 13.69518,26.68349 8.99737,5.6798 19.77221,6.30373 29.62339,1.71542 z"
       id="path4152"
       inkscape:connector-curvature="0" />
    <path
       style="fill:#cfcfcf"
       d="m 264.05182,730.9375 c -0.68985,-0.85938 -4.66642,-11.1453 -8.83683,-22.85761 -8.90908,-25.02057 -18.52244,-47.23413 -34.60208,-79.95489 -13.97559,-28.43919 -23.87502,-45.18231 -31.97948,-54.08763 -6.45188,-7.08941 -17.36283,-24.13103 -35.79804,-55.91237 -30.99756,-53.43816 -50.56998,-119.85676 -54.147986,-183.75 -1.513663,-27.02984 0.136859,-59.9617 4.166166,-83.125 1.4949,-8.59375 2.81168,-20.40625 2.92618,-26.25 0.45892,-23.42205 18.63065,-72.06214 37.59305,-100.625 19.66945,-29.627856 51.02245,-56.716791 84.7522,-73.225732 35.36265,-17.308162 83.21582,-25.503263 119.99491,-20.549744 33.15956,4.466031 59.54954,12.848497 85.00509,27.000872 18.34439,10.198818 27.21779,16.677754 41.36567,30.203214 31.02893,29.66385 50.02244,63.3056 67.45945,119.48575 1.13765,3.66539 2.22793,10.97789 2.42283,16.25 0.32884,8.89506 2.19852,23.52469 5.93774,46.46064 2.01721,12.37342 1.99283,58.7891 -0.0417,79.375 -4.04418,40.92004 -12.50443,76.81297 -26.65751,113.09549 -3.35858,8.60997 -6.10763,16.09347 -6.10899,16.62998 -0.004,1.66605 -14.28123,29.87135 -20.09201,39.69332 -7.29113,12.32421 -22.231,34.45185 -31.4191,46.53521 -11.14332,14.65469 -25.36508,38.13154 -35.73675,58.99314 -12.6258,25.39553 -30.97847,68.38877 -39.24157,91.92786 -5.82077,16.58164 -5.45431,16.25 -17.95611,16.25 -8.19026,0 -10.79706,-0.42124 -11.33851,-1.83224 -0.9843,-2.56506 5.71742,-22.06981 15.34492,-44.65997 4.48473,-10.52304 9.39424,-22.50779 10.91003,-26.63279 3.05806,-8.32207 7.83468,-18.87086 13.37319,-29.53359 8.92891,-17.18995 2.14495,-17.68634 -31.97158,-2.33939 -3.36296,1.51279 -9.86141,2.53822 -19.84823,3.13194 -8.16653,0.48552 -16.54492,1.36935 -18.61866,1.96409 -2.24026,0.6425 -6.02272,0.57659 -9.32029,-0.16241 -3.05242,-0.68407 -12.11152,-1.43831 -20.13133,-1.67611 -12.43098,-0.3686 -15.55665,-0.89543 -21.19359,-3.5721 -3.63665,-1.72685 -7.57415,-3.94613 -8.75,-4.93172 -2.89214,-2.42418 -20.81101,-7.79252 -23.09064,-6.91775 -3.9323,1.50897 -3.0775,5.94301 4.31954,22.40645 15.85506,35.28828 36.68101,89.9493 35.47162,93.10091 -0.86717,2.25981 -22.35575,2.34178 -24.1616,0.0921 z m 96.06183,-126.38714 c 4.53126,-1.05719 11.84376,-3.28586 16.25,-4.95262 10.91746,-4.12976 29.88635,-13.51968 29.88635,-14.79423 0,-1.7571 10.07672,-8.44561 11.75415,-7.80191 1.78016,0.68311 13.27209,-9.81619 15.65067,-14.29884 1.15288,-2.17269 2.26998,-2.74167 4.35527,-2.2183 2.31132,0.5801 3.72246,-0.5463 8.02228,-6.40357 2.8697,-3.90912 5.21763,-7.97913 5.21763,-9.04447 0,-1.06533 1.53205,-3.58922 3.40456,-5.60863 1.87252,-2.01943 4.26314,-5.37247 5.3125,-7.45121 1.0933,-2.16579 3.24223,-4.08544 5.03294,-4.49598 2.26585,-0.51946 4.41374,-3.07304 7.8125,-9.28811 2.57812,-4.71442 4.6875,-9.29997 4.6875,-10.19012 0,-2.16611 8.37207,-16.58131 11.90739,-20.50237 3.9208,-4.34861 7.98773,-12.81656 10.13844,-21.10971 1.00062,-3.85842 3.15292,-8.98404 4.78288,-11.39029 1.62996,-2.40625 4.14495,-8.4055 5.58885,-13.33168 2.16176,-7.37532 2.36348,-9.53125 1.1425,-12.211 -1.31476,-2.88558 -1.10399,-3.64967 1.86021,-6.74363 3.86628,-4.03553 7.41312,-15.39985 7.77057,-24.89745 0.13576,-3.60732 0.81865,-7.26357 1.51752,-8.125 2.11079,-2.60174 4.24135,-15.48052 3.34841,-20.24032 -0.57762,-3.07897 -0.17507,-5.85558 1.29943,-8.96285 2.23619,-4.71241 2.84269,-14.60708 1.30467,-21.2846 -0.64673,-2.8079 -0.29098,-4.85596 1.25275,-7.21198 2.14799,-3.27825 2.12104,-5.89764 -0.18557,-18.03069 -0.47224,-2.48404 -0.15016,-5.36282 0.79826,-7.13498 1.28746,-2.40562 1.28503,-4.34808 -0.0127,-10.2108 -0.88149,-3.98201 -1.50425,-8.64627 -1.38392,-10.36502 0.61642,-8.80544 -0.19976,-18.24325 -1.8544,-21.44298 -1.29549,-2.50518 -1.61739,-5.39585 -1.06479,-9.5616 0.64248,-4.84323 0.15896,-7.47506 -2.56029,-13.93571 -2.32669,-5.52795 -3.1288,-9.15651 -2.62167,-11.85976 0.7949,-4.23715 -2.19328,-14.04265 -6.02678,-19.7765 -1.26919,-1.89835 -2.45818,-6.1171 -2.64221,-9.375 -0.348,-6.16079 -4.4381,-18.77099 -6.53164,-20.13773 -1.8277,-1.19316 -4.07786,-5.95263 -4.07786,-8.62532 0,-3.31113 -9.75811,-22.4251 -11.86035,-23.23181 -1.90919,-0.73263 -10.12867,-13.07424 -12.60639,-18.92859 -1.9604,-4.63204 -10.20253,-14.36599 -12.19316,-14.40011 -0.80581,-0.0138 -4.2776,-2.83282 -7.7151,-6.26446 -3.4375,-3.43165 -8.5,-8.47584 -11.25,-11.20931 -2.75,-2.733475 -5.68636,-4.976966 -6.52526,-4.985538 -0.8389,-0.0086 -5.62015,-2.712552 -10.625,-6.008848 -15.06378,-9.921297 -28.75481,-15.593673 -59.55,-24.672343 -14.641,-4.316286 -56.52894,-6.631267 -65.33098,-3.610585 -2.49217,0.855266 -7.0726,1.51661 -10.17871,1.469654 -4.01261,-0.06066 -6.65552,0.707545 -9.12962,2.653677 -2.79849,2.201285 -4.48133,2.58933 -8.57129,1.976457 -4.1656,-0.624208 -5.93669,-0.187287 -9.75956,2.407648 -2.56874,1.743635 -6.78749,3.42951 -9.375,3.746388 -6.75965,0.827815 -11.59817,2.927364 -14.86182,6.448905 C 239.76636,79.032136 237.52855,80 234.61156,80 c -3.37906,0 -5.64624,1.28991 -10.98516,6.25 -4.51955,4.198869 -7.80245,6.25 -10.00333,6.25 -3.0848,0 -10.82531,6.272804 -16.20367,13.13124 -1.07559,1.37157 -6.18848,5.94251 -11.36198,10.15765 -9.84951,8.02494 -15.7574,15.6352 -27.62103,35.58006 -10.01033,16.8291 -14.97678,29.23797 -20.71454,51.75605 -0.70073,2.75 -2.46608,8.375 -3.92301,12.5 -1.45694,4.125 -3.1539,10.59375 -3.77103,14.375 -0.61712,3.78125 -2.01486,9.96875 -3.10609,13.75 -1.34602,4.6642 -1.72477,9.00082 -1.17781,13.48576 0.61273,5.0243 0.34917,7.12414 -1.09828,8.75 -2.12769,2.38995 -3.08258,12.86966 -1.63486,17.94212 0.63816,2.23593 0.25175,4.63896 -1.19621,7.43899 -1.70867,3.30422 -1.98211,5.99067 -1.35949,13.35633 0.42867,5.0711 0.25005,10.20927 -0.39692,11.41815 -0.74961,1.40066 -0.67235,5.10641 0.21299,10.21581 0.76412,4.40981 1.2833,11.39284 1.15374,15.51784 -0.12957,4.125 0.58984,12 1.59869,17.5 1.00885,5.5 2.12643,13.39649 2.48351,17.54775 0.35708,4.15126 1.51407,9.61756 2.57108,12.14735 1.05701,2.52979 1.92184,6.72884 1.92184,9.33123 0,5.32288 4.16793,20.96493 6.25695,23.48204 0.75089,0.90477 1.55431,4.08551 1.7854,7.06833 0.4915,6.34427 5.7679,21.95316 9.41681,27.85724 1.39746,2.26112 2.54084,5.36811 2.54084,6.90441 0,3.32303 8.77829,22.46417 12.43313,27.11054 1.41177,1.79478 2.56687,4.24352 2.56687,5.44162 0,1.19811 0.9347,2.95038 2.07711,3.89394 1.14242,0.94355 3.41122,4.72723 5.04178,8.40815 3.84716,8.68483 12.52192,21.4324 14.5848,21.4324 2.40706,0 6.34775,4.78719 10.28966,12.5 4.52176,8.84736 11.37943,17.1343 14.913,18.02117 1.5252,0.38281 4.83958,3.09402 7.36528,6.02492 9.00757,10.45267 10.91657,12.20391 13.30333,12.20391 1.32982,0 4.52883,1.90191 7.10894,4.22649 2.5801,2.32456 7.3561,5.12806 10.61333,6.22997 3.25722,1.10193 8.72763,3.47041 12.15647,5.2633 3.42884,1.7929 8.63884,3.56839 11.57777,3.94555 2.93894,0.37716 7.95844,1.99363 11.15446,3.59214 3.69297,1.84707 7.85883,2.86527 11.42967,2.7936 3.09031,-0.062 6.38164,0.37286 7.31408,0.96641 4.89441,3.11561 40.96222,2.33429 56.18397,-1.2171 z m 30.38497,-103.50484 c -0.49439,-0.79997 -1.59658,-6.17815 -2.44928,-11.95152 -1.70732,-11.5597 -3.62973,-14.72854 -9.74145,-16.05746 -2.16309,-0.47034 -7.36237,-2.47098 -11.55394,-4.44585 C 362.56236,466.61581 358.49336,465 357.7117,465 c -0.78165,0 -5.73298,3.09375 -11.00293,6.875 -5.26996,3.78125 -10.11502,6.875 -10.7668,6.875 -1.89363,0 -18.44197,-16.48396 -18.44197,-18.37023 0,-0.94053 3.09375,-6.12517 6.875,-11.52142 3.78125,-5.39625 6.875,-10.40852 6.875,-11.1384 0,-0.72988 -1.0682,-3.18733 -2.37379,-5.461 -1.30558,-2.27368 -3.6466,-7.7902 -5.20226,-12.25895 -1.55566,-4.46875 -3.24193,-8.60135 -3.74726,-9.18355 -0.50534,-0.58221 -4.2112,-1.53895 -8.23524,-2.1261 -4.02405,-0.58714 -9.56645,-1.52556 -12.31645,-2.08538 l -5,-1.01782 -0.35479,-13.41858 c -0.19513,-7.38021 -0.19513,-13.45997 0,-13.51057 0.19514,-0.0506 6.14768,-1.03499 13.22788,-2.1875 l 12.8731,-2.0955 2.94759,-8.44878 c 1.62117,-4.64683 4.12516,-10.44461 5.56441,-12.88395 1.43925,-2.43935 2.6056,-5.3874 2.5919,-6.55122 -0.0138,-1.16383 -3.10744,-6.27153 -6.875,-11.35045 -3.76755,-5.07891 -6.85009,-10.02004 -6.85009,-10.98028 0,-1.95852 15.60035,-17.06144 18.27087,-17.68828 0.9442,-0.22163 6.29214,2.82141 11.8843,6.76231 l 10.16757,7.16529 7.02613,-3.78468 c 3.86437,-2.08156 9.74177,-4.55721 13.06089,-5.50142 3.31911,-0.94421 6.4979,-2.28416 7.06396,-2.97765 0.56607,-0.69349 1.70333,-5.76089 2.52725,-11.26089 0.82393,-5.5 1.9237,-10.84375 2.44394,-11.875 0.728,-1.44311 3.86978,-1.95709 13.63974,-2.23139 14.64325,-0.41111 13.64466,-1.27209 16.36109,14.10639 0.85007,4.8125 1.9481,9.55195 2.44006,10.53211 0.49196,0.98015 3.95329,2.81738 7.69184,4.08271 3.73855,1.26533 9.66941,3.74872 13.1797,5.51863 l 6.38232,3.21804 10.08778,-6.98825 c 5.54828,-3.84353 10.84757,-6.98824 11.7762,-6.98824 2.05447,0 18.49636,16.34993 18.49636,18.39291 0,0.80035 -3.09375,5.76723 -6.875,11.0375 -3.78125,5.27028 -6.875,9.97884 -6.875,10.46348 0,0.48464 1.96875,4.87745 4.375,9.76181 2.40625,4.88435 4.375,9.80945 4.375,10.94465 0,6.08003 4.57423,8.58224 18.38085,10.05478 4.26571,0.45495 8.3649,1.56106 9.1093,2.45801 0.82779,0.99742 1.21391,6.40687 0.99416,13.92775 l -0.35931,12.29692 -5,1.0175 c -2.75,0.55963 -8.34746,1.50439 -12.4388,2.09947 -7.71044,1.12147 -10.6862,3.33959 -10.6862,7.96547 0,1.34332 -1.96875,6.53562 -4.375,11.53843 -2.40625,5.00279 -4.375,9.47617 -4.375,9.94082 0,0.46466 3.09375,5.23489 6.875,10.6005 3.78125,5.36561 6.875,10.52885 6.875,11.47385 0,2.01835 -16.30452,18.52615 -18.29801,18.52615 -0.74817,0 -5.23404,-2.86415 -9.96864,-6.36476 -12.10001,-8.9464 -11.9204,-8.88384 -16.83148,-5.86304 -2.35228,1.44689 -8.46508,4.11021 -13.58401,5.91851 l -9.30714,3.28781 -1.74225,10.47367 C 417.39821,503.45686 418.36189,502.5 403.85471,502.5 c -8.12396,0 -12.76986,-0.50594 -13.35608,-1.45448 z m 23.43569,-62.74615 c 8.65474,-2.0371 17.70071,-7.14063 23.72808,-13.38687 6.10307,-6.3247 11.97278,-18.43231 13.0272,-26.87154 1.01247,-8.10361 -1.05474,-20.15611 -4.6739,-27.25026 -4.12553,-8.08669 -13.22123,-16.76405 -22.15429,-21.13532 -7.53435,-3.68684 -9.25709,-4.03038 -20.21106,-4.03038 -10.78708,0 -12.7086,0.36846 -19.375,3.71526 -9.5842,4.81165 -19.09567,14.39366 -23.4227,23.59644 -2.89787,6.16318 -3.46805,9.11829 -3.62989,18.81288 -0.17363,10.39995 0.16939,12.27348 3.58239,19.56688 6.39396,13.66358 17.6916,23.03092 32.31986,26.79772 8.29642,2.13633 12.3659,2.17255 20.80931,0.1852 z M 190,396.13226 c -5.15625,-2.08685 -9.8649,-4.27585 -10.46368,-4.86444 -0.61656,-0.60608 -0.21,-3.64892 0.9375,-7.01667 2.24949,-6.60189 2.63402,-11.75115 0.87754,-11.75115 -0.63175,0 -4.85813,-3.76463 -9.39196,-8.36582 l -8.24332,-8.36584 -5.92054,2.12201 c -9.16365,3.2844 -9.53771,3.08925 -13.87223,-7.23683 C 141.76549,345.51296 140,340.48616 140,339.48286 c 0,-1.0033 2.95312,-3.40676 6.5625,-5.34102 l 6.5625,-3.51684 0,-13.75 0,-13.75 -6.5625,-3.51684 C 142.95312,297.6739 140,295.24417 140,294.20876 c 0,-4.08072 7.76065,-20.45876 9.69429,-20.45876 1.07853,0 4.84702,0.90975 8.37442,2.02166 l 6.41344,2.02167 8.69643,-8.98483 c 4.78303,-4.94165 8.87975,-9.79645 9.10381,-10.78844 0.22406,-0.99199 -0.54105,-4.65909 -1.70025,-8.1491 -1.15919,-3.49001 -1.62376,-6.76091 -1.03239,-7.26866 0.59139,-0.50775 5.46008,-2.79429 10.8193,-5.08119 10.9431,-4.66966 10.73271,-4.73127 15.78734,4.62339 l 3.21861,5.95672 13.125,0 13.125,0 3.21861,-5.95672 c 4.93544,-9.13409 4.69937,-9.06541 15.69292,-4.56491 5.41116,2.21521 10.24406,4.38098 10.73977,4.81282 0.78341,0.68249 -0.99485,8.15513 -3.29892,13.86279 -0.50262,1.24509 2.48995,5.20374 8.85915,11.71911 l 9.61816,9.83891 6.44502,-2.03161 c 3.54476,-1.11739 7.2693,-2.03161 8.27676,-2.03161 1.67435,0 9.82353,17.37407 9.82353,20.94381 0,0.76864 -2.95313,2.98009 -6.5625,4.91435 l -6.5625,3.51684 -0.35082,13.7833 -0.35083,13.78331 6.91333,3.39061 C 301.889,335.94706 305,338.1342 305,338.94254 305,342.7782 297.0375,360 295.26407,360 c -1.05563,0 -4.8196,-0.91423 -8.36436,-2.03161 l -6.44502,-2.03162 -9.44182,9.65852 -9.44181,9.65852 1.859,5.8106 c 3.19421,9.98393 3.245,9.89393 -8.29682,14.70433 -11.67104,4.86425 -11.36105,4.94293 -16.28963,-4.13464 l -3.21861,-5.92811 -13.125,0.0776 -13.125,0.0777 -3.75,6.65759 c -2.0625,3.66166 -4.3125,6.82634 -5,7.03259 -0.6875,0.20625 -5.46875,-1.33243 -10.625,-3.41928 z m 46.39466,-47.86311 c 12.47758,-5.921 20.50408,-18.25999 20.42184,-31.39415 -0.11688,-18.66576 -14.04544,-33.041 -33.0665,-34.12689 -9.473,-0.5408 -16.8577,2.0693 -24.27144,8.57864 -19.93764,17.50549 -11.91212,52.10262 13.64644,58.82829 5.61196,1.47676 18.36075,0.44355 23.26966,-1.88589 z M 338.75,270.194 c 0,-9.07034 -0.70785,-10.43477 -6.25,-12.04722 -1.71875,-0.50007 -6.90106,-3.43461 -11.51625,-6.5212 l -8.39124,-5.61198 -6.76091,3.8682 c -3.7185,2.12751 -7.5362,3.86503 -8.48376,3.86114 -2.05679,-0.008 -13.59784,-18.8945 -13.59784,-22.25187 0,-1.52367 2.1734,-3.52666 6.21149,-5.72447 3.41632,-1.85939 6.57257,-3.96495 7.01388,-4.67901 0.44133,-0.71408 0.81519,-7.57903 0.83082,-15.25545 l 0.0284,-13.95714 -7.04229,-4.72186 c -3.87323,-2.59702 -7.04227,-5.56133 -7.04227,-6.58734 0,-1.02601 1.31845,-3.96368 2.9299,-6.52814 1.61144,-2.56446 3.95005,-6.82369 5.1969,-9.46495 1.24685,-2.64126 3.11516,-5.12776 4.1518,-5.52556 1.03665,-0.39779 4.75384,0.77886 8.26042,2.61479 3.50658,1.83594 7.21224,3.33806 8.23479,3.33806 1.02255,0 4.6455,-1.981 8.05099,-4.40221 3.40549,-2.42122 8.33225,-5.0435 10.94835,-5.82732 2.6161,-0.7838 5.28399,-2.06062 5.92865,-2.83738 0.64465,-0.77678 1.3411,-5.32637 1.54765,-10.1102 l 0.37555,-8.69789 12.3898,-0.3602 c 6.81439,-0.19811 12.90066,0.15066 13.52506,0.77506 0.6244,0.6244 1.51774,4.95921 1.9852,9.63291 l 0.84994,8.49764 7.53686,3.85229 c 4.14527,2.11876 9.143,5.11792 11.10608,6.6648 4.56256,3.59525 7.55508,3.52669 14.29715,-0.32756 2.99205,-1.71046 6.17392,-3.10994 7.07082,-3.10994 1.94113,0 13.11409,18.32632 13.11409,21.51024 0,1.29727 -2.84706,4.10456 -6.875,6.77897 l -6.875,4.56474 0,14.79093 0,14.79092 3.60015,1.86171 c 1.98009,1.02394 5.36364,3.34559 7.51901,5.15922 l 3.91886,3.2975 -3.93631,7.06038 c -5.93841,10.65148 -9.08271,15.16739 -10.56724,15.17685 -0.73728,0.005 -4.54448,-1.7268 -8.46045,-3.84777 l -7.11992,-3.85631 -6.86772,4.55852 c -3.77724,2.5072 -9.36759,5.66435 -12.42299,7.0159 l -5.55527,2.45735 -0.36656,9.02793 -0.36656,9.02792 -14.0625,0.35344 -14.0625,0.35343 0,-8.63787 z m 26.18271,-34.74753 c 6.94564,-2.86006 11.77228,-7.21578 15.41751,-13.9133 7.18749,-13.20577 5.19976,-27.37266 -5.3013,-37.78317 -20.50588,-20.32908 -53.95517,-6.56741 -53.95517,22.19816 0,23.3069 22.35115,38.34651 43.83896,29.49831 z"
       id="path4150"
       inkscape:connector-curvature="0" />
    <path
       style="fill:#faf35d"
       d="m 263.61845,727.8125 c -0.72581,-1.89063 -4.32768,-11.875 -8.00411,-22.1875 -17.19339,-48.22776 -49.98552,-113.78031 -66.28207,-132.5 -6.972,-8.00868 -22.87905,-33.09073 -38.4484,-60.625 -42.82745,-75.74004 -61.167366,-178.1831 -46.77039,-261.25 1.48945,-8.59375 2.80177,-20.40625 2.91627,-26.25 0.20993,-10.71439 3.57636,-24.8313 11.3272,-47.5 4.99707,-14.61479 20.90762,-45.75084 29.49117,-57.71255 25.91458,-36.113526 69.86147,-67.551203 110.62873,-79.138931 44.61409,-12.68115 77.67342,-13.50082 120.70556,-2.992759 26.92735,6.575419 55.66955,19.909956 77.06759,35.754429 32.4334,24.01576 62.04355,66.800031 77.22909,111.589811 7.9747,23.52141 9.28211,28.76209 9.64879,38.67651 0.32444,8.77274 2.20581,23.46245 5.93281,46.32349 2.01721,12.37342 1.99283,58.7891 -0.0417,79.375 -5.2576,53.19774 -19.17543,102.37399 -42.12537,148.84275 C 497.7355,516.76101 479.17415,546.51719 468.355,560 c -12.13887,15.12745 -31.24167,46.67462 -42.18378,69.66409 -8.62763,18.12674 -27.3204,61.95734 -32.96188,77.2887 -2.51407,6.83222 -5.57048,14.95346 -6.79205,18.04721 l -2.22105,5.625 -10.24283,0.36338 c -7.52255,0.26686 -10.40849,-0.0684 -10.86657,-1.26209 -0.82574,-2.15183 6.24655,-22.52333 15.09346,-43.47629 3.9188,-9.28125 8.79101,-21.09375 10.82714,-26.25 4.52761,-11.4657 8.76966,-20.88014 13.58914,-30.15859 C 407.75674,619.90705 407.09584,615 400.59767,615 c -2.92475,0 -12.87238,3.01035 -18.72267,5.66585 -16.79359,7.62276 -17.43072,7.79359 -32.47824,8.70745 -8.23804,0.50031 -16.34518,1.42936 -18.0159,2.06458 -1.92375,0.7314 -5.39944,0.66461 -9.47825,-0.18214 -3.54231,-0.73539 -12.87266,-1.52594 -20.73409,-1.75678 -12.13877,-0.35644 -15.29029,-0.89319 -20.90562,-3.56048 -3.63665,-1.72744 -7.57415,-3.94718 -8.75,-4.93277 -3.62917,-3.04197 -21.41325,-7.93079 -23.67046,-6.50697 -4.58085,2.88952 -4.09432,6.00981 3.61141,23.16075 7.55446,16.81427 23.21516,55.0887 27.29791,66.71551 1.20706,3.4375 3.6594,10.39775 5.44961,15.46721 1.79022,5.06947 2.95032,9.71009 2.57802,10.3125 -0.37232,0.60242 -5.4389,1.09529 -11.2591,1.09529 -10.39093,0 -10.60602,-0.0621 -11.90184,-3.4375 z M 351.25,607.3382 c 19.28299,-2.77539 50.41225,-15.61082 58.76779,-24.23155 2.32245,-2.39615 5.3431,-4.35665 6.71257,-4.35665 3.62376,0 9.44665,-4.41403 15.04922,-11.40802 3.39277,-4.23539 5.55453,-5.91637 7.01318,-5.45341 2.45519,0.77925 11.02849,-9.6449 14.14465,-17.19827 1.09547,-2.65534 3.33546,-5.32386 5.17094,-6.16015 1.78104,-0.8115 2.9777,-2.15443 2.65925,-2.9843 -0.84132,-2.19242 2.75549,-6.79585 5.30983,-6.79585 1.42053,0 4.02121,-3.28196 7.42911,-9.37533 2.88391,-5.15642 5.24346,-10.03281 5.24346,-10.83642 0,-2.11929 6.82101,-13.8771 11.9439,-20.58845 5.03254,-6.59297 7.50006,-11.89499 10.09894,-21.6998 1.00226,-3.78125 3.15591,-8.84375 4.78587,-11.25 4.41843,-6.52274 8.50697,-21.45436 6.97668,-25.4793 -1.02443,-2.69447 -0.71284,-3.78128 1.88907,-6.58879 1.71373,-1.84914 3.43347,-4.81216 3.82164,-6.58448 0.38817,-1.77234 1.48136,-5.75368 2.4293,-8.84743 0.94795,-3.09375 1.67543,-8.01866 1.61663,-10.94426 -0.0589,-2.92559 0.46096,-6.01934 1.15505,-6.875 1.74701,-2.15369 3.93303,-14.1484 3.81459,-20.93074 -0.054,-3.09375 0.8998,-9.16181 2.1196,-13.48458 1.91617,-6.7906 1.99608,-8.53142 0.58752,-12.7994 -1.42825,-4.32763 -1.35255,-5.55573 0.61083,-9.90975 2.21014,-4.90122 2.20159,-6.0708 -0.13601,-18.59547 -0.45982,-2.46369 -0.12795,-5.37735 0.8127,-7.13498 1.28746,-2.40562 1.28503,-4.34808 -0.0127,-10.2108 -0.88149,-3.98201 -1.50425,-8.64627 -1.38392,-10.36502 0.57137,-8.16189 -0.14339,-18.14495 -1.46826,-20.50708 -0.80759,-1.43986 -1.49904,-6.55542 -1.53654,-11.36792 -0.05,-6.41104 -0.8315,-10.36411 -2.92368,-14.78833 -1.97499,-4.1764 -2.60858,-7.16243 -2.0548,-9.68385 0.8423,-3.83496 -2.81813,-16.33215 -6.37267,-21.75706 -1.05553,-1.61092 -2.10818,-5.36836 -2.33923,-8.34986 -0.52366,-6.75736 -4.26453,-16.97146 -7.91577,-21.61326 -1.52279,-1.93588 -2.76869,-4.75873 -2.76869,-6.27299 0,-3.51301 -9.82021,-23.16913 -11.9916,-24.00236 -1.61266,-0.61884 -13.0084,-17.97834 -13.0084,-19.81613 0,-2.08613 -9.42727,-13.13452 -11.81663,-13.8486 -1.40711,-0.42053 -7.48082,-5.76589 -13.49713,-11.87858 C 446.16991,96.251291 440.37054,91.25 439.29875,91.25 c -1.0718,0 -4.58686,-2.022089 -7.81124,-4.493531 C 425.73889,82.350229 398.91191,68.75 395.96906,68.75 c -0.82222,0 -5.736,-1.398011 -10.91951,-3.106691 -16.37858,-5.399 -21.88879,-6.778562 -30.01805,-7.515454 -4.3534,-0.394621 -8.41054,-1.023589 -9.01587,-1.397705 -2.37515,-1.467926 -36.74473,-1.260188 -42.26563,0.255465 -3.09375,0.849326 -7.97001,1.51706 -10.83614,1.483852 -3.53768,-0.04099 -6.32871,0.818703 -8.69125,2.677079 -2.77577,2.183425 -4.44308,2.574763 -8.23816,1.93359 -3.8179,-0.645031 -5.87002,-0.152199 -10.38581,2.494228 -3.09528,1.813951 -7.3218,3.512485 -9.39228,3.77452 -6.54708,0.828581 -11.9931,3.121866 -14.99043,6.312392 -1.82763,1.945407 -4.28116,3.088724 -6.62833,3.088724 -3.84664,0 -10.91554,4.550145 -14.99083,9.649364 -1.47081,1.840355 -3.62208,2.850636 -6.0701,2.850636 -3.06756,0 -5.6322,1.850482 -13.42618,9.6875 -5.29888,5.32813 -13.35445,12.92018 -17.9013,16.87123 -4.54684,3.95106 -10.07243,9.85731 -12.27908,13.12501 -17.35854,25.70523 -28.70432,49.44972 -32.40454,67.81626 -0.62327,3.09375 -2.59382,9.84375 -4.37898,15 -1.78518,5.15625 -3.74865,12.46875 -4.36329,16.25 -0.61465,3.78125 -2.01035,9.96875 -3.10158,13.75 -1.34602,4.6642 -1.72477,9.00082 -1.17781,13.48576 0.61273,5.0243 0.34916,7.12414 -1.09828,8.75 -2.15146,2.41665 -3.07658,12.88185 -1.59878,18.08585 0.70111,2.46895 0.36012,4.39074 -1.20213,6.77503 -1.81542,2.77069 -2.04983,5.0332 -1.39887,13.50196 0.48245,6.27651 0.29705,10.6585 -0.48402,11.43958 -0.85471,0.85469 -0.77619,4.28278 0.24167,10.55142 0.82924,5.10697 1.3849,12.36675 1.2348,16.13285 -0.15009,3.76609 0.5579,11.35984 1.57332,16.875 1.01542,5.51515 2.13837,13.42404 2.49546,17.5753 0.35708,4.15126 1.51407,9.61756 2.57108,12.14735 1.05701,2.52979 1.92184,6.72884 1.92184,9.33123 0,4.83376 3.29121,17.49708 6.58815,25.34867 1.0104,2.40625 1.59709,5.03298 1.30375,5.83717 -0.69173,1.89635 6.48871,22.24057 9.66189,27.37485 1.34541,2.17694 2.44621,5.32768 2.44621,7.00164 0,3.39143 8.68441,22.09451 12.52806,26.98093 1.35956,1.72841 2.47194,4.41277 2.47194,5.96525 0,1.55247 0.87163,3.15716 1.93695,3.56596 1.06533,0.40881 3.33413,3.90254 5.04178,7.76385 4.34158,9.8171 12.61628,21.62943 16.34033,23.32621 2.81718,1.28359 4.46323,3.60519 10.3059,14.53539 2.83753,5.30831 11.46869,15.14875 13.28715,15.14875 0.92363,0 5.23062,3.97553 9.5711,8.83449 4.93334,5.52263 9.15967,9.09153 11.27389,9.52017 1.86015,0.37713 5.52898,2.52331 8.15293,4.76933 2.62395,2.246 7.2895,4.94268 10.36789,5.99262 3.07839,1.04994 8.48176,3.41006 12.00746,5.24473 3.52571,1.83466 8.86946,3.65163 11.875,4.03773 3.00555,0.38609 8.07953,2.00987 11.27555,3.60838 3.69297,1.84707 7.85883,2.86527 11.42967,2.7936 3.09031,-0.062 6.38164,0.36992 7.31408,0.9599 4.01485,2.5403 30.66392,2.7246 47.32032,0.32725 z m 39.24863,-106.29267 c -0.4944,-0.79998 -1.59659,-6.17815 -2.44929,-11.95153 -1.70731,-11.5597 -3.62973,-14.72854 -9.74145,-16.05746 -2.16309,-0.47034 -7.36236,-2.47098 -11.55394,-4.44585 C 362.56236,466.61581 358.49336,465 357.7117,465 c -0.78165,0 -5.73297,3.09375 -11.00292,6.875 -5.26997,3.78125 -10.11503,6.875 -10.7668,6.875 -1.89364,0 -18.44198,-16.48396 -18.44198,-18.37023 0,-0.94053 3.09375,-6.12517 6.875,-11.52142 3.78125,-5.39625 6.875,-10.40852 6.875,-11.1384 0,-0.72988 -1.0682,-3.18733 -2.37379,-5.461 -1.30558,-2.27368 -3.6466,-7.7902 -5.20226,-12.25895 -1.55566,-4.46875 -3.24193,-8.60135 -3.74726,-9.18355 -0.50534,-0.58221 -4.2112,-1.53895 -8.23524,-2.1261 -4.02405,-0.58714 -9.56645,-1.52556 -12.31645,-2.08538 l -5,-1.01782 -0.35479,-13.41858 c -0.19513,-7.38021 -0.19513,-13.45997 0,-13.51057 0.19514,-0.0506 6.14768,-1.03499 13.22788,-2.1875 l 12.8731,-2.0955 2.94759,-8.44878 c 1.62117,-4.64683 4.12516,-10.44461 5.56441,-12.88395 1.43925,-2.43935 2.6056,-5.3874 2.5919,-6.55122 -0.0138,-1.16383 -3.10744,-6.27153 -6.875,-11.35045 -3.76755,-5.07891 -6.85009,-10.02004 -6.85009,-10.98028 0,-1.95852 15.60035,-17.06144 18.27087,-17.68828 0.9442,-0.22163 6.29214,2.82141 11.8843,6.76231 l 10.16757,7.16529 7.02613,-3.78468 c 3.86437,-2.08156 9.74177,-4.55721 13.06089,-5.50142 3.31911,-0.94421 6.4979,-2.28416 7.06396,-2.97765 0.56607,-0.69349 1.70333,-5.76089 2.52725,-11.26089 0.82393,-5.5 1.9237,-10.84375 2.44394,-11.875 0.728,-1.44311 3.86978,-1.95709 13.63974,-2.23139 14.64325,-0.41111 13.64466,-1.27209 16.36109,14.10639 0.85007,4.8125 1.9481,9.55195 2.44006,10.53211 0.49196,0.98015 3.95329,2.81738 7.69184,4.08271 3.73855,1.26533 9.66941,3.74872 13.1797,5.51863 l 6.38232,3.21804 10.08778,-6.98825 c 5.54828,-3.84353 10.84757,-6.98824 11.7762,-6.98824 2.05447,0 18.49636,16.34993 18.49636,18.39291 0,0.80035 -3.09375,5.76723 -6.875,11.0375 -3.78125,5.27028 -6.875,9.97884 -6.875,10.46348 0,0.48464 1.96875,4.87745 4.375,9.76181 2.40625,4.88435 4.375,9.80945 4.375,10.94465 0,6.08003 4.57423,8.58224 18.38085,10.05478 4.26571,0.45495 8.3649,1.56106 9.1093,2.45801 0.82779,0.99742 1.21391,6.40687 0.99416,13.92775 l -0.35931,12.29692 -5,1.0175 c -2.75,0.55963 -8.34746,1.50439 -12.4388,2.09947 -7.71044,1.12147 -10.6862,3.33959 -10.6862,7.96547 0,1.34332 -1.96875,6.53562 -4.375,11.53843 -2.40625,5.00279 -4.375,9.47617 -4.375,9.94082 0,0.46466 3.09375,5.23489 6.875,10.6005 3.78125,5.36561 6.875,10.52885 6.875,11.47385 0,2.01835 -16.30452,18.52615 -18.29801,18.52615 -0.74817,0 -5.23404,-2.86415 -9.96864,-6.36476 -12.10001,-8.9464 -11.9204,-8.88384 -16.83148,-5.86304 -2.35228,1.44689 -8.46508,4.11021 -13.58401,5.91851 l -9.30714,3.28781 -1.74225,10.47367 C 417.39821,503.45686 418.36189,502.5 403.85471,502.5 c -8.12396,0 -12.76986,-0.50594 -13.35608,-1.45448 z m 23.43568,-62.74615 c 8.65474,-2.0371 17.70072,-7.14064 23.72808,-13.38688 6.10307,-6.3247 11.97279,-18.43231 13.0272,-26.87154 1.01247,-8.10361 -1.05474,-20.15611 -4.6739,-27.25026 -4.12553,-8.08669 -13.22123,-16.76405 -22.15429,-21.13532 -7.53435,-3.68684 -9.25709,-4.03038 -20.21106,-4.03038 -10.78708,0 -12.7086,0.36846 -19.375,3.71526 -9.5842,4.81165 -19.09566,14.39367 -23.4227,23.59644 -2.89786,6.16318 -3.46805,9.11829 -3.62989,18.81288 -0.17362,10.39995 0.16939,12.27348 3.58239,19.56688 6.39396,13.66358 17.6916,23.03092 32.31986,26.79772 8.29642,2.13633 12.3659,2.17255 20.80931,0.1852 z M 190,396.13226 c -5.15625,-2.08685 -9.8649,-4.27585 -10.46368,-4.86444 -0.61656,-0.60608 -0.21,-3.64892 0.9375,-7.01667 2.24949,-6.60189 2.63402,-11.75115 0.87754,-11.75115 -0.63175,0 -4.85813,-3.76463 -9.39196,-8.36582 l -8.24332,-8.36584 -5.92054,2.12201 c -9.16365,3.2844 -9.53771,3.08925 -13.87223,-7.23683 C 141.76549,345.51296 140,340.48616 140,339.48286 c 0,-1.0033 2.95312,-3.40676 6.5625,-5.34102 l 6.5625,-3.51684 0,-13.75 0,-13.75 -6.5625,-3.51684 C 142.95312,297.6739 140,295.24417 140,294.20876 c 0,-4.08072 7.76065,-20.45876 9.69429,-20.45876 1.07853,0 4.84702,0.90975 8.37442,2.02166 l 6.41344,2.02167 8.69643,-8.98483 c 4.78303,-4.94165 8.87975,-9.79645 9.10381,-10.78844 0.22406,-0.99199 -0.54105,-4.65909 -1.70025,-8.1491 -1.15919,-3.49001 -1.62376,-6.76091 -1.03239,-7.26866 0.59139,-0.50775 5.46008,-2.79429 10.8193,-5.08119 10.9431,-4.66966 10.73271,-4.73127 15.78734,4.62339 l 3.21861,5.95672 13.125,0 13.125,0 3.21861,-5.95672 c 4.93544,-9.13409 4.69937,-9.06541 15.69292,-4.56491 5.41116,2.21521 10.24406,4.38098 10.73977,4.81282 0.78341,0.68249 -0.99485,8.15513 -3.29892,13.86279 -0.50262,1.24509 2.48995,5.20374 8.85915,11.71911 l 9.61816,9.83891 6.44502,-2.03161 c 3.54476,-1.11739 7.2693,-2.03161 8.27676,-2.03161 1.67435,0 9.82353,17.37407 9.82353,20.94381 0,0.76864 -2.95313,2.98009 -6.5625,4.91435 l -6.5625,3.51684 -0.35082,13.7833 -0.35083,13.78331 6.91333,3.39061 C 301.889,335.94706 305,338.1342 305,338.94254 305,342.7782 297.0375,360 295.26407,360 c -1.05563,0 -4.8196,-0.91423 -8.36436,-2.03161 l -6.44502,-2.03162 -9.44182,9.65852 -9.44181,9.65852 1.859,5.8106 c 3.19421,9.98393 3.245,9.89393 -8.29682,14.70433 -11.67104,4.86425 -11.36105,4.94293 -16.28963,-4.13464 l -3.21861,-5.92811 -13.125,0.0776 -13.125,0.0777 -3.75,6.65759 c -2.0625,3.66166 -4.3125,6.82634 -5,7.03259 -0.6875,0.20625 -5.46875,-1.33243 -10.625,-3.41928 z m 46.39466,-47.86311 c 12.47758,-5.921 20.50408,-18.25999 20.42184,-31.39415 -0.11688,-18.66576 -14.04544,-33.041 -33.0665,-34.12689 -9.473,-0.5408 -16.8577,2.0693 -24.27144,8.57864 -19.93764,17.50549 -11.91212,52.10262 13.64644,58.82829 5.61196,1.47676 18.36075,0.44355 23.26966,-1.88589 z M 338.75,270.194 c 0,-9.07034 -0.70785,-10.43477 -6.25,-12.04722 -1.71875,-0.50007 -6.90106,-3.43461 -11.51625,-6.5212 l -8.39124,-5.61198 -6.76091,3.8682 c -3.7185,2.12751 -7.5362,3.86503 -8.48376,3.86114 -2.05679,-0.008 -13.59784,-18.8945 -13.59784,-22.25187 0,-1.52367 2.1734,-3.52666 6.21149,-5.72447 3.41632,-1.85939 6.57257,-3.96495 7.01388,-4.67901 0.44133,-0.71408 0.81519,-7.57903 0.83082,-15.25545 l 0.0284,-13.95714 -7.04229,-4.72186 c -3.87323,-2.59702 -7.04227,-5.56133 -7.04227,-6.58734 0,-1.02601 1.31845,-3.96368 2.9299,-6.52814 1.61144,-2.56446 3.95005,-6.82369 5.1969,-9.46495 1.24685,-2.64126 3.11516,-5.12776 4.1518,-5.52556 1.03665,-0.39779 4.75384,0.77886 8.26042,2.61479 3.50658,1.83594 7.21224,3.33806 8.23479,3.33806 1.02255,0 4.6455,-1.981 8.05099,-4.40221 3.40549,-2.42122 8.33225,-5.0435 10.94835,-5.82732 2.6161,-0.7838 5.28399,-2.06062 5.92865,-2.83738 0.64465,-0.77678 1.3411,-5.32637 1.54765,-10.1102 l 0.37555,-8.69789 12.3898,-0.3602 c 6.81439,-0.19811 12.90066,0.15066 13.52506,0.77506 0.6244,0.6244 1.51774,4.95921 1.9852,9.63291 l 0.84994,8.49764 7.53686,3.85229 c 4.14527,2.11876 9.143,5.11792 11.10608,6.6648 4.56256,3.59525 7.55508,3.52669 14.29715,-0.32756 2.99205,-1.71046 6.17392,-3.10994 7.07082,-3.10994 1.94113,0 13.11409,18.32632 13.11409,21.51024 0,1.29727 -2.84706,4.10456 -6.875,6.77897 l -6.875,4.56474 0,14.79093 0,14.79092 3.60015,1.86171 c 1.98009,1.02394 5.36364,3.34559 7.51901,5.15922 l 3.91886,3.2975 -3.93631,7.06038 c -5.93841,10.65148 -9.08271,15.16739 -10.56724,15.17685 -0.73728,0.005 -4.54448,-1.7268 -8.46045,-3.84777 l -7.11992,-3.85631 -6.86772,4.55852 c -3.77724,2.5072 -9.36759,5.66435 -12.42299,7.0159 l -5.55527,2.45735 -0.36656,9.02793 -0.36656,9.02792 -14.0625,0.35344 -14.0625,0.35343 0,-8.63787 z m 26.18271,-34.74753 c 6.94564,-2.86006 11.77228,-7.21578 15.41751,-13.9133 7.18749,-13.20577 5.19976,-27.37266 -5.3013,-37.78317 -20.50588,-20.32908 -53.95517,-6.56741 -53.95517,22.19816 0,23.3069 22.35115,38.34651 43.83896,29.49831 z"
       id="path4148"
       inkscape:connector-curvature="0" />
    <path
       style="fill:#b0b0b0"
       d="m 263.61845,727.8125 c -0.72581,-1.89063 -4.32768,-11.875 -8.00411,-22.1875 -17.19339,-48.22776 -49.98552,-113.78031 -66.28207,-132.5 -6.972,-8.00868 -22.87905,-33.09073 -38.4484,-60.625 -42.82745,-75.74004 -61.167366,-178.1831 -46.77039,-261.25 1.48945,-8.59375 2.80177,-20.40625 2.91627,-26.25 0.20993,-10.71439 3.57636,-24.8313 11.3272,-47.5 4.99707,-14.61479 20.90762,-45.75084 29.49117,-57.71255 25.91458,-36.113526 69.86147,-67.551203 110.62873,-79.138931 44.61409,-12.68115 77.67342,-13.50082 120.70556,-2.992759 26.92735,6.575419 55.66955,19.909956 77.06759,35.754429 32.4334,24.01576 62.04355,66.800031 77.22909,111.589811 7.9747,23.52141 9.28211,28.76209 9.64879,38.67651 0.32444,8.77274 2.20581,23.46245 5.93281,46.32349 2.01721,12.37342 1.99283,58.7891 -0.0417,79.375 -5.2576,53.19774 -19.17543,102.37399 -42.12537,148.84275 C 497.7355,516.76101 479.17415,546.51719 468.355,560 c -12.13887,15.12745 -31.24167,46.67462 -42.18378,69.66409 -8.62763,18.12674 -27.3204,61.95734 -32.96188,77.2887 -2.51407,6.83222 -5.57048,14.95346 -6.79205,18.04721 l -2.22105,5.625 -10.24283,0.36338 c -7.52255,0.26686 -10.40849,-0.0684 -10.86657,-1.26209 -0.82574,-2.15183 6.24655,-22.52333 15.09346,-43.47629 3.9188,-9.28125 8.79101,-21.09375 10.82714,-26.25 4.52761,-11.4657 8.76966,-20.88014 13.58914,-30.15859 C 407.75674,619.90705 407.09584,615 400.59767,615 c -2.92475,0 -12.87238,3.01035 -18.72267,5.66585 -16.79359,7.62276 -17.43072,7.79359 -32.47824,8.70745 -8.23804,0.50031 -16.34518,1.42936 -18.0159,2.06458 -1.92375,0.7314 -5.39944,0.66461 -9.47825,-0.18214 -3.54231,-0.73539 -12.87266,-1.52594 -20.73409,-1.75678 -12.13877,-0.35644 -15.29029,-0.89319 -20.90562,-3.56048 -3.63665,-1.72744 -7.57415,-3.94718 -8.75,-4.93277 -3.62917,-3.04197 -21.41325,-7.93079 -23.67046,-6.50697 -4.58085,2.88952 -4.09432,6.00981 3.61141,23.16075 7.55446,16.81427 23.21516,55.0887 27.29791,66.71551 1.20706,3.4375 3.6594,10.39775 5.44961,15.46721 1.79022,5.06947 2.95032,9.71009 2.57802,10.3125 -0.37232,0.60242 -5.4389,1.09529 -11.2591,1.09529 -10.39093,0 -10.60602,-0.0621 -11.90184,-3.4375 z M 351.25,607.3382 c 19.28299,-2.77539 50.41225,-15.61082 58.76779,-24.23155 2.32245,-2.39615 5.3431,-4.35665 6.71257,-4.35665 3.62376,0 9.44665,-4.41403 15.04922,-11.40802 3.39277,-4.23539 5.55453,-5.91637 7.01318,-5.45341 2.45519,0.77925 11.02849,-9.6449 14.14465,-17.19827 1.09547,-2.65534 3.33546,-5.32386 5.17094,-6.16015 1.78104,-0.8115 2.9777,-2.15443 2.65925,-2.9843 -0.84132,-2.19242 2.75549,-6.79585 5.30983,-6.79585 1.42053,0 4.02121,-3.28196 7.42911,-9.37533 2.88391,-5.15642 5.24346,-10.03281 5.24346,-10.83642 0,-2.11929 6.82101,-13.8771 11.9439,-20.58845 5.03254,-6.59297 7.50006,-11.89499 10.09894,-21.6998 1.00226,-3.78125 3.15591,-8.84375 4.78587,-11.25 4.41843,-6.52274 8.50697,-21.45436 6.97668,-25.4793 -1.02443,-2.69447 -0.71284,-3.78128 1.88907,-6.58879 1.71373,-1.84914 3.43347,-4.81216 3.82164,-6.58448 0.38817,-1.77234 1.48136,-5.75368 2.4293,-8.84743 0.94795,-3.09375 1.67543,-8.01866 1.61663,-10.94426 -0.0589,-2.92559 0.46096,-6.01934 1.15505,-6.875 1.74701,-2.15369 3.93303,-14.1484 3.81459,-20.93074 -0.054,-3.09375 0.8998,-9.16181 2.1196,-13.48458 1.91617,-6.7906 1.99608,-8.53142 0.58752,-12.7994 -1.42825,-4.32763 -1.35255,-5.55573 0.61083,-9.90975 2.21014,-4.90122 2.20159,-6.0708 -0.13601,-18.59547 -0.45982,-2.46369 -0.12795,-5.37735 0.8127,-7.13498 1.28746,-2.40562 1.28503,-4.34808 -0.0127,-10.2108 -0.88149,-3.98201 -1.50425,-8.64627 -1.38392,-10.36502 0.57137,-8.16189 -0.14339,-18.14495 -1.46826,-20.50708 -0.80759,-1.43986 -1.49904,-6.55542 -1.53654,-11.36792 -0.05,-6.41104 -0.8315,-10.36411 -2.92368,-14.78833 -1.97499,-4.1764 -2.60858,-7.16243 -2.0548,-9.68385 0.8423,-3.83496 -2.81813,-16.33215 -6.37267,-21.75706 -1.05553,-1.61092 -2.10818,-5.36836 -2.33923,-8.34986 -0.52366,-6.75736 -4.26453,-16.97146 -7.91577,-21.61326 -1.52279,-1.93588 -2.76869,-4.75873 -2.76869,-6.27299 0,-3.51301 -9.82021,-23.16913 -11.9916,-24.00236 -1.61266,-0.61884 -13.0084,-17.97834 -13.0084,-19.81613 0,-2.08613 -9.42727,-13.13452 -11.81663,-13.8486 -1.40711,-0.42053 -7.48082,-5.76589 -13.49713,-11.87858 C 446.16991,96.251291 440.37054,91.25 439.29875,91.25 c -1.0718,0 -4.58686,-2.022089 -7.81124,-4.493531 C 425.73889,82.350229 398.91191,68.75 395.96906,68.75 c -0.82222,0 -5.736,-1.398011 -10.91951,-3.106691 -16.37858,-5.399 -21.88879,-6.778562 -30.01805,-7.515454 -4.3534,-0.394621 -8.41054,-1.023589 -9.01587,-1.397705 -2.37515,-1.467926 -36.74473,-1.260188 -42.26563,0.255465 -3.09375,0.849326 -7.97001,1.51706 -10.83614,1.483852 -3.53768,-0.04099 -6.32871,0.818703 -8.69125,2.677079 -2.77577,2.183425 -4.44308,2.574763 -8.23816,1.93359 -3.8179,-0.645031 -5.87002,-0.152199 -10.38581,2.494228 -3.09528,1.813951 -7.3218,3.512485 -9.39228,3.77452 -6.54708,0.828581 -11.9931,3.121866 -14.99043,6.312392 -1.82763,1.945407 -4.28116,3.088724 -6.62833,3.088724 -3.84664,0 -10.91554,4.550145 -14.99083,9.649364 -1.47081,1.840355 -3.62208,2.850636 -6.0701,2.850636 -3.06756,0 -5.6322,1.850482 -13.42618,9.6875 -5.29888,5.32813 -13.35445,12.92018 -17.9013,16.87123 -4.54684,3.95106 -10.07243,9.85731 -12.27908,13.12501 -17.35854,25.70523 -28.70432,49.44972 -32.40454,67.81626 -0.62327,3.09375 -2.59382,9.84375 -4.37898,15 -1.78518,5.15625 -3.74865,12.46875 -4.36329,16.25 -0.61465,3.78125 -2.01035,9.96875 -3.10158,13.75 -1.34602,4.6642 -1.72477,9.00082 -1.17781,13.48576 0.61273,5.0243 0.34916,7.12414 -1.09828,8.75 -2.15146,2.41665 -3.07658,12.88185 -1.59878,18.08585 0.70111,2.46895 0.36012,4.39074 -1.20213,6.77503 -1.81542,2.77069 -2.04983,5.0332 -1.39887,13.50196 0.48245,6.27651 0.29705,10.6585 -0.48402,11.43958 -0.85471,0.85469 -0.77619,4.28278 0.24167,10.55142 0.82924,5.10697 1.3849,12.36675 1.2348,16.13285 -0.15009,3.76609 0.5579,11.35984 1.57332,16.875 1.01542,5.51515 2.13837,13.42404 2.49546,17.5753 0.35708,4.15126 1.51407,9.61756 2.57108,12.14735 1.05701,2.52979 1.92184,6.72884 1.92184,9.33123 0,4.83376 3.29121,17.49708 6.58815,25.34867 1.0104,2.40625 1.59709,5.03298 1.30375,5.83717 -0.69173,1.89635 6.48871,22.24057 9.66189,27.37485 1.34541,2.17694 2.44621,5.32768 2.44621,7.00164 0,3.39143 8.68441,22.09451 12.52806,26.98093 1.35956,1.72841 2.47194,4.41277 2.47194,5.96525 0,1.55247 0.87163,3.15716 1.93695,3.56596 1.06533,0.40881 3.33413,3.90254 5.04178,7.76385 4.34158,9.8171 12.61628,21.62943 16.34033,23.32621 2.81718,1.28359 4.46323,3.60519 10.3059,14.53539 2.83753,5.30831 11.46869,15.14875 13.28715,15.14875 0.92363,0 5.23062,3.97553 9.5711,8.83449 4.93334,5.52263 9.15967,9.09153 11.27389,9.52017 1.86015,0.37713 5.52898,2.52331 8.15293,4.76933 2.62395,2.246 7.2895,4.94268 10.36789,5.99262 3.07839,1.04994 8.48176,3.41006 12.00746,5.24473 3.52571,1.83466 8.86946,3.65163 11.875,4.03773 3.00555,0.38609 8.07953,2.00987 11.27555,3.60838 3.69297,1.84707 7.85883,2.86527 11.42967,2.7936 3.09031,-0.062 6.38164,0.36992 7.31408,0.9599 4.01485,2.5403 30.66392,2.7246 47.32032,0.32725 z M 391.3186,498.87817 C 390.59337,497.52307 390,495.06494 390,493.41565 c 0,-1.64929 -0.65285,-6.24947 -1.45078,-10.22265 -1.19896,-5.97004 -2.12108,-7.63269 -5.3125,-9.5788 -2.12395,-1.29518 -4.87765,-2.35696 -6.11933,-2.35952 -1.24169,-0.003 -5.65879,-1.69218 -9.81578,-3.75468 -4.157,-2.0625 -8.39917,-3.75 -9.42706,-3.75 -1.02789,0 -6.22395,3.0691 -11.54681,6.82021 -10.82644,7.6296 -10.38223,7.65254 -18.95958,-0.97871 -10.0938,-10.15721 -9.92556,-8.24059 -1.7668,-20.1291 4.67847,-6.8172 6.99761,-11.3451 6.56362,-12.81475 -0.68425,-2.317 -7.47989,-18.48632 -10.14878,-24.14765 -0.98177,-2.08258 -2.91891,-3.41689 -5.8072,-4.00005 -2.3837,-0.48127 -7.99025,-1.65004 -12.459,-2.59726 l -8.125,-1.72222 0,-12.35512 0,-12.35512 12.145,-1.92262 c 6.67975,-1.05743 12.65749,-2.48511 13.28385,-3.17261 0.62636,-0.6875 2.11551,-4.34375 3.30921,-8.125 1.1937,-3.78125 3.51284,-9.33648 5.15365,-12.34494 3.88272,-7.11907 3.77395,-8.70178 -1.05007,-15.28001 -6.81698,-9.29589 -9.71664,-13.69237 -9.71664,-14.73243 0,-1.44187 15.79277,-16.39262 17.31585,-16.39262 0.70524,0 5.59429,3.09375 10.86456,6.875 5.27028,3.78125 10.26706,6.875 11.10398,6.875 0.83691,0 4.57467,-1.63688 8.30613,-3.63749 3.73147,-2.00062 9.31573,-4.3491 12.40948,-5.21885 3.09375,-0.86975 6.24912,-2.04869 7.01194,-2.61986 0.76281,-0.57118 2.06845,-5.39456 2.90141,-10.71865 2.70117,-17.26519 0.92625,-15.44629 14.67404,-15.03749 l 12.01723,0.35734 1.54539,5.24331 c 0.84995,2.88383 1.95068,7.94633 2.44605,11.25 1.23784,8.2552 2.4015,9.9623 7.43456,10.90652 2.3916,0.44866 8.17247,2.75359 12.84637,5.12208 4.67391,2.36848 9.11721,4.31685 9.87402,4.3297 0.7568,0.0129 5.6878,-3.07036 10.95776,-6.85161 5.26995,-3.78125 10.292,-6.875 11.1601,-6.875 1.7165,0 17.13113,15.04316 17.13113,16.7183 0,0.56432 -3.09375,5.41609 -6.875,10.7817 -3.78125,5.36561 -6.875,10.38917 -6.875,11.16348 0,0.7743 1.66327,4.70276 3.69617,8.72991 2.0329,4.02715 4.35433,9.93578 5.15872,13.13031 1.80016,7.14908 3.49921,8.12626 17.2808,9.93885 l 10.73931,1.41245 0,12.36167 0,12.36168 -6.25,1.64566 c -3.4375,0.90512 -8.64063,1.67048 -11.5625,1.70083 -6.22451,0.0646 -10.3125,3.35356 -10.3125,8.29675 0,1.78287 -2.20469,7.61391 -4.8993,12.95786 l -4.8993,9.71627 7.3993,10.37192 c 4.06961,5.70453 7.3993,10.71671 7.3993,11.13815 0,0.42145 -3.87888,4.61541 -8.61971,9.31992 l -8.61972,8.55367 -5.94133,-4.21219 c -3.26773,-2.3167 -8.16507,-5.78466 -10.88298,-7.70658 l -4.94166,-3.49438 -8.9348,4.39388 c -4.91414,2.41663 -11.43376,5.1141 -14.48804,5.99439 l -5.55324,1.6005 -1.59446,8.75 c -0.87695,4.8125 -2.05601,10.71875 -2.62015,13.125 l -1.02569,4.375 -11.44551,0.3585 c -10.31435,0.32306 -11.57584,0.115 -12.76411,-2.10532 z M 424.563,435.6539 c 37.07136,-18.32166 36.74099,-69.63894 -0.56211,-87.3109 -7.67243,-3.63474 -9.42573,-3.96793 -20.87589,-3.96704 -11.32571,8.8e-4 -13.13615,0.33574 -19.27166,3.56455 -9.31953,4.9044 -19.02069,14.43173 -23.77193,23.34596 -3.68508,6.91395 -3.99286,8.42537 -4.13811,20.32133 -0.14476,11.85726 0.12705,13.42871 3.5124,20.30624 12.49385,25.382 40.85823,35.7244 65.1073,23.73986 z M 190.625,394.84149 c -4.8125,-2.05654 -9.17814,-4.1622 -9.7014,-4.67923 -0.52328,-0.51704 0.15731,-4.1626 1.5124,-8.10126 l 2.46381,-7.16119 -9.9499,-9.9499 C 169.47746,359.47746 164.40256,355 163.67238,355 c -0.7302,0 -4.14119,0.92026 -7.57997,2.04504 -3.60921,1.18051 -6.70062,1.57682 -7.31275,0.9375 -1.33017,-1.38928 -7.52966,-16.6727 -7.52966,-18.56265 0,-0.7695 3.03315,-2.88669 6.74032,-4.70487 l 6.74034,-3.30576 0.029,-14.48714 0.029,-14.48715 -6.20301,-3.1433 c -3.41166,-1.72882 -6.49445,-3.90276 -6.85064,-4.83096 -0.35619,-0.92821 0.9971,-5.54597 3.00731,-10.26169 4.01219,-9.41211 4.14783,-9.4763 14.08912,-6.66681 l 5.70635,1.61265 10.11038,-10.19222 10.11038,-10.19223 -1.86918,-5.94271 c -2.95137,-9.3834 -3.04905,-9.2042 7.42717,-13.62658 l 9.69145,-4.09111 1.688,2.7625 c 0.9284,1.51936 2.78616,4.73124 4.12836,7.13749 l 2.44036,4.375 14.07467,0.1145 14.07466,0.1145 3.73965,-7.40823 c 2.15507,-4.26918 4.37137,-7.1572 5.23052,-6.81581 20.24785,8.04553 19.77469,7.54011 16.3815,17.49859 l -1.98439,5.82384 10.27812,10.18186 10.2781,10.18187 7.3124,-2.03303 C 291.67167,275.91486 295.1995,275 295.48948,275 c 1.15242,0 8.31288,18.90401 7.59837,20.06011 -0.42062,0.68059 -3.53746,2.64245 -6.92631,4.35971 -3.38885,1.71727 -6.2133,3.81594 -6.27655,4.66374 -0.49028,6.57041 0.0546,26.05738 0.76048,27.19956 0.48397,0.78308 3.28725,2.45568 6.22953,3.71688 2.94227,1.2612 5.71589,2.8858 6.1636,3.6102 1.23187,1.99323 -6.71556,20.1398 -8.8204,20.1398 -0.98918,0 -3.81788,-0.84375 -6.286,-1.875 -2.46814,-1.03125 -5.29665,-1.875 -6.28561,-1.875 -0.98897,0 -6.31123,4.51312 -11.82725,10.02915 l -10.02917,10.02915 2.55197,7.55676 2.55195,7.55675 -4.00954,1.68739 c -2.20525,0.92806 -6.69763,2.8451 -9.98305,4.2601 l -5.9735,2.57272 -2.1515,-3.64454 c -1.18333,-2.00452 -3.0448,-5.25336 -4.1366,-7.21967 l -1.98511,-3.5751 -14.26489,0.0718 -14.2649,0.0718 -3.21861,5.958 c -1.77024,3.27689 -3.73899,6.46838 -4.375,7.0922 -0.69567,0.68233 -4.64249,-0.35552 -9.90639,-2.60495 z m 47.70531,-45.87738 c 10.45764,-5.33509 20.41969,-20.90449 20.41969,-31.91332 0,-8.68415 -6.03459,-21.28897 -13.09346,-27.34917 -1.39235,-1.19535 -5.56874,-3.64222 -9.28087,-5.4375 -8.64111,-4.17903 -18.35618,-4.38257 -27.21823,-0.57021 -7.24713,3.11763 -16.98967,12.47273 -19.58495,18.80609 -8.06884,19.69067 1.23412,40.77136 21.30586,48.27947 6.4876,2.42678 21.02046,1.46574 27.45196,-1.81536 z M 340,269.65764 c 0,-9.08821 -1.27286,-11.29579 -7.68233,-13.32369 -2.50653,-0.79305 -7.82546,-3.73125 -11.81985,-6.52931 l -7.26251,-5.08742 -8.11594,4.00215 c -7.75797,3.82563 -8.19037,3.90078 -9.80366,1.70389 -3.50272,-4.7698 -10.4756,-18.06861 -10.08624,-19.23669 0.22314,-0.6694 3.44768,-3.04373 7.16564,-5.2763 l 6.75994,-4.05921 0.11,-15.44141 0.11,-15.4414 -6.875,-4.46897 c -3.78125,-2.45793 -7.12536,-4.66053 -7.43136,-4.89465 -0.6703,-0.51287 8.38737,-17.7847 10.56387,-20.14394 1.26658,-1.37291 2.90129,-0.97481 9.33668,2.27376 l 7.80126,3.93806 7.05227,-4.86216 c 3.87875,-2.67419 9.72522,-5.85367 12.99214,-7.06554 6.5234,-2.41985 6.9565,-3.25842 7.4861,-14.49481 l 0.32404,-6.875 11.13594,-0.36406 c 6.12477,-0.20023 11.66975,0.16975 12.32218,0.82219 0.65244,0.65243 1.48638,4.92518 1.85319,9.49501 l 0.66695,8.30876 6.38588,3.1824 c 3.51222,1.75031 9.22836,5.11181 12.70252,7.47 l 6.31666,4.28761 5.81907,-2.57405 c 3.20048,-1.41572 6.15681,-3.12052 6.56961,-3.78845 1.98643,-3.21411 5.28689,-0.59305 10.2905,8.17223 2.92187,5.1185 5.3096,10.02231 5.30605,10.89736 -0.004,0.87505 -3.1066,3.55975 -6.89565,5.966 l -6.8892,4.375 0.33315,15.625 0.33315,15.625 6.5625,4.23088 c 3.60937,2.32698 6.5625,4.94945 6.5625,5.8277 0,1.79186 -9.6519,18.95373 -11.19654,19.90838 -0.54612,0.33752 -4.48775,-1.13271 -8.75918,-3.26716 l -7.76624,-3.88084 -3.50543,2.59168 c -1.92798,1.42541 -7.36241,4.62937 -12.07652,7.1199 -4.7141,2.49052 -9.0605,5.00442 -9.65868,5.58644 -0.59817,0.58201 -1.16067,4.61878 -1.25,8.97061 l -0.16246,7.91241 -12.8125,0.35622 -12.8125,0.35624 0,-7.92982 z m 27.39406,-33.8188 c 7.13828,-3.51004 11.66125,-8.09806 15.20998,-15.42874 8.3677,-17.28539 0.72817,-36.85553 -17.60404,-45.09615 -12.36236,-5.5571 -27.09376,-2.226 -36.57705,8.27086 -6.09206,6.74319 -8.00601,10.75814 -9.01758,18.91649 -1.50946,12.17408 4.03642,23.72645 15.01703,31.28131 9.70045,6.67409 22.01819,7.44227 32.97166,2.05623 z"
       id="path4146"
       inkscape:connector-curvature="0" />
    <path
       style="fill:#f9ee03"
       d="m 265.71429,729.28571 c -1.08036,-1.08035 -1.96429,-2.485 -1.96429,-3.12144 0,-2.09043 -12.44584,-35.19441 -19.70578,-52.41427 -9.46625,-22.45302 -32.04744,-68.04754 -40.88897,-82.56041 -3.90278,-6.40618 -10.04791,-15.06017 -13.65587,-19.23109 -7.19917,-8.32247 -16.49679,-22.89059 -34.89237,-54.67161 -24.78206,-42.8146 -42.70586,-95.43563 -51.02049,-149.78689 -2.36418,-15.45419 -2.77862,-23.37452 -2.81254,-53.75 -0.0394,-35.261 1.67475,-57.04236 5.80392,-73.75 0.7646,-3.09375 1.44566,-10.40625 1.51346,-16.25 0.0977,-8.41861 1.09594,-13.86969 4.80715,-26.25 6.38368,-21.29545 7.54031,-24.30276 17.07119,-44.38586 17.61522,-37.11811 38.60161,-61.282074 75.6553,-87.110386 29.73001,-20.72334 78.38654,-35.011884 119.07361,-34.967326 32.7672,0.03589 69.42799,8.928126 99.67639,24.17697 42.53627,21.443414 73.1916,53.224092 95.56669,99.074872 12.08665,24.76787 22.47667,56.97284 22.52888,69.83072 0.0163,3.98418 0.84668,12.70293 1.84554,19.375 4.84281,32.34832 5.71196,42.02425 5.69333,63.38101 -0.0295,33.75269 -3.89477,69.51769 -10.73995,99.375 -5.06582,22.09601 -19.14197,62.48755 -29.98845,86.05185 -8.76587,19.0441 -28.02895,49.68106 -46.83245,74.48461 -21.95588,28.96185 -53.0014,91.68566 -72.43113,146.33854 -2.93296,8.25 -6.213,15.70312 -7.28897,16.5625 -2.86889,2.29136 -17.60919,2.07787 -18.50942,-0.26809 -0.98482,-2.5664 3.34427,-15.11937 14.24102,-41.29441 5.15175,-12.375 10.72611,-26.11449 12.38747,-30.53219 1.66135,-4.4177 3.78821,-9.4802 4.72635,-11.25 0.93813,-1.7698 4.08655,-8.39565 6.99648,-14.72411 5.1214,-11.13795 5.22405,-11.60816 3.20637,-14.6875 -1.14641,-1.74966 -3.0558,-3.17394 -4.24307,-3.16508 -3.51095,0.0263 -16.50975,4.45982 -25.90869,8.83686 -7.46228,3.47513 -11.32545,4.33756 -26.25,5.86008 -19.1279,1.95133 -24.64499,2.09836 -36.875,0.98279 -4.46875,-0.40763 -11.67343,-0.72999 -16.0104,-0.71636 -7.7461,0.0244 -18.8246,-3.76436 -24.00783,-8.21038 -1.04128,-0.89318 -6.56707,-3.10042 -12.27953,-4.905 -9.68568,-3.0597 -10.59092,-3.14697 -13.41928,-1.29375 -4.5275,2.96653 -3.86886,7.54156 3.2846,22.8155 14.40948,30.76683 36.93405,89.1025 35.67308,92.38854 -0.99009,2.58011 -17.40318,2.38449 -20.02635,-0.23869 z m 86.31698,-121.14575 c 19.77897,-3.20795 50.39923,-15.99108 58.5807,-24.45587 2.05534,-2.12651 5.43034,-4.20166 7.5,-4.61146 2.34432,-0.46418 6.7526,-3.7292 11.69265,-8.66024 4.36129,-4.35334 8.35656,-7.6513 8.87836,-7.32881 2.0313,1.25541 12.79853,-11.29887 14.4374,-16.83358 1.27452,-4.30431 4.30858,-7.5 7.12067,-7.5 1.82143,0 2.27223,-0.77722 1.99376,-3.4375 -0.29181,-2.78784 0.35553,-3.7529 3.4252,-5.10635 2.8952,-1.27653 5.06897,-4.21514 9.24658,-12.5 3.00386,-5.95714 6.89627,-13.64365 8.64981,-17.08115 1.75354,-3.4375 5.13081,-8.78125 7.50504,-11.875 4.75507,-6.19611 10.18856,-17.49223 10.18856,-21.18183 0,-1.2983 1.88882,-5.92288 4.1974,-10.27686 5.45997,-10.29754 8.73085,-21.66807 7.82999,-27.21939 -0.54935,-3.38523 -0.10388,-5.00273 1.9924,-7.2341 3.3554,-3.57166 8.64665,-21.04047 7.74176,-25.55908 -0.36856,-1.84045 0.12764,-4.9342 1.10267,-6.875 2.79973,-5.57288 4.9563,-18.71918 3.51314,-21.41575 -0.88417,-1.6521 -0.69507,-3.35738 0.66128,-5.96337 2.58726,-4.97095 3.79012,-19.89486 1.79707,-22.29635 -1.2106,-1.45868 -1.08286,-2.75831 0.62485,-6.35703 1.74913,-3.686 1.99558,-6.4877 1.3311,-15.13232 -0.49991,-6.50361 -0.31802,-11.53828 0.47005,-13.0108 0.92128,-1.72142 0.72393,-4.8711 -0.69652,-11.11635 -1.43054,-6.28956 -1.62107,-9.38886 -0.68473,-11.13842 1.34074,-2.50518 -0.43811,-17.02998 -2.4002,-19.59835 -0.5252,-0.6875 -0.94656,-4.91978 -0.93634,-9.40506 0.013,-5.7188 -0.82141,-10.10768 -2.79318,-14.69118 -1.83784,-4.27216 -2.55878,-7.80109 -2.08137,-10.18812 0.80573,-4.02865 -3.3314,-18.10514 -6.34247,-21.58012 -1.00771,-1.16296 -2.28265,-5.38171 -2.8332,-9.375 -1.22479,-8.8837 -4.37161,-17.64691 -7.56635,-21.07061 -1.31389,-1.40806 -2.7618,-4.50181 -3.21759,-6.875 C 501.92585,165.80647 492.89598,147.5 491.27446,147.5 c -1.33766,0 -8.30285,-10.50025 -13.03182,-19.6459 -3.30494,-6.39161 -9.99155,-14.1041 -12.22804,-14.1041 -0.74729,0 -6.35274,-5.02744 -12.45659,-11.17209 C 447.45418,96.433255 441.20348,91.018318 439.66756,90.54471 438.13165,90.071104 434.34375,87.852344 431.25,85.614132 423.90949,80.303548 398.27336,67.5 394.98067,67.5 c -1.40853,0 -4.65227,-0.876345 -7.20832,-1.947434 -16.06443,-6.731663 -36.66509,-9.904059 -63.39735,-9.762865 -23.8232,0.12583 -36.05655,1.547367 -40.95887,4.75949 -2.20188,1.442724 -4.50453,1.910395 -6.85947,1.393163 -3.39592,-0.74587 -7.71871,0.663131 -15.30666,4.989168 -1.71875,0.979893 -4.64541,1.789916 -6.50369,1.800051 -4.48245,0.02445 -9.46035,2.270121 -14.47731,6.531122 -2.25829,1.918017 -5.54646,3.487305 -7.30704,3.487305 -3.51376,0 -9.80468,3.95562 -13.36519,8.403787 C 218.14681,88.965237 215.96872,90 213.60572,90 c -2.97809,0 -5.76731,2.040705 -14.09502,10.3125 -5.7102,5.67188 -13.58478,13.04043 -17.49904,16.37456 -3.91426,3.33413 -9.21977,8.95913 -11.79005,12.5 -7.98382,10.99874 -21.2839,33.96228 -24.10851,41.62506 -1.48259,4.02209 -3.09698,7.87538 -3.58753,8.56288 -0.49054,0.6875 -2.18436,6.03125 -3.76403,11.875 -1.57966,5.84375 -4.2158,14.71076 -5.85808,19.70449 -1.64229,4.99371 -3.7548,13.14996 -4.6945,18.125 -0.93968,4.97502 -2.62903,12.67661 -3.7541,17.11462 -1.62411,6.40659 -1.74806,8.78738 -0.60162,11.55513 1.2003,2.89776 1.06208,4.06731 -0.81908,6.93088 -1.70379,2.59361 -2.2932,6.07047 -2.38513,14.06988 -0.0672,5.84375 -0.66254,11.75 -1.32307,13.125 -2.11629,4.4054 -0.6463,59.23076 1.86009,69.375 0.59453,2.40625 1.46154,8.58344 1.92668,13.7271 0.46515,5.14365 1.64257,11.25921 2.6165,13.59015 0.97392,2.33094 1.77077,6.24286 1.77077,8.69317 0,5.06022 4.20044,20.92209 6.92222,26.14008 0.99682,1.91097 1.81584,5.0664 1.82008,7.01205 0.01,4.37575 6.37062,22.66098 9.89384,28.44019 1.43248,2.34975 2.60662,5.49605 2.60918,6.99177 0.005,3.05828 8.90643,22.12009 11.84613,25.36841 1.0497,1.15992 1.90855,3.24813 1.90855,4.64048 0,1.39235 1.38041,4.02104 3.0676,5.84154 1.68717,1.82048 4.248,5.98075 5.69073,9.24502 3.85977,8.733 11.32483,19.03884 15.26777,21.07782 1.89715,0.98106 4.57185,3.98398 5.94378,6.67317 1.37192,2.68919 3.06493,5.24204 3.76226,5.67301 0.69732,0.43097 1.27471,1.73477 1.28307,2.89732 0.009,1.16255 2.68024,4.75317 5.9375,7.97916 3.25726,3.22599 9.93811,9.83802 14.84633,14.69342 4.90822,4.8554 11.09572,9.7214 13.75,10.81334 2.65428,1.09194 6.23221,3.29871 7.95096,4.90395 1.71875,1.60524 6.21875,4.12184 10,5.59245 3.78125,1.47061 9.7344,4.06256 13.22922,5.75991 3.49483,1.69734 8.55733,3.40794 11.25,3.80133 2.69268,0.39339 7.42703,1.91514 10.52078,3.38167 3.09375,1.46654 8.15625,2.77301 11.25,2.9033 3.09375,0.13028 9.28125,0.76141 13.75,1.4025 12.65429,1.81541 29.53843,1.67387 42.03127,-0.35235 z M 391.3186,498.87818 C 390.59337,497.52307 390,495.06494 390,493.41565 c 0,-1.64929 -0.65285,-6.24947 -1.45078,-10.22265 -1.19896,-5.97004 -2.12108,-7.63269 -5.3125,-9.5788 -2.12395,-1.29518 -4.87765,-2.35696 -6.11933,-2.35952 -1.24169,-0.003 -5.65879,-1.69218 -9.81578,-3.75468 -4.157,-2.0625 -8.39917,-3.75 -9.42706,-3.75 -1.02789,0 -6.22395,3.0691 -11.54681,6.82021 -10.82644,7.6296 -10.38223,7.65254 -18.95958,-0.97871 -10.0938,-10.15721 -9.92556,-8.24059 -1.7668,-20.1291 4.67847,-6.8172 6.99761,-11.3451 6.56362,-12.81475 -0.68425,-2.317 -7.47989,-18.48632 -10.14878,-24.14765 -0.98177,-2.08258 -2.91891,-3.41689 -5.8072,-4.00005 -2.3837,-0.48127 -7.99025,-1.65004 -12.459,-2.59726 l -8.125,-1.72222 0,-12.35512 0,-12.35512 12.145,-1.92262 c 6.67975,-1.05743 12.65749,-2.48511 13.28385,-3.17261 0.62636,-0.6875 2.11551,-4.34375 3.30921,-8.125 1.1937,-3.78125 3.51284,-9.33648 5.15365,-12.34494 3.88272,-7.11907 3.77395,-8.70178 -1.05007,-15.28001 -6.81698,-9.29589 -9.71664,-13.69237 -9.71664,-14.73243 0,-1.44187 15.79277,-16.39262 17.31585,-16.39262 0.70524,0 5.59429,3.09375 10.86456,6.875 5.27028,3.78125 10.26706,6.875 11.10398,6.875 0.83691,0 4.57467,-1.63688 8.30613,-3.63749 3.73147,-2.00062 9.31573,-4.3491 12.40948,-5.21885 3.09375,-0.86975 6.24912,-2.04869 7.01194,-2.61986 0.76281,-0.57118 2.06845,-5.39456 2.90141,-10.71865 2.70117,-17.26519 0.92625,-15.44629 14.67404,-15.03749 l 12.01723,0.35734 1.54539,5.24331 c 0.84995,2.88383 1.95068,7.94633 2.44605,11.25 1.23784,8.2552 2.4015,9.9623 7.43456,10.90652 2.3916,0.44866 8.17247,2.75359 12.84637,5.12208 4.67391,2.36848 9.11721,4.31685 9.87402,4.3297 0.7568,0.0129 5.6878,-3.07036 10.95776,-6.85161 5.26995,-3.78125 10.292,-6.875 11.1601,-6.875 1.7165,0 17.13113,15.04316 17.13113,16.7183 0,0.56432 -3.09375,5.41609 -6.875,10.7817 -3.78125,5.36561 -6.875,10.38917 -6.875,11.16348 0,0.7743 1.66327,4.70276 3.69617,8.72991 2.0329,4.02715 4.35433,9.93578 5.15872,13.13031 1.80016,7.14908 3.49921,8.12626 17.2808,9.93885 l 10.73931,1.41245 0,12.36167 0,12.36168 -6.25,1.64566 c -3.4375,0.90512 -8.64063,1.67048 -11.5625,1.70083 -6.22451,0.0646 -10.3125,3.35356 -10.3125,8.29675 0,1.78287 -2.20469,7.61391 -4.8993,12.95786 l -4.8993,9.71627 7.3993,10.37192 c 4.06961,5.70453 7.3993,10.71671 7.3993,11.13815 0,0.42145 -3.87888,4.61541 -8.61971,9.31992 l -8.61972,8.55367 -5.94133,-4.21219 c -3.26773,-2.3167 -8.16507,-5.78466 -10.88298,-7.70658 l -4.94166,-3.49438 -8.9348,4.39388 c -4.91414,2.41663 -11.43376,5.1141 -14.48804,5.99439 l -5.55324,1.6005 -1.59446,8.75 c -0.87695,4.8125 -2.05601,10.71875 -2.62015,13.125 l -1.02569,4.375 -11.44551,0.3585 c -10.31435,0.32306 -11.57584,0.115 -12.76411,-2.10532 z M 424.563,435.6539 c 37.07136,-18.32166 36.74099,-69.63894 -0.56211,-87.3109 -7.67243,-3.63474 -9.42573,-3.96792 -20.87589,-3.96704 -11.32571,8.8e-4 -13.13615,0.33574 -19.27166,3.56455 -9.31953,4.9044 -19.02069,14.43173 -23.77193,23.34596 -3.68508,6.91395 -3.99286,8.42537 -4.13811,20.32133 -0.14476,11.85726 0.12705,13.42871 3.5124,20.30624 12.49385,25.382 40.85823,35.7244 65.1073,23.73986 z M 190.625,394.84149 c -4.8125,-2.05654 -9.17814,-4.1622 -9.7014,-4.67923 -0.52328,-0.51704 0.15731,-4.1626 1.5124,-8.10126 l 2.46381,-7.16119 -9.9499,-9.9499 C 169.47746,359.47746 164.40256,355 163.67238,355 c -0.7302,0 -4.14119,0.92026 -7.57997,2.04504 -3.60921,1.18051 -6.70062,1.57682 -7.31275,0.9375 -1.33017,-1.38928 -7.52966,-16.6727 -7.52966,-18.56265 0,-0.7695 3.03315,-2.88669 6.74032,-4.70487 l 6.74034,-3.30576 0.029,-14.48714 0.029,-14.48715 -6.20301,-3.1433 c -3.41166,-1.72882 -6.49445,-3.90276 -6.85064,-4.83096 -0.35619,-0.92821 0.9971,-5.54597 3.00731,-10.26169 4.01219,-9.41211 4.14783,-9.4763 14.08912,-6.66681 l 5.70635,1.61265 10.11038,-10.19222 10.11038,-10.19223 -1.86918,-5.94271 c -2.95137,-9.3834 -3.04905,-9.2042 7.42717,-13.62658 l 9.69145,-4.09111 1.688,2.7625 c 0.9284,1.51936 2.78616,4.73124 4.12836,7.13749 l 2.44036,4.375 14.07467,0.1145 14.07466,0.1145 3.73965,-7.40823 c 2.15507,-4.26918 4.37137,-7.1572 5.23052,-6.81581 20.24785,8.04553 19.77469,7.54011 16.3815,17.49859 l -1.98439,5.82384 10.27812,10.18186 10.2781,10.18187 7.3124,-2.03303 C 291.67167,275.91486 295.1995,275 295.48948,275 c 1.15242,0 8.31288,18.90401 7.59837,20.06011 -0.42062,0.68059 -3.53746,2.64245 -6.92631,4.35971 -3.38885,1.71727 -6.2133,3.81594 -6.27655,4.66374 -0.49028,6.57041 0.0546,26.05738 0.76048,27.19956 0.48397,0.78308 3.28725,2.45568 6.22953,3.71688 2.94227,1.2612 5.71589,2.8858 6.1636,3.6102 1.23187,1.99323 -6.71556,20.1398 -8.8204,20.1398 -0.98918,0 -3.81788,-0.84375 -6.286,-1.875 -2.46814,-1.03125 -5.29665,-1.875 -6.28561,-1.875 -0.98897,0 -6.31123,4.51312 -11.82725,10.02915 l -10.02917,10.02915 2.55197,7.55676 2.55195,7.55675 -4.00954,1.68739 c -2.20525,0.92806 -6.69763,2.8451 -9.98305,4.2601 l -5.9735,2.57272 -2.1515,-3.64454 c -1.18333,-2.00452 -3.0448,-5.25336 -4.1366,-7.21967 l -1.98511,-3.5751 -14.26489,0.0718 -14.2649,0.0718 -3.21861,5.958 c -1.77024,3.27689 -3.73899,6.46838 -4.375,7.0922 -0.69567,0.68233 -4.64249,-0.35552 -9.90639,-2.60495 z m 47.70531,-45.87738 c 10.45764,-5.33509 20.41969,-20.90449 20.41969,-31.91332 0,-8.68415 -6.03459,-21.28897 -13.09346,-27.34917 -1.39235,-1.19535 -5.56874,-3.64222 -9.28087,-5.4375 -8.64111,-4.17903 -18.35618,-4.38257 -27.21823,-0.57021 -7.24713,3.11763 -16.98967,12.47273 -19.58495,18.80609 -8.06884,19.69067 1.23412,40.77136 21.30586,48.27947 6.4876,2.42678 21.02046,1.46574 27.45196,-1.81536 z M 340,269.65764 c 0,-9.08821 -1.27286,-11.29579 -7.68233,-13.32369 -2.50653,-0.79305 -7.82546,-3.73125 -11.81985,-6.52931 l -7.26251,-5.08742 -8.11594,4.00215 c -7.75797,3.82563 -8.19037,3.90078 -9.80366,1.70389 -3.50272,-4.7698 -10.4756,-18.06861 -10.08624,-19.23669 0.22314,-0.6694 3.44768,-3.04373 7.16564,-5.2763 l 6.75994,-4.05921 0.11,-15.44141 0.11,-15.4414 -6.875,-4.46897 c -3.78125,-2.45793 -7.12536,-4.66053 -7.43136,-4.89465 -0.6703,-0.51287 8.38737,-17.7847 10.56387,-20.14394 1.26658,-1.37291 2.90129,-0.97481 9.33668,2.27376 l 7.80126,3.93806 7.05227,-4.86216 c 3.87875,-2.67419 9.72522,-5.85367 12.99214,-7.06554 6.5234,-2.41985 6.9565,-3.25842 7.4861,-14.49481 l 0.32404,-6.875 11.13594,-0.36406 c 6.12477,-0.20023 11.66975,0.16975 12.32218,0.82219 0.65244,0.65243 1.48638,4.92518 1.85319,9.49501 l 0.66695,8.30876 6.38588,3.1824 c 3.51222,1.75031 9.22836,5.11181 12.70252,7.47 l 6.31666,4.28761 5.81907,-2.57405 c 3.20048,-1.41572 6.15681,-3.12052 6.56961,-3.78845 1.98643,-3.21411 5.28689,-0.59305 10.2905,8.17223 2.92187,5.1185 5.3096,10.02231 5.30605,10.89736 -0.004,0.87505 -3.1066,3.55975 -6.89565,5.966 l -6.8892,4.375 0.33315,15.625 0.33315,15.625 6.5625,4.23088 c 3.60937,2.32698 6.5625,4.94945 6.5625,5.8277 0,1.79186 -9.6519,18.95373 -11.19654,19.90838 -0.54612,0.33752 -4.48775,-1.13271 -8.75918,-3.26716 l -7.76624,-3.88084 -3.50543,2.59168 c -1.92798,1.42541 -7.36241,4.62937 -12.07652,7.1199 -4.7141,2.49052 -9.0605,5.00442 -9.65868,5.58644 -0.59817,0.58201 -1.16067,4.61878 -1.25,8.97061 l -0.16246,7.91241 -12.8125,0.35622 -12.8125,0.35624 0,-7.92982 z m 27.39406,-33.8188 c 7.13828,-3.51004 11.66125,-8.09806 15.20998,-15.42874 8.3677,-17.28539 0.72817,-36.85553 -17.60404,-45.09615 -12.36236,-5.5571 -27.09376,-2.226 -36.57705,8.27086 -6.09206,6.74319 -8.00601,10.75814 -9.01758,18.91649 -1.50946,12.17408 4.03642,23.72645 15.01703,31.28131 9.70045,6.67409 22.01819,7.44227 32.97166,2.05623 z"
       id="path4144"
       inkscape:connector-curvature="0" />
    <path
       style="fill:#8f8f8f"
       d="m 265.71429,729.28571 c -1.08036,-1.08035 -1.96429,-2.485 -1.96429,-3.12144 0,-2.09043 -12.44584,-35.19441 -19.70578,-52.41427 -9.46625,-22.45302 -32.04744,-68.04754 -40.88897,-82.56041 -3.90278,-6.40618 -10.04791,-15.06017 -13.65587,-19.23109 -7.19917,-8.32247 -16.49679,-22.89059 -34.89237,-54.67161 -24.78206,-42.8146 -42.70586,-95.43563 -51.02049,-149.78689 -2.36418,-15.45419 -2.77862,-23.37452 -2.81254,-53.75 -0.0394,-35.261 1.67475,-57.04236 5.80392,-73.75 0.7646,-3.09375 1.44566,-10.40625 1.51346,-16.25 0.0977,-8.41861 1.09594,-13.86969 4.80715,-26.25 6.38368,-21.29545 7.54031,-24.30276 17.07119,-44.38586 17.61522,-37.11811 38.60161,-61.282074 75.6553,-87.110386 29.73001,-20.72334 78.38654,-35.011884 119.07361,-34.967326 32.7672,0.03589 69.42799,8.928126 99.67639,24.17697 42.53627,21.443414 73.1916,53.224092 95.56669,99.074872 12.08665,24.76787 22.47667,56.97284 22.52888,69.83072 0.0163,3.98418 0.84668,12.70293 1.84554,19.375 4.84281,32.34832 5.71196,42.02425 5.69333,63.38101 -0.0295,33.75269 -3.89477,69.51769 -10.73995,99.375 -5.06582,22.09601 -19.14197,62.48755 -29.98845,86.05185 -8.76587,19.0441 -28.02895,49.68106 -46.83245,74.48461 -21.95588,28.96185 -53.0014,91.68566 -72.43113,146.33854 -2.93296,8.25 -6.213,15.70312 -7.28897,16.5625 -2.86889,2.29136 -17.60919,2.07787 -18.50942,-0.26809 -0.98482,-2.5664 3.34427,-15.11937 14.24102,-41.29441 5.15175,-12.375 10.72611,-26.11449 12.38747,-30.53219 1.66135,-4.4177 3.78821,-9.4802 4.72635,-11.25 0.93813,-1.7698 4.08655,-8.39565 6.99648,-14.72411 5.1214,-11.13795 5.22405,-11.60816 3.20637,-14.6875 -1.14641,-1.74966 -3.0558,-3.17394 -4.24307,-3.16508 -3.51095,0.0263 -16.50975,4.45982 -25.90869,8.83686 -7.46228,3.47513 -11.32545,4.33756 -26.25,5.86008 -19.1279,1.95133 -24.64499,2.09836 -36.875,0.98279 -4.46875,-0.40763 -11.67343,-0.72999 -16.0104,-0.71636 -7.7461,0.0244 -18.8246,-3.76436 -24.00783,-8.21038 -1.04128,-0.89318 -6.56707,-3.10042 -12.27953,-4.905 -9.68568,-3.0597 -10.59092,-3.14697 -13.41928,-1.29375 -4.5275,2.96653 -3.86886,7.54156 3.2846,22.8155 14.40948,30.76683 36.93405,89.1025 35.67308,92.38854 -0.99009,2.58011 -17.40318,2.38449 -20.02635,-0.23869 z m 86.31698,-121.14575 c 19.77897,-3.20795 50.39923,-15.99108 58.5807,-24.45587 2.05534,-2.12651 5.43034,-4.20166 7.5,-4.61146 2.34432,-0.46418 6.7526,-3.7292 11.69265,-8.66024 4.36129,-4.35334 8.35656,-7.6513 8.87836,-7.32881 2.0313,1.25541 12.79853,-11.29887 14.4374,-16.83358 1.27452,-4.30431 4.30858,-7.5 7.12067,-7.5 1.82143,0 2.27223,-0.77722 1.99376,-3.4375 -0.29181,-2.78784 0.35553,-3.7529 3.4252,-5.10635 2.8952,-1.27653 5.06897,-4.21514 9.24658,-12.5 3.00386,-5.95714 6.89627,-13.64365 8.64981,-17.08115 1.75354,-3.4375 5.13081,-8.78125 7.50504,-11.875 4.75507,-6.19611 10.18856,-17.49223 10.18856,-21.18183 0,-1.2983 1.88882,-5.92288 4.1974,-10.27686 5.45997,-10.29754 8.73085,-21.66807 7.82999,-27.21939 -0.54935,-3.38523 -0.10388,-5.00273 1.9924,-7.2341 3.3554,-3.57166 8.64665,-21.04047 7.74176,-25.55908 -0.36856,-1.84045 0.12764,-4.9342 1.10267,-6.875 2.79973,-5.57288 4.9563,-18.71918 3.51314,-21.41575 -0.88417,-1.6521 -0.69507,-3.35738 0.66128,-5.96337 2.58726,-4.97095 3.79012,-19.89486 1.79707,-22.29635 -1.2106,-1.45868 -1.08286,-2.75831 0.62485,-6.35703 1.74913,-3.686 1.99558,-6.4877 1.3311,-15.13232 -0.49991,-6.50361 -0.31802,-11.53828 0.47005,-13.0108 0.92128,-1.72142 0.72393,-4.8711 -0.69652,-11.11635 -1.43054,-6.28956 -1.62107,-9.38886 -0.68473,-11.13842 1.34074,-2.50518 -0.43811,-17.02998 -2.4002,-19.59835 -0.5252,-0.6875 -0.94656,-4.91978 -0.93634,-9.40506 0.013,-5.7188 -0.82141,-10.10768 -2.79318,-14.69118 -1.83784,-4.27216 -2.55878,-7.80109 -2.08137,-10.18812 0.80573,-4.02865 -3.3314,-18.10514 -6.34247,-21.58012 -1.00771,-1.16296 -2.28265,-5.38171 -2.8332,-9.375 -1.22479,-8.8837 -4.37161,-17.64691 -7.56635,-21.07061 -1.31389,-1.40806 -2.7618,-4.50181 -3.21759,-6.875 C 501.92585,165.80647 492.89598,147.5 491.27446,147.5 c -1.33766,0 -8.30285,-10.50025 -13.03182,-19.6459 -3.30494,-6.39161 -9.99155,-14.1041 -12.22804,-14.1041 -0.74729,0 -6.35274,-5.02744 -12.45659,-11.17209 C 447.45418,96.433255 441.20348,91.018318 439.66756,90.54471 438.13165,90.071104 434.34375,87.852344 431.25,85.614132 423.90949,80.303548 398.27336,67.5 394.98067,67.5 c -1.40853,0 -4.65227,-0.876345 -7.20832,-1.947434 -16.06443,-6.731663 -36.66509,-9.904059 -63.39735,-9.762865 -23.8232,0.12583 -36.05655,1.547367 -40.95887,4.75949 -2.20188,1.442724 -4.50453,1.910395 -6.85947,1.393163 -3.39592,-0.74587 -7.71871,0.663131 -15.30666,4.989168 -1.71875,0.979893 -4.64541,1.789916 -6.50369,1.800051 -4.48245,0.02445 -9.46035,2.270121 -14.47731,6.531122 -2.25829,1.918017 -5.54646,3.487305 -7.30704,3.487305 -3.51376,0 -9.80468,3.95562 -13.36519,8.403787 C 218.14681,88.965237 215.96872,90 213.60572,90 c -2.97809,0 -5.76731,2.040705 -14.09502,10.3125 -5.7102,5.67188 -13.58478,13.04043 -17.49904,16.37456 -3.91426,3.33413 -9.21977,8.95913 -11.79005,12.5 -7.98382,10.99874 -21.2839,33.96228 -24.10851,41.62506 -1.48259,4.02209 -3.09698,7.87538 -3.58753,8.56288 -0.49054,0.6875 -2.18436,6.03125 -3.76403,11.875 -1.57966,5.84375 -4.2158,14.71076 -5.85808,19.70449 -1.64229,4.99371 -3.7548,13.14996 -4.6945,18.125 -0.93968,4.97502 -2.62903,12.67661 -3.7541,17.11462 -1.62411,6.40659 -1.74806,8.78738 -0.60162,11.55513 1.2003,2.89776 1.06208,4.06731 -0.81908,6.93088 -1.70379,2.59361 -2.2932,6.07047 -2.38513,14.06988 -0.0672,5.84375 -0.66254,11.75 -1.32307,13.125 -2.11629,4.4054 -0.6463,59.23076 1.86009,69.375 0.59453,2.40625 1.46154,8.58344 1.92668,13.7271 0.46515,5.14365 1.64257,11.25921 2.6165,13.59015 0.97392,2.33094 1.77077,6.24286 1.77077,8.69317 0,5.06022 4.20044,20.92209 6.92222,26.14008 0.99682,1.91097 1.81584,5.0664 1.82008,7.01205 0.01,4.37575 6.37062,22.66098 9.89384,28.44019 1.43248,2.34975 2.60662,5.49605 2.60918,6.99177 0.005,3.05828 8.90643,22.12009 11.84613,25.36841 1.0497,1.15992 1.90855,3.24813 1.90855,4.64048 0,1.39235 1.38041,4.02104 3.0676,5.84154 1.68717,1.82048 4.248,5.98075 5.69073,9.24502 3.85977,8.733 11.32483,19.03884 15.26777,21.07782 1.89715,0.98106 4.57185,3.98398 5.94378,6.67317 1.37192,2.68919 3.06493,5.24204 3.76226,5.67301 0.69732,0.43097 1.27471,1.73477 1.28307,2.89732 0.009,1.16255 2.68024,4.75317 5.9375,7.97916 3.25726,3.22599 9.93811,9.83802 14.84633,14.69342 4.90822,4.8554 11.09572,9.7214 13.75,10.81334 2.65428,1.09194 6.23221,3.29871 7.95096,4.90395 1.71875,1.60524 6.21875,4.12184 10,5.59245 3.78125,1.47061 9.7344,4.06256 13.22922,5.75991 3.49483,1.69734 8.55733,3.40794 11.25,3.80133 2.69268,0.39339 7.42703,1.91514 10.52078,3.38167 3.09375,1.46654 8.15625,2.77301 11.25,2.9033 3.09375,0.13028 9.28125,0.76141 13.75,1.4025 12.65429,1.81541 29.53843,1.67387 42.03127,-0.35235 z"
       id="path4142"
       inkscape:connector-curvature="0" />
    <path
       style="fill:#636363"
       d="m 265.79313,727.1875 c -0.97048,-1.54688 -2.44972,-5.0625 -3.28719,-7.8125 -7.2315,-23.7459 -21.95404,-58.4848 -40.0826,-94.57785 C 208.10693,596.29391 200.75739,583.94891 191.58839,573.00377 176.99261,555.58064 146.94044,504.0041 135.82457,477.30007 120.45979,440.38871 110.75238,406.00705 104.82333,367.5 c -2.39357,-15.54539 -2.79336,-23.19526 -2.80905,-53.75 -0.0181,-35.22868 1.70943,-57.14344 5.81362,-73.75 0.7646,-3.09375 1.43555,-10.40625 1.49101,-16.25 0.16267,-17.14111 9.37545,-45.69768 24.4918,-75.91651 10.92254,-21.83504 21.80233,-36.90995 37.85976,-52.45805 29.21292,-28.286274 57.67707,-44.922223 93.50299,-54.648061 26.07456,-7.07859 53.68399,-10.204276 72.95154,-8.258904 56.9933,5.7544 102.47639,25.954849 137.3058,60.981762 25.65209,25.797543 42.4998,53.281323 55.93088,91.240383 7.09181,20.04298 9.82456,30.97194 9.8589,39.42837 0.0162,3.98418 0.84667,12.70293 1.84553,19.375 4.8806,32.6008 5.7116,41.959 5.68361,64.00601 -0.0532,42.00575 -5.24357,80.66011 -15.70952,116.99609 -5.8754,20.39835 -20.33337,58.95196 -27.2407,72.63996 -9.7556,19.33235 -26.68809,45.75856 -43.98417,68.64527 -15.1455,20.04099 -36.62885,58.66613 -48.9283,87.96868 -17.20392,40.98705 -21.06588,50.53633 -25.02384,61.875 -2.39984,6.875 -5.01019,12.91326 -5.80076,13.41836 -2.1851,1.39604 -15.55549,1.13364 -16.45572,-0.32296 -1.13346,-1.83397 3.3618,-14.78759 14.08774,-40.5954 5.14316,-12.375 10.41246,-25.3125 11.70959,-28.75 1.29711,-3.4375 3.44086,-8.5 4.76387,-11.25 12.08668,-25.12306 12.92057,-27.40198 11.161,-30.50153 -3.1426,-5.53583 -5.16306,-5.91052 -14.92231,-2.76735 -4.93321,1.58885 -12.69596,4.61747 -17.25054,6.73025 -6.90838,3.20467 -11.18188,4.13736 -25.78106,5.62669 -19.87756,2.0278 -24.94934,2.16578 -38.125,1.03714 -5.15625,-0.44169 -12.23551,-0.77989 -15.73169,-0.75156 -6.21278,0.0504 -18.51281,-4.34267 -23.03653,-8.2276 -1.04129,-0.89424 -6.60599,-3.11465 -12.36603,-4.93424 -10.43415,-3.29615 -10.48481,-3.29943 -13.73177,-0.88649 -5.10965,3.79718 -4.75679,8.24681 1.76561,22.26418 15.01541,32.2698 37.70792,90.63676 36.19221,93.08924 -0.40664,0.65795 -4.34942,1.19627 -8.76175,1.19627 -6.9634,0 -8.25535,-0.37127 -9.78692,-2.8125 z m 86.23814,-117.79754 c 20.46414,-3.31908 48.45814,-14.98865 58.87831,-24.54399 3.09572,-2.83878 6.53823,-4.84597 8.31131,-4.84597 2.07275,0 5.49415,-2.5241 10.85507,-8.0082 4.30559,-4.4045 8.49438,-7.75261 9.30843,-7.44023 1.72725,0.66281 14.34667,-14.27013 14.40536,-17.0463 0.0601,-2.8455 2.89469,-6.00707 6.67385,-7.44391 2.6875,-1.02178 3.31034,-1.9805 3.02312,-4.65346 -0.28965,-2.69571 0.2597,-3.51859 2.75687,-4.12956 2.29727,-0.56208 4.67723,-3.54682 9.03681,-11.33318 3.25501,-5.81359 5.92977,-11.3517 5.94391,-12.30691 0.0301,-2.03901 6.59044,-12.9946 10.77674,-17.99701 3.71734,-4.44203 10.49895,-18.5903 10.49895,-21.90363 0,-1.39148 1.88882,-6.09232 4.1974,-10.4463 5.48811,-10.35062 8.7327,-21.66605 7.81732,-27.26278 -0.56338,-3.4446 -0.18892,-4.81184 1.7196,-6.27853 2.98817,-2.29641 9.09534,-22.62628 8.04918,-26.79452 -0.40531,-1.61493 0.0709,-4.54368 1.05829,-6.50835 2.81831,-5.60788 4.98402,-18.75268 3.53557,-21.45914 -0.88417,-1.6521 -0.69507,-3.35738 0.66128,-5.96336 2.42331,-4.65594 3.72435,-19.38323 1.98666,-22.48829 -0.96551,-1.72529 -0.80179,-3.30962 0.6277,-6.07393 1.52265,-2.94449 1.76665,-6.09637 1.14735,-14.82115 -0.47453,-6.68512 -0.28404,-12.02035 0.48015,-13.44824 0.89732,-1.67667 0.68873,-4.90816 -0.71531,-11.08125 -1.43183,-6.29523 -1.62148,-9.38807 -0.68319,-11.14128 0.93522,-1.74749 0.75242,-5.00513 -0.65299,-11.63622 -1.07351,-5.06509 -2.14837,-12.96213 -2.3886,-17.54895 -0.25752,-4.91733 -1.55802,-10.94615 -3.1691,-14.69118 -1.77306,-4.1216 -2.47591,-7.63365 -2.00193,-10.0035 0.80572,-4.02865 -3.3314,-18.10514 -6.34248,-21.58012 -1.00771,-1.16296 -2.28265,-5.38171 -2.8332,-9.375 -1.22479,-8.8837 -4.37161,-17.64691 -7.56635,-21.07061 -1.31389,-1.40806 -2.7618,-4.50181 -3.21759,-6.875 -1.132,-5.89417 -9.85322,-23.11992 -12.73726,-25.15809 -1.28946,-0.91125 -5.08281,-6.43807 -8.42969,-12.28182 -7.06815,-12.34124 -13.88334,-21.25 -16.25621,-21.25 -0.91423,0 -6.71991,-5.0625 -12.90153,-11.25 -6.18161,-6.1875 -11.97522,-11.256066 -12.87468,-11.263481 -0.89947,-0.0074 -5.0717,-2.39804 -9.27163,-5.3125 -8.56387,-5.942739 -32.22284,-17.48343 -39.86376,-19.445299 -2.75,-0.706084 -9.78125,-2.72012 -15.625,-4.475638 -16.12618,-4.84445 -28.5461,-6.331476 -51.875,-6.210938 -23.8197,0.123075 -36.05536,1.544148 -40.95888,4.757047 -2.20187,1.442724 -4.50452,1.910395 -6.85946,1.393163 -3.39592,-0.74587 -7.71871,0.663131 -15.30666,4.989168 -1.71875,0.979893 -4.30669,1.789915 -5.75098,1.80005 C 250.98921,67.51322 244.54317,70.25 240.269,73.947745 237.97493,75.932439 234.69492,77.5 232.83619,77.5 c -3.69969,0 -12.31574,5.441878 -14.20488,8.971776 -0.77572,1.449453 -2.62387,2.278224 -5.08042,2.278224 -3.15434,0 -5.624,1.77337 -13.49118,9.6875 -5.29651,5.32813 -13.32121,12.69558 -17.83267,16.37213 -8.38928,6.83672 -14.02054,14.27232 -26.65094,35.19037 -8.24414,13.65365 -13.19273,24.91235 -17.58137,40 -1.69981,5.84375 -4.76482,15.96875 -6.81112,22.5 -2.0463,6.53125 -3.71224,12.83684 -3.70207,14.01241 0.01,1.17559 -1.42333,7.84086 -3.18551,14.81174 -2.59301,10.25744 -2.94913,13.40537 -1.86752,16.50807 1.07989,3.09778 0.9291,4.45374 -0.78546,7.06327 -1.56011,2.37446 -2.14374,6.07748 -2.20437,13.9862 -0.0453,5.91618 -0.64073,11.54118 -1.32307,12.5 -0.69102,0.97102 -1.18058,9.21893 -1.10511,18.61831 0.24162,30.09144 1.93399,49.41184 6.24114,71.25 1.01697,5.15625 2.31646,12.75 2.88775,16.875 1.18513,8.55738 4.4947,20.41095 7.08517,25.37638 0.96803,1.85548 1.7635,4.96552 1.76774,6.91117 0.01,4.37575 6.37062,22.66098 9.89384,28.44019 1.43248,2.34975 2.60662,5.49605 2.60918,6.99177 0.005,2.81348 7.95148,20.17653 11.65289,25.46103 1.15599,1.6504 2.10179,4.19463 2.10179,5.65386 0,1.45922 1.1865,3.72469 2.63667,5.03436 1.45018,1.30969 4.31468,5.70259 6.36557,9.76201 5.8197,11.51925 12.19863,20.45687 15.16466,21.24742 2.63674,0.70277 10.8331,12.05966 10.8331,15.01033 0,0.81134 2.95312,4.39137 6.5625,7.95562 3.60937,3.56423 10.5,10.37051 15.3125,15.12505 4.8125,4.75453 11.47241,9.91407 14.79981,11.46566 3.3274,1.55157 6.32892,3.54837 6.67004,4.43734 0.34112,0.88895 4.64996,3.15693 9.57519,5.03996 4.92522,1.88302 9.82779,4.14999 10.89457,5.03767 1.06679,0.88768 5.84804,2.56962 10.625,3.73762 4.77697,1.168 11.21664,3.28618 14.31039,4.70707 3.09375,1.42088 8.15625,2.69588 11.25,2.83333 3.09375,0.13745 9.5625,0.76567 14.375,1.39606 13.67565,1.79137 28.96552,1.65883 41.40627,-0.35894 z"
       id="path4140"
       inkscape:connector-curvature="0" />
  </g>
</svg>
