<?xml version="1.0" encoding="UTF-8" standalone="no"?>
<!-- Created with Inkscape (http://www.inkscape.org/) -->

<svg
   xmlns:dc="http://purl.org/dc/elements/1.1/"
   xmlns:cc="http://creativecommons.org/ns#"
   xmlns:rdf="http://www.w3.org/1999/02/22-rdf-syntax-ns#"
   xmlns:svg="http://www.w3.org/2000/svg"
   xmlns="http://www.w3.org/2000/svg"
   xmlns:sodipodi="http://sodipodi.sourceforge.net/DTD/sodipodi-0.dtd"
   xmlns:inkscape="http://www.inkscape.org/namespaces/inkscape"
   id="svg2"
   version="1.1"
   inkscape:version="0.91 r13725"
   width="648.75"
   height="787.5"
   viewBox="0 0 648.75 787.5"
   sodipodi:docname="sd_unstrung.svg">
  <metadata
     id="metadata8">
    <rdf:RDF>
      <cc:Work
         rdf:about="">
        <dc:format>image/svg+xml</dc:format>
        <dc:type
           rdf:resource="http://purl.org/dc/dcmitype/StillImage" />
        <dc:title></dc:title>
      </cc:Work>
    </rdf:RDF>
  </metadata>
  <defs
     id="defs6" />
  <sodipodi:namedview
     pagecolor="#ffffff"
     bordercolor="#666666"
     borderopacity="1"
     objecttolerance="10"
     gridtolerance="10"
     guidetolerance="10"
     inkscape:pageopacity="0"
     inkscape:pageshadow="2"
     inkscape:window-width="1855"
     inkscape:window-height="1056"
     id="namedview4"
     showgrid="false"
     fit-margin-top="0"
     fit-margin-left="0"
     fit-margin-right="0"
     fit-margin-bottom="0"
     inkscape:zoom="0.84763022"
     inkscape:cx="847.32803"
     inkscape:cy="373.74218"
     inkscape:window-x="65"
     inkscape:window-y="24"
     inkscape:window-maximized="1"
     inkscape:current-layer="svg2" />
  <g
     id="g4156">
    <path
       style="fill:#fefefe"
       d="M 0,393.75 0,0 324.375,0 648.75,0 l 0,393.75 0,393.75 -324.375,0 L 0,787.5 0,393.75 Z"
       id="path4172"
       inkscape:connector-curvature="0" />
    <path
       style="fill:#e8e8e8"
       d="m 264.41669,730.3125 c -0.46794,-1.20313 -3.03686,-8.375 -5.70873,-15.9375 -8.53312,-24.1523 -10.68087,-29.66414 -18.02182,-46.25 -9.09852,-20.55685 -28.35513,-60.21507 -32.28159,-66.48262 -1.64265,-2.62206 -5.15414,-8.42363 -7.80331,-12.89238 -2.64918,-4.46875 -7.66508,-11.48103 -11.14646,-15.58282 -8.28332,-9.75949 -7.10232,-8.08714 -16.80164,-23.79218 C 139.16485,495.15106 122.88031,458.46476 111.19629,410.92314 98.177014,357.94844 95.525952,298.5209 104.04539,250.625 c 1.46746,-8.25 2.73757,-19.78125 2.82246,-25.625 0.155,-10.66901 4.82826,-29.99613 11.94799,-49.41306 5.28836,-14.42238 21.20333,-45.0771 29.01032,-55.87837 25.75615,-35.634616 67.26874,-65.764084 107.79884,-78.239448 30.29383,-9.324586 65.3202,-13.39063 88.76303,-10.304072 31.48106,4.144897 53.96442,10.4798 77.20683,21.753768 58.17371,28.217752 96.36627,76.897672 117.7019,150.021892 2.72841,9.35116 4.45946,17.81418 4.30342,21.03913 -0.14359,2.96734 1.00698,14.67641 2.55682,26.02016 1.54984,11.34375 3.31137,24.28125 3.91454,28.75 1.53756,11.3915 1.4381,46.32414 -0.1811,63.6105 -4.45667,47.57874 -12.20257,80.48746 -29.89607,127.0145 -10.28298,27.04026 -30.71366,63.481 -49.03481,87.4599 -1.55901,2.04044 -2.69394,4.14981 -2.52206,4.6875 0.17187,0.53767 -0.23226,0.9776 -0.89808,0.9776 -2.15897,0 -16.05587,20.66953 -29.17077,43.3871 -9.75194,16.89226 -34.83119,73.01349 -45.16388,101.06569 -2.51656,6.83222 -5.73872,15.37533 -7.16035,18.98471 l -2.58478,6.5625 -10.47982,0 c -9.7165,0 -10.47982,-0.18581 -10.47982,-2.55112 0,-4.43464 5.07465,-18.53063 15.95689,-44.32388 5.80116,-13.75 11.29532,-27.35129 12.20923,-30.22508 0.91393,-2.87378 2.48148,-6.53003 3.48347,-8.125 1.00198,-1.59496 2.51585,-5.08581 3.36415,-7.75745 0.8483,-2.67163 2.894,-6.84927 4.546,-9.28362 5.51151,-8.12166 5.25895,-14.13304 -0.63059,-15.00904 -1.47979,-0.2201 -5.78171,0.75639 -9.55984,2.16996 -3.77812,1.41358 -6.86931,2.25595 -6.86931,1.87196 0,-0.38401 -1.48211,0.46764 -3.29358,1.89255 -1.81146,1.4249 -4.32538,2.59072 -5.58651,2.59072 -1.26111,0 -4.41962,1.07219 -7.01892,2.38264 -3.40454,1.71642 -8.74542,2.61432 -19.10099,3.21121 -7.90625,0.45571 -16.45689,1.43307 -19.00141,2.17191 -3.38033,0.98153 -6.07374,0.94884 -10,-0.12137 -2.95548,-0.8056 -11.84234,-1.65372 -19.74859,-1.88468 -12.2375,-0.3575 -15.35819,-0.88773 -20.9871,-3.56596 -3.63665,-1.73032 -7.57415,-3.95243 -8.75,-4.93801 -3.62918,-3.04198 -21.41325,-7.93079 -23.67046,-6.50698 -4.58085,2.88953 -4.09432,6.00981 3.61141,23.16075 13.77877,30.66795 36.04615,88.1475 36.04615,93.04715 0,1.42335 -2.29346,1.79334 -11.11626,1.79334 -9.42948,0 -11.24537,-0.33194 -11.96705,-2.1875 z M 352.5,606.95254 c 12.3666,-2.17881 25.0373,-6.30253 35.625,-11.59423 4.125,-2.06166 8.9222,-4.09011 10.66044,-4.50767 1.73823,-0.41755 6.51647,-3.88253 10.61832,-7.69994 4.10184,-3.81741 7.64839,-6.36924 7.88123,-5.67072 0.23283,0.69851 1.12754,1.27002 1.98822,1.27002 2.5537,0 13.19235,-11.25073 15.24259,-16.11952 1.72364,-4.09322 2.04536,-4.30532 3.51602,-2.31798 1.70417,2.30289 4.46818,2.96701 4.46818,1.0736 0,-0.61264 2.20896,-3.78705 4.90881,-7.05424 2.69985,-3.26718 4.84483,-6.84405 4.76662,-7.9486 -0.0783,-1.10455 2.85184,-6.22701 6.51123,-11.38326 7.55673,-10.64779 8.27128,-11.48786 7.17673,-8.4375 -0.48416,1.3493 -0.17479,2.1875 0.80739,2.1875 1.90656,0 12.4484,-18.39139 11.45923,-19.99189 -0.82698,-1.33808 7.71978,-15.59868 12.33018,-20.5734 3.77457,-4.07284 9.53981,-15.6584 9.53981,-19.17077 0,-3.80269 2.67185,-10.61341 5.51225,-14.05109 1.43701,-1.73919 3.97183,-7.86589 5.63293,-13.61491 2.96308,-10.25517 2.9749,-10.48663 0.625,-12.24368 -2.31234,-1.72896 -2.26359,-1.90655 1.40991,-5.13509 4.52667,-3.97835 10.06514,-21.18973 8.64256,-26.85769 -0.53865,-2.14617 -0.18244,-4.40288 0.97596,-6.18309 2.89255,-4.44518 5.49014,-19.38964 3.68414,-21.19564 -1.95986,-1.95986 -1.87676,-4.70319 0.21609,-7.13432 1.9146,-2.22408 4.55116,-12.03838 4.55116,-16.94118 0,-1.77965 -0.84375,-3.55949 -1.875,-3.95521 -2.5571,-0.98125 -2.37234,-6.29949 0.27024,-7.77835 1.71521,-0.95989 2.1013,-2.78549 1.92607,-9.10759 -0.1205,-4.34888 -0.80465,-8.10221 -1.52023,-8.34074 -1.96179,-0.65393 -1.56088,-6.61642 0.60586,-9.01065 1.472,-1.62653 1.71784,-3.71596 1.07788,-9.16092 -0.45596,-3.87959 -1.31408,-7.05379 -1.90692,-7.05379 -1.46966,0 -1.37294,-7.17011 0.10913,-8.08605 1.75511,-1.08473 0.0981,-12.96726 -2.67688,-19.19621 -1.67086,-3.75053 -2.02106,-5.87462 -1.14301,-6.93262 2.312,-2.78578 0.28726,-15.03413 -2.91934,-17.66012 -1.96004,-1.60514 -3.54841,-9.375 -1.91651,-9.375 0.67031,0 1.21875,-1.00387 1.21875,-2.23082 0,-3.87335 -5.10758,-16.94724 -7.22593,-18.4962 -1.36935,-1.0013 -2.11368,-3.67014 -2.2846,-8.19158 -0.30375,-8.0352 -4.12272,-18.99726 -7.81748,-22.43945 -1.46959,-1.36914 -2.75528,-3.4518 -2.85707,-4.62815 -0.10175,-1.17634 -0.24241,-3.0685 -0.3125,-4.2048 -0.2167,-3.51344 -10.03737,-22.28951 -11.6636,-22.29954 -1.9017,-0.0117 -12.83886,-16.10054 -12.83886,-18.88622 0,-2.64055 -8.88284,-13.61217 -11.02574,-13.61842 -2.1561,-0.006 -13.97426,-9.98061 -13.97426,-11.79403 0,-2.22062 -11.2663,-12.222006 -13.01281,-11.551808 -0.86836,0.33322 -4.06134,-1.368522 -7.09551,-3.781649 C 425.79974,82.634654 398.62105,68.75 394.95064,68.75 c -1.42329,0 -5.14089,-1.163067 -8.26133,-2.584594 -3.12045,-1.421526 -8.77362,-3.089144 -12.56261,-3.705817 -3.78899,-0.616674 -7.62437,-1.731475 -8.52309,-2.477335 -0.8987,-0.74586 -5.25166,-1.521904 -9.67323,-1.72454 -4.42158,-0.202638 -8.78029,-0.82643 -9.68603,-1.386207 -2.41379,-1.491805 -40.5047,-1.105316 -43.39268,0.440282 -1.34202,0.718228 -5.34733,1.239647 -8.90071,1.158707 -4.86789,-0.110887 -7.15285,0.47585 -9.26831,2.379905 -4.2314,3.808538 -7.26279,4.517828 -9.02261,2.111128 -1.41283,-1.932162 -1.82845,-1.912242 -5.77868,0.276958 -2.341,1.297372 -5.2258,3.141867 -6.41066,4.098877 -1.18486,0.957008 -4.27861,1.860098 -6.875,2.006865 -6.13241,0.346646 -14.0957,3.249398 -14.0957,5.13812 0,2.406971 -6.10138,5.733292 -8.89186,4.847625 -3.09915,-0.983633 -11.20712,4.308671 -13.68003,8.92936 C 217.76077,92.309037 213.75,94.684846 213.75,91.91898 213.75,90.863541 213.29979,90 212.74952,90 210.99325,90 197.5,102.63658 197.5,104.28134 c 0,0.86976 -3.57438,4.20559 -7.94306,7.41296 -8.93107,6.55695 -18.30694,15.60258 -18.30694,17.6621 0,0.74967 -1.66464,3.31054 -3.6992,5.69081 -2.03456,2.38029 -3.72206,4.98775 -3.75,5.79438 -0.0279,0.80663 -1.35551,3.05664 -2.95018,5 -3.47152,4.23069 -11.419,18.52465 -12.73712,22.90841 -0.5168,1.71875 -1.97643,5.375 -3.24361,8.125 -3.97123,8.61821 -6.27963,15.98915 -7.40185,23.63479 -0.59617,4.06163 -1.67614,7.75078 -2.39995,8.19813 -1.78589,1.10374 -6.48697,19.39752 -5.58724,21.74218 0.39571,1.0312 -0.121,3.74241 -1.14835,6.02491 -3.62454,8.05311 -5.16286,16.88197 -3.55597,20.4087 2.11801,4.64853 1.81911,7.84335 -0.86837,9.28164 -2.99517,1.60297 -4.58608,14.95903 -2.02587,17.00768 2.00165,1.60168 0.98072,8.01613 -1.42264,8.93838 -2.1881,0.83967 -2.29434,11.71916 -0.17176,17.58904 1.32685,3.66935 1.2573,4.40998 -0.50683,5.39724 -1.67536,0.93757 -1.92315,2.55624 -1.3717,8.96079 0.37016,4.29908 1.21581,8.50301 1.87921,9.34206 0.67206,0.84999 0.84165,4.17609 0.38297,7.51107 -0.45277,3.29204 -0.14399,9.6368 0.68619,14.09947 0.83017,4.46266 1.62773,10.09923 1.77236,12.52573 0.60991,10.23265 2.12975,18.58527 3.77764,20.7609 0.96952,1.28002 1.78064,5.14158 1.80252,8.58127 0.0459,7.21062 3.78053,21.28715 6.9183,26.07601 1.26449,1.92985 1.85307,4.44806 1.43189,6.12619 -0.92329,3.67866 6.80933,25.17962 10.44892,29.05378 1.86194,1.98195 2.46488,3.727 1.90128,5.50274 -0.88469,2.78744 9.4525,26.3623 11.55943,26.3623 1.69359,0 4.0677,5.94709 3.23764,8.11019 -0.4291,1.11821 -0.0277,1.88981 0.98286,1.88981 1.99414,0 4.68365,3.95295 6.13674,9.01955 1.89786,6.61748 11.61038,20.53241 15.54769,22.27491 4.27079,1.89008 6.77729,4.66759 6.83525,7.5743 0.0219,1.09658 1.16475,3.01188 2.53975,4.25624 1.375,1.24436 2.5,3.0816 2.5,4.08276 0,2.68939 9.90484,14.04224 12.2512,14.04224 2.2983,0 11.4988,8.52999 11.4988,10.66079 0,2.04562 5.86175,7.22387 8.42711,7.4445 3.43228,0.29516 10.32238,4.29097 10.32758,5.98931 0.005,1.52744 7.58066,5.00165 14.02321,6.4308 1.8716,0.41518 4.40285,1.77089 5.625,3.0127 2.44975,2.48916 12.2482,5.72959 14.01791,4.63584 1.46209,-0.90361 7.25599,1.3243 9.63761,3.70591 1.02858,1.02859 2.84247,1.87015 4.03087,1.87015 1.18838,0 2.85913,0.69843 3.71276,1.55205 1.23607,1.23608 1.76415,1.20886 2.59385,-0.13361 1.03614,-1.6765 7.20867,-1.1104 11.1494,1.02254 3.26184,1.76548 35.59116,1.42557 46.4547,-0.48844 z M 461.875,537.5 c 0.4249,-0.6875 -0.10438,-1.25 -1.17623,-1.25 -1.07182,0 -1.94877,0.5625 -1.94877,1.25 0,0.6875 0.5293,1.25 1.17623,1.25 0.64692,0 1.52387,-0.5625 1.94877,-1.25 z"
       id="path4170"
       inkscape:connector-curvature="0" />
    <path
       style="fill:#d7d7d7"
       d="m 264.35561,729.6875 c -0.31125,-0.85938 -2.76745,-7.75 -5.45821,-15.3125 -9.93596,-27.92541 -11.93926,-32.9505 -21.67719,-54.375 -20.65582,-45.44506 -34.78324,-71.19509 -47.42933,-86.44937 -7.0347,-8.48559 -24.54073,-35.65048 -34.10715,-52.92563 -1.90358,-3.4375 -5.70635,-10.10317 -8.4506,-14.81261 C 140.96667,495.05845 129.00676,466.8734 121.69351,445.625 99.957736,382.4725 93.875702,312.76014 104.51721,248.75 c 1.92379,-11.57186 2.97504,-21.89214 2.61023,-25.625 -0.3984,-4.07661 0.18448,-8.85806 1.67619,-13.75 9.99312,-32.77153 13.37157,-42.03518 21.03214,-57.66974 12.23443,-24.96941 21.64712,-38.44814 38.78775,-55.543074 37.714,-37.613452 72.98286,-55.049585 128.87648,-63.713671 18.51477,-2.869979 33.53898,-3.055224 50.625,-0.624191 54.38889,7.738554 95.40259,26.968967 128.47384,60.238541 26.0357,26.191825 44.17972,56.049125 56.91512,93.657975 8.24858,24.3588 9.04547,27.61831 9.61305,39.32067 0.29849,6.15394 1.34989,16.11524 2.33644,22.13624 4.41396,26.93845 5.16155,35.85638 5.16155,61.57225 0,57.94879 -9.33441,105.78541 -31.58682,161.875 -10.71137,26.99911 -22.54938,49.47949 -35.25306,66.94546 -3.29697,4.53293 -6.90985,10.01176 -8.0286,12.1752 -1.11876,2.16344 -5.82477,8.6696 -10.45781,14.45813 C 441.4971,593.94157 410.8671,656.41186 385.84532,726.25 l -1.56747,4.375 -10.88893,0.36116 c -8.49151,0.28165 -10.88892,-0.0107 -10.88892,-1.32801 0,-3.3077 7.33039,-23.16513 17.96054,-48.65368 5.9342,-14.22878 10.78946,-26.25351 10.78946,-26.7216 0,-1.06297 6.51806,-15.08737 11.35955,-24.44146 7.05055,-13.62211 3.76471,-17.89754 -10.30208,-13.40476 -4.36286,1.39345 -8.77622,3.05059 -9.80747,3.68252 -1.03125,0.63194 -3.28125,1.7714 -5,2.53214 -1.71875,0.76075 -5.375,2.38819 -8.125,3.61654 -3.34706,1.49505 -9.95161,2.52787 -19.97824,3.12424 -8.23804,0.48997 -16.34518,1.41057 -18.0159,2.04578 -1.92375,0.7314 -5.39944,0.66462 -9.47825,-0.18213 -3.54231,-0.73539 -12.87266,-1.50877 -20.73409,-1.71862 -11.80739,-0.31517 -15.15997,-0.85165 -19.27501,-3.08433 -2.73982,-1.48654 -5.7106,-2.70279 -6.60174,-2.70279 -0.89112,0 -1.93051,-0.80858 -2.30975,-1.79684 -0.9384,-2.44542 -20.88303,-8.68726 -24.69857,-7.72962 -5.29626,1.32927 -5.0281,5.59285 1.23922,19.70247 14.36502,32.33997 37.97733,92.09117 37.97733,96.10203 0,1.90541 -22.45056,1.57507 -23.14439,-0.34054 z m 86.12734,-122.32715 c 5.42187,-0.71334 13.57812,-2.44364 18.125,-3.8451 11.10226,-3.42201 38.88637,-16.13476 38.91459,-17.80555 0.0125,-0.73409 2.26238,-3.19459 5,-5.46777 2.7376,-2.2732 4.97746,-3.53883 4.97746,-2.8125 0,3.00553 3.86461,0.91606 10.17099,-5.49913 3.6872,-3.75084 6.71262,-7.26646 6.72315,-7.8125 0.0571,-2.96129 2.013,-4.04227 4.57712,-2.5297 2.06386,1.21746 2.72181,1.21564 3.16561,-0.009 0.30813,-0.85011 2.76589,-4.2148 5.46168,-7.47709 2.6958,-3.26227 4.90145,-6.98553 4.90145,-8.27388 0,-1.28837 1.40625,-4.0137 3.125,-6.05633 1.71875,-2.04261 3.125,-3.10819 3.125,-2.36795 0,0.74025 0.84375,1.34591 1.875,1.34591 2.20784,0 2.42666,-1.44833 0.50862,-3.36637 -2.04208,-2.04209 2.05712,-7.79583 5.00488,-7.02498 1.77329,0.46374 3.41196,-1.47886 7.44272,-8.82311 2.84283,-5.17977 5.16878,-10.26327 5.16878,-11.29665 0,-2.44264 6.83192,-14.01272 11.24661,-19.04652 4.1944,-4.7826 9.42259,-15.73878 10.35141,-21.69237 0.84097,-5.39038 2.60983,-9.45825 6.30005,-14.48826 3.69932,-5.04239 8.36887,-23.21442 6.15492,-23.95241 -2.49929,-0.83309 -1.79158,-3.84536 1.39378,-5.9325 2.06788,-1.35491 3.61223,-4.43934 5.17787,-10.34131 1.22708,-4.62579 2.7264,-9.38194 3.33178,-10.56923 0.68748,-1.34825 0.55945,-3.02542 -0.341,-4.46727 -1.12603,-1.80307 -1.00491,-3.24634 0.55317,-6.59129 3.0543,-6.55715 4.80021,-16.16335 3.90291,-21.47439 -0.55788,-3.30205 -0.15998,-6.15085 1.2842,-9.19421 2.67424,-5.63554 3.97004,-17.33125 2.05154,-18.51695 -2.0224,-1.2499 -1.73349,-6.8245 0.46776,-9.02575 2.14529,-2.14529 2.63846,-14.82704 0.625,-16.07143 -1.72493,-1.06606 -1.58183,-9.375 0.16146,-9.375 1.68359,0 0.35463,-14.92385 -1.49715,-16.8125 -1.5057,-1.53568 -1.49974,-6.0983 0.01,-7.625 1.45061,-1.46693 -0.45335,-18.09188 -2.19629,-19.17743 -1.62755,-1.01368 -2.09573,-5.22129 -0.89041,-8.00218 1.28461,-2.96384 0.1319,-9.62369 -2.68394,-15.50652 -1.26941,-2.65205 -2.32671,-7.78897 -2.39298,-11.62637 -0.12643,-7.32016 -3.10535,-16.62902 -6.54069,-20.43903 -1.406,-1.55935 -2.01346,-4.2006 -1.86261,-8.0986 0.12312,-3.1815 -0.22623,-6.35894 -0.77635,-7.06097 -0.55012,-0.70201 -1.9636,-4.22952 -3.14108,-7.8389 -1.17747,-3.60937 -2.81607,-6.5625 -3.64135,-6.5625 -1.69951,0 -4.81839,-7.30217 -3.81341,-8.92827 0.36096,-0.58405 -1.28218,-4.861 -3.65143,-9.50431 -2.36925,-4.64333 -4.63342,-9.42679 -5.03151,-10.62992 -0.39807,-1.20312 -1.52696,-2.1875 -2.50862,-2.1875 C 489.07097,147.5 477.5,130.33415 477.5,127.77857 c 0,-2.07727 -9.91605,-13.40218 -11.75191,-13.4216 C 463.92475,114.33768 452.5,104.33311 452.5,102.75571 452.5,100.99245 441.28481,91.25 439.255,91.25 c -1.11114,0 -4.12691,-1.668519 -6.70174,-3.707819 C 426.71537,82.918492 399.16057,68.75 396.00634,68.75 c -1.28242,0 -5.5491,-1.331577 -9.4815,-2.95906 -3.93242,-1.627484 -9.65318,-3.339655 -12.71283,-3.804826 -3.05963,-0.46517 -6.18742,-1.364009 -6.95064,-1.997418 -0.76321,-0.63341 -5.18607,-1.441284 -9.82858,-1.795277 -4.64253,-0.353993 -9.05495,-1.023103 -9.80542,-1.486909 -2.72322,-1.683046 -38.88336,-1.354447 -43.99728,0.399817 -2.6922,0.923524 -6.6297,1.378555 -8.75,1.011182 -2.29653,-0.397909 -5.11849,0.08028 -6.98009,1.182777 -7.95808,4.713041 -8.85395,4.986161 -11.31464,3.449438 -1.90606,-1.190358 -3.31746,-1.052169 -7.09489,0.694657 -2.59351,1.19934 -5.30916,2.936708 -6.03476,3.860816 -0.72561,0.924109 -3.53811,1.80652 -6.25,1.960915 C 250.388,69.631489 242.5,72.56923 242.5,74.59401 c 0,2.155245 -6.86133,5.572611 -9.30548,4.634705 -2.50396,-0.960865 -7.53464,2.309513 -13.53325,8.797776 -3.74583,4.051608 -4.9445,4.731559 -5.83757,3.311428 -0.92693,-1.473957 -1.90355,-1.192369 -5.57383,1.60709 -2.4475,1.866795 -6.57058,5.933213 -9.16243,9.036491 -2.59184,3.10327 -9.11617,9.1056 -14.4985,13.3385 -5.4598,4.29383 -11.14903,10.02192 -12.86912,12.95702 -1.69568,2.89347 -3.90788,5.94538 -4.91599,6.78204 -1.00812,0.83666 -2.93767,3.83753 -4.28789,6.66858 -1.35023,2.83105 -4.78815,8.80361 -7.63984,13.27236 -2.85169,4.46875 -6.31915,11.5 -7.70547,15.625 -1.38633,4.125 -3.04597,8.17029 -3.6881,8.98954 -1.84172,2.34966 -5.96244,16.86841 -5.97298,21.04482 -0.005,2.08142 -0.89171,5.04384 -1.96991,6.58319 -2.58405,3.68925 -6.58626,18.43661 -6.56024,24.17315 0.0112,2.49739 -0.90195,5.94871 -2.02952,7.66959 -2.20642,3.36742 -2.93124,14.93186 -1.36188,21.7287 0.75715,3.2792 0.49473,4.07063 -1.56672,4.72491 -2.0211,0.64148 -2.58866,2.21494 -3.088,8.56101 -0.33648,4.2763 -0.12162,8.30946 0.47747,8.96259 1.73456,1.89101 1.2716,5.18535 -1.14876,8.17437 -1.94356,2.40019 -2.10931,4.09524 -1.25976,12.88324 0.64113,6.63211 0.53496,10.39338 -0.30809,10.91441 -0.88049,0.54418 -0.86762,3.72055 0.0408,10.06774 0.72993,5.1 1.49425,14.61649 1.69849,21.14774 0.20424,6.53125 1.08991,14.02154 1.96815,16.64507 0.87824,2.62355 1.32155,5.82267 0.98513,7.10917 -0.87675,3.35268 2.30505,19.18468 3.96694,19.73865 0.79996,0.26665 1.39635,3.36537 1.39635,7.25515 0,7.78748 3.32055,21.35747 6.00189,24.52771 1.00048,1.18291 1.96446,4.83916 2.14216,8.125 0.40307,7.45325 6.92021,25.41351 10.53239,29.02569 1.88052,1.88052 2.44583,3.50678 1.86031,5.35161 -0.90938,2.86517 8.2355,23.33555 12.27575,27.47872 1.20312,1.23378 2.1875,3.30874 2.1875,4.61103 0,1.3023 1.61317,4.09471 3.58482,6.20537 1.97165,2.11067 3.9033,5.40453 4.29254,7.3197 1.16069,5.71079 11.09999,19.95049 15.36365,22.01098 2.16244,1.04502 4.79356,3.82297 5.97095,6.30412 1.15771,2.43972 2.65239,4.77418 3.32149,5.1877 0.6691,0.41353 1.21655,1.61333 1.21655,2.66623 0,2.6443 11.12395,15.4381 13.42311,15.4381 1.8477,0 8.24185,6.3111 13.8354,13.6557 1.73608,2.27955 4.81821,4.30714 7.74548,5.09537 2.67407,0.72005 5.9957,2.7505 7.38137,4.5121 1.60016,2.03428 5.82799,4.32229 11.58721,6.27078 4.98729,1.68731 9.45129,3.68835 9.91999,4.44672 1.10911,1.79458 9.57678,4.72643 13.72029,4.7505 1.78081,0.01 6.72147,1.75962 10.97924,3.88724 5.90897,2.95276 8.14133,3.53649 9.43108,2.4661 1.25945,-1.04525 3.079,-0.94516 7.14577,0.39309 3.00083,0.98747 9.63987,1.85841 14.75341,1.93542 5.11355,0.077 9.48311,0.32578 9.71016,0.55283 0.5699,0.56989 11.54361,-0.30211 23.35044,-1.8555 z"
       id="path4168"
       inkscape:connector-curvature="0" />
    <path
       style="fill:#c7c6c6"
       d="M 262.58981,724.32811 C 261.16541,720.52108 260,717.03337 260,716.57767 260,715.6073 252.53507,695.71294 247.44761,683.125 236.92504,657.08893 214.66575,611.3099 203.38272,592.5 199.87738,586.65625 193.8341,578.16749 189.95322,573.63609 176.41042,557.8232 145.58927,504.79774 134.08186,477.51364 123.42576,452.24797 118.48192,437.55406 112.418,413.125 101.85203,370.55899 99.478799,349.19051 100.36315,304.58347 c 0.57473,-28.98947 1.20608,-38.07877 3.57436,-51.45847 1.58199,-8.9375 2.95453,-21.03125 3.05008,-26.875 0.0956,-5.84375 0.51576,-11.46875 0.9338,-12.5 0.41803,-1.03125 2.49492,-8.34375 4.61532,-16.25 8.08658,-30.15215 24.36053,-63.89361 40.99663,-85 8.93265,-11.33296 23.70585,-25.508113 38.34166,-36.789524 15.03451,-11.588739 18.2122,-13.627965 35.625,-22.861742 21.07222,-11.174324 59.51967,-20.72866 90,-22.365334 31.15792,-1.67306 74.68758,7.983709 105.21374,23.340985 25.67152,12.914975 37.23692,21.346124 56.75722,41.3759 24.115,24.744395 40.6025,52.375185 53.52373,89.698455 7.95461,22.97707 9.58719,29.59454 10.04749,40.72626 0.22742,5.5 1.26343,15.34375 2.30226,21.875 4.83864,30.42144 5.28056,35.44279 5.28056,60 0,54.72784 -8.61574,101.94587 -28.0144,153.53124 -12.18103,32.39207 -23.46748,54.74088 -37.67083,74.59376 -3.93487,5.5 -8.01456,11.6875 -9.06597,13.75 -1.0514,2.0625 -2.95294,4.875 -4.22564,6.25 -14.8233,16.01495 -42.90471,64.54436 -57.50305,99.375 -16.36113,39.03653 -20.0327,48.12249 -24.75065,61.25 l -5.16628,14.375 -10.86409,0.36116 c -8.5179,0.28318 -10.86409,-0.007 -10.86409,-1.34355 0,-2.58911 5.18796,-17.12102 12.81628,-35.89945 12.94171,-31.85831 16.12042,-39.37898 19.14931,-45.30631 1.66892,-3.26599 3.03787,-6.64099 3.04211,-7.5 0.007,-1.58099 1.16725,-3.98516 6.04635,-12.53737 3.51075,-6.15372 3.53225,-11.61394 0.0531,-13.47594 -3.62283,-1.93888 -17.44962,2.55872 -34.13994,11.10507 -5.72331,2.93065 -40.92604,5.46614 -58.2172,4.19311 -7.90625,-0.58207 -16.64783,-1.08796 -19.42571,-1.12419 -2.83308,-0.037 -6.9494,-1.22334 -9.375,-2.70203 -2.37837,-1.44989 -5.32632,-2.63826 -6.55102,-2.64082 -1.22471,-0.003 -2.53901,-0.81844 -2.92067,-1.81306 -0.89515,-2.33272 -19.3237,-8.48931 -23.8464,-7.96656 -2.44073,0.2821 -3.80514,1.38673 -4.63098,3.74924 -1.21953,3.48873 -0.45805,5.61377 9.99779,27.9007 8.01271,17.07932 17.31059,40.37341 26.86385,67.30227 3.37598,9.51627 6.13814,17.53189 6.13814,17.8125 0,0.28063 -5.02209,0.51023 -11.16019,0.51023 l -11.16019,0 -2.58981,-6.92189 z M 351.25,607.31645 c 5.15625,-0.73977 13.03125,-2.45534 17.5,-3.81239 11.52502,-3.49983 38.75,-16.20945 38.75,-18.08991 0,-0.8669 1.26562,-2.22431 2.8125,-3.01648 1.54687,-0.79214 3.78436,-2.64006 4.9722,-4.10647 1.18784,-1.46641 2.17221,-1.96308 2.1875,-1.1037 0.0563,3.1631 3.58675,1.39666 9.99322,-5 3.61491,-3.60938 7.11229,-7.96875 7.77195,-9.6875 1.12854,-2.94043 1.29755,-2.99135 2.86138,-0.86219 1.34312,1.82866 1.91931,1.94858 3.00321,0.625 0.73768,-0.9008 3.60402,-4.3439 6.36964,-7.65134 2.76561,-3.30743 5.0284,-6.99502 5.0284,-8.19465 0,-1.19962 1.40625,-4.08718 3.125,-6.41682 1.71875,-2.32964 3.125,-3.56391 3.125,-2.74285 0,0.82106 0.84375,1.49285 1.875,1.49285 2.20224,0 2.42774,-1.44726 0.52237,-3.35263 -2.21167,-2.21167 1.37314,-6.90142 4.79013,-6.26658 1.54687,0.28739 2.8125,0.16503 2.8125,-0.2719 0,-0.43694 2.46236,-5.11532 5.47192,-10.3964 3.00956,-5.28109 5.19142,-9.88249 4.84857,-10.22534 -0.90033,-0.90033 6.88885,-14.39118 11.0909,-19.2094 4.84859,-5.5596 8.00422,-12.03665 10.4355,-21.41926 1.12114,-4.32661 3.39034,-9.91788 5.04265,-12.42503 C 510.89515,447.20885 515.6859,428.75 512.5,428.75 c -2.2538,0 -1.3148,-2.34751 2.5,-6.25 2.0625,-2.10991 3.75,-4.85374 3.75,-6.09741 0,-1.24367 1.12376,-5.5275 2.49726,-9.51963 1.6334,-4.74757 2.0839,-7.75647 1.30231,-8.69822 -1.22292,-1.47355 -0.36408,-7.06069 1.25814,-8.18474 1.49599,-1.03657 4.71023,-18.74589 3.53428,-19.47265 -1.38961,-0.85884 -1.44023,-8.02735 -0.0567,-8.02735 1.23563,0 3.96469,-11.20043 3.96469,-16.27159 0,-1.96947 -0.5625,-3.92851 -1.25,-4.35341 -1.89133,-1.1689 -1.49666,-6.8069 0.625,-8.92857 2.14529,-2.14529 2.63846,-14.82704 0.625,-16.07143 -1.72492,-1.06606 -1.58182,-9.375 0.16146,-9.375 1.68359,0 0.35463,-14.92385 -1.49715,-16.8125 -1.82896,-1.86539 -1.36404,-5.89085 0.86895,-7.52365 1.6314,-1.19291 1.75494,-2.00684 0.625,-4.11812 C 530.63373,277.59846 530,274.16755 530,271.42146 c 0,-2.77146 -0.83422,-5.82711 -1.875,-6.86789 -2.03566,-2.03566 -2.51864,-6.50823 -0.81641,-7.56027 1.54493,-0.95483 -0.22268,-10.57814 -3.00654,-16.3683 -1.49879,-3.11733 -2.31091,-7.19363 -2.15684,-10.82583 0.26035,-6.13728 -2.56875,-15.65646 -6.31907,-21.2621 -1.22824,-1.83585 -2.41294,-6.0546 -2.63264,-9.375 -0.48884,-7.38745 -4.88646,-19.65762 -7.21872,-20.1415 -1.90983,-0.39622 -5.01089,-7.54636 -3.9896,-9.19885 0.36096,-0.58405 -1.28218,-4.861 -3.65143,-9.50431 -2.36925,-4.64332 -4.63342,-9.42679 -5.03151,-10.62991 -0.39808,-1.20313 -1.50523,-2.1875 -2.46034,-2.1875 -1.6957,0 -9.9513,-12.14708 -12.99366,-19.11851 C 475.55435,123.12512 467.4699,113.75 465.23108,113.75 c -1.08229,0 -6.8411,-5.0625 -12.79738,-11.25 -5.95629,-6.1875 -11.75145,-11.25 -12.87814,-11.25 -1.1267,0 -5.32577,-2.390625 -9.33129,-5.3125 -7.91381,-5.772833 -29.08371,-16.154424 -37.09927,-18.193258 -2.75,-0.699488 -7.53125,-2.152057 -10.625,-3.227931 -11.43456,-3.976452 -18.74149,-5.76804 -26.42001,-6.477931 -4.33165,-0.400469 -8.38038,-1.040012 -8.99716,-1.42121 -2.10697,-1.302172 -40.15893,-1.318056 -43.33283,-0.01809 -1.71875,0.703967 -6.27279,1.389322 -10.12009,1.523013 -5.27916,0.183447 -7.65553,0.90353 -9.6875,2.935488 -2.8916,2.891602 -6.40661,3.478217 -8.4711,1.413729 -1.52226,-1.522263 -10.2603,1.762288 -12.37232,4.650645 -0.74941,1.02489 -3.58139,1.988578 -6.29328,2.141528 -7.21496,0.406923 -14.07773,3.049024 -14.93492,5.749803 -0.81334,2.562577 -4.88955,4.414561 -8.5393,3.879732 -2.83419,-0.415316 -11.2523,5.280304 -13.99819,9.471047 -1.59215,2.429933 -2.7167,2.935232 -5.16491,2.320771 -2.68474,-0.673828 -4.4967,0.598755 -12.74671,8.952339 -5.28942,5.355805 -13.46349,12.831575 -18.16462,16.612825 -7.16286,5.76128 -11.34946,10.68761 -18.50417,21.77367 -5.31386,8.23369 -17.25289,29.29013 -17.25289,30.4283 0,0.81067 -1.34886,4.44374 -2.99748,8.07348 -3.97425,8.75011 -8.42702,23.43092 -7.54137,24.86394 0.38834,0.62835 -0.23068,2.96341 -1.3756,5.18903 -2.98191,5.79661 -6.83555,19.57343 -6.83555,24.43728 0,2.28176 -0.65978,5.3773 -1.46616,6.87897 -2.29257,4.2693 -4.55495,16.70813 -3.37688,18.56649 1.62848,2.56887 1.28425,7.48442 -0.63209,9.02604 -2.08525,1.67751 -3.767,16.5611 -1.99504,17.65624 1.45925,0.90186 0.27872,6.81605 -1.80856,9.06046 -1.05103,1.13015 -1.18733,4.48598 -0.47957,11.80726 0.6814,7.04873 0.56397,10.4909 -0.37776,11.07293 -0.98721,0.61012 -0.97383,3.40482 0.0482,10.06774 0.77811,5.07275 1.56271,14.56692 1.74355,21.09817 0.18084,6.53125 1.05857,14.00757 1.95051,16.61405 0.89194,2.60647 1.31399,5.54094 0.9379,6.52101 -0.92968,2.42272 1.6285,16.69853 3.73688,20.85357 0.93875,1.84998 1.63159,5.50623 1.53965,8.125 -0.19877,5.66166 3.60089,20.17788 6.02461,23.01645 0.94163,1.1028 1.93583,4.75904 2.20934,8.125 0.59907,7.37222 6.02078,23.56297 9.46222,28.25681 1.36576,1.86279 2.4832,4.76188 2.4832,6.44245 0,3.60739 9.62522,24.17088 12.79958,27.34525 1.21023,1.21022 2.21013,3.46603 2.22202,5.01291 0.0125,1.54687 1.42352,4.14238 3.13701,5.76776 1.71349,1.6254 3.47635,4.4379 3.9175,6.25 1.4761,6.06348 12.77247,22.36071 16.07354,23.18923 1.90021,0.47692 4.0215,2.63572 5.56728,5.6657 1.37354,2.69235 3.06788,5.2478 3.7652,5.67877 0.69733,0.43097 1.26787,1.84903 1.26787,3.15124 0,2.70639 10.81498,14.9848 13.19881,14.9848 0.86705,0 5.35221,4.21875 9.96702,9.375 5.77543,6.45301 9.27563,9.375 11.23018,9.375 1.56178,0 4.6852,1.72405 6.94094,3.83123 4.77672,4.46212 10.34617,7.54924 14.42788,7.99729 1.58511,0.174 4.4521,1.36975 6.37109,2.6572 4.36907,2.93124 11.34877,5.47079 15.1037,5.49545 1.57555,0.01 6.54205,1.73817 11.03669,3.83957 5.85116,2.73565 8.61527,3.4529 9.73267,2.52555 1.08146,-0.89754 2.87401,-0.85512 5.83831,0.13818 9.10503,3.05097 31.79899,3.42932 49.9027,0.83198 z"
       id="path4166"
       inkscape:connector-curvature="0" />
    <path
       style="fill:#afafaf"
       d="M 262.58981,724.32811 C 261.16541,720.52108 260,716.90732 260,716.29756 c 0,-0.60977 -1.70274,-5.51053 -3.78385,-10.89061 -2.08113,-5.38008 -4.97921,-12.8757 -6.4402,-16.65695 -5.62345,-14.5543 -23.04586,-52.6718 -31.95884,-69.92095 -12.37637,-23.95179 -19.33859,-35.27368 -27.73316,-45.09937 -6.64639,-7.77947 -19.33615,-27.79361 -38.55716,-60.81183 C 133.4601,481.88254 116.32649,434.70692 107.4024,391.42592 98.306101,347.30976 97.389609,288.56317 105.13754,246.25 c 1.44771,-7.90625 2.50731,-17.46875 2.35467,-21.25 -0.15264,-3.78125 -0.25569,-7.4375 -0.22899,-8.125 0.0691,-1.78051 9.91403,-35.14811 12.35495,-41.875 4.76653,-13.13605 20.69096,-43.96328 28.05052,-54.3015 C 170.19754,89.051476 211.69856,57.084894 246.02497,44.938566 269.29292,36.705255 304.16091,30 323.707,30 c 19.97816,0 57.54134,7.139862 78.793,14.976666 12.43147,4.584257 35.63016,16.524831 48.1111,24.763218 4.82015,3.181671 16.39535,13.401165 25.72266,22.709986 19.30357,19.26527 32.34005,37.51112 44.14061,61.7791 11.88859,24.44904 21.94608,56.01572 21.99621,69.03792 0.0162,4.20303 0.62063,10.67178 1.34323,14.375 4.70488,24.11177 7.26116,52.8295 6.66345,74.85811 -1.54803,57.05209 -9.57138,100.05052 -27.52295,147.5 -12.62102,33.35981 -21.94228,51.7155 -39.6967,78.17186 -4.19793,6.25545 -8.19511,12.25764 -8.88261,13.33816 -0.6875,1.08054 -4.39344,6.10469 -8.23542,11.16479 -20.0656,26.4275 -37.00713,57.11058 -55.69763,100.87483 C 397.3314,694.24831 394.04908,702.4438 388.83463,717.5 l -4.54563,13.125 -10.8945,0.36116 c -5.99198,0.19865 -10.8945,-0.11275 -10.8945,-0.69188 0,-2.77699 9.38951,-28.11484 17.47964,-47.16928 4.96226,-11.6875 9.75086,-23.5 10.64132,-26.25 0.89046,-2.75 2.99095,-7.8125 4.66775,-11.25 1.6768,-3.4375 5.05068,-10.35477 7.4975,-15.37171 4.6669,-9.56896 4.84381,-13.17676 0.7535,-15.36583 -2.80324,-1.50025 -12.62282,1.00102 -23.53971,5.99609 -3.78125,1.73013 -9.125,4.18033 -11.875,5.44489 -7.49689,3.44737 -35.19131,4.86254 -65.22294,3.33282 -13.34457,-0.67972 -17.26145,-1.31981 -20.625,-3.3705 -2.28364,-1.39227 -5.10849,-2.53352 -6.27745,-2.53608 -1.16896,-0.003 -2.63836,-0.92132 -3.26532,-2.04164 -1.42714,-2.55015 -18.32745,-8.09961 -23.33673,-7.66296 -2.7557,0.24022 -4.02832,1.18611 -4.88164,3.62833 -0.97835,2.80008 0.57092,7.1808 10.16754,28.75 6.22696,13.99563 13.67145,31.63409 16.54331,39.19659 5.94727,15.66105 16.27323,44.267 16.27323,45.08166 0,0.29884 -5.02209,0.54334 -11.16019,0.54334 l -11.16018,0 -2.58982,-6.92189 z m 81.99221,-115.66435 c 6.59093,-0.73493 16.75373,-2.7186 22.58403,-4.40815 14.39993,-4.17294 37.24451,-15.37561 43.83475,-21.49596 3.23106,-3.00068 6.22327,-4.77133 7.5,-4.43813 2.36276,0.61664 16.4992,-12.24721 16.4992,-15.01391 0,-2.78116 1.5517,-3.37283 3.14194,-1.19805 1.39491,1.90765 1.66926,1.88152 3.48418,-0.33194 1.08354,-1.32143 3.97343,-4.84647 6.42198,-7.83338 2.44854,-2.98693 4.4519,-6.27509 4.4519,-7.30704 0,-3.62223 4.84036,-8.9449 7.50151,-8.24899 2.6549,0.69426 3.31775,-0.81895 1.26008,-2.87662 -1.82494,-1.82494 2.24566,-7.11665 4.93367,-6.41372 1.62642,0.42532 3.50102,-1.89345 7.66629,-9.48273 3.0324,-5.52514 5.36305,-10.54064 5.17924,-11.14555 -0.4246,-1.39732 7.72976,-15.3668 11.77915,-20.17922 4.43789,-5.27413 8.66383,-14.19763 10.23789,-21.61828 0.75282,-3.5491 2.79075,-8.54832 4.52872,-11.10935 5.19726,-7.65859 10.136,-26.81274 6.91345,-26.81274 -2.19038,0 -1.35742,-2.01681 2.5,-6.05323 2.0625,-2.15821 3.75,-4.96607 3.75,-6.23971 0,-1.27362 1.11741,-5.56348 2.48314,-9.53303 1.36571,-3.96954 2.0862,-7.85448 1.60106,-8.63319 -1.12086,-1.79914 -0.42834,-7.44777 1.024,-8.35239 1.73025,-1.07771 4.84199,-19.13745 3.53237,-20.50095 -1.46033,-1.52041 -1.49076,-6.9375 -0.039,-6.9375 2.74028,0 5.18719,-19.05593 2.64838,-20.625 -1.95541,-1.20851 -1.47726,-7.77032 0.625,-8.57704 2.18556,-0.83867 2.72915,-15.12252 0.625,-16.42296 -0.6875,-0.4249 -1.25,-2.7081 -1.25,-5.07378 0,-2.36567 0.5625,-4.30122 1.25,-4.30122 1.65795,0 1.58062,-5.43683 -0.20373,-14.32175 -1.01105,-5.03439 -1.05992,-7.86934 -0.16045,-9.3096 1.57807,-2.52691 -0.19464,-13.80978 -3.12589,-19.89544 -1.54534,-3.20832 -1.6781,-4.66687 -0.5842,-6.41846 0.77855,-1.24668 1.13537,-3.59713 0.79293,-5.22321 -1.74917,-8.30614 -3.39021,-13.58154 -4.22482,-13.58154 -1.55187,0 -2.59183,-7.75073 -1.25592,-9.36039 1.41252,-1.70199 -2.91893,-15.26242 -6.66067,-20.85254 -1.22883,-1.83585 -2.41401,-6.0546 -2.63371,-9.375 -0.47478,-7.17503 -4.52694,-18.6371 -7.34281,-20.77008 -1.10148,-0.83434 -2.58213,-4.15545 -3.29034,-7.38024 -0.70821,-3.22479 -2.98026,-8.73391 -5.049,-12.24251 -2.06875,-3.50859 -3.76135,-7.25092 -3.76135,-8.31628 0,-1.06535 -1.01896,-2.20347 -2.26436,-2.52915 -2.18882,-0.5724 -12.73564,-16.20595 -12.73564,-18.87804 0,-2.05308 -11.20072,-15.29577 -12.93724,-15.29577 -1.46817,0 -7.75242,-5.74464 -18.93776,-17.311599 -2.75,-2.843826 -5.84555,-5.1746 -6.879,-5.179497 -1.03345,-0.0049 -4.6897,-2.027029 -8.125,-4.493628 -8.14487,-5.848142 -32.53146,-18.122715 -37.17231,-18.710049 -1.99181,-0.252078 -5.2812,-1.286302 -7.30975,-2.298274 -2.02855,-1.011972 -6.91154,-2.503007 -10.8511,-3.31341 -3.93957,-0.810405 -8.08591,-1.959963 -9.21411,-2.554575 -5.86398,-3.09058 -59.0831,-6.042279 -63.76499,-3.536607 -1.26071,0.674713 -5.78716,1.44653 -10.05878,1.71515 -4.81522,0.302805 -8.26401,1.16867 -9.07557,2.278549 -2.03265,2.779826 -6.4804,3.702398 -9.315,1.93216 -2.00983,-1.255154 -2.86993,-1.267685 -4.07819,-0.05941 -0.84216,0.842152 -2.41869,1.531192 -3.5034,1.531192 -1.08471,0 -2.93545,1.125 -4.11276,2.5 -1.90775,2.228093 -4.53675,3.13998 -7.55749,2.621375 -3.17522,-0.545126 -11.34511,3.006336 -15.13215,6.577971 -3.34181,3.151734 -5.21654,4.008896 -7.90497,3.614316 -2.89553,-0.424971 -4.68143,0.621813 -10.01059,5.867583 -5.19293,5.111663 -7.07319,6.237541 -9.42936,5.646181 -2.44232,-0.612984 -4.29208,0.703495 -10.87254,7.73803 -4.36124,4.662172 -12.32853,12.028372 -17.70509,16.369332 -5.49554,4.43702 -11.83386,10.97823 -14.47671,14.94011 -2.58563,3.8761 -5.11044,7.65555 -5.61069,8.39877 -5.30326,7.87908 -16.63965,28.53919 -18.14814,33.07425 -1.05688,3.17739 -2.39272,6.38314 -2.96851,7.12389 -1.49542,1.92383 -6.11737,17.27973 -6.79572,22.57796 -0.31494,2.45993 -1.38423,5.95819 -2.37617,7.77392 -2.48451,4.5478 -5.67691,16.59881 -5.67691,21.42978 0,2.19654 -0.77312,5.76622 -1.71806,7.93262 -2.85726,6.5507 -4.75847,17.33739 -3.31094,18.78491 1.84291,1.84291 1.57325,7.14167 -0.44613,8.7662 -2.08525,1.67751 -3.767,16.5611 -1.99504,17.65624 1.46024,0.90247 0.27689,6.70122 -1.90939,9.35656 -1.1529,1.40025 -1.26433,4.38569 -0.4401,11.79071 0.80261,7.21082 0.70898,10.15965 -0.34322,10.80995 -1.09397,0.67611 -1.09812,3.61395 -0.017,12.04395 0.78644,6.13234 1.44364,14.4866 1.46045,18.56504 0.0168,4.07845 0.59733,9.8736 1.29006,12.87813 0.69272,3.00451 1.51612,9.31131 1.82976,14.0151 0.31364,4.70378 1.75342,11.97116 3.19949,16.14972 1.44608,4.17856 2.3103,8.4285 1.92049,9.44433 -0.92587,2.41281 4.14485,21.82513 6.39708,24.48993 0.95843,1.13403 1.76991,3.94653 1.80326,6.25 0.0766,5.29209 6.56706,24.3416 9.82111,28.82503 1.352,1.86279 2.45819,4.76188 2.45819,6.44245 0,3.67567 9.65151,24.19717 12.91515,27.46081 1.32191,1.32191 2.0473,3.34345 1.68999,4.70979 -0.36892,1.41074 0.25981,3.03162 1.53098,3.94694 2.10548,1.51602 4.37068,5.21637 7.83757,12.80312 3.59058,7.85746 10.99793,17.84813 13.7813,18.58755 2.86925,0.76223 10.99501,12.03433 10.99501,15.25233 0,0.92206 2.24299,4.09155 4.98441,7.0433 2.74144,2.95176 4.99144,5.7887 5,6.30432 0.009,0.51563 1.06895,0.9375 2.35639,0.9375 1.28744,0 4.71327,2.67187 7.61297,5.9375 9.96978,11.2279 11.43578,12.52791 14.91162,13.22308 1.91683,0.38337 4.84066,2.15725 6.49738,3.94195 2.88464,3.10746 9.32653,6.59697 13.93729,7.5497 1.19629,0.2472 3.72754,1.29733 5.625,2.33365 6.63255,3.6224 9.7501,4.72821 16.43516,5.82961 3.70438,0.61032 7.68617,1.97026 8.84843,3.02209 1.16226,1.05183 2.77966,1.91242 3.59424,1.91242 0.81457,0 2.58436,0.68904 3.93287,1.5312 1.78615,1.11548 2.82591,1.15713 3.82961,0.15343 0.96778,-0.96778 2.74398,-1.00527 5.9687,-0.12597 4.58948,1.25142 17.89653,2.85814 26.82769,3.23923 2.60523,0.11112 10.12934,-0.3992 16.72026,-1.13413 z"
       id="path4164"
       inkscape:connector-curvature="0" />
    <path
       style="fill:#8e8d8d"
       d="M 263.68788,726.5625 C 246.63476,673.48389 207.61134,592.21481 190.01095,573.125 184.09539,566.70884 167.23815,540.16962 151.50304,512.5 126.03216,467.71036 107.5631,408.09084 101.35708,350.625 c -2.946854,-27.28695 -1.09829,-76.5356 3.8843,-103.48391 1.42532,-7.70885 2.48689,-17.7103 2.35905,-22.22545 -0.39057,-13.79445 9.24878,-45.24773 22.27524,-72.6843 14.46484,-30.46609 33.49702,-54.175344 60.19158,-74.983396 30.74251,-23.963376 59.72754,-36.517672 100.34155,-43.460981 23.09119,-3.947637 35.48056,-4.393549 54.5912,-1.964821 55.80705,7.092394 100.02269,27.822153 133.79916,62.729474 23.83904,24.637184 42.43574,55.850364 55.06743,92.426524 5.9856,17.33187 7.50068,23.92648 8.59173,37.39686 1.11944,13.82095 3.03073,28.434 5.75157,43.9745 2.39941,13.7046 2.33895,57.72083 -0.11438,83.26608 -3.7686,39.24056 -11.54751,71.89516 -26.56354,111.50942 -14.56023,38.41179 -28.04202,62.32255 -57.62668,102.20434 -11.96574,16.1305 -27.46955,41.91603 -36.62914,60.92066 -11.39225,23.63704 -30.475,68.03789 -36.01177,83.79054 -1.56285,4.44645 -3.93336,11.03758 -5.26778,14.64696 l -2.42623,6.5625 -10.53518,0 c -5.79435,0 -10.53519,-0.25221 -10.53519,-0.56048 0,-2.84358 8.24305,-25.09147 16.99141,-45.8596 5.89745,-14.00021 11.23368,-27.12721 11.85828,-29.17111 1.12748,-3.68947 3.75331,-9.35446 12.24625,-26.42019 4.32225,-8.68516 4.37341,-8.96112 2.25941,-12.1875 -1.18964,-1.81562 -2.89167,-3.30112 -3.78229,-3.30112 -4.53042,0 -19.73406,5.55879 -31.4377,11.49434 -4.6535,2.36002 -17.46966,3.94436 -28.91624,3.57461 -2.14823,-0.0694 -5.50838,0.4831 -7.46701,1.22777 -2.56862,0.97659 -9.49287,0.95259 -24.84412,-0.0861 -21.68862,-1.46749 -29.80688,-3.42934 -36.28299,-8.7681 -1.375,-1.13353 -7.23795,-3.55399 -13.02878,-5.3788 -9.65406,-3.04221 -10.77041,-3.15951 -13.4375,-1.41198 -4.28838,2.80987 -3.69117,6.25238 4.00119,23.06393 8.99138,19.65052 21.33845,50.11437 29.26999,72.2176 3.47517,9.68442 6.66029,18.49875 7.07804,19.58737 0.65837,1.71573 -0.74369,1.97934 -10.52727,1.97934 l -11.2868,0 -1.506,-4.6875 z m 86.62654,-118.4146 c 6.70418,-1.01054 16.36848,-3.24021 21.4762,-4.95482 13.60078,-4.56563 33.11147,-14.63533 38.71258,-19.98003 3.0786,-2.93766 5.70392,-4.43896 7.11649,-4.06956 1.23105,0.32192 3.18816,-0.4643 4.34915,-1.74718 1.16097,-1.28286 3.16169,-2.666 4.44601,-3.07364 1.28434,-0.40762 2.33515,-1.50616 2.33515,-2.44118 0,-0.93503 1.29552,-2.72524 2.87895,-3.97826 1.58342,-1.25303 3.30119,-3.38747 3.81725,-4.74319 0.7262,-1.90782 1.17197,-2.08685 1.97219,-0.79209 0.67196,1.08725 1.69813,1.29379 2.93131,0.58996 2.60412,-1.48626 12.1503,-14.38105 12.1503,-16.41239 0,-0.90571 1.22211,-3.29974 2.71581,-5.32008 2.0726,-2.80334 3.10528,-3.35012 4.36021,-2.3086 1.23542,1.0253 1.84882,0.832 2.46633,-0.77722 0.45207,-1.17806 0.18615,-2.53488 -0.59094,-3.01515 -2.26139,-1.39761 2.01509,-6.63292 4.71749,-5.77521 1.71524,0.54439 3.12235,-1.04431 6.32121,-7.13699 2.26315,-4.31049 4.93381,-8.7862 5.9348,-9.94601 1.001,-1.1598 1.47958,-2.65954 1.06351,-3.33275 -0.84035,-1.3597 6.33817,-14.06599 12.73074,-22.534 4.74071,-6.27985 7.38021,-12.09794 9.13644,-20.13894 0.67697,-3.09956 2.38412,-7.22421 3.79366,-9.16587 3.09071,-4.25751 8.60074,-19.99409 8.60074,-24.56364 0,-1.80458 -0.60261,-3.88367 -1.33915,-4.62021 -0.9522,-0.9522 -0.40219,-2.07616 1.90348,-3.8898 3.97878,-3.12971 8.51072,-17.97735 8.25315,-27.03917 -0.096,-3.37872 0.3949,-6.4951 1.09098,-6.9253 0.69609,-0.43022 2.12187,-4.85265 3.16839,-9.82767 1.47751,-7.02385 1.57559,-9.56936 0.43885,-11.38957 -1.17236,-1.87725 -1.02491,-3.0141 0.7404,-5.70831 2.66647,-4.06954 4.4364,-21.88103 2.17433,-21.88103 -2.01519,0 -1.77854,-4.06193 0.40482,-6.94859 2.07745,-2.74665 2.43259,-12.43699 0.72548,-19.79609 -0.82595,-3.56056 -0.67888,-5.57678 0.54708,-7.5 1.41484,-2.2195 1.36395,-4.06215 -0.32578,-11.79762 -1.42348,-6.51655 -1.629,-9.76951 -0.71079,-11.25 1.50417,-2.42526 -0.57559,-16.2676 -3.26533,-21.73319 -1.1965,-2.43129 -1.29435,-3.85728 -0.3433,-5.00324 1.54098,-1.85675 0.10013,-11.32398 -2.6796,-17.60638 -2.99363,-6.76592 -3.37231,-8.62613 -2.07435,-10.19008 1.46578,-1.76615 -3.79277,-19.18171 -6.25046,-20.70065 -0.83842,-0.51817 -1.72237,-3.58641 -1.96432,-6.81831 -0.49044,-6.55103 -5.07932,-20.59876 -7.35999,-22.53085 -2.27603,-1.92814 -4.38389,-6.42686 -4.38389,-9.35634 0,-3.4276 -9.94651,-22.51194 -11.74782,-22.5405 -1.31238,-0.0207 -10.31584,-13.97374 -12.33466,-19.11537 -1.38889,-3.53733 -10.89628,-14.60407 -12.59642,-14.66242 C 464.06139,113.63997 452.5,103.15905 452.5,101.62419 452.5,100.20555 441.79911,91.25 440.10399,91.25 c -0.71218,0 -5.10504,-2.562475 -9.76193,-5.694388 -9.99241,-6.720234 -30.75546,-16.947787 -35.67375,-17.572319 -1.90117,-0.241417 -4.99492,-1.227125 -6.875,-2.190467 -4.5803,-2.346929 -23.83216,-7.100542 -34.66831,-8.560197 -14.12429,-1.902576 -45.45437,-2.601608 -49.19097,-1.097539 -1.81997,0.732578 -6.59979,1.584469 -10.62183,1.893091 -4.02204,0.308622 -8.24079,1.355535 -9.375,2.326475 -3.23425,2.768679 -6.75636,3.651469 -7.80419,1.956063 -1.16606,-1.886738 -11.04772,1.012549 -12.01152,3.524194 -0.33708,0.878397 -2.66793,1.922517 -5.17968,2.320265 -9.99086,1.582103 -14.92332,3.463942 -18.21195,6.948246 -2.47807,2.625529 -4.62045,3.646576 -7.6513,3.646576 -3.3917,0 -5.43896,1.22945 -10.5378,6.328281 -4.76821,4.768214 -6.93787,6.134803 -8.80105,5.543453 -1.77897,-0.564625 -4.22026,0.688676 -8.70102,4.46691 -3.42554,2.888455 -6.51729,6.162396 -6.87054,7.275416 -0.35326,1.11302 -3.88249,4.53865 -7.84273,7.61251 -9.41105,7.30469 -19.07542,16.31167 -19.07542,17.77788 0,0.6393 -1.46348,3.08106 -3.25215,5.42615 -3.39325,4.44877 -11.74785,17.9362 -11.74785,18.96537 0,0.32622 -1.19716,2.27435 -2.66035,4.32922 -5.22111,7.33237 -17.32885,38.9228 -17.34735,45.26112 -0.004,1.45128 -0.7432,4.04789 -1.64215,5.77025 -0.89895,1.72236 -2.56679,7.06611 -3.70631,11.875 -2.31084,9.75198 -3.86772,16.22211 -6.71979,27.92641 -1.40972,5.7852 -1.5596,8.30648 -0.55357,9.3125 2.03569,2.0357 1.67573,7.26233 -0.61554,8.93775 -1.57848,1.1542 -2.01572,4.01463 -2.09398,13.69857 -0.0605,7.48453 -0.62087,12.44087 -1.44243,12.75746 -2.34345,0.90307 -0.89916,54.20067 1.80844,66.73575 0.66826,3.09375 1.49456,9.25781 1.83623,13.69793 0.80717,10.48929 1.90041,16.16293 3.2785,17.01465 0.60956,0.37673 1.1083,3.00651 1.1083,5.84396 0,5.86609 4.18234,22.41246 6.92229,27.38632 1.00523,1.82483 1.82771,5.02568 1.82771,7.113 0,4.60753 5.39791,20.16122 9.43439,27.1845 1.61696,2.81345 2.87493,6.18845 2.79547,7.5 -0.16569,2.73511 8.71818,23.00376 10.90708,24.88464 2.48938,2.13909 4.38711,6.60786 3.63662,8.56359 -0.43524,1.13422 0.33638,2.43367 1.9616,3.30347 1.47349,0.78858 3.80071,4.0661 5.17161,7.28336 3.8902,9.12958 12.48193,21.58919 15.74184,22.8286 1.62509,0.61787 3.91583,2.90405 5.09054,5.08044 1.17471,2.17639 3.12022,4.99398 4.32335,6.2613 1.20312,1.26734 2.1875,3.08337 2.1875,4.03564 0,2.45726 11.28916,15.86883 13.02405,15.47261 1.31666,-0.3007 5.43107,3.55436 14.86701,13.92983 1.93384,2.12639 4.50446,3.86616 5.7125,3.86616 1.20805,0 4.40706,1.86241 7.10894,4.13869 4.5056,3.79589 11.32077,7.33132 15.25402,7.91319 0.87534,0.12948 3.45239,1.33337 5.72679,2.6753 4.86318,2.86935 11.7229,5.25443 17.05193,5.92886 2.09186,0.26474 5.33932,1.30631 7.21657,2.3146 5.66008,3.04009 8.15325,3.77109 14.03819,4.11597 3.09375,0.18132 9.84375,0.82005 15,1.41942 14.76571,1.71636 24.67444,1.62252 37.81442,-0.35813 z"
       id="path4162"
       inkscape:connector-curvature="0" />
    <path
       style="fill:#767676"
       d="M 257.75559,709.60076 C 240.28604,660.00119 206.54167,591.71334 190.42254,573.34014 176.45519,557.41961 146.24285,505.45026 133.91395,476.13765 116.80755,435.46625 107.05957,398.06325 102.01726,353.75 c -3.54099,-31.11921 -2.144731,-76.49976 3.24985,-105.625 1.40072,-7.5625 2.6415,-18.53125 2.75727,-24.375 0.35372,-17.85413 8.94208,-44.75455 23.94486,-75 10.90826,-21.99095 20.27471,-35.35277 36.42091,-51.956665 C 202.8499,61.356764 240.76427,42.330809 295.625,32.94515 c 32.1915,-5.507371 78.0187,0.412388 112.65251,14.551964 41.32587,16.871665 70.89985,41.393024 97.24126,80.627886 16.67505,24.83706 37.62728,78.8068 36.82093,94.8451 -0.14254,2.8352 0.66826,11.3424 1.80178,18.9049 4.98706,33.27222 5.88652,43.34807 5.85824,65.625 -0.058,45.72671 -6.20812,87.85445 -18.61334,127.5 -12.37967,39.56391 -29.17793,75.51533 -47.56689,101.80201 -3.81948,5.45985 -8.06949,11.72171 -9.44449,13.91525 -1.375,2.19354 -5.78251,8.30841 -9.79447,13.58861 -15.41565,20.28877 -38.20209,60.50083 -48.91331,86.31913 -2.28178,5.5 -8.20366,19.5625 -13.15973,31.25 -4.95608,11.6875 -10.13224,24.60556 -11.50258,28.7068 -1.37034,4.10124 -3.6037,10.42936 -4.96302,14.0625 l -2.47152,6.6057 -10.40354,0 -10.40355,0 0.96257,-4.0625 c 1.70299,-7.18741 6.43262,-19.82144 15.32526,-40.9375 4.77722,-11.34375 9.80668,-23.71875 11.17659,-27.5 1.36991,-3.78125 3.50734,-8.84375 4.74984,-11.25 4.8752,-9.44138 12.52246,-26.57186 12.52246,-28.05131 0,-0.85868 -1.12926,-2.58319 -2.50948,-3.83227 -2.4056,-2.17703 -2.83242,-2.1813 -10.3125,-0.10275 -4.29166,1.19256 -9.49052,2.92498 -11.55302,3.84985 -2.0625,0.92487 -6.5625,2.96568 -10,4.53514 -9.8288,4.48754 -41.39349,7.28731 -61.875,5.48829 -5.15625,-0.4529 -12.5568,-0.75223 -16.44566,-0.66515 -4.97953,0.1115 -8.48607,-0.6003 -11.85649,-2.40674 -2.6322,-1.41079 -5.3204,-2.56506 -5.97377,-2.56506 -0.65338,0 -2.3492,-1.04515 -3.76852,-2.32255 -1.41931,-1.27741 -7.26023,-3.84776 -12.97982,-5.71191 -9.71822,-3.16739 -10.59825,-3.25899 -13.4375,-1.39864 -3.23635,2.12055 -4.09665,7.53535 -1.84895,11.63756 7.33485,13.38665 25.48376,57.32951 36.38966,88.10804 l 6.09012,17.1875 -11.01918,0 -11.01919,0 -7.62511,-21.64924 z M 351.25,608.17327 c 20.6507,-3.15106 49.95387,-15.28427 59.33762,-24.56922 2.76469,-2.73558 5.72555,-4.61761 6.68522,-4.24935 1.51006,0.57946 7.18426,-3.05828 10.85216,-6.95735 0.6875,-0.73082 2.41691,-2.55359 3.84314,-4.05056 1.42622,-1.49699 3.0386,-3.84679 3.58303,-5.22179 0.63073,-1.59293 1.20165,-1.93308 1.57353,-0.9375 0.321,0.85937 1.29025,1.5625 2.15389,1.5625 1.867,0 13.22141,-14.28496 13.22141,-16.63383 0,-2.51901 5.91774,-9.98794 6.50876,-8.21488 0.28258,0.84773 1.18372,1.1273 2.00252,0.62125 1.82041,-1.12508 1.97811,-4.52254 0.20991,-4.52254 -0.70335,0 -0.39633,-1.34685 0.68226,-2.993 1.29155,-1.97115 2.76645,-2.78239 4.32,-2.37612 1.84604,0.48275 3.0914,-0.83685 5.72804,-6.06952 1.85302,-3.6775 4.34097,-8.09261 5.52879,-9.81136 1.1878,-1.71875 2.14691,-3.99539 2.13135,-5.0592 -0.0341,-2.33047 8.06142,-16.38936 11.66438,-20.25669 3.62144,-3.88715 8.36734,-14.01332 10.6103,-22.63886 1.04832,-4.03135 3.01952,-8.74532 4.38047,-10.47549 3.66693,-4.66175 7.87187,-19.88745 6.99933,-25.34397 -0.60877,-3.80709 -0.21732,-5.00211 2.37757,-7.25834 1.70847,-1.4855 3.10632,-3.74157 3.10632,-5.0135 0,-1.27191 1.1308,-5.59931 2.5129,-9.61644 1.63846,-4.76226 2.24161,-8.7499 1.73331,-11.45938 -0.47777,-2.54677 -0.18549,-4.87137 0.75499,-6.00458 2.42755,-2.92502 5.21935,-19.47664 3.61187,-21.41354 -0.97532,-1.17518 -0.77603,-2.74088 0.72888,-5.72622 2.75651,-5.46821 4.03961,-20.29041 1.97211,-22.7816 -1.2364,-1.48976 -1.14764,-2.65284 0.4463,-5.84795 2.16118,-4.33219 2.55585,-14.03608 0.86653,-21.30559 -0.80317,-3.45617 -0.61388,-5.02595 0.77331,-6.41314 1.61571,-1.61571 1.57621,-3.00801 -0.3282,-11.56801 -1.52906,-6.8728 -1.79046,-10.33094 -0.88994,-11.7729 1.54319,-2.47105 -0.23171,-14.92974 -2.99949,-21.05447 -1.24141,-2.74708 -1.45995,-4.63502 -0.65113,-5.625 1.4263,-1.74582 -0.10413,-13.04688 -2.3302,-17.20624 -2.54928,-4.76336 -3.52565,-9.58448 -2.20793,-10.9022 1.49431,-1.49431 -3.46795,-17.63478 -6.08334,-19.78695 -0.93925,-0.7729 -1.97048,-4.00201 -2.29163,-7.17583 -0.80079,-7.91392 -5.33392,-20.94252 -8.23048,-23.65511 -1.31332,-1.2299 -2.45965,-2.9174 -2.54739,-3.75 -0.0877,-0.83259 -0.28592,-2.64882 -0.44041,-4.03609 C 502.78921,167.36227 492.45101,147.5 491.12524,147.5 490.0002,147.5 478.75,130.53323 478.75,128.83654 c 0,-2.24173 -10.05812,-14.36347 -12.97421,-15.63612 C 462.22234,111.6496 452.5,103.01054 452.5,101.40383 c 0,-1.38389 -10.79471,-10.304416 -12.85251,-10.621051 -0.83738,-0.128847 -5.02475,-2.619568 -9.3053,-5.534937 C 421.62634,79.311699 399.83726,68.773736 391.25,66.341486 376.53716,62.174234 357.28431,57.669254 349.375,56.54315 336.86384,54.761845 304.21202,54.491154 303.18051,56.160186 302.72507,56.897084 299.60978,57.5 296.2576,57.5 c -5.96036,0 -8.72861,0.807391 -14.95877,4.362898 -2.26007,1.2898 -3.51442,1.391842 -4.72804,0.38463 -1.97211,-1.636707 -11.48056,1.062866 -12.42654,3.528056 -0.32455,0.845767 -2.93665,1.908159 -5.80467,2.36087 -8.70383,1.373882 -14.68233,3.449967 -16.23777,5.638705 -1.97563,2.780021 -6.84822,5.27911 -8.41044,4.31361 -1.21112,-0.748519 -12.43457,5.556564 -12.43913,6.98803 -0.001,0.385989 -1.1714,1.956751 -2.60039,3.490582 -1.74283,1.870704 -3.40784,2.531798 -5.0577,2.008155 -1.78544,-0.566676 -4.32804,0.815668 -9.27685,5.04357 -3.74951,3.203311 -6.83469,6.483834 -6.85595,7.290044 -0.0213,0.80622 -2.69293,3.4346 -5.93704,5.84085 -10.37875,7.69821 -17.94789,15.39462 -23.97192,24.375 -8.89335,13.25782 -19.33634,31.7517 -21.88108,38.75 -1.24995,3.4375 -2.66976,6.8125 -3.15515,7.5 -0.48537,0.6875 -2.18126,6.03125 -3.76865,11.875 -1.58737,5.84375 -4.4862,15.57887 -6.44182,21.63362 -1.95563,6.05474 -3.55569,12.086 -3.55569,13.40279 0,1.3168 -1.38304,7.84443 -3.07341,14.50583 -2.11102,8.3191 -2.8414,13.80433 -2.33248,17.51728 0.4962,3.62018 0.19278,6.06611 -0.91863,7.40527 -1.08526,1.30766 -1.68718,5.79303 -1.7394,12.96161 -0.0439,6.02909 -0.63813,11.74647 -1.32047,12.70529 -2.16056,3.03602 -0.69888,58.64202 1.80372,68.61776 0.60372,2.40655 1.4689,8.48902 1.92261,13.5166 0.4537,5.02759 1.62504,11.77759 2.60296,15 0.97792,3.22242 1.78412,7.4858 1.79157,9.47419 0.0149,3.96445 4.33627,20.05277 6.34827,23.63411 0.69503,1.23714 1.48868,4.33089 1.76368,6.875 0.61164,5.65861 5.54128,20.1898 9.4224,27.77462 1.57633,3.08057 3.03744,7.04634 3.24693,8.81284 0.45754,3.85835 10.38997,24.91319 11.75257,24.91319 0.86644,0 2.7039,4.9925 2.99037,8.125 0.0629,0.6875 1.66118,2.87901 3.55181,4.87002 1.89062,1.99103 3.4375,4.38876 3.4375,5.32829 0,3.3244 13.07284,22.75129 15.58205,23.15569 1.35137,0.2178 3.70521,2.36475 5.23075,4.771 1.52554,2.40625 3.65424,5.35937 4.73045,6.5625 1.07621,1.20312 1.95675,2.97969 1.95675,3.94791 0,2.3735 10.98646,15.73959 12.9374,15.73959 0.85251,0 5.6443,4.21875 10.64839,9.375 5.0041,5.15625 10.05376,9.375 11.22148,9.375 1.16772,0 4.0794,1.5843 6.47043,3.52066 2.39101,1.93635 8.2848,5.15201 13.0973,7.14589 4.8125,1.99387 9.03125,3.95259 9.375,4.3527 0.88926,1.03505 11.24279,4.14485 15.23245,4.57524 1.84659,0.1992 5.78409,1.63756 8.75,3.19635 2.9659,1.55878 7.9238,2.94683 11.01755,3.08455 3.09375,0.13771 9.84375,0.75835 15,1.37918 14.53327,1.74988 27.03967,1.6463 40,-0.3313 z"
       id="path4160"
       inkscape:connector-curvature="0" />
    <path
       style="fill:#616161"
       d="M 259.40429,713.4375 C 248.89016,684.52644 248.6663,683.97844 233.48942,650 c -3.66599,-8.20755 -19.3016,-39.30815 -24.5087,-48.75 -7.31338,-13.26109 -12.75897,-21.42528 -19.59345,-29.375 -7.1119,-8.27244 -16.59563,-23.15835 -34.64202,-54.375 -45.82068,-79.2606 -64.482611,-180.27701 -49.46958,-267.77709 1.44835,-8.44135 2.52419,-19.396 2.39076,-24.34365 -0.15975,-5.92348 0.57708,-11.68668 2.15747,-16.875 9.95212,-32.67215 12.61688,-39.8666 21.43797,-57.87926 16.17324,-33.02576 34.34908,-54.970635 63.37864,-76.521189 27.34014,-20.296381 54.2814,-32.190692 85.98449,-37.96134 7.5625,-1.376539 16.1487,-3.040474 19.08044,-3.697635 6.97006,-1.562362 42.14632,-1.541422 49.8867,0.0297 3.31807,0.673494 12.04256,2.359383 19.38776,3.74642 54.47539,10.286918 103.16985,42.26031 133.28298,87.515284 12.25093,18.41109 22.97177,39.87542 30.23187,60.52761 7.11287,20.23338 10.16402,32.40589 9.85488,39.31585 -0.14262,3.18741 0.66305,11.70155 1.79033,18.9203 4.30268,27.5526 5.86584,45.09281 5.84843,65.625 -0.0367,43.3933 -6.31989,86.29449 -18.39847,125.625 -4.42611,14.41241 -19.35373,53.11122 -24.21511,62.77594 -8.63709,17.1711 -27.52006,47.72471 -36.52486,59.09906 -20.01586,25.2829 -42.38458,63.98508 -56.71335,98.125 -3.02976,7.21875 -8.93238,21.28125 -13.11693,31.25 -4.18453,9.96875 -9.6806,24.03125 -12.21347,31.25 l -4.60523,13.125 -10.22548,0.36305 c -7.94059,0.28193 -10.22549,-0.0148 -10.22549,-1.32801 0,-3.02985 7.06522,-22.3554 15.64177,-42.78504 4.61791,-11 9.46248,-22.8125 10.76572,-26.25 2.36017,-6.22536 4.22237,-10.31083 12.81971,-28.125 5.22012,-10.81639 5.44101,-12.53156 2.01332,-15.63358 -2.4056,-2.17703 -2.83242,-2.1813 -10.3125,-0.10275 -4.29166,1.19256 -9.49052,2.92498 -11.55302,3.84985 -2.0625,0.92487 -6.5625,2.93914 -10,4.47615 -4.41481,1.97402 -11.38854,3.32238 -23.75,4.59207 -19.41131,1.99377 -24.96123,2.13025 -36.875,0.90675 -4.46875,-0.45892 -11.74416,-0.77624 -16.16759,-0.70515 -5.8116,0.0934 -9.37642,-0.566 -12.85099,-2.37704 -2.64462,-1.37847 -5.45796,-2.5063 -6.25185,-2.5063 -0.7939,0 -2.61822,-1.10365 -4.05406,-2.45255 -1.43584,-1.34889 -7.51327,-3.97246 -13.50544,-5.83016 -10.56533,-3.27548 -10.97079,-3.30885 -13.40744,-1.10372 -3.73392,3.37914 -3.10184,7.93965 2.89121,20.86072 7.92585,17.08816 17.47642,39.74761 23.35047,55.40071 2.83794,7.5625 6.76524,17.96875 8.72734,23.125 1.9621,5.15625 3.95489,10.92187 4.42841,12.8125 l 0.86097,3.4375 -10.54673,0 -10.54671,0 -6.0233,-16.5625 z m 85.17773,-103.52374 c 6.59093,-0.73493 16.83438,-2.7362 22.76324,-4.44726 13.95242,-4.02666 37.17035,-15.57888 43.8736,-21.82956 2.8888,-2.69377 5.76178,-4.58292 6.3844,-4.19813 1.11312,0.68795 10.09317,-5.32654 10.9705,-7.34761 1.23129,-2.83643 8.43363,-8.90281 10.21218,-8.6015 1.92723,0.3265 13.71406,-13.11671 13.71406,-15.64129 0,-2.11232 5.63032,-8.47341 7.5,-8.47341 1.1544,0 1.9225,-1.2495 1.99858,-3.25119 0.1655,-4.35405 1.40938,-6.12381 4.30413,-6.12381 1.64829,0 3.44565,-2.06515 5.71154,-6.5625 1.8185,-3.60938 4.37144,-8.07274 5.6732,-9.91858 1.30176,-1.84585 2.23896,-3.81459 2.08269,-4.375 -0.41628,-1.49272 3.39424,-8.28427 10.91869,-19.46062 3.76957,-5.5991 8.30712,-14.55046 10.49808,-20.7099 2.12238,-5.96663 4.90983,-12.81715 6.19434,-15.2234 3.62096,-6.7831 6.67522,-18.87714 5.92884,-23.47659 -0.50769,-3.12849 -0.045,-4.78847 1.86768,-6.70119 2.80724,-2.80723 7.19318,-16.64263 8.66137,-27.32222 0.51983,-3.78125 1.8531,-10.78788 2.96282,-15.57029 1.10971,-4.7824 1.6343,-9.56365 1.16574,-10.625 -1.08643,-2.4609 -0.58968,-6.48337 1.04724,-8.48005 1.65911,-2.02377 2.84878,-17.00645 1.58262,-19.93155 -1.21169,-2.79926 -0.78542,-6.74161 0.9589,-8.86849 0.84149,-1.02605 1.02219,-5.69047 0.50353,-12.99752 -0.51275,-7.22359 -0.33503,-11.96824 0.48533,-12.9567 0.87767,-1.05754 0.902,-4.11644 0.0756,-9.50249 -0.6703,-4.3686 -1.20736,-11.31791 -1.19346,-15.44291 0.0139,-4.125 -0.63864,-10.03125 -1.45007,-13.125 -0.81141,-3.09375 -1.66413,-9.30811 -1.89493,-13.80969 -0.2308,-4.50159 -1.62515,-11.24311 -3.09857,-14.98117 -1.58442,-4.01975 -2.40191,-8.1815 -2.00091,-10.1865 0.65338,-3.2669 -2.23732,-13.5504 -6.14775,-21.8702 -1.02694,-2.18492 -2.08637,-6.12242 -2.35429,-8.75 -0.26792,-2.62759 -1.38227,-6.46494 -2.47633,-8.52744 -1.09407,-2.0625 -1.99267,-4.65851 -1.9969,-5.76893 -0.004,-1.11041 -1.05533,-3.36041 -2.33575,-5 -2.17385,-2.78361 -3.71063,-6.306 -4.02744,-9.23107 -0.24959,-2.30449 -11.48735,-23.125 -12.48159,-23.125 -0.929,0 -6.38929,-8.49694 -12.36377,-19.23965 -3.38133,-6.07989 -10.2625,-14.45156 -11.92419,-14.50696 -0.6875,-0.0229 -6.7981,-5.37682 -13.5791,-11.89754 C 446.5149,95.335134 440.38049,90 439.66389,90 c -0.7166,0 -3.0435,-1.302144 -5.1709,-2.893654 -25.4716,-19.05538 -74.01535,-33.075472 -112.61799,-32.525602 -15.24865,0.217207 -33.02936,2.956767 -38.76438,5.972612 -2.19842,1.15608 -5.13102,1.666924 -7.12666,1.241428 -2.27147,-0.484307 -5.4421,0.307172 -9.60342,2.397285 -3.4168,1.716165 -9.65238,4.001585 -13.85682,5.078712 -4.4295,1.134785 -9.68177,3.595671 -12.48881,5.851465 -2.66441,2.141178 -5.48221,3.498847 -6.2618,3.01704 -1.65345,-1.021892 -10.45395,4.501903 -15.14851,9.508249 -2.21054,2.357351 -4.06279,3.253829 -5.78975,2.802216 -2.5873,-0.676592 -8.5911,4.542771 -34.7104,30.175249 -9.6661,9.48594 -20.64808,25.78624 -30.3178,45 -8.17743,16.24855 -25.8597,83.0987 -24.50399,92.6405 0.51569,3.6295 0.13635,6.04709 -1.29053,8.22477 -1.11149,1.69637 -1.71816,3.38703 -1.34815,3.75704 0.37001,0.37001 0.13344,3.07301 -0.5257,6.00666 -0.85164,3.79038 -0.77376,6.01679 0.26913,7.69368 1.15957,1.8645 1.06208,3.07522 -0.46445,5.76856 -1.42861,2.52055 -1.83751,6.24065 -1.56922,14.27667 0.21306,6.38187 -0.15879,11.19026 -0.90085,11.64887 -0.69502,0.42955 -0.96933,1.25725 -0.60958,1.83934 0.35975,0.58208 1.23241,9.67191 1.93924,20.19961 1.32817,19.78184 3.46912,36.09355 6.86702,52.3193 4.22914,20.19499 5.92875,27.02559 7.65467,30.76346 0.98748,2.13865 1.92256,5.7949 2.07792,8.125 0.15536,2.3301 0.61564,4.79904 1.02281,5.48654 0.40719,0.6875 2.01794,5.1875 3.57944,10 1.5615,4.8125 4.10364,11 5.64918,13.75 1.54555,2.75 2.57305,5.62315 2.28332,6.38479 -0.53464,1.40546 8.17929,20.06482 13.0302,27.9019 1.45933,2.35767 2.3414,4.79137 1.96016,5.40823 -0.38123,0.61685 0.55145,2.28108 2.07265,3.69829 1.52119,1.4172 3.40914,4.09748 4.19544,5.95614 3.4924,8.25543 14.07124,23.64811 16.72694,24.33847 1.56615,0.40714 3.86407,2.81824 5.22114,5.4783 1.33311,2.61312 3.3087,5.48549 4.3902,6.38305 1.0815,0.89757 1.96636,2.45773 1.96636,3.46702 0,2.17905 10.99571,15.35881 12.81366,15.35881 0.69299,0 4.98404,3.83708 9.53566,8.52683 4.61227,4.75225 10.94864,9.80326 14.31392,11.41027 3.32102,1.5859 6.33432,3.65508 6.69623,4.59818 0.36191,0.9431 1.41178,1.71472 2.33306,1.71472 0.92127,0 5.78296,1.91246 10.80376,4.24993 12.21951,5.68886 19.22632,8.2491 22.59151,8.25477 1.53296,0.003 5.98032,1.59491 9.88304,3.53849 4.38709,2.18481 7.77218,3.15529 8.86761,2.54225 0.97447,-0.54535 3.76456,-0.4413 6.20019,0.2312 4.56085,1.25931 19.6764,3.2344 26.94812,3.52119 2.26148,0.0892 9.50434,-0.43914 16.09526,-1.17407 z"
       id="path4158"
       inkscape:connector-curvature="0" />
  </g>
</svg>
