<?xml version="1.0" encoding="UTF-8" standalone="no"?>
<!-- Created with Inkscape (http://www.inkscape.org/) -->

<svg
   xmlns:dc="http://purl.org/dc/elements/1.1/"
   xmlns:cc="http://creativecommons.org/ns#"
   xmlns:rdf="http://www.w3.org/1999/02/22-rdf-syntax-ns#"
   xmlns:svg="http://www.w3.org/2000/svg"
   xmlns="http://www.w3.org/2000/svg"
   xmlns:sodipodi="http://sodipodi.sourceforge.net/DTD/sodipodi-0.dtd"
   xmlns:inkscape="http://www.inkscape.org/namespaces/inkscape"
   id="svg2"
   version="1.1"
   inkscape:version="0.91 r13725"
   width="1500"
   height="1500"
   viewBox="0 0 1500 1500"
   sodipodi:docname="star.svg">
  <metadata
     id="metadata8">
    <rdf:RDF>
      <cc:Work
         rdf:about="">
        <dc:format>image/svg+xml</dc:format>
        <dc:type
           rdf:resource="http://purl.org/dc/dcmitype/StillImage" />
        <dc:title></dc:title>
      </cc:Work>
    </rdf:RDF>
  </metadata>
  <defs
     id="defs6" />
  <sodipodi:namedview
     pagecolor="#ffffff"
     bordercolor="#666666"
     borderopacity="1"
     objecttolerance="10"
     gridtolerance="10"
     guidetolerance="10"
     inkscape:pageopacity="0"
     inkscape:pageshadow="2"
     inkscape:window-width="1855"
     inkscape:window-height="1056"
     id="namedview4"
     showgrid="false"
     fit-margin-top="0"
     fit-margin-left="0"
     fit-margin-right="0"
     fit-margin-bottom="0"
     inkscape:zoom="0.15733333"
     inkscape:cx="1455.5084"
     inkscape:cy="324.15254"
     inkscape:window-x="65"
     inkscape:window-y="24"
     inkscape:window-maximized="1"
     inkscape:current-layer="svg2" />
  <g
     id="g4138">
    <path
       style="fill:#fefefe"
       d="M 0,750 0,0 l 750,0 750,0 0,750 0,750 -750,0 -750,0 0,-750 z"
       id="path4154"
       inkscape:connector-curvature="0" />
    <path
       style="fill:#d1d1d1"
       d="m 329.53125,1411.2566 c -11.60088,-2.4803 -25.59585,-10.2194 -32.34415,-17.8858 -9.68257,-11 -14.12612,-22.0959 -14.74055,-36.8083 -0.39648,-9.4936 0.82606,-17.2585 34.36413,-218.2655 19.12638,-114.6319 34.45355,-208.93632 34.0604,-209.56534 C 350.47793,928.10263 290.03906,868.60071 216.5625,796.50515 41.593792,624.82501 46.164029,629.4267 41.884441,620.625 c -4.549735,-9.3573 -6.262316,-16.54497 -6.245584,-26.21259 0.02878,-16.62928 5.450344,-29.90997 16.90745,-41.41656 5.553929,-5.57792 8.874744,-8.00423 15.026022,-10.97857 4.343032,-2.1 10.005796,-4.26191 12.583921,-4.80424 2.578125,-0.54234 98.2843,-14.86441 212.68039,-31.82682 114.39609,-16.96242 208.32252,-31.19551 208.7254,-31.62911 0.40288,-0.4336 42.3961,-85.79617 93.31827,-189.69461 51.27256,-104.61336 94.40073,-191.483669 96.65322,-194.682425 5.61043,-7.967326 12.58091,-13.846292 21.43522,-18.078666 24.48318,-11.70299 47.736,-8.041463 66.34604,10.447238 l 7.28355,7.236054 19.96518,40.585779 c 10.98085,22.32217 53.45827,108.86759 94.39428,192.32315 54.68573,111.48689 74.93732,151.92216 76.34498,152.43398 1.05384,0.38314 95.15032,14.48496 209.10352,31.33737 146.3205,21.63922 209.4413,31.32431 214.8595,32.96751 25.1551,7.62886 42.0095,32.26217 40.3302,58.94404 -0.9789,15.55402 -6.3171,26.58034 -19.3801,40.03095 -4.9141,5.05987 -73.4815,72.53433 -152.3721,149.94326 -78.8907,77.40892 -143.5597,141.4526 -143.709,142.31929 -0.1493,0.86667 15.3899,95.43407 34.5315,210.14977 32.3135,193.6544 34.7706,209.1775 34.3505,217.0115 -1.3966,26.0389 -18.9836,47.1091 -44.6926,53.544 -8.7182,2.182 -23.6719,1.4032 -31.8867,-1.6607 -3.3516,-1.2501 -90.2066,-46.7341 -193.01116,-101.0757 l -186.91741,-98.8027 -4.33259,2.3944 c -2.38293,1.3169 -87.08794,46.1194 -188.23336,99.5613 -201.3568,106.3903 -190.29788,100.9929 -206.48357,100.7744 -4.42924,-0.06 -8.89691,-0.2892 -9.92816,-0.5097 z m 237.79133,-242.9825 c 81.28525,-42.8311 150.47275,-78.8221 153.75,-79.98 4.96804,-1.7553 7.90691,-2.1035 17.67742,-2.0944 10.39267,0.01 12.46612,0.293 18.32329,2.5048 3.63249,1.3717 73.03093,37.5023 154.21875,80.2903 81.18783,42.7879 147.73486,77.4533 147.88226,77.0341 0.1474,-0.4191 -12.4034,-74.7977 -27.8906,-165.2856 -19.6554,-114.84108 -28.1587,-166.63003 -28.1587,-171.499 0,-15.28901 6.0814,-29.04989 18.5063,-41.87559 4.5168,-4.66262 56.7281,-55.81598 116.025,-113.67413 59.2968,-57.85817 110.7462,-108.07731 114.3318,-111.5981 3.5857,-3.52079 6.2913,-6.62959 6.0124,-6.90843 -0.2788,-0.27885 -75.0295,-11.66703 -166.1126,-25.30705 -91.0831,-13.64004 -167.40591,-25.2797 -169.60618,-25.86594 -13.67675,-3.644 -27.9881,-15.25195 -35.24687,-28.58875 C 884.80246,551.32465 850.70871,483 811.27095,403.59375 771.83319,324.1875 739.24626,258.8928 738.85553,258.49443 c -0.39074,-0.39838 -7.08829,12.25787 -14.88346,28.125 -7.79518,15.86712 -41.58301,83.90401 -75.08408,151.19307 -45.07077,90.52758 -61.96857,123.60375 -64.97763,127.18886 -7.26712,8.65832 -16.5399,14.88034 -27.50411,18.45523 -2.57813,0.8406 -79.31254,12.69976 -170.52093,26.35369 -91.20838,13.65393 -166.07249,25.06439 -166.36469,25.35659 -0.66712,0.66712 -1.11442,0.2255 129.69812,128.05018 59.8125,58.44634 110.35487,108.17533 112.31638,110.50888 7.43003,8.83929 12.78688,23.80396 12.82359,35.82339 0.009,2.93181 -12.63947,79.29118 -28.10762,169.68748 -15.46814,90.3964 -28.12439,165.1202 -28.125,166.0529 -6e-4,0.9328 0.31531,1.5077 0.70202,1.2775 0.38672,-0.2301 67.20923,-35.462 148.49446,-78.2931 z"
       id="path4152"
       inkscape:connector-curvature="0" />
    <path
       style="fill:#aeaeae"
       d="m 331.99344,1410.7892 c -23.09444,-3.3056 -42.30997,-20.8776 -48.02178,-43.9142 -2.87473,-11.5942 -2.81901,-11.9751 33.67154,-230.1562 19.05853,-113.9532 34.38157,-207.64703 34.05121,-208.20861 C 351.36405,927.94861 289.07812,866.63798 213.28125,792.26434 43.418306,625.59091 47.311574,629.50321 42.943466,621.09375 c -4.714112,-9.07559 -6.685962,-17.07791 -6.699258,-27.1875 -0.03334,-25.35159 17.164756,-48.19868 41.568292,-55.22205 2.835937,-0.81619 52.19531,-8.45961 109.6875,-16.98537 57.49219,-8.52577 151.57031,-22.47199 209.0625,-30.99161 60.65784,-8.98873 104.96744,-15.96202 105.57052,-16.61434 0.57159,-0.61827 42.7027,-86.13194 93.62469,-190.03038 52.98736,-108.11251 94.33797,-191.376673 96.68311,-194.682419 7.47896,-10.542512 18.47421,-18.000519 32.10796,-21.778624 15.11092,-4.187451 25.26004,-3.218961 39.51372,3.770639 12.38831,6.074874 19.44632,13.772862 27.87804,30.405834 3.64289,7.1862 45.92896,93.22207 93.96906,191.19082 48.0401,97.96875 87.92059,179.01573 88.62324,180.10439 0.81244,1.25873 2.72213,2.21039 5.24522,2.61384 3.71447,0.59399 333.58604,49.54785 389.82274,57.8508 14.132,2.08649 28.1273,4.55081 31.1008,5.47625 14.1332,4.39875 26.7048,14.88848 33.5025,27.95448 10.9525,21.0523 8.5477,45.56692 -6.2145,63.34907 -2.4177,2.91228 -71.263,70.90271 -152.9896,151.08985 -81.7266,80.18714 -148.9362,146.31883 -149.3548,146.95931 -0.4328,0.66221 14.2262,91.03516 33.9844,209.51606 36.9323,221.4651 36.4287,217.9784 33.2593,230.2632 -3.7679,14.6049 -15.3693,29.3654 -28.319,36.0303 -8.7747,4.516 -11.8133,5.5115 -20.564,6.737 -8.315,1.1645 -19.0253,-0.1218 -26.7138,-3.2081 -2.9503,-1.1844 -89.3113,-46.5242 -191.91336,-100.7552 l -186.54917,-98.6017 -3.08666,1.5623 c -1.69766,0.8594 -86.56159,45.6685 -188.5865,99.5758 -122.72514,64.8449 -187.44575,98.5479 -191.25,99.5929 -7.68857,2.1119 -16.63509,2.7516 -23.91297,1.7099 z m 233.96734,-240.9698 c 81.37001,-42.8961 150.68766,-79.057 154.03922,-80.3574 5.43586,-2.1092 7.46015,-2.3648 18.75,-2.3672 11.1178,0 13.34001,0.2677 18.28125,2.2218 3.09375,1.2235 72.42442,37.4182 154.06815,80.4327 81.64372,43.0145 148.6433,78.008 148.888,77.7633 0.2446,-0.2446 -12.2778,-74.6327 -27.8276,-165.3069 -31.3423,-182.76237 -30.3654,-175.57784 -25.7472,-189.35583 2.495,-7.44347 6.2435,-14.39128 10.5578,-19.56862 1.2889,-1.54688 56.2817,-55.54688 122.206,-120 65.9243,-64.45313 119.8817,-117.59666 119.9053,-118.09674 0.024,-0.50009 -11.889,-2.70502 -26.4724,-4.89986 -14.5836,-2.19483 -89.8356,-13.47122 -167.2267,-25.05864 C 954.411,588.61073 923.37726,583.67084 918.54816,581.85317 907.72823,577.78057 899.23436,571.57359 892.83878,563.06584 888.93691,557.87535 868.19033,516.59669 771.3419,321.32812 753.75996,285.87891 739.00133,256.875 738.54494,256.875 c -0.45638,0 -3.7116,6.01172 -7.23382,13.35937 -3.52222,7.34766 -37.46984,75.75113 -75.43915,152.00771 l -69.03511,138.64834 -7.34553,7.34551 c -9.64922,9.64924 -18.73768,14.19916 -33.49228,16.76714 -5.61978,0.97811 -81.51468,12.41104 -168.6553,25.40653 -87.14063,12.99548 -158.76678,23.91377 -159.16923,24.26287 -0.40245,0.34911 51.69911,51.90388 115.78125,114.56618 64.08214,62.6623 119.52484,117.10775 123.20601,120.9899 10.6622,11.24434 16.27572,24.71924 16.27572,39.06889 0,4.50943 -2.7033,22.83525 -7.54253,51.13118 -4.14838,24.25641 -16.80463,98.21148 -28.125,164.34448 -11.32035,66.1331 -20.58247,120.8713 -20.58247,121.6407 0,0.7693 0.18626,1.3987 0.41391,1.3987 0.22765,0 66.98937,-35.0969 148.35937,-77.9931 z"
       id="path4150"
       inkscape:connector-curvature="0" />
    <path
       style="fill:#8e8e8e"
       d="m 327.34476,1409.5627 c -25.23799,-5.745 -44.14949,-29.3245 -44.2059,-55.1174 -0.009,-4.0175 12.67911,-82.4881 34.67364,-214.4453 C 336.89062,1025.5399 352.5,931.06156 352.5,930.04809 352.5,928.83787 300.29336,876.91046 200.39062,778.75229 75.376931,655.92167 47.650581,628.23432 44.740805,623.32145 34.783221,606.50903 34.057874,585.95969 42.792488,568.125 49.488247,554.45332 64.752134,542.2696 79.697314,538.66735 83.043479,537.86082 135.77344,529.81069 196.875,520.77816 454.75722,482.65593 501.65117,475.59452 502.39294,474.77246 502.82283,474.29604 544.84357,388.89844 595.77238,285 646.70119,181.10156 689.81978,93.898266 691.59146,91.214895 703.94394,72.506021 730.18668,61.976753 751.77833,67.06635 c 9.55793,2.252999 18.39354,7.401551 26.41541,15.392384 5.97345,5.95033 8.0049,8.857537 12.80311,18.322516 3.13671,6.1875 45.62813,92.67187 94.42536,192.1875 48.79724,99.51562 89.33695,181.40612 90.08826,181.97888 0.75131,0.57275 3.36956,1.28966 5.81841,1.59313 8.53303,1.05746 397.34902,58.80866 408.47262,60.67082 15.3168,2.56414 24.3528,6.91343 33.6954,16.21838 11.6622,11.61523 16.9255,24.40906 16.8447,40.94504 -0.06,12.23581 -2.9529,21.71846 -9.5344,31.25069 -3.1176,4.5153 -48.2799,49.4515 -154.8697,154.0944 -114.4393,112.34904 -150.5345,148.30737 -150.7432,150.17199 -0.1511,1.34842 15.3528,96.22112 34.4531,210.82822 19.1001,114.607 34.7203,210.5836 34.7113,213.2812 -0.026,7.8555 -2.4722,17.4409 -6.5749,25.7644 -12.099,24.5466 -42.044,36.9907 -67.9428,28.2349 -3.6108,-1.2207 -90.692,-46.6882 -193.51374,-101.0387 -173.05045,-91.4727 -187.14187,-98.7461 -189.54961,-97.8373 -1.43062,0.54 -86.2108,45.1747 -188.40041,99.1883 -102.18961,54.0136 -188.38324,99.0236 -191.54139,100.0221 -7.62108,2.4096 -21.7195,2.9964 -29.49109,1.2275 z m 238.61662,-239.2636 c 80.85405,-42.6324 149.40441,-78.4969 152.33412,-79.699 11.13287,-4.5678 26.55712,-4.8428 38.78453,-0.6915 2.44412,0.8298 71.22522,36.6976 152.84689,79.7063 81.62164,43.0087 149.06808,78.1976 149.88088,78.1976 1.0559,0 1.335,-0.6024 0.9778,-2.1094 -0.2751,-1.1601 -13.18,-76.1484 -28.6775,-166.6406 -25.8335,-150.84451 -28.1391,-165.19414 -27.7162,-172.5 0.5902,-10.19499 3.6012,-19.34978 9.0181,-27.41883 3.1421,-4.68033 35.6946,-37.06257 125.1837,-124.5289 66.5157,-65.0121 121.0641,-118.75163 121.2189,-119.42115 0.1697,-0.73447 -0.9459,-1.43536 -2.8125,-1.76699 -1.7017,-0.30232 -76.711,-11.53715 -166.6876,-24.9663 C 988.96866,593.3346 924.28313,583.28017 920.31789,582.03715 909.36633,578.60405 898.98924,570.93409 892.09842,561.17944 889.87966,558.03856 854.59795,488.07422 813.69463,405.70312 772.79131,323.33203 738.96397,255.9375 738.52278,255.9375 c -0.44119,0 -5.15966,8.96484 -10.48549,19.92187 -5.32582,10.95704 -39.42091,79.65199 -75.76685,152.65546 l -66.08351,132.73359 -6.53684,6.53684 c -6.86258,6.86257 -17.30019,13.07398 -25.58759,15.22713 -2.32031,0.60284 -76.14844,11.84029 -164.0625,24.97213 -187.8825,28.06424 -172.5,25.65262 -172.5,27.04404 0,0.61003 50.02688,50.03676 111.17087,109.83717 61.14397,59.80041 116.33874,113.79052 122.65504,119.97802 10.0381,9.83342 11.98072,12.25342 15.42763,19.21875 4.68656,9.47035 7.10344,20.94197 6.22177,29.53125 -0.46875,4.56655 -54.54294,322.83385 -56.34635,331.64065 -0.39199,1.9142 -0.16061,2.5781 0.89855,2.5781 0.78458,0 67.57981,-34.881 148.43387,-77.5134 z"
       id="path4148"
       inkscape:connector-curvature="0" />
    <path
       style="fill:#6f6f6f"
       d="m 332.23244,1410.0005 c -20.79382,-3.0469 -38.58421,-17.5354 -45.42277,-36.9923 -1.05515,-3.0021 -2.40949,-8.8274 -3.00964,-12.9451 l -1.0912,-7.4866 35.25974,-211.5227 C 337.36144,1024.7165 352.95898,929.03704 352.62979,928.433 351.98054,927.2417 333.44915,908.99554 175.3125,753.84508 43.194389,624.22184 48.156175,629.23442 43.906497,621.09375 c -4.954635,-9.49109 -6.742263,-16.40617 -6.785929,-26.25 -0.04474,-10.08523 1.364272,-16.43432 5.666103,-25.53186 5.944603,-12.57168 16.631445,-22.61359 30.018956,-28.20736 6.185089,-2.58436 -5.662058,-0.74803 228.131873,-35.36082 159.01749,-23.54226 200.4641,-29.9557 201.65406,-31.20388 0.82379,-0.86409 42.93437,-86.15702 93.57907,-189.53983 50.6447,-103.38281 94.01665,-190.846575 96.38211,-194.363923 9.09656,-13.526224 25.14468,-22.447171 44.2741,-24.611418 12.81713,-1.450093 30.54628,5.658804 41.54644,16.658966 7.46106,7.461068 -0.74188,-8.795412 126.31767,250.334255 38.35877,78.23014 70.26874,142.4383 70.91111,142.68481 0.64238,0.24649 95.37514,14.4062 210.51734,31.46602 126.8107,18.78867 211.5839,31.74994 215.0171,32.87472 16.7798,5.49747 30.2974,18.80972 36.1304,35.58157 2.8752,8.26701 3.5452,23.50336 1.4015,31.87119 -2.0238,7.89939 -6.2857,16.38501 -11.1318,22.1637 -2.1685,2.58594 -63.8491,63.4912 -137.0679,135.34501 -73.2187,71.85383 -140.6293,138.06313 -149.8013,147.13177 l -16.6763,16.48844 34.8023,208.57809 c 37.2027,222.9646 36.5784,218.6295 33.2635,230.9916 -3.3977,12.6707 -12.8154,25.7904 -23.6991,33.0145 -2.9185,1.9372 -8.9108,4.7712 -13.3164,6.2978 -6.7656,2.3444 -9.4667,2.7796 -17.3852,2.8013 -10.7161,0.029 -16.9443,-1.4856 -27.1315,-6.5994 -3.6401,-1.8273 -88.8017,-46.7594 -189.24789,-99.8492 l -182.62944,-96.5269 -186.43983,98.5423 c -102.5419,54.1981 -188.42777,99.4215 -190.85749,100.4962 -4.67908,2.0698 -16.79372,4.5576 -21.5063,4.4165 -1.54688,-0.047 -4.97197,-0.4007 -7.61131,-0.7874 z m 234.43594,-239.6159 c 81.79553,-43.1009 151.12805,-79.2765 154.07226,-80.3902 7.58343,-2.8685 28.09884,-2.8609 35.82453,0.013 2.83741,1.0557 72.11715,37.2044 153.95499,80.3308 81.83784,43.1263 149.23114,78.4114 149.76294,78.4114 0.5318,0 0.9669,-0.4635 0.9669,-1.0299 0,-0.5665 -12.7189,-75.1329 -28.2641,-165.7031 -31.2933,-182.32217 -30.2891,-174.94595 -25.7457,-189.12174 4.8439,-15.11378 -7.5787,-2.21018 156.4317,-162.48817 53.4961,-52.27866 97.2656,-95.37972 97.2656,-95.78011 0,-0.40039 -1.1602,-0.97049 -2.5781,-1.26688 -2.4472,-0.51153 -269.91499,-40.59278 -310.5469,-46.53685 -30.60996,-4.47795 -39.32454,-8.04264 -51.44466,-21.04337 -5.7152,-6.13046 -7.37687,-9.23536 -38.09043,-71.17311 C 763.14874,302.76787 739.69404,255.9375 738.74138,255.9375 c -0.57702,0 -35.12355,68.45459 -76.77005,152.12132 -71.15155,142.94158 -76.04655,152.47305 -81.1172,157.94995 -7.04345,7.60777 -14.90406,12.65255 -24.32722,15.6127 -5.58599,1.75476 -51.42422,8.91391 -171.68316,26.81401 -90.23437,13.43104 -165.01172,24.62937 -166.17187,24.88516 -1.16016,0.2558 -2.10938,0.85966 -2.10938,1.34193 0,0.48226 54.80072,54.4757 121.77937,119.98541 68.81984,67.31052 123.02201,121.04505 124.63678,123.56145 6.58528,10.26226 9.52135,20.00432 9.52135,31.59237 0,4.76523 -8.69311,57.69989 -28.125,171.2606 -15.46875,90.3999 -28.125,165.1114 -28.125,166.0256 0,0.9141 0.38232,1.662 0.84962,1.662 0.46729,0 67.77322,-35.2644 149.56876,-78.3654 z"
       id="path4146"
       inkscape:connector-curvature="0" />
    <path
       style="fill:#4f4f4f"
       d="m 324.375,1407.8057 c -10.15839,-3.025 -16.45265,-6.7644 -23.99504,-14.2554 -10.73288,-10.6596 -16.31746,-24.1823 -16.31746,-39.5114 0,-5.8244 8.63415,-59.5649 34.6875,-215.9012 19.07812,-114.4807 34.6875,-208.55425 34.6875,-209.05241 0,-0.49815 -68.44922,-68.17679 -152.10938,-150.39696 -83.83193,-82.389 -153.220642,-151.3099 -154.585077,-153.5429 -6.783797,-11.10219 -9.207194,-19.31479 -9.229186,-31.27659 -0.04291,-23.33818 14.45662,-44.34784 36.286079,-52.57816 5.223159,-1.96927 43.944434,-7.97249 217.202754,-33.6744 115.96554,-17.20286 211.21628,-31.64775 211.66828,-32.09975 0.45202,-0.45202 42.81316,-86.40946 94.13589,-191.01655 51.32272,-104.6071 94.73099,-192.112623 96.46281,-194.456726 10.22803,-13.844116 26.21202,-22.276127 44.07408,-23.250336 15.81463,-0.862542 28.29999,4.136267 40.3527,16.15616 7.24544,7.22571 7.89994,8.252656 16.74231,26.269672 5.06115,10.3125 47.37399,96.58594 94.02854,191.71875 46.65455,95.13281 85.35764,173.52281 86.00686,174.20001 0.76359,0.79656 75.61954,12.27744 212.02504,32.51893 115.9645,17.20821 212.671,31.9402 214.9033,32.73774 13.9258,4.97541 26.3131,15.65144 32.3163,27.85185 8.2423,16.75109 8.245,34.60399 0.01,51.27486 -2.8428,5.75348 -5.6593,9.29337 -14.7909,18.59037 -6.2036,6.31601 -74.9825,73.9941 -152.8419,150.39575 -86.4345,84.81631 -141.6692,139.6895 -141.8368,140.90841 -0.1508,1.09798 15.3531,95.75328 34.4532,210.34508 22.0205,132.1132 34.7223,210.6671 34.7135,214.6848 -0.056,25.839 -18.1764,48.2277 -43.9346,54.2848 -8.1777,1.9231 -21.938,1.2928 -29.6707,-1.359 -3.1078,-1.0658 -90.0058,-46.5285 -193.10667,-101.0284 -166.38556,-87.9518 -187.72333,-98.9889 -189.81989,-98.185 -1.29915,0.498 -83.78397,43.9508 -183.29959,96.5616 -99.51563,52.6108 -183.99458,97.1934 -187.73103,99.0722 -13.03417,6.5543 -28.07171,8.0093 -41.48772,4.0142 z m 243.74809,-237.7841 c 94.80949,-49.9513 151.15799,-79.1244 154.90063,-80.1963 3.23539,-0.9266 9.28808,-1.8779 13.45042,-2.1139 15.57737,-0.8831 7.43889,-4.7623 172.6076,82.2726 82.2122,43.3213 150.08246,78.766 150.82256,78.766 0.7746,0 1.3457,-0.9043 1.3457,-2.1307 0,-1.172 -12.6562,-76.0945 -28.125,-166.4944 C 1014.0831,968.84325 1005,913.5826 1005,909.01512 c 0,-14.28679 5.5995,-27.30517 16.7744,-38.99957 3.9225,-4.10479 59.2334,-58.33857 122.9131,-120.51948 63.6797,-62.18092 115.9179,-113.66271 116.0849,-114.40398 0.1671,-0.74127 -0.2548,-1.54674 -0.9375,-1.78992 -0.6826,-0.24319 -76.124,-11.6402 -167.6474,-25.32668 -91.5234,-13.68649 -168.51562,-25.55741 -171.09375,-26.37983 -8.17655,-2.60834 -16.56384,-7.91368 -23.28498,-14.7288 l -6.4751,-6.56568 -44.53799,-89.60371 C 822.2998,421.41542 788.20225,352.72266 771.02335,318.04687 753.84445,283.37109 739.32131,255 738.7497,255 c -0.76042,0 -114.70079,227.40858 -148.69539,296.7746 -7.9196,16.15995 -21.76742,27.22538 -38.74456,30.95977 -3.38443,0.74445 -79.55975,12.32675 -169.2785,25.73844 -89.71875,13.41168 -163.86328,24.61408 -164.76563,24.89421 -0.90234,0.28014 -1.64062,0.82007 -1.64062,1.19987 0,0.37979 50.73047,50.30697 112.73437,110.94927 62.00391,60.64231 117.37555,114.83572 123.04808,120.4298 7.82867,7.72039 11.16681,11.79451 13.85438,16.90896 4.18548,7.965 7.23938,19.12331 7.23512,26.43567 -0.002,2.88236 -12.85006,80.29963 -28.55196,172.03841 -15.70191,91.7388 -28.34327,167.1305 -28.09193,167.5372 0.25135,0.4066 1.08585,0.4981 1.85446,0.2031 0.76861,-0.2949 68.45561,-35.8664 150.41557,-79.0477 z"
       id="path4144"
       inkscape:connector-curvature="0" />
    <path
       style="fill:#2e2e2e"
       d="m 331.16936,1409.0179 c -12.74283,-2.2725 -22.85813,-7.7034 -31.64028,-16.9876 -9.53641,-10.0817 -15.40549,-24.5276 -15.45031,-38.0288 -0.009,-2.6976 15.5931,-98.5707 34.67123,-213.0513 19.07812,-114.4807 34.6875,-209.32483 34.6875,-210.7648 0,-2.24021 -20.379,-22.63959 -141.18248,-141.32364 C 134.60466,712.57372 65.940341,645.09375 59.66766,638.90625 c -16.577416,-16.3523 -21.603236,-26.82119 -21.603236,-45 0,-21.54283 10.835678,-39.54712 29.869345,-49.63014 8.953843,-4.74328 -16.615042,-0.71069 327.691231,-51.6817 57.49219,-8.51113 105.17116,-15.66766 105.95328,-15.90339 1.7584,-0.53 -4.84717,12.74578 100.42494,-201.83269 C 650.4,176.2101 691.21502,93.733539 692.70326,91.577082 c 5.02678,-7.283783 13.60822,-14.520696 21.85721,-18.432661 20.89782,-9.91049 40.78232,-7.960818 58.5783,5.743593 7.40393,5.701658 11.87361,12.263258 21.11391,30.995766 4.65214,9.43111 46.83289,95.40528 93.73499,191.05372 46.9021,95.64844 85.88077,174.37662 86.61924,174.95152 0.73847,0.57491 3.13293,1.29705 5.32106,1.60476 2.18803,0.30772 58.18923,8.60605 124.44703,18.44077 66.2578,9.8347 158.8373,23.57022 205.7323,30.52336 46.895,6.95314 87.2093,13.21991 89.5874,13.92614 13.4873,4.00528 27.7012,15.79642 33.5227,27.80868 8.9134,18.3924 7.9818,39.70819 -2.4403,55.83327 -2.563,3.96538 -47.9475,49.14902 -155.6351,154.94609 -83.6093,82.14159 -152.017,149.51886 -152.017,149.72726 0,0.2084 15.6677,94.13705 34.8172,208.73045 37.3112,223.2765 36.6899,218.9582 33.2188,230.8515 -3.8813,13.2988 -12.4778,25.2096 -23.3373,32.3351 -13.5081,8.8632 -32.7618,11.428 -47.5112,6.329 -3.9803,-1.376 -87.9325,-45.2029 -193.48004,-101.0055 -102.54683,-54.216 -187.13344,-98.6262 -187.97023,-98.6892 -0.8368,-0.063 -85.68072,44.3696 -188.54206,98.7392 -102.86134,54.3697 -189.79301,99.7866 -193.1815,100.9266 -7.1582,2.4082 -18.9143,3.3595 -25.96931,2.1014 z m 236.11533,-238.0996 c 82.18873,-43.3231 151.75437,-79.4989 154.59031,-80.3906 7.84523,-2.467 27.74033,-2.2574 34.72408,0.3659 2.85607,1.0727 72.15968,37.2403 154.00802,80.3722 81.84831,43.1319 149.4374,78.4217 150.1978,78.4217 0.7604,0 1.3826,-0.537 1.3826,-1.1933 0,-0.6563 -12.622,-75.0118 -28.0489,-165.2343 -15.4269,-90.22268 -28.3243,-166.36146 -28.6608,-169.1974 -1.1474,-9.66583 2.2734,-23.701 8.1831,-33.57604 2.2316,-3.72889 36.1787,-37.51473 125.636,-125.03913 67.4179,-65.96131 122.5781,-120.30247 122.5781,-120.75815 0,-0.45569 -0.4272,-1.09257 -0.9494,-1.4153 -1.1022,-0.68121 -10.7687,-2.15279 -190.7693,-29.04181 -74.25005,-11.09168 -138.37505,-20.82845 -142.50005,-21.63725 -14.01383,-2.74776 -27.58129,-11.42875 -35.22476,-22.53815 -1.51051,-2.19545 -36.33395,-71.62586 -77.38543,-154.28982 -41.05149,-82.66395 -75.11383,-150.59694 -75.6941,-150.96219 -0.58027,-0.36525 -1.34859,-0.36525 -1.70736,0 -0.35878,0.36525 -34.01999,67.74221 -74.80269,149.72659 -40.7827,81.98437 -75.61314,151.44536 -77.40097,154.35775 -1.78783,2.91239 -5.54406,7.39136 -8.34718,9.95324 -9.25476,8.45834 -17.73127,12.27391 -32.8154,14.77138 -7.79565,1.29073 -327.60354,49.19888 -328.42401,49.19888 -2.6762,0 16.60996,19.38942 110.8644,111.45803 135.9159,132.76391 134.0677,130.9041 138.45317,139.32322 4.48746,8.61494 6.39058,16.32179 6.39058,25.87925 0,5.94455 -6.67956,46.82603 -28.125,172.1357 -15.46875,90.3868 -28.125,165.1809 -28.125,166.2091 0,1.0284 0.57108,1.8697 1.26907,1.8697 0.69798,0 68.51439,-35.4461 150.70312,-78.7692 z"
       id="path4142"
       inkscape:connector-curvature="0" />
    <path
       style="fill:#010101"
       d="m 326.4391,1407.2302 c -23.66864,-6.4203 -39.78599,-26.0901 -41.13286,-50.1989 -0.43959,-7.8687 1.87295,-22.4853 34.29869,-216.789 19.12354,-114.5934 34.77007,-209.34417 34.77007,-210.55737 0,-1.69257 -33.53809,-35.15099 -144.14063,-143.79816 C 130.95703,708.01097 61.836562,639.90785 56.633333,634.54648 46.024725,623.61546 42.170324,616.97746 39.69826,605.38115 c -2.878183,-13.50141 0.10511,-29.72924 7.631002,-41.50937 6.185655,-9.68229 18.228481,-19.01217 28.854786,-22.35456 2.8107,-0.88407 99.913912,-15.66784 215.784892,-32.8528 115.871,-17.18497 211.03549,-31.6139 211.47665,-32.06428 0.44116,-0.45039 40.42783,-81.60795 88.85927,-180.35014 C 704.53644,67.43186 691.58618,92.871889 700.20097,84.294296 c 8.22083,-8.185348 15.10014,-11.978387 27.27216,-15.037027 21.5279,-5.409628 44.15163,3.706539 56.64168,22.823609 1.77887,2.722703 44.88551,89.958182 95.79255,193.856622 50.90704,103.89844 93.09736,189.4929 93.75633,190.20993 0.82594,0.89867 66.65361,11.01209 211.89391,32.55424 132.9042,19.71246 212.8049,31.95245 216.4083,33.15158 15.704,5.22595 29.3791,19.53168 34.5234,36.1155 2.8311,9.12647 2.8272,22.77279 -0.01,31.875 -4.4899,14.40858 2.6399,6.97876 -160.7827,167.55025 -83.4055,81.9504 -152.018,149.70645 -152.4724,150.56899 -0.5457,1.03624 11.0584,72.80931 34.2058,211.56831 19.2675,115.5 35.0328,212.1093 35.0341,214.6875 0.01,19.594 -12.6207,40.058 -30.0083,48.6174 -13.6131,6.7012 -29.1666,7.8604 -42.7599,3.1865 -3.5285,-1.2131 -90.3242,-46.588 -192.87951,-100.8329 -102.55513,-54.245 -187.23669,-98.6273 -188.18115,-98.6273 -0.94445,0 -85.94164,44.5204 -188.88265,98.9341 -102.941,54.4138 -189.75162,99.8083 -192.9125,100.8768 -8.46668,2.8619 -21.64114,3.2331 -30.40169,0.8568 z M 566.25,1172.2685 c 82.67365,-43.5837 151.713,-79.412 155.625,-80.7624 9.53467,-3.2911 22.74088,-3.4886 32.34375,-0.4836 4.12393,1.2904 62.1054,31.3255 156.03527,80.828 82.21001,43.3259 150.00158,78.7745 150.64778,78.7745 0.6463,0 1.4242,-0.403 1.7286,-0.8956 0.3044,-0.4927 -12.368,-76.3247 -28.1608,-168.5156 -31.4781,-183.75371 -30.1472,-174.07409 -25.8191,-187.7763 4.3581,-13.79688 0.1062,-9.33848 131.1791,-137.54933 67.1953,-65.72805 122.4115,-120.12625 122.7026,-120.88487 0.2911,-0.75864 0.1568,-1.72811 -0.2983,-2.1544 -0.4552,-0.42628 -76.1323,-12.01955 -168.1714,-25.76283 -97.81631,-14.60594 -169.69856,-25.75352 -173.01148,-26.83083 -8.48713,-2.75988 -16.85034,-8.13343 -23.17191,-14.8885 -5.4271,-5.79924 -8.52243,-11.80378 -77.80793,-150.9375 -39.6858,-79.69389 -73.74763,-148.31465 -75.69297,-152.49058 -3.87436,-8.31683 -5.79588,-9.93907 -7.90541,-6.67414 -0.73889,1.14358 -34.53918,68.94642 -75.11177,150.67298 -40.5726,81.72656 -75.23283,150.80311 -77.02275,153.50343 -6.31597,9.52843 -17.06451,17.43108 -28.40078,20.88111 -3.35156,1.02 -80.97656,13.04463 -172.5,26.7214 -91.52344,13.67677 -166.96318,25.06796 -167.64388,25.31376 -0.68069,0.24581 -1.10257,1.25268 -0.9375,2.23751 0.16507,0.98481 55.08194,55.33688 122.03748,120.78237 127.49833,124.62286 127.465,124.58825 131.21701,136.20568 2.34587,7.26359 3.7188,17.3787 3.03459,22.35759 -0.32809,2.3875 -13.26552,78.52509 -28.74985,169.19465 -15.48432,90.6696 -27.92571,165.4469 -27.64751,166.1719 0.2782,0.7249 1.04639,1.3133 1.70712,1.3075 0.66071,-0.01 68.06848,-35.2614 149.79504,-78.3459 z"
       id="path4140"
       inkscape:connector-curvature="0" />
  </g>
</svg>
