<?xml version="1.0" standalone="no"?>
<!DOCTYPE svg PUBLIC "-//W3C//DTD SVG 1.1//EN" "http://www.w3.org/Graphics/SVG/1.1/DTD/svg11.dtd" >
<svg>
<metadata>
Created by FontForge 20120731 at Fri Nov 18 13:06:56 2016
 By root
Copyright (c) 2011 by Valery Golyzhenkov, Letterhead Studio. All rights reserved.
</metadata>
<defs>
<font id="SVYAZNOYRF_LIGHT" horiz-adv-x="200" >
  <font-face 
    font-family="SVYAZNOYRF_LIGHT"
    font-weight="300"
    font-stretch="normal"
    units-per-em="1000"
    panose-1="2 0 0 0 0 0 0 0 0 0"
    ascent="750"
    descent="-250"
    x-height="484"
    cap-height="644"
    bbox="-18 -177 921 792"
    underline-thickness="50"
    underline-position="-50"
    unicode-range="U+0020-2265"
  />
<missing-glyph 
 />
    <glyph glyph-name="r_u_b_period" unicode="&#x440;&#x443;&#x431;&#x2e;" horiz-adv-x="574" 
d="M157 0h-35v167h-85v28h85v58h-85v30h85v319q92 20 170 20q232 0 232 -181q0 -188 -226 -188h-141v-58h262v-28h-262v-167zM157 283h141q99 0 144 38.5t45 118.5q0 152 -194 152q-68 0 -136 -13v-296z" />
    <glyph glyph-name=".notdef" 
 />
    <glyph glyph-name=".null" horiz-adv-x="0" 
 />
    <glyph glyph-name="nonmarkingreturn" horiz-adv-x="333" 
 />
    <glyph glyph-name="space" unicode=" " horiz-adv-x="225" 
 />
    <glyph glyph-name="exclam" unicode="!" horiz-adv-x="272" 
d="M154 640l-7 -504h-23l-7 504h37zM174 31q0 -16 -10.5 -27.5t-27.5 -11.5t-27.5 11.5t-10.5 27.5q0 17 10 27.5t28 10.5q17 0 27.5 -10.5t10.5 -27.5z" />
    <glyph glyph-name="quotedbl" unicode="&#x22;" horiz-adv-x="271" 
d="M58 670h40l-11 -193h-17zM174 670h39l-11 -193h-17z" />
    <glyph glyph-name="numbersign" unicode="#" horiz-adv-x="621" 
d="M172 0l29 184h-121v28h125l29 182h-114v27h118l31 196h30l-31 -196h128l31 196h30l-31 -196h115v-27h-119l-29 -182h107v-28h-111l-29 -184h-30l29 184h-128l-29 -184h-30zM264 394l-29 -182h128l29 182h-128z" />
    <glyph glyph-name="dollar" unicode="$" horiz-adv-x="462" 
d="M55 36q59 -14 125 -14l26 301q-34 14 -56 26.5t-46 32t-35.5 46.5t-11.5 61q0 72 46 113t132 46l6 69h30l-6 -68q59 -1 115 -13v-29q-70 12 -118 12l-24 -273q43 -18 63 -28.5t50 -31.5t43 -48.5t13 -63.5q0 -81 -52 -128.5t-147 -52.5l-6 -68h-30l6 67q-61 1 -123 14v30
zM370 172q0 52 -34 81t-101 57l-25 -287q69 5 114.5 41t45.5 108zM94 489q0 -48 30 -77t85 -54l23 260q-138 -10 -138 -129z" />
    <glyph glyph-name="percent" unicode="%" horiz-adv-x="761" 
d="M571 -6q-60 0 -97.5 43.5t-37.5 136.5t37.5 136.5t97.5 43.5t97.5 -43.5t37.5 -136.5t-37.5 -136.5t-97.5 -43.5zM211 -13h-35l369 643h35zM571 323q-98 0 -98 -149t98 -149t98 149t-98 149zM188 268q-60 0 -97.5 43.5t-37.5 136.5t37.5 136.5t97.5 43.5t97.5 -43.5
t37.5 -136.5t-37.5 -136.5t-97.5 -43.5zM188 597q-98 0 -98 -149t98 -149t98 149t-98 149z" />
    <glyph glyph-name="ampersand" unicode="&#x26;" horiz-adv-x="586" 
d="M40 158q0 112 138 190q-68 83 -68 164q0 58 40.5 99t107.5 41q58 0 96.5 -35.5t38.5 -89.5q0 -59 -43 -103t-123 -84l201 -229q75 93 80 216h35q-7 -139 -94 -240l77 -87h-50l-52 60q-80 -75 -193 -75q-87 0 -139 50.5t-52 122.5zM236 15q94 0 168 69l-207 241
q-55 -29 -86.5 -74t-31.5 -94q0 -62 44 -102t113 -40zM147 512q0 -75 60 -149q76 39 113 75.5t37 88.5q0 39 -25.5 68t-73.5 29q-51 0 -81 -32t-30 -80z" />
    <glyph glyph-name="quotesingle" unicode="'" horiz-adv-x="154" 
d="M58 670h40l-11 -193h-17z" />
    <glyph glyph-name="parenleft" unicode="(" horiz-adv-x="210" 
d="M200 -172h-27q-57 79 -92.5 196t-35.5 235q0 116 36 233t94 198h25q-51 -85 -85 -201.5t-34 -229.5q0 -114 34 -231t85 -200z" />
    <glyph glyph-name="parenright" unicode=")" horiz-adv-x="210" 
d="M37 -172h-27q51 83 85 200t34 231q0 113 -34 229.5t-85 201.5h25q58 -81 94 -198t36 -233q0 -118 -35.5 -235t-92.5 -196z" />
    <glyph glyph-name="asterisk" unicode="*" horiz-adv-x="402" 
d="M182 321l11 160l-131 -87l-17 29l135 71l-135 70l17 29l131 -86l-11 160h34l-7 -160l131 86l17 -29l-136 -70l136 -71l-17 -29l-131 87l7 -160h-34z" />
    <glyph glyph-name="plus" unicode="+" horiz-adv-x="547" 
d="M512 235h-225v-225h-27v225h-225v26h225v225h27v-225h225v-26z" />
    <glyph glyph-name="comma" unicode="," horiz-adv-x="168" 
d="M123 29l-46 -145h-18l19 105q-33 8 -33 42q0 16 12 27t28 11t27 -11t11 -29z" />
    <glyph glyph-name="hyphen" unicode="-" horiz-adv-x="313" 
d="M278 246h-243v28h243v-28z" />
    <glyph glyph-name="period" unicode="." horiz-adv-x="186" 
d="M131 31q0 -16 -10.5 -27.5t-27.5 -11.5t-27.5 11.5t-10.5 27.5q0 17 10 27.5t28 10.5q17 0 27.5 -10.5t10.5 -27.5z" />
    <glyph glyph-name="slash" unicode="/" horiz-adv-x="456" 
d="M67 -167h-32l355 837h31z" />
    <glyph glyph-name="zero" unicode="0" horiz-adv-x="496" 
d="M414 307q0 135 -43 211.5t-123 76.5q-79 0 -122 -76t-43 -212t43 -212t122 -76q80 0 123 76.5t43 211.5zM45 307q0 155 53.5 237t149.5 82t149.5 -82t53.5 -237t-53.5 -237t-149.5 -82t-149.5 82t-53.5 237z" />
    <glyph glyph-name="one" unicode="1" horiz-adv-x="508" 
d="M294 0h-35v579l-116 -38v29l124 48h27v-618z" />
    <glyph glyph-name="two" unicode="2" horiz-adv-x="498" 
d="M429 32v-32h-360v32q134 116 223.5 233t89.5 209q0 66 -40.5 94.5t-95.5 28.5q-67 0 -142 -31v32q76 30 143 30q68 0 120 -37.5t52 -115.5q0 -54 -29 -117.5t-77.5 -123t-97.5 -109t-102 -93.5h316z" />
    <glyph glyph-name="three" unicode="3" horiz-adv-x="498" 
d="M403 495q0 -52 -39 -96.5t-106 -60.5q71 -8 119.5 -55.5t48.5 -114.5q0 -74 -55.5 -124.5t-157.5 -50.5q-65 0 -145 34v33q76 -36 144 -36q89 0 133 45t44 99q0 76 -60 114.5t-138 38.5h-25v30h25q35 0 73 13t70 46.5t32 80.5q0 42 -35 75t-93 33q-55 0 -123 -34v32
q62 33 123 33q81 0 123 -39.5t42 -95.5z" />
    <glyph glyph-name="four" unicode="4" horiz-adv-x="498" 
d="M357 628l-272 -425h246v279h35v-279h93v-30h-93v-173h-35v173h-283v30l273 425h36z" />
    <glyph glyph-name="five" unicode="5" horiz-adv-x="498" 
d="M66 15v34q62 -25 126 -25q95 0 149.5 53.5t54.5 125.5q0 65 -42 110.5t-120 45.5q-71 0 -128 -46h-20l53 304h254v-30h-227l-40 -229q57 32 119 32q79 0 133.5 -50.5t54.5 -136.5q0 -88 -62 -149t-179 -61q-62 0 -126 22z" />
    <glyph glyph-name="six" unicode="6" horiz-adv-x="496" 
d="M384 594q-134 0 -213.5 -80.5t-87.5 -213.5q28 43 76.5 68.5t105.5 25.5q85 0 135.5 -53.5t50.5 -141.5q0 -86 -54.5 -148.5t-143.5 -62.5q-104 0 -156 74.5t-52 198.5q0 167 91.5 266t247.5 99v-32zM253 19q70 0 115.5 49.5t45.5 130.5q0 76 -47 120t-115 44
q-47 0 -93.5 -25.5t-75.5 -69.5v-23q0 -98 45.5 -162t124.5 -64z" />
    <glyph glyph-name="seven" unicode="7" horiz-adv-x="498" 
d="M443 606l-262 -606h-40l261 587h-346v30h387v-11z" />
    <glyph glyph-name="eight" unicode="8" horiz-adv-x="498" 
d="M454 159q0 -76 -59 -123.5t-147 -47.5q-94 0 -148.5 47t-54.5 119q0 53 38 99.5t111 69.5q-124 49 -124 150q0 68 51.5 111t130.5 43q83 0 130 -42t47 -100q0 -107 -133 -159q71 -20 114.5 -66t43.5 -101zM82 160q0 -64 45 -102.5t123 -38.5q73 0 120 38t47 95
q0 62 -44.5 96.5t-133.5 59.5l-9 2q-67 -20 -107.5 -61t-40.5 -89zM392 476q0 49 -35 85t-104 36q-68 0 -106.5 -34t-38.5 -86t35.5 -85t111.5 -56q60 19 98.5 54.5t38.5 85.5z" />
    <glyph glyph-name="nine" unicode="9" horiz-adv-x="496" 
d="M112 23q134 0 213.5 81t87.5 215q-28 -44 -76.5 -69.5t-105.5 -25.5q-85 0 -135.5 53.5t-50.5 141.5q0 86 54.5 148.5t143.5 62.5q104 0 156 -74.5t52 -198.5q0 -167 -91.5 -266t-247.5 -99v31zM243 599q-70 0 -115 -49.5t-45 -130.5q0 -76 46.5 -120t114.5 -44
q47 0 94 25.5t76 69.5v23q0 98 -46 162t-125 64z" />
    <glyph glyph-name="colon" unicode=":" horiz-adv-x="196" 
d="M136 31q0 -16 -10.5 -27.5t-27.5 -11.5t-27.5 11.5t-10.5 27.5q0 17 10 27.5t28 10.5q17 0 27.5 -10.5t10.5 -27.5zM136 445q0 -16 -10.5 -27.5t-27.5 -11.5t-27.5 11.5t-10.5 27.5q0 17 10 27.5t28 10.5q17 0 27.5 -10.5t10.5 -27.5z" />
    <glyph glyph-name="semicolon" unicode=";" horiz-adv-x="198" 
d="M138 29l-46 -145h-18l19 105q-33 8 -33 42q0 16 12 27t28 11t27 -11t11 -29zM138 445q0 -16 -10.5 -27.5t-27.5 -11.5t-27.5 11.5t-10.5 27.5q0 17 10 27.5t28 10.5q17 0 27.5 -10.5t10.5 -27.5z" />
    <glyph glyph-name="less" unicode="&#x3c;" horiz-adv-x="366" 
d="M341 439l-270 -201l270 -201l-16 -21l-300 222l300 222z" />
    <glyph glyph-name="equal" unicode="=" horiz-adv-x="547" 
d="M512 171h-477v26h477v-26zM512 306h-477v26h477v-26z" />
    <glyph glyph-name="greater" unicode="&#x3e;" horiz-adv-x="366" 
d="M25 37l269 201l-269 201l16 21l300 -222l-300 -222z" />
    <glyph glyph-name="question" unicode="?" horiz-adv-x="402" 
d="M20 600v30q74 19 140 19q85 0 136 -37.5t51 -120.5q0 -40 -19 -74t-45.5 -57.5t-53.5 -46t-46 -50t-19 -58.5v-70h-31v70q0 34 18.5 64.5t44.5 54t52 47.5t44.5 54.5t18.5 64.5q0 129 -157 129q-60 0 -134 -19zM188 31q0 -16 -10.5 -27.5t-27.5 -11.5t-27.5 11.5
t-10.5 27.5q0 17 10 27.5t28 10.5q17 0 27.5 -10.5t10.5 -27.5z" />
    <glyph glyph-name="at" unicode="@" horiz-adv-x="819" 
d="M494 105q0 16 1 30q-56 -100 -148 -100q-53 0 -88.5 41t-35.5 120q0 102 61 176.5t138 74.5q37 0 68 -22t43 -67l12 76h39l-51 -297q-2 -12 -2 -22q0 -50 49 -50q60 0 105.5 63.5t45.5 166.5q0 131 -87.5 208t-221.5 77q-61 0 -119.5 -22.5t-107.5 -65t-79.5 -111.5
t-30.5 -154q0 -149 90.5 -234.5t249.5 -85.5q83 0 166 32v-26q-84 -32 -168 -32q-46 0 -92.5 8.5t-98 32.5t-90.5 61t-64.5 100.5t-25.5 143.5q0 157 103 268t267 111q151 0 246.5 -83.5t95.5 -228.5q0 -120 -59.5 -189.5t-136.5 -69.5q-32 0 -53 20.5t-21 49.5zM354 68
q71 0 118 71t47 148q0 62 -26.5 94.5t-69.5 32.5q-60 0 -111.5 -63.5t-51.5 -152.5q0 -70 27.5 -100t66.5 -30z" />
    <glyph glyph-name="A" unicode="A" horiz-adv-x="583" 
d="M517 0l-63 172h-328l-63 -172h-38l240 641h53l240 -641h-41zM291 616l-153 -413h304z" />
    <glyph glyph-name="B" unicode="B" horiz-adv-x="572" 
d="M491 484q0 -48 -28 -89.5t-81 -61.5q63 -16 99 -57t36 -100q0 -54 -20.5 -92t-56 -58t-75 -28.5t-87.5 -8.5q-84 0 -178 23v620q88 21 170 21q221 0 221 -169zM135 311v-274q73 -17 141 -17q89 0 146 35t57 116q0 140 -189 140h-155zM455 482q0 75 -54.5 107.5
t-137.5 32.5q-59 0 -128 -15v-264h154q79 0 122.5 40t43.5 99z" />
    <glyph glyph-name="C" unicode="C" horiz-adv-x="527" 
d="M366 649q68 0 126 -20v-32q-52 21 -126 21q-128 0 -206 -87.5t-78 -210.5q0 -125 78 -212.5t206 -87.5q74 0 126 21v-32q-58 -20 -126 -20q-145 0 -233 94t-88 237q0 141 88 235t233 94z" />
    <glyph glyph-name="D" unicode="D" horiz-adv-x="659" 
d="M100 3v626q77 18 167 18q166 0 256.5 -86t90.5 -236q0 -159 -92.5 -246.5t-272.5 -87.5q-91 0 -149 12zM135 602v-573q36 -7 114 -7q160 0 244.5 78t84.5 225q0 141 -81.5 216t-229.5 75q-74 0 -132 -14z" />
    <glyph glyph-name="E" unicode="E" horiz-adv-x="521" 
d="M471 36v-31q-78 -12 -179 -12q-111 0 -192 14v624q86 15 192 15q94 0 179 -13v-31q-89 13 -179 13q-78 0 -157 -9v-263h266v-31h-266v-280q73 -9 157 -9q101 0 179 13z" />
    <glyph glyph-name="F" unicode="F" horiz-adv-x="511" 
d="M100 0v631q86 15 192 15q94 0 179 -13v-31q-89 13 -179 13q-78 0 -157 -9v-263h266v-31h-266v-312h-35z" />
    <glyph glyph-name="G" unicode="G" horiz-adv-x="618" 
d="M363 618q-126 0 -203.5 -90.5t-77.5 -207.5q0 -133 74.5 -216.5t210.5 -83.5q81 0 141 22v251h-168v31h203v-302q-80 -33 -176 -33q-153 0 -237.5 89t-84.5 242q0 136 87.5 232.5t230.5 96.5q79 0 159 -30v-32q-78 31 -159 31z" />
    <glyph glyph-name="H" unicode="H" horiz-adv-x="632" 
d="M532 0h-35v314h-362v-314h-35v641h35v-296h362v296h35v-641z" />
    <glyph glyph-name="I" unicode="I" horiz-adv-x="235" 
d="M135 641v-641h-35v641h35z" />
    <glyph glyph-name="J" unicode="J" horiz-adv-x="328" 
d="M101 23q102 0 102 137v481h35v-481q0 -167 -137 -167q-50 0 -76 7v29q30 -6 76 -6z" />
    <glyph glyph-name="K" unicode="K" horiz-adv-x="537" 
d="M517 0h-50l-325 319h-7v-319h-35v640h35v-298h6l297 298h45l-307 -306z" />
    <glyph glyph-name="L" unicode="L" horiz-adv-x="501" 
d="M100 6v635h35v-610q88 -9 157 -9q101 0 179 13v-31q-85 -13 -179 -13q-106 0 -192 15z" />
    <glyph glyph-name="M" unicode="M" horiz-adv-x="778" 
d="M395 132h-11l-224 422l-47 -554h-36l57 650h12l244 -462l245 462h10l56 -650h-36l-47 554z" />
    <glyph glyph-name="N" unicode="N" horiz-adv-x="654" 
d="M541 -12l-407 573v-561h-35v651h12l409 -576v566h35v-653h-14z" />
    <glyph glyph-name="O" unicode="O" horiz-adv-x="683" 
d="M638 320q0 -140 -82 -235.5t-214 -95.5q-133 0 -215 95t-82 236q0 138 82.5 233.5t214.5 95.5t214 -96t82 -233zM601 320q0 126 -71.5 212t-187.5 86q-117 0 -188.5 -86t-71.5 -212q0 -127 71.5 -213.5t188.5 -86.5q116 0 187.5 86.5t71.5 213.5z" />
    <glyph glyph-name="P" unicode="P" horiz-adv-x="549" 
d="M280 651q118 0 173.5 -55t55.5 -144t-55.5 -144t-173.5 -55h-145v-253h-35v635q90 16 180 16zM280 621q-75 0 -145 -11v-327h145q192 0 192 169q0 77 -45 123t-147 46z" />
    <glyph glyph-name="Q" unicode="Q" horiz-adv-x="686" 
d="M638 320q0 -131 -73 -224.5t-193 -104.5l255 -90v-38l-322 128q-117 14 -188.5 107.5t-71.5 221.5q0 138 82.5 233.5t214.5 95.5t214 -96t82 -233zM601 320q0 126 -71.5 212t-187.5 86q-117 0 -188.5 -86t-71.5 -212q0 -127 71.5 -213.5t188.5 -86.5q116 0 187.5 86.5
t71.5 213.5z" />
    <glyph glyph-name="R" unicode="R" horiz-adv-x="575" 
d="M481 0l-149 296q-8 -1 -27 -1h-170v-295h-35v637q100 16 173 16q235 0 235 -182q0 -63 -34.5 -108.5t-104.5 -61.5l151 -301h-39zM135 325h170q86 0 126 40.5t40 105.5q0 85 -51.5 118.5t-142.5 33.5q-54 0 -142 -11v-287z" />
    <glyph glyph-name="S" unicode="S" horiz-adv-x="462" 
d="M55 36q63 -14 130 -14q77 0 131 36.5t54 115.5q0 33 -17.5 58t-45 41.5t-60.5 30.5t-66.5 29.5t-61 34.5t-45 50t-17.5 71q0 78 53 119t151 41q54 0 119 -13v-29q-70 12 -119 12q-167 0 -167 -130q0 -35 17.5 -61t45 -42.5t60.5 -30.5t66.5 -29t61 -33.5t45 -48.5
t17.5 -70q0 -85 -58 -134t-164 -49q-67 0 -130 14v31z" />
    <glyph glyph-name="T" unicode="T" horiz-adv-x="531" 
d="M506 631v-32q-98 16 -223 17v-616h-35v616q-113 0 -223 -17v31q127 17 240 17q132 0 241 -16z" />
    <glyph glyph-name="U" unicode="U" horiz-adv-x="641" 
d="M511 209v432h35v-431q0 -108 -59 -164.5t-166 -56.5t-166.5 56.5t-59.5 164.5v431h35v-432q0 -97 56.5 -143.5t134.5 -46.5t134 46t56 144z" />
    <glyph glyph-name="V" unicode="V" horiz-adv-x="585" 
d="M555 641l-235 -641h-55l-235 641h38l225 -620l224 620h38z" />
    <glyph glyph-name="W" unicode="W" horiz-adv-x="881" 
d="M608 0l-169 612l-171 -612h-52l-186 641h39l174 -616l170 616h55l169 -616l177 616h37l-186 -641h-57z" />
    <glyph glyph-name="X" unicode="X" horiz-adv-x="556" 
d="M36 0l223 334l-203 307h40l183 -277l186 277h37l-204 -306l223 -335h-40l-203 305l-203 -305h-39z" />
    <glyph glyph-name="Y" unicode="Y" horiz-adv-x="528" 
d="M503 638l-221 -405v-233h-36v233l-221 405h38l201 -370l203 370h36z" />
    <glyph glyph-name="Z" unicode="Z" horiz-adv-x="494" 
d="M449 637v-9l-357 -601q78 -6 161 -6q103 0 194 11v-31q-86 -11 -197 -11q-114 0 -205 11v12l355 598q-80 5 -147 5q-103 0 -194 -11v31q93 11 199 11q114 0 191 -10z" />
    <glyph glyph-name="bracketleft" unicode="[" horiz-adv-x="230" 
d="M60 -167v861h130v-28h-95v-805h95v-28h-130z" />
    <glyph glyph-name="backslash" unicode="\" horiz-adv-x="424" 
d="M389 -167h-32l-322 837h32z" />
    <glyph glyph-name="bracketright" unicode="]" horiz-adv-x="230" 
d="M170 694v-861h-130v28h95v805h-95v28h130z" />
    <glyph glyph-name="asciicircum" unicode="^" horiz-adv-x="481" 
d="M393 451l-152 201l-154 -201h-32l186 251l185 -251h-33z" />
    <glyph glyph-name="underscore" unicode="_" horiz-adv-x="600" 
d="M15 -67v26h570v-26h-570z" />
    <glyph glyph-name="grave" unicode="`" horiz-adv-x="270" 
d="M134 668l74 -109h-16l-109 109h51z" />
    <glyph glyph-name="a" unicode="a" horiz-adv-x="495" 
d="M237 493q92 0 137.5 -35t45.5 -123v-322q-81 -22 -199 -22q-175 0 -175 137q0 59 47 100.5t141 41.5h153v65q0 67 -32 98.5t-118 31.5q-68 0 -143 -17v29q70 16 143 16zM387 35v206h-153q-77 0 -115.5 -34t-38.5 -79q0 -51 35.5 -80t105.5 -29q94 0 166 16z" />
    <glyph glyph-name="b" unicode="b" horiz-adv-x="548" 
d="M85 20v646h33v-191q52 15 129 15q115 0 183 -70t68 -178t-66 -179.5t-177 -71.5q-97 0 -170 29zM463 242q0 92 -58.5 156t-160.5 64q-67 0 -126 -17v-407q57 -19 128 -19q91 0 154 56.5t63 166.5z" />
    <glyph glyph-name="c" unicode="c" horiz-adv-x="491" 
d="M289 -11q-114 0 -176.5 71t-62.5 182q0 108 68 179.5t182 71.5q89 0 146 -21v-28q-62 21 -143 21q-102 0 -160.5 -65.5t-58.5 -157.5q0 -94 55 -159.5t155 -65.5q88 0 151 25v-27q-71 -26 -156 -26z" />
    <glyph glyph-name="d" unicode="d" horiz-adv-x="547" 
d="M462 669v-647q-78 -31 -163 -31q-115 0 -182 71t-67 180q0 108 68 179.5t182 71.5q76 0 129 -15v191h33zM84 242q0 -110 64.5 -166.5t162.5 -56.5q55 0 118 21v409q-55 16 -126 16q-102 0 -160.5 -65.5t-58.5 -157.5z" />
    <glyph glyph-name="e" unicode="e" horiz-adv-x="509" 
d="M455 54v-27q-100 -38 -172 -38q-103 0 -168 61.5t-65 193.5q0 112 58 179t159 67q85 0 138.5 -57t53.5 -162v-27h-375q0 -121 59 -174t147 -53q80 0 165 37zM267 462q-85 0 -130.5 -53t-51.5 -136h339q0 85 -43 137t-114 52z" />
    <glyph glyph-name="f" unicode="f" horiz-adv-x="302" 
d="M135 484h136v-29h-136v-455h-33v455h-77v29h77v50q0 71 25.5 105.5t82.5 34.5q27 0 62 -8v-27q-33 6 -58 6q-42 0 -60.5 -24t-18.5 -87v-50z" />
    <glyph glyph-name="g" unicode="g" horiz-adv-x="541" 
d="M285 -147q77 0 111 26t34 96v32q-52 -15 -129 -15q-114 0 -182 70t-68 178q0 109 67.5 180t186.5 71q85 0 158 -29v-488q0 -87 -43.5 -119t-130.5 -32q-86 0 -162 22v32q84 -24 158 -24zM85 240q0 -92 58.5 -156t160.5 -64q71 0 126 16v407q-60 20 -128 20
q-91 0 -154 -56.5t-63 -166.5z" />
    <glyph glyph-name="h" unicode="h" horiz-adv-x="528" 
d="M453 343v-343h-33v343q0 62 -40 91.5t-108 29.5q-72 0 -154 -18v-446h-33v666h33v-192q86 19 155 19q180 0 180 -150z" />
    <glyph glyph-name="i" unicode="i" horiz-adv-x="216" 
d="M108 645q12 0 21 -8.5t9 -22.5t-9 -22.5t-21 -8.5t-21 8.5t-9 22.5t9 22.5t21 8.5zM125 0h-33v484h33v-484z" />
    <glyph glyph-name="j" unicode="j" horiz-adv-x="225" 
d="M112 645q12 0 21 -8.5t9 -22.5t-9 -22.5t-21 -8.5t-21 8.5t-9 22.5t9 22.5t21 8.5zM129 484v-515q0 -72 -23 -106.5t-76 -34.5q-16 0 -38 5v29q28 -4 33 -4q41 0 56 28t15 83v515h33z" />
    <glyph glyph-name="k" unicode="k" horiz-adv-x="463" 
d="M399 0l-276 246h-5v-246h-33v666h33v-401h4l250 219h44l-259 -225l291 -259h-49z" />
    <glyph glyph-name="l" unicode="l" horiz-adv-x="203" 
d="M118 0h-33v666h33v-666z" />
    <glyph glyph-name="m" unicode="m" horiz-adv-x="806" 
d="M731 342v-342h-33v343q0 122 -152 122q-66 0 -146 -29q23 -32 23 -93v-343h-33v343q0 66 -38 94t-110 28q-60 0 -129 -21v-444h-33v465q80 29 169 29q79 0 128 -35q94 35 173 35q87 0 134 -35t47 -117z" />
    <glyph glyph-name="n" unicode="n" horiz-adv-x="526" 
d="M451 344v-344h-33v344q0 65 -46 92.5t-115 27.5q-75 0 -144 -15v-449h-33v473q111 20 177 20q194 0 194 -149z" />
    <glyph glyph-name="o" unicode="o" horiz-adv-x="563" 
d="M50 243q0 110 66 182t166 72q99 0 165 -71.5t66 -182.5t-66 -182.5t-165 -71.5q-100 0 -166 72t-66 182zM84 243q0 -89 56.5 -157.5t141.5 -68.5t141 68.5t56 157.5t-56 157.5t-141 68.5t-141.5 -68.5t-56.5 -157.5z" />
    <glyph glyph-name="p" unicode="p" horiz-adv-x="548" 
d="M85 -167v629q73 29 168 29q111 0 178 -71.5t67 -179.5t-68 -178t-183 -70q-77 0 -129 15v-174h-33zM463 240q0 110 -63 166.5t-154 56.5q-71 0 -128 -19v-408q55 -16 126 -16q102 0 160.5 64t58.5 156z" />
    <glyph glyph-name="q" unicode="q" horiz-adv-x="548" 
d="M463 462v-629h-33v174q-52 -15 -129 -15q-114 0 -182 70t-68 178q0 109 67 180t182 71q90 0 163 -29zM85 240q0 -92 58.5 -156t160.5 -64q71 0 126 16v408q-57 19 -128 19q-91 0 -154 -56.5t-63 -166.5z" />
    <glyph glyph-name="r" unicode="r" horiz-adv-x="329" 
d="M304 494v-32q-116 0 -191 -33v-429h-33v484h31v-34q85 44 193 44z" />
    <glyph glyph-name="s" unicode="s" horiz-adv-x="419" 
d="M369 124q0 -65 -47.5 -100t-130.5 -35q-76 0 -141 26v30q89 -27 141 -27q58 0 100.5 26.5t42.5 79.5q0 38 -28 61.5t-68 36.5t-79.5 27t-67.5 44.5t-28 77.5q0 54 39 88t122 34q51 0 111 -21v-28q-64 20 -114 20q-64 0 -93.5 -25.5t-29.5 -66.5q0 -40 28 -64.5t68 -37
t79.5 -26t67.5 -43.5t28 -77z" />
    <glyph glyph-name="t" unicode="t" horiz-adv-x="322" 
d="M107 132v323h-77v29h77v96l33 14v-110h137v-29h-137v-323q0 -63 18.5 -87t60.5 -24q25 0 58 6v-27q-35 -8 -62 -8q-57 0 -82.5 34.5t-25.5 105.5z" />
    <glyph glyph-name="u" unicode="u" horiz-adv-x="526" 
d="M75 140v344h33v-344q0 -65 46 -92.5t115 -27.5q75 0 144 15v449h33v-473q-111 -20 -177 -20q-194 0 -194 149z" />
    <glyph glyph-name="v" unicode="v" horiz-adv-x="513" 
d="M35 484h36l186 -456l186 456h35l-201 -484h-41z" />
    <glyph glyph-name="w" unicode="w" horiz-adv-x="710" 
d="M369 484l134 -447l140 447h32l-152 -484h-39l-129 426l-126 -426h-42l-152 484h33l141 -453l135 453h25z" />
    <glyph glyph-name="x" unicode="x" horiz-adv-x="475" 
d="M40 0l179 254l-161 230h38l142 -203l143 203h36l-161 -229l179 -255h-38l-160 228l-161 -228h-36z" />
    <glyph glyph-name="y" unicode="y" horiz-adv-x="490" 
d="M469 484l-217 -524q-30 -74 -60 -104.5t-80 -30.5q-38 0 -72 11v29q48 -11 69 -11q22 0 38 7t28.5 24.5t19.5 31t20 42.5l16 37l-201 488h36l184 -444l184 444h35z" />
    <glyph glyph-name="z" unicode="z" horiz-adv-x="450" 
d="M55 20l296 438q-41 5 -120 5q-89 0 -164 -13v29q69 13 163 13q78 0 165 -12v-11l-296 -439q53 -6 125 -6q104 0 160 12v-28q-71 -13 -163 -13q-99 0 -166 14v11z" />
    <glyph glyph-name="braceleft" unicode="{" horiz-adv-x="265" 
d="M150 421q0 -132 -90 -157q90 -25 90 -157q0 -26 -2.5 -72t-2.5 -64q0 -48 24 -79t71 -31v-28q-42 0 -70.5 15.5t-40 41t-15 44t-3.5 37.5q0 33 2 73t2 63q0 28 -2.5 47t-11 41t-27.5 35.5t-49 17.5v32q30 4 49 17.5t27.5 35.5t11 41t2.5 47q0 23 -2 63t-2 73
q0 19 3.5 37.5t15 44t40 41t70.5 15.5v-28q-47 0 -71 -31t-24 -79q0 -18 2.5 -64t2.5 -72z" />
    <glyph glyph-name="bar" unicode="|" horiz-adv-x="280" 
d="M155 -167h-30v833h30v-833z" />
    <glyph glyph-name="braceright" unicode="}" horiz-adv-x="265" 
d="M115 107q0 132 89 157q-89 25 -89 157q0 26 2.5 72t2.5 64q0 48 -24 79t-71 31v28q42 0 70.5 -15.5t40 -41t15 -44t3.5 -37.5q0 -33 -2 -73t-2 -63q0 -28 2.5 -47t11 -41t27.5 -35.5t49 -17.5v-32q-30 -4 -49 -17.5t-27.5 -35.5t-11 -41t-2.5 -47q0 -23 2 -63t2 -73
q0 -19 -3.5 -37.5t-15 -44t-40 -41t-70.5 -15.5v28q47 0 71 31t24 79q0 18 -2.5 64t-2.5 72z" />
    <glyph glyph-name="asciitilde" unicode="~" horiz-adv-x="468" 
d="M69 273l-17 18q51 47 102 47q30 0 83.5 -23t81.5 -23q40 0 80 33l17 -18q-51 -47 -102 -47q-30 0 -83.5 23t-81.5 23q-40 0 -80 -33z" />
    <glyph glyph-name="uni00A0" unicode="&#xa0;" 
 />
    <glyph glyph-name="sterling" unicode="&#xa3;" horiz-adv-x="574" 
d="M157 0h-35v167h-85v28h85v58h-85v30h85v319q92 20 170 20q232 0 232 -181q0 -188 -226 -188h-141v-58h262v-28h-262v-167zM157 283h141q99 0 144 38.5t45 118.5q0 152 -194 152q-68 0 -136 -13v-296z" />
    <glyph glyph-name="currency" unicode="&#xa4;" 
 />
    <glyph glyph-name="brokenbar" unicode="&#xa6;" horiz-adv-x="211" 
d="M90 172h31v-339h-31v339zM90 669h31v-339h-31v339z" />
    <glyph glyph-name="section" unicode="&#xa7;" horiz-adv-x="454" 
d="M75 -12v33q24 -24 63 -39t79 -15q50 0 82.5 27t32.5 83q0 30 -29.5 55t-72 43.5t-84.5 38t-71.5 49t-29.5 67.5q0 64 79 106q-38 35 -38 89q0 61 42.5 91.5t105.5 30.5q67 0 122 -31v-32q-50 32 -123 32q-48 0 -79.5 -21.5t-31.5 -68.5q0 -39 29.5 -66t72 -42.5t84.5 -31
t71.5 -44t29.5 -70.5q0 -71 -75 -114q34 -34 34 -81q0 -68 -43 -103t-107 -35q-82 0 -143 49zM83 337q0 -40 41.5 -69t106.5 -55t86 -41q23 20 39 46.5t16 45.5q0 34 -25.5 58.5t-58 36t-77.5 29t-70 34.5q-25 -19 -41.5 -43t-16.5 -42z" />
    <glyph glyph-name="copyright" unicode="&#xa9;" horiz-adv-x="900" 
d="M450 12q141 0 238.5 97.5t97.5 239.5t-97.5 240t-238.5 98t-238.5 -98t-97.5 -240t97.5 -239.5t238.5 -97.5zM454 143q-95 0 -147.5 59.5t-52.5 151.5q0 90 57 150t153 60q68 0 117 -17v-29q-49 17 -115 17q-80 0 -127.5 -53.5t-47.5 -127.5q0 -75 42.5 -128.5
t122.5 -53.5q68 0 124 19v-29q-54 -19 -126 -19zM450 -18q-154 0 -262 105t-108 262q0 152 109 260t261 108q153 0 261.5 -108t108.5 -260q0 -157 -107.5 -262t-262.5 -105z" />
    <glyph glyph-name="guillemotleft" unicode="&#xab;" horiz-adv-x="413" 
d="M97 201l126 -201h-32l-136 201l137 201h32zM231 201l127 -201h-32l-136 201l137 201h31z" />
    <glyph glyph-name="logicalnot" unicode="&#xac;" horiz-adv-x="585" 
d="M40 358h498v-225h-30v196h-468v29z" />
    <glyph glyph-name="uni00AD" unicode="&#xad;" 
 />
    <glyph glyph-name="registered" unicode="&#xae;" horiz-adv-x="900" 
d="M450 -18q-154 0 -262 105t-108 262q0 152 109 260t261 108q153 0 261.5 -108t108.5 -260q0 -157 -107.5 -262t-262.5 -105zM450 12q141 0 238.5 97.5t97.5 239.5t-97.5 240t-238.5 98t-238.5 -98t-97.5 -240t97.5 -239.5t238.5 -97.5zM604 438q0 -98 -96 -120l101 -172
h-39l-94 164h-126v-164h-34v397q58 17 120 17q72 0 120 -28.5t48 -93.5zM350 340h98q121 0 121 98q0 48 -37.5 70.5t-93.5 22.5q-40 0 -88 -11v-180z" />
    <glyph glyph-name="degree" unicode="&#xb0;" horiz-adv-x="316" 
d="M158 491q-48 0 -75.5 29t-27.5 71q0 43 28 71t75 28t75 -28t28 -71q0 -42 -27.5 -71t-75.5 -29zM158 667q-35 0 -55 -22t-20 -54q0 -33 20 -55t55 -22t55 22t20 55q0 32 -20 54t-55 22z" />
    <glyph glyph-name="plusminus" unicode="&#xb1;" horiz-adv-x="546" 
d="M511 281h-224v-172h-28v172h-224v26h224v173h28v-173h224v-26zM511 0h-476v26h476v-26z" />
    <glyph glyph-name="mu" unicode="&#xb5;" 
 />
    <glyph glyph-name="paragraph" unicode="&#xb6;" horiz-adv-x="454" 
d="M274 -167h-32v532h-28q-83 0 -121 45t-38 112q0 58 38 101t103 43h78v-833zM322 666h32v-833h-32v833z" />
    <glyph glyph-name="periodcentered" unicode="&#xb7;" 
 />
    <glyph glyph-name="guillemotright" unicode="&#xbb;" horiz-adv-x="412" 
d="M182 201l-127 201h31l136 -201l-136 -201h-31zM316 201l-127 201h32l136 -201l-136 -201h-31z" />
    <glyph glyph-name="multiply" unicode="&#xd7;" horiz-adv-x="532" 
d="M46 41l200 199l-201 201l21 21l201 -201l200 200l20 -20l-200 -200l200 -199l-21 -21l-200 199l-200 -199z" />
    <glyph glyph-name="divide" unicode="&#xf7;" horiz-adv-x="527" 
d="M311 422q0 -16 -10.5 -27.5t-27.5 -11.5t-27.5 11.5t-10.5 27.5q0 17 10 27.5t28 10.5q17 0 27.5 -10.5t10.5 -27.5zM311 76q0 -16 -10.5 -27.5t-27.5 -11.5t-27.5 11.5t-10.5 27.5q0 17 10 27.5t28 10.5q17 0 27.5 -10.5t10.5 -27.5zM512 235h-477v26h477v-26z" />
    <glyph glyph-name="afii10023" unicode="&#x401;" horiz-adv-x="521" 
d="M196 750q12 0 21 -8.5t9 -22.5t-9 -22.5t-21 -8.5t-21 8.5t-9 22.5t9 22.5t21 8.5zM364 750q12 0 21 -8.5t9 -22.5t-9 -22.5t-21 -8.5t-21 8.5t-9 22.5t9 22.5t21 8.5zM471 36v-31q-78 -12 -179 -12q-111 0 -192 14v624q86 15 192 15q94 0 179 -13v-31q-89 13 -179 13
q-78 0 -157 -9v-263h266v-31h-266v-280q73 -9 157 -9q101 0 179 13z" />
    <glyph glyph-name="afii10051" unicode="&#x402;" 
 />
    <glyph glyph-name="afii10052" unicode="&#x403;" horiz-adv-x="493" 
d="M230 674l75 118h52l-105 -118h-22zM100 0v631q86 15 192 15q94 0 179 -13v-31q-82 14 -179 14q-93 0 -157 -9v-607h-35z" />
    <glyph glyph-name="afii10053" unicode="&#x404;" horiz-adv-x="531" 
d="M393 342v-30h-305q2 -123 75.5 -207.5t198.5 -84.5q69 0 122 18v-32q-57 -17 -122 -17q-143 0 -227.5 95t-84.5 236q0 136 85 232.5t232 96.5q25 0 47.5 -2t33.5 -4.5t24 -6t14 -3.5v-32q-57 17 -119 17q-125 0 -199 -80.5t-80 -195.5h305z" />
    <glyph glyph-name="afii10054" unicode="&#x405;" horiz-adv-x="462" 
d="M55 36q63 -14 130 -14q77 0 131 36.5t54 115.5q0 33 -17.5 58t-45 41.5t-60.5 30.5t-66.5 29.5t-61 34.5t-45 50t-17.5 71q0 78 53 119t151 41q54 0 119 -13v-29q-70 12 -119 12q-167 0 -167 -130q0 -35 17.5 -61t45 -42.5t60.5 -30.5t66.5 -29t61 -33.5t45 -48.5
t17.5 -70q0 -85 -58 -134t-164 -49q-67 0 -130 14v31z" />
    <glyph glyph-name="afii10055" unicode="&#x406;" horiz-adv-x="235" 
d="M135 641v-641h-35v641h35z" />
    <glyph glyph-name="afii10056" unicode="&#x407;" horiz-adv-x="222" 
d="M129 641v-641h-35v641h35zM64 748q12 0 20.5 -8t8.5 -22t-8 -22t-20 -8q-13 0 -21.5 8t-8.5 22t8.5 22t20.5 8zM158 748q12 0 20.5 -8t8.5 -22t-8 -22t-20 -8q-13 0 -21.5 8t-8.5 22t8.5 22t20.5 8z" />
    <glyph glyph-name="afii10057" unicode="&#x408;" horiz-adv-x="338" 
d="M111 23q102 0 102 137v481h35v-481q0 -167 -137 -167q-50 0 -76 7v29q30 -6 76 -6z" />
    <glyph glyph-name="afii10058" unicode="&#x409;" 
 />
    <glyph glyph-name="afii10059" unicode="&#x40a;" 
 />
    <glyph glyph-name="afii10060" unicode="&#x40b;" 
 />
    <glyph glyph-name="afii10061" unicode="&#x40c;" 
 />
    <glyph glyph-name="afii10062" unicode="&#x40e;" 
 />
    <glyph glyph-name="afii10145" unicode="&#x40f;" 
 />
    <glyph glyph-name="afii10017" unicode="&#x410;" horiz-adv-x="593" 
d="M522 0l-63 172h-328l-63 -172h-38l240 641h53l240 -641h-41zM296 616l-153 -413h304z" />
    <glyph glyph-name="afii10018" unicode="&#x411;" horiz-adv-x="564" 
d="M135 607v-222h133q126 0 186 -53t60 -141q0 -90 -55.5 -147t-171.5 -57q-97 0 -187 16v628q87 15 189 15q95 0 179 -13v-29q-72 12 -179 12q-93 0 -154 -9zM476 191q0 163 -208 163h-133v-325q67 -11 152 -11q95 0 142 49.5t47 123.5z" />
    <glyph glyph-name="afii10019" unicode="&#x412;" horiz-adv-x="567" 
d="M491 484q0 -48 -28 -89.5t-81 -61.5q63 -16 99 -57t36 -100q0 -54 -20.5 -92t-56 -58t-75 -28.5t-87.5 -8.5q-84 0 -178 23v620q88 21 170 21q221 0 221 -169zM135 311v-274q73 -17 141 -17q89 0 146 35t57 116q0 140 -189 140h-155zM455 482q0 75 -54.5 107.5
t-137.5 32.5q-59 0 -128 -15v-264h154q79 0 122.5 40t43.5 99z" />
    <glyph glyph-name="afii10020" unicode="&#x413;" horiz-adv-x="493" 
d="M100 0v631q86 15 192 15q94 0 179 -13v-31q-82 14 -179 14q-93 0 -157 -9v-607h-35z" />
    <glyph glyph-name="afii10021" unicode="&#x414;" horiz-adv-x="607" 
d="M20 -130v167h55q61 133 77.5 232t16.5 292v72q79 13 166 13q79 0 178 -13v-596h67v-167h-30v138q-124 -11 -257 -11q-124 0 -243 11v-138h-30zM204 607v-45q0 -192 -17 -292.5t-76 -237.5q75 -5 181 -5q109 0 185 5v575q-74 9 -137 9q-64 0 -136 -9z" />
    <glyph glyph-name="afii10022" unicode="&#x415;" horiz-adv-x="521" 
d="M471 36v-31q-78 -12 -179 -12q-111 0 -192 14v624q86 15 192 15q94 0 179 -13v-31q-89 13 -179 13q-78 0 -157 -9v-263h266v-31h-266v-280q73 -9 157 -9q101 0 179 13z" />
    <glyph glyph-name="afii10024" unicode="&#x416;" horiz-adv-x="741" 
d="M352 0v319h-11l-279 -319h-45l293 333l-264 307h42l257 -298h7v298h37v-298h7l257 298h42l-264 -307l293 -333h-47l-277 319h-11v-319h-37z" />
    <glyph glyph-name="afii10025" unicode="&#x417;" horiz-adv-x="496" 
d="M210 319h-72v31h72q82 0 130 42.5t48 99.5q0 58 -45 92t-135 34q-57 0 -151 -39l-2 33q79 37 156 37q108 0 162 -41.5t54 -115.5q0 -56 -34 -95t-89 -59q70 -17 106 -62t36 -100q0 -74 -58.5 -129t-181.5 -55q-79 0 -161 40l4 34q84 -43 157 -43q88 0 145 39.5t57 113.5
q0 63 -46 103t-152 40z" />
    <glyph glyph-name="afii10026" unicode="&#x418;" horiz-adv-x="665" 
d="M135 641l-1 -573l416 582h15v-650h-35v573l-416 -582h-14v650h35z" />
    <glyph glyph-name="afii10027" unicode="&#x419;" horiz-adv-x="665" 
d="M453 695h-237v30h251zM135 641l-1 -573l416 582h15v-650h-35v573l-416 -582h-14v650h35z" />
    <glyph glyph-name="afii10028" unicode="&#x41a;" horiz-adv-x="537" 
d="M517 0h-50l-325 319h-7v-319h-35v640h35v-298h6l297 298h45l-307 -306z" />
    <glyph glyph-name="afii10029" unicode="&#x41b;" horiz-adv-x="631" 
d="M496 606q-72 9 -145 9t-139 -9v-98q0 -69 -0.5 -112.5t-2 -94t-4 -80.5t-7.5 -65t-12 -53.5t-17 -39.5t-23 -30.5t-30.5 -18.5t-38 -12t-47.5 -3v30q54 0 84 22.5t44 81.5q20 79 20 374v125q92 14 173 14q80 0 180 -14v-632h-35v606z" />
    <glyph glyph-name="afii10030" unicode="&#x41c;" horiz-adv-x="778" 
d="M395 132h-11l-224 422l-47 -554h-36l57 650h12l244 -462l245 462h10l56 -650h-36l-47 554z" />
    <glyph glyph-name="afii10031" unicode="&#x41d;" horiz-adv-x="632" 
d="M532 0h-35v314h-362v-314h-35v641h35v-296h362v296h35v-641z" />
    <glyph glyph-name="afii10032" unicode="&#x41e;" horiz-adv-x="693" 
d="M643 320q0 -140 -82 -235.5t-214 -95.5q-133 0 -215 95t-82 236q0 138 82.5 233.5t214.5 95.5t214 -96t82 -233zM606 320q0 126 -71.5 212t-187.5 86q-117 0 -188.5 -86t-71.5 -212q0 -127 71.5 -213.5t188.5 -86.5q116 0 187.5 86.5t71.5 213.5z" />
    <glyph glyph-name="afii10033" unicode="&#x41f;" horiz-adv-x="640" 
d="M500 0v601q-88 13 -176 13q-87 0 -189 -13v-601h-35v627q121 17 221 17t214 -17v-627h-35z" />
    <glyph glyph-name="afii10034" unicode="&#x420;" horiz-adv-x="554" 
d="M280 651q118 0 173.5 -55t55.5 -144t-55.5 -144t-173.5 -55h-145v-253h-35v635q90 16 180 16zM280 621q-75 0 -145 -11v-327h145q192 0 192 169q0 77 -45 123t-147 46z" />
    <glyph glyph-name="afii10035" unicode="&#x421;" horiz-adv-x="532" 
d="M371 649q68 0 126 -20v-32q-52 21 -126 21q-128 0 -206 -87.5t-78 -210.5q0 -125 78 -212.5t206 -87.5q74 0 126 21v-32q-58 -20 -126 -20q-145 0 -233 94t-88 237q0 141 88 235t233 94z" />
    <glyph glyph-name="afii10036" unicode="&#x422;" horiz-adv-x="531" 
d="M506 631v-32q-98 16 -223 17v-616h-35v616q-113 0 -223 -17v31q127 17 240 17q132 0 241 -16z" />
    <glyph glyph-name="afii10037" unicode="&#x423;" horiz-adv-x="492" 
d="M488 640l-222 -513q-31 -71 -62 -102.5t-82 -31.5q-37 0 -70 11v29q42 -11 69 -11q36 0 61.5 26.5t46.5 76.5l-217 515h38l198 -478l204 478h36z" />
    <glyph glyph-name="afii10038" unicode="&#x424;" horiz-adv-x="734" 
d="M349 691h36v-69q146 0 227.5 -78t81.5 -204q0 -125 -81.5 -202.5t-227.5 -77.5v-94h-36v94q-146 0 -227.5 77.5t-81.5 202.5q0 126 81.5 204t227.5 78v69zM349 91v500q-123 0 -197.5 -62.5t-74.5 -188.5q0 -125 75 -187t197 -62zM385 591v-500q122 1 197 62.5t75 186.5
q0 126 -75 188.5t-197 62.5z" />
    <glyph glyph-name="afii10039" unicode="&#x425;" horiz-adv-x="556" 
d="M36 0l223 334l-203 307h40l183 -277l186 277h37l-204 -306l223 -335h-40l-203 305l-203 -305h-39z" />
    <glyph glyph-name="afii10040" unicode="&#x426;" horiz-adv-x="647" 
d="M553 641v-604h59v-167h-30v141q-97 -16 -251 -16q-152 0 -231 14v632h35v-609q72 -8 199 -8q117 0 184 8v609h35z" />
    <glyph glyph-name="afii10041" unicode="&#x427;" horiz-adv-x="581" 
d="M446 320v321h35v-641h-35v290q-113 -18 -193 -18q-193 0 -193 157v212h35v-212q0 -126 163 -126q81 0 188 17z" />
    <glyph glyph-name="afii10042" unicode="&#x428;" horiz-adv-x="963" 
d="M464 23v618h35v-618q159 0 329 12v606h35v-632q-157 -15 -382 -15q-233 0 -381 15v632h35v-606q131 -10 329 -12z" />
    <glyph glyph-name="afii10043" unicode="&#x429;" horiz-adv-x="956" 
d="M464 23v618h35v-618q159 0 329 12v606h35v-602h58v-169h-30v142q-206 -18 -405 -18q-241 0 -386 15v632h35v-606q131 -10 329 -12z" />
    <glyph glyph-name="afii10044" unicode="&#x42a;" horiz-adv-x="656" 
d="M197 3v607q-31 4 -70 4q-60 0 -117 -10v29q54 10 116 10q58 0 106 -8v-241h143q125 0 184 -55t59 -144q0 -90 -60.5 -149t-183.5 -59q-87 0 -177 16zM581 195q0 169 -206 169h-143v-335q69 -11 142 -11q101 0 154 51.5t53 125.5z" />
    <glyph glyph-name="afii10045" unicode="&#x42b;" horiz-adv-x="765" 
d="M665 641v-641h-35v641h35zM100 3v638h35v-247h143q125 0 184 -55t59 -144q0 -90 -60.5 -149t-183.5 -59q-87 0 -177 16zM483 195q0 75 -48 121.5t-157 46.5h-143v-334q69 -11 142 -11q102 0 154 50.5t52 126.5z" />
    <glyph glyph-name="afii10046" unicode="&#x42c;" horiz-adv-x="561" 
d="M100 3v638h35v-247h143q125 0 184 -55t59 -144q0 -90 -60.5 -149t-183.5 -59q-87 0 -177 16zM483 195q0 75 -48 121.5t-157 46.5h-143v-334q69 -11 142 -11q102 0 154 50.5t52 126.5z" />
    <glyph glyph-name="afii10047" unicode="&#x42d;" horiz-adv-x="552" 
d="M48 590v31q68 28 150 28q130 0 217.5 -91.5t87.5 -237.5q0 -140 -85.5 -235.5t-227.5 -95.5q-71 0 -145 29v31q63 -29 145 -29q125 0 199 84.5t77 207.5h-296v30h296q-7 127 -84 201.5t-184 74.5q-89 0 -150 -28z" />
    <glyph glyph-name="afii10048" unicode="&#x42e;" horiz-adv-x="892" 
d="M842 320q0 -141 -77 -236t-209 -95q-131 0 -208 92t-79 231h-134v-312h-35v641h35v-298h135q7 132 83.5 219t202.5 87q131 0 208.5 -94.5t77.5 -234.5zM805 320q0 126 -66.5 212t-182.5 86t-183 -86t-67 -212q0 -128 67 -214t183 -86t182.5 86t66.5 214z" />
    <glyph glyph-name="afii10049" unicode="&#x42f;" horiz-adv-x="569" 
d="M469 0h-35v285h-184l-156 -285h-39l157 287q-71 14 -110.5 63t-39.5 118q0 78 60 130.5t172 52.5q94 0 175 -14v-637zM434 316v296q-69 8 -139 8q-93 0 -144.5 -43t-51.5 -109t43.5 -109t109.5 -43h182z" />
    <glyph glyph-name="afii10065" unicode="&#x430;" horiz-adv-x="479" 
d="M231 493q92 0 137.5 -35t45.5 -123v-322q-81 -22 -199 -22q-175 0 -175 137q0 59 47 100.5t141 41.5h153v65q0 67 -32 98.5t-118 31.5q-68 0 -143 -17v29q70 16 143 16zM381 35v206h-153q-77 0 -115.5 -34t-38.5 -79q0 -51 35.5 -80t105.5 -29q94 0 166 16z" />
    <glyph glyph-name="afii10066" unicode="&#x431;" horiz-adv-x="566" 
d="M85 363v-42q18 83 76.5 128.5t137.5 45.5q89 0 153 -66.5t64 -185.5q0 -107 -64 -180.5t-165 -73.5q-110 0 -171 82.5t-61 242.5q0 38 0.5 61.5t3.5 55t9.5 51t17 44t27 39.5t39.5 32.5t54.5 28.5t72 21.5t91.5 17t113 10.5l-3 -32q-79 -4 -139.5 -14t-102.5 -23
t-70.5 -34t-44.5 -41t-25 -50t-11 -55t-2 -63zM482 243q0 92 -52.5 158t-137.5 66q-88 0 -142 -66.5t-54 -158.5q0 -93 52 -159t140 -66q87 0 140.5 66.5t53.5 159.5z" />
    <glyph glyph-name="afii10067" unicode="&#x432;" horiz-adv-x="493" 
d="M411 374q0 -41 -24.5 -72.5t-61.5 -44.5q55 -10 84 -45.5t29 -74.5q0 -148 -205 -148q-68 0 -153 22v465q76 21 152 21q78 0 128.5 -28.5t50.5 -94.5zM257 237h-144v-203q62 -16 119 -16q73 0 122 27t49 90q0 46 -38 74t-108 28zM113 266h137q57 0 91.5 31.5t34.5 76.5
q0 49 -41.5 71.5t-103.5 22.5q-48 0 -118 -14v-188z" />
    <glyph glyph-name="afii10068" unicode="&#x433;" horiz-adv-x="411" 
d="M80 0v479q79 12 151 12q66 0 150 -9v-28q-78 7 -147 7q-62 0 -121 -7v-454h-33z" />
    <glyph glyph-name="afii10069" unicode="&#x434;" horiz-adv-x="534" 
d="M265 -3q-76 0 -205 11v-125h-30v151h51q44 63 62 161.5t18 252.5v35q65 9 144 9q76 0 142 -9v-449h65v-151h-30v125q-119 -11 -217 -11zM193 457v-10q0 -291 -76 -414q86 -10 158 -10q65 0 139 9v425q-53 6 -107 6q-55 0 -114 -6z" />
    <glyph glyph-name="afii10070" unicode="&#x435;" horiz-adv-x="484" 
d="M445 54v-27q-100 -38 -172 -38q-103 0 -168 61.5t-65 193.5q0 112 58 179t159 67q85 0 138.5 -57t53.5 -162v-27h-375q0 -121 59 -174t147 -53q80 0 165 37zM257 462q-85 0 -130.5 -53t-51.5 -136h339q0 85 -43 137t-114 52z" />
    <glyph glyph-name="afii10072" unicode="&#x436;" horiz-adv-x="665" 
d="M315 0v246h-7l-236 -246h-47l251 259l-229 225h44l220 -219h4v219h35v-219h5l220 219h43l-229 -225l251 -259h-47l-236 246h-7v-246h-35z" />
    <glyph glyph-name="afii10073" unicode="&#x437;" horiz-adv-x="413" 
d="M345 372q0 -36 -25 -68.5t-69 -43.5q57 -14 87 -48t30 -76q0 -77 -50 -110.5t-129 -33.5q-77 0 -153 26v29q72 -26 147 -26q65 0 107 26.5t42 86.5q0 50 -41 79.5t-109 29.5h-61v29h62q63 0 94.5 29.5t31.5 70.5q0 47 -36 69.5t-84 22.5q-73 0 -141 -21v29q71 21 135 21
q162 0 162 -121z" />
    <glyph glyph-name="afii10074" unicode="&#x438;" horiz-adv-x="545" 
d="M465 0h-33v422l-340 -430h-12v492h33v-424l339 431h13v-491z" />
    <glyph glyph-name="afii10075" unicode="&#x439;" horiz-adv-x="545" 
d="M390 573h-239v29h252zM465 0h-33v422l-340 -430h-12v492h33v-424l339 431h13v-491z" />
    <glyph glyph-name="afii10076" unicode="&#x43a;" horiz-adv-x="470" 
d="M394 0l-276 246h-5v-246h-33v484h33v-219h4l250 219h44l-259 -225l291 -259h-49z" />
    <glyph glyph-name="afii10077" unicode="&#x43b;" horiz-adv-x="522" 
d="M442 0h-33v455q-63 7 -112 7q-48 0 -113 -7v-33q0 -88 -1.5 -142.5t-7.5 -107.5t-16.5 -81.5t-29 -52t-44.5 -32t-63 -8.5v31q30 0 51.5 8t36 30.5t23 49t13 76.5t5.5 99t1 130v58q72 12 147 12q71 0 143 -11v-481z" />
    <glyph glyph-name="afii10078" unicode="&#x43c;" horiz-adv-x="628" 
d="M320 87h-11l-171 310l-35 -397h-33l43 489h10l192 -350l190 350h10l43 -489h-33l-36 400z" />
    <glyph glyph-name="afii10079" unicode="&#x43d;" horiz-adv-x="520" 
d="M440 0h-33v241h-294v-241h-33v484h33v-214h294v214h33v-484z" />
    <glyph glyph-name="afii10080" unicode="&#x43e;" horiz-adv-x="543" 
d="M40 243q0 110 66 182t166 72q99 0 165 -71.5t66 -182.5t-66 -182.5t-165 -71.5q-100 0 -166 72t-66 182zM74 243q0 -89 56.5 -157.5t141.5 -68.5t141 68.5t56 157.5t-56 157.5t-141 68.5t-141.5 -68.5t-56.5 -157.5z" />
    <glyph glyph-name="afii10081" unicode="&#x43f;" horiz-adv-x="526" 
d="M263 463q-55 0 -150 -11v-452h-33v476q93 16 183 16q87 0 183 -15v-477h-33v453q-70 10 -150 10z" />
    <glyph glyph-name="afii10082" unicode="&#x440;" horiz-adv-x="528" 
d="M75 -167v629q73 29 168 29q111 0 178 -71.5t67 -179.5t-68 -178t-183 -70q-77 0 -129 15v-174h-33zM453 240q0 110 -63 166.5t-154 56.5q-71 0 -128 -19v-408q55 -16 126 -16q102 0 160.5 64t58.5 156z" />
    <glyph glyph-name="afii10083" unicode="&#x441;" horiz-adv-x="471" 
d="M279 -11q-114 0 -176.5 71t-62.5 182q0 108 68 179.5t182 71.5q89 0 146 -21v-28q-62 21 -143 21q-102 0 -160.5 -65.5t-58.5 -157.5q0 -94 55 -159.5t155 -65.5q88 0 151 25v-27q-71 -26 -156 -26z" />
    <glyph glyph-name="afii10084" unicode="&#x442;" horiz-adv-x="472" 
d="M437 478v-29q-104 14 -184 14v-463h-34v463q-95 0 -184 -14v29q78 14 202 14q120 0 200 -14z" />
    <glyph glyph-name="afii10085" unicode="&#x443;" horiz-adv-x="470" 
d="M460 484l-217 -524q-30 -74 -60 -104.5t-80 -30.5q-38 0 -72 11v29q48 -11 69 -11q22 0 38 7t28.5 24.5t19.5 31t20 42.5l16 37l-201 488h36l184 -444l184 444h35z" />
    <glyph glyph-name="afii10086" unicode="&#x444;" horiz-adv-x="657" 
d="M612 240q0 -102 -75 -171t-192 -69v-167h-33v167q-120 0 -193.5 68t-73.5 172q0 103 75 173.5t192 70.5v155h33v-155q121 0 194 -69.5t73 -174.5zM578 240q0 88 -63.5 151t-169.5 63v-424q106 0 169.5 61t63.5 149zM312 30v424q-106 0 -169.5 -63t-63.5 -151t63.5 -149
t169.5 -61z" />
    <glyph glyph-name="afii10087" unicode="&#x445;" horiz-adv-x="461" 
d="M33 0l179 254l-161 230h38l142 -203l143 203h36l-161 -229l179 -255h-38l-160 228l-161 -228h-36z" />
    <glyph glyph-name="afii10088" unicode="&#x446;" horiz-adv-x="557" 
d="M456 34h61v-156h-29v132q-115 -12 -213 -12q-110 0 -195 13v473h33v-451q75 -8 146 -8q52 0 164 6v453h33v-450z" />
    <glyph glyph-name="afii10089" unicode="&#x447;" horiz-adv-x="485" 
d="M372 0v192q-84 -21 -149 -21q-163 0 -163 126v187h33v-186q0 -96 136 -96q68 0 143 20v262h33v-484h-33z" />
    <glyph glyph-name="afii10090" unicode="&#x448;" horiz-adv-x="771" 
d="M691 484v-477q-126 -13 -305 -13q-182 0 -306 13v477h33v-450q92 -9 256 -11v461h33v-461q177 4 256 11v450h33z" />
    <glyph glyph-name="afii10091" unicode="&#x449;" horiz-adv-x="798" 
d="M658 484h33v-450h67v-156h-29v129q-147 -13 -343 -13q-182 0 -306 13v477h33v-450q92 -9 256 -11v461h33v-461q177 4 256 11v450z" />
    <glyph glyph-name="afii10092" unicode="&#x44a;" horiz-adv-x="583" 
d="M218 481v-176h119q98 0 148 -39.5t50 -110.5q0 -75 -53 -119.5t-143 -44.5q-78 0 -154 19v448q-40 2 -74 2q-53 0 -95 -6v27q38 7 96 7q53 0 106 -7zM218 276v-244q64 -13 119 -13q75 0 119.5 38.5t44.5 97.5q0 56 -41 88.5t-123 32.5h-119z" />
    <glyph glyph-name="afii10093" unicode="&#x44b;" horiz-adv-x="619" 
d="M539 0h-33v484h33v-484zM80 10v474h33v-179h119q98 0 148 -39.5t50 -110.5q0 -75 -53 -119.5t-143 -44.5q-78 0 -154 19zM113 276v-244q64 -13 119 -13q75 0 119.5 38.5t44.5 97.5q0 56 -41 88.5t-123 32.5h-119z" />
    <glyph glyph-name="afii10094" unicode="&#x44c;" horiz-adv-x="480" 
d="M80 10v474h33v-179h119q98 0 148 -39.5t50 -110.5q0 -75 -53 -119.5t-143 -44.5q-78 0 -154 19zM113 276v-244q64 -13 119 -13q75 0 119.5 38.5t44.5 97.5q0 56 -41 88.5t-123 32.5h-119z" />
    <glyph glyph-name="afii10095" unicode="&#x44d;" horiz-adv-x="457" 
d="M186 464q-80 0 -138 -29v32q67 26 138 26q110 0 165.5 -68.5t55.5 -177.5q0 -114 -54 -185.5t-165 -71.5q-79 0 -143 25v28q26 -11 72 -18t72 -7q88 0 134 60.5t49 156.5h-228v29h227q-4 90 -50.5 145t-134.5 55z" />
    <glyph glyph-name="afii10096" unicode="&#x44e;" horiz-adv-x="714" 
d="M442 -11q-103 0 -161.5 70t-60.5 177h-107v-236h-33v484h33v-219h107q6 100 64.5 166t157.5 66q104 0 163 -73.5t59 -180.5q0 -109 -59 -181.5t-163 -72.5zM442 469q-84 0 -136 -66t-52 -160q0 -93 52 -159.5t136 -66.5q85 0 136.5 65.5t51.5 160.5q0 94 -52 160t-136 66
z" />
    <glyph glyph-name="afii10097" unicode="&#x44f;" horiz-adv-x="475" 
d="M362 192h-158l-115 -192h-39l119 196q-116 25 -116 143q0 82 56.5 119t144.5 37q63 0 141 -20v-475h-33v192zM208 222h154v232q-65 13 -107 13q-75 0 -121.5 -31t-46.5 -97q0 -49 30.5 -83t90.5 -34z" />
    <glyph glyph-name="afii10071" unicode="&#x451;" horiz-adv-x="484" 
d="M157 633q12 0 21 -8.5t9 -22.5t-9 -22.5t-21 -8.5t-21 8.5t-9 22.5t9 22.5t21 8.5zM344 633q12 0 21 -8.5t9 -22.5t-9 -22.5t-21 -8.5t-21 8.5t-9 22.5t9 22.5t21 8.5zM445 54v-27q-100 -38 -172 -38q-103 0 -168 61.5t-65 193.5q0 112 58 179t159 67q85 0 138.5 -57
t53.5 -162v-27h-375q0 -121 59 -174t147 -53q80 0 165 37zM257 462q-85 0 -130.5 -53t-51.5 -136h339q0 85 -43 137t-114 52z" />
    <glyph glyph-name="afii10099" unicode="&#x452;" 
 />
    <glyph glyph-name="afii10100" unicode="&#x453;" horiz-adv-x="396" 
d="M167 538l75 113h51l-105 -113h-21zM75 0v479q79 12 151 12q66 0 150 -9v-28q-78 7 -147 7q-62 0 -121 -7v-454h-33z" />
    <glyph glyph-name="afii10101" unicode="&#x454;" horiz-adv-x="466" 
d="M290 495q78 0 130 -20v-31q-56 22 -129 22q-95 0 -144.5 -57t-54.5 -143h213v-29h-214q0 -89 51 -153.5t146 -64.5q72 0 131 20v-30q-60 -19 -131 -19q-119 0 -176 72.5t-57 180.5q0 106 60 179t175 73z" />
    <glyph glyph-name="afii10102" unicode="&#x455;" horiz-adv-x="389" 
d="M354 124q0 -65 -47.5 -100t-130.5 -35q-76 0 -141 26v30q89 -27 141 -27q58 0 100.5 26.5t42.5 79.5q0 38 -28 61.5t-67.5 36.5t-79.5 27t-68 44.5t-28 77.5q0 54 39 88t122 34q51 0 111 -21v-28q-64 20 -114 20q-64 0 -93.5 -25.5t-29.5 -66.5q0 -40 28 -64.5t67.5 -37
t79.5 -26t68 -43.5t28 -77z" />
    <glyph glyph-name="afii10103" unicode="&#x456;" horiz-adv-x="196" 
d="M98 645q12 0 21 -8.5t9 -22.5t-9 -22.5t-21 -8.5t-21 8.5t-9 22.5t9 22.5t21 8.5zM115 0h-33v484h33v-484z" />
    <glyph glyph-name="afii10104" unicode="&#x457;" horiz-adv-x="203" 
d="M118 0h-33v484h33v-484zM55 644q12 0 20.5 -8t8.5 -22t-8 -22t-20 -8q-13 0 -21.5 8t-8.5 22t8.5 22t20.5 8zM149 644q12 0 20.5 -8t8.5 -22t-8 -22t-20 -8q-13 0 -21.5 8t-8.5 22t8.5 22t20.5 8z" />
    <glyph glyph-name="afii10105" unicode="&#x458;" horiz-adv-x="205" 
d="M102 645q12 0 21 -8.5t9 -22.5t-9 -22.5t-21 -8.5t-21 8.5t-9 22.5t9 22.5t21 8.5zM119 484v-515q0 -72 -23 -106.5t-76 -34.5q-16 0 -38 5v29q28 -4 33 -4q41 0 56 28t15 83v515h33z" />
    <glyph glyph-name="afii10106" unicode="&#x459;" 
 />
    <glyph glyph-name="afii10107" unicode="&#x45a;" 
 />
    <glyph glyph-name="afii10108" unicode="&#x45b;" 
 />
    <glyph glyph-name="afii10109" unicode="&#x45c;" 
 />
    <glyph glyph-name="afii10110" unicode="&#x45e;" 
 />
    <glyph glyph-name="afii10193" unicode="&#x45f;" 
 />
    <glyph glyph-name="afii10050" unicode="&#x490;" horiz-adv-x="493" 
d="M100 0v631q86 15 192 15q80 0 148 -9v131h31v-166q-82 14 -179 14q-101 0 -157 -9v-607h-35z" />
    <glyph glyph-name="afii10098" unicode="&#x491;" horiz-adv-x="408" 
d="M85 0v479q81 12 153 12q54 0 118 -6v113h30v-144q-78 7 -147 7q-62 0 -121 -7v-454h-33z" />
    <glyph glyph-name="endash" unicode="&#x2013;" horiz-adv-x="502" 
d="M477 229h-452v26h452v-26z" />
    <glyph glyph-name="emdash" unicode="&#x2014;" horiz-adv-x="830" 
d="M805 229h-780v26h780v-26z" />
    <glyph glyph-name="quoteleft" unicode="&#x2018;" horiz-adv-x="148" 
d="M45 524l46 145h18l-19 -105q33 -8 33 -42q0 -16 -12 -27t-28 -11t-27 11t-11 29z" />
    <glyph glyph-name="quoteright" unicode="&#x2019;" horiz-adv-x="148" 
d="M103 640l-46 -145h-18l19 105q-33 8 -33 42q0 16 12 27t28 11t27 -11t11 -29z" />
    <glyph glyph-name="quotesinglbase" unicode="&#x201a;" horiz-adv-x="168" 
d="M123 29l-46 -145h-18l19 105q-33 8 -33 42q0 16 12 27t28 11t27 -11t11 -29z" />
    <glyph glyph-name="quotedblleft" unicode="&#x201c;" horiz-adv-x="277" 
d="M174 524l46 145h18l-19 -105q33 -8 33 -42q0 -16 -12 -27t-28 -11t-27 11t-11 29zM45 524l46 145h18l-19 -105q33 -8 33 -42q0 -16 -12 -27t-28 -11t-27 11t-11 29z" />
    <glyph glyph-name="quotedblright" unicode="&#x201d;" horiz-adv-x="277" 
d="M103 640l-46 -145h-18l19 105q-33 8 -33 42q0 16 12 27t28 11t27 -11t11 -29zM232 640l-46 -145h-18l19 105q-33 8 -33 42q0 16 12 27t28 11t27 -11t11 -29z" />
    <glyph glyph-name="quotedblbase" unicode="&#x201e;" horiz-adv-x="297" 
d="M123 29l-46 -145h-18l19 105q-33 8 -33 42q0 16 12 27t28 11t27 -11t11 -29zM252 29l-46 -145h-18l19 105q-33 8 -33 42q0 16 12 27t28 11t27 -11t11 -29z" />
    <glyph glyph-name="dagger" unicode="&#x2020;" horiz-adv-x="526" 
d="M243 669h40l-7 -204q38 3 97.5 5t87.5 4v-38l-186 11l7 -500h-38l7 500l-186 -10v38l185 -11z" />
    <glyph glyph-name="daggerdbl" unicode="&#x2021;" 
 />
    <glyph glyph-name="bullet" unicode="&#x2022;" horiz-adv-x="380" 
d="M80 327q0 50 32 80t78 30t78 -30.5t32 -79.5t-32 -79.5t-78 -30.5t-78 30.5t-32 79.5z" />
    <glyph glyph-name="ellipsis" unicode="&#x2026;" horiz-adv-x="617" 
d="M131 31q0 -16 -10.5 -27.5t-27.5 -11.5t-27.5 11.5t-10.5 27.5q0 17 10 27.5t28 10.5q17 0 27.5 -10.5t10.5 -27.5zM347 31q0 -16 -10.5 -27.5t-27.5 -11.5t-27.5 11.5t-10.5 27.5q0 17 10 27.5t28 10.5q17 0 27.5 -10.5t10.5 -27.5zM562 31q0 -16 -10.5 -27.5
t-27.5 -11.5t-27.5 11.5t-10.5 27.5q0 17 10 27.5t28 10.5q17 0 27.5 -10.5t10.5 -27.5z" />
    <glyph glyph-name="perthousand" unicode="&#x2030;" 
 />
    <glyph glyph-name="guilsinglleft" unicode="&#x2039;" 
 />
    <glyph glyph-name="guilsinglright" unicode="&#x203a;" 
 />
    <glyph glyph-name="Euro" unicode="&#x20ac;" horiz-adv-x="608" 
d="M433 631q68 0 126 -20v-32q-52 21 -126 21q-108 0 -177.5 -58t-93.5 -148h314v-30h-320q-8 -50 -2 -96h322v-30h-317q21 -95 92 -156.5t182 -61.5q74 0 126 21v-32q-58 -20 -126 -20q-127 0 -207.5 71t-102.5 178h-98v30h93q-6 46 2 96h-95v30h101q24 103 103 170t204 67
z" />
    <glyph glyph-name="afii61352" unicode="&#x2116;" horiz-adv-x="957" 
d="M671 186h198v-31h-198v31zM643 430q0 78 36.5 113.5t90.5 35.5t90.5 -35.5t36.5 -113.5t-36.5 -113.5t-90.5 -35.5t-90.5 35.5t-36.5 113.5zM858 430q0 125 -88 125t-88 -125t88 -125t88 125zM541 -12l-407 573v-561h-35v651h12l409 -576v566h35v-653h-14z" />
    <glyph glyph-name="trademark" unicode="&#x2122;" horiz-adv-x="767" 
d="M539 433h-8l-125 209l-21 -299h-27l26 361h14l137 -231l137 231h13l27 -361h-28l-21 299q-23 -38 -65 -109t-59 -100zM183 702q86 0 147 -8v-24q-65 9 -133 9v-336h-29v336q-68 0 -133 -9v24q61 8 148 8z" />
    <glyph glyph-name="Delta" unicode="&#x2206;" horiz-adv-x="531" 
d="M496 0h-461v31l204 594h55l202 -593v-32zM263 607l-190 -575h383l-189 575h-4z" />
    <glyph glyph-name="minus" unicode="&#x2212;" horiz-adv-x="547" 
d="M512 235h-477v26h477v-26z" />
    <glyph glyph-name="notequal" unicode="&#x2260;" horiz-adv-x="547" 
d="M512 171h-277l-100 -141h-34l100 141h-166v26h184l78 109h-262v26h280l100 140h34l-100 -140h163v-26h-181l-78 -109h259v-26z" />
    <glyph glyph-name="lessequal" unicode="&#x2264;" horiz-adv-x="551" 
d="M45 299l461 202v-30l-392 -172l392 -171v-31zM55 26h451v-26h-451v26z" />
    <glyph glyph-name="greaterequal" unicode="&#x2265;" horiz-adv-x="551" 
d="M45 501l461 -202l-461 -202v31l392 171l-392 172v30zM45 26h451v-26h-451v26z" />
    </font>
</defs>
</svg>
