<?xml version="1.0" encoding="UTF-8" standalone="no"?>
<!-- Created with Inkscape (http://www.inkscape.org/) -->

<svg
   xmlns:dc="http://purl.org/dc/elements/1.1/"
   xmlns:cc="http://creativecommons.org/ns#"
   xmlns:rdf="http://www.w3.org/1999/02/22-rdf-syntax-ns#"
   xmlns:svg="http://www.w3.org/2000/svg"
   xmlns="http://www.w3.org/2000/svg"
   xmlns:sodipodi="http://sodipodi.sourceforge.net/DTD/sodipodi-0.dtd"
   xmlns:inkscape="http://www.inkscape.org/namespaces/inkscape"
   id="svg2"
   version="1.1"
   inkscape:version="0.91 r13725"
   width="845.56189"
   height="746.38855"
   viewBox="0 0 845.56189 746.38855"
   sodipodi:docname="arrow_left.svg">
  <metadata
     id="metadata8">
    <rdf:RDF>
      <cc:Work
         rdf:about="">
        <dc:format>image/svg+xml</dc:format>
        <dc:type
           rdf:resource="http://purl.org/dc/dcmitype/StillImage" />
        <dc:title></dc:title>
      </cc:Work>
    </rdf:RDF>
  </metadata>
  <defs
     id="defs6" />
  <sodipodi:namedview
     pagecolor="#ffffff"
     bordercolor="#666666"
     borderopacity="1"
     objecttolerance="10"
     gridtolerance="10"
     guidetolerance="10"
     inkscape:pageopacity="0"
     inkscape:pageshadow="2"
     inkscape:window-width="1855"
     inkscape:window-height="1056"
     id="namedview4"
     showgrid="false"
     fit-margin-top="0"
     fit-margin-left="0"
     fit-margin-right="0"
     fit-margin-bottom="0"
     inkscape:zoom="0.2772093"
     inkscape:cx="800.90836"
     inkscape:cy="254.28049"
     inkscape:window-x="65"
     inkscape:window-y="24"
     inkscape:window-maximized="1"
     inkscape:current-layer="svg2" />
  <g
     id="g4138"
     transform="translate(-113.56309,-50.685533)">
    <path
       style="fill:#333"
       d="M 481.25,796.71086 C 472.79255,795.3043 466.25461,793.01035 460,789.2549 455.13431,786.33341 405.02733,736.97624 288.55559,620.37599 112.25694,443.88281 119.96433,452.14969 115.45634,434.71145 c -2.52434,-9.76493 -2.52434,-12.15798 0,-21.9229 4.50644,-17.43226 -3.13781,-9.22811 172.47427,-185.10705 97.79882,-97.94742 166.64796,-165.957023 170.6453,-168.564456 15.48873,-10.103169 34.9918,-11.193502 52.04909,-2.909842 11.6897,5.676957 17.04841,11.040357 23.24656,23.266862 5.49273,10.835012 5.50335,10.88196 5.458,24.128536 -0.0425,12.40953 -0.31619,13.84126 -4.21012,22.0224 -3.95333,8.3059 -10.1668,14.76069 -122.42314,127.17771 l -118.25844,118.42773 312.46856,0.32227 312.46858,0.32229 7.38905,3.45785 c 10.40821,4.87072 19.56654,13.1214 24.1526,21.75894 4.53498,8.54129 8.20835,20.4713 8.20835,26.65821 0,6.20755 -3.67808,18.12581 -8.25251,26.74107 -4.75558,8.95639 -15.19403,18.05144 -25.48183,22.20237 l -7.26566,2.93156 -311.84597,0.31988 -311.84598,0.31987 118.26084,118.43013 C 524.95256,707.11424 531.1661,713.5691 535.11944,721.875 c 3.88858,8.1699 4.16771,9.6243 4.21012,21.93753 0.0439,12.74056 -0.11212,13.50629 -4.60162,22.59252 -6.10772,12.36115 -8.70886,15.49081 -17.71014,21.30861 -10.31867,6.66929 -26.01879,10.61857 -35.7678,8.9972 z"
       id="path4152"
       inkscape:connector-curvature="0" />
    <path
       style="fill:#333"
       d="M 476.95873,794.97935 C 461.00896,792.16626 468.6025,799.25245 290.38729,620.87319 186.92604,517.3167 124.09042,453.51871 122.07498,449.98309 c -3.66418,-6.428 -7.44629,-19.75227 -7.44629,-26.23309 0,-6.48082 3.78211,-19.80509 7.44629,-26.23309 2.0144,-3.53381 64.93072,-67.42925 168.38306,-171.00346 C 471.19934,45.559205 460.64959,55.318233 478.6598,52.417772 c 9.56185,-1.539891 23.11206,0.166419 30.7152,3.867808 14.10905,6.868626 25.27752,20.632289 28.21706,34.773786 2.19858,10.576914 0.83666,24.641624 -3.30454,34.126624 -3.26446,7.47689 -10.36836,14.85523 -122.04018,126.75486 -65.21569,65.34871 -118.18388,119.20595 -117.70709,119.68274 0.4768,0.47679 140.41591,0.8673 310.97582,0.86779 172.04049,5e-4 311.79437,0.48495 313.89452,1.08808 17.64312,5.06694 31.7513,19.60655 36.30338,37.41355 2.68799,10.51494 2.69657,15.05525 0.0476,25.25699 -4.67506,18.00524 -16.43866,30.49847 -34.82579,36.98582 -4.29282,1.5146 -50.49331,1.77459 -315.27931,1.77418 -170.63718,-2.6e-4 -310.63951,0.38962 -311.11631,0.86641 -0.47679,0.47679 52.4914,54.33403 117.70708,119.68274 136.64802,136.92677 125.86863,124.18103 125.85715,148.81585 -0.008,15.0288 -1.3979,19.6855 -9.31833,31.19745 -4.4373,6.4494 -16.68877,15.291 -24.4067,17.61376 -7.41149,2.23053 -20.19943,3.06678 -27.42073,1.79314 z"
       id="path4150"
       inkscape:connector-curvature="0" />
    <path
       style="fill:#333"
       d="m 484.375,795.40079 c -10.96513,-1.86581 -17.09378,-3.71116 -22.4821,-6.76943 C 457.49789,786.13687 406.26275,735.66639 290.42696,619.72444 114.00082,443.1366 121.5573,451.23306 116.85602,433.75 c -2.68557,-9.98704 -2.68557,-10.01296 0,-20 4.70101,-17.48205 -2.8512,-9.38938 173.57094,-185.9924 C 406.06867,111.99733 457.49989,61.32665 461.875,58.844817 c 16.80262,-9.531475 37.05066,-8.694077 53.9545,2.231396 8.88477,5.742507 12.53444,10.179844 18.16119,22.080783 3.74296,7.916599 4.11467,9.752164 4.04362,19.968004 -0.0854,12.27733 -2.76824,21.36747 -8.68946,29.44176 -1.73769,2.36953 -55.45739,56.62715 -119.37714,120.57248 C 346.04797,317.08456 293.75,370.0958 293.75,370.94199 c 0,1.21304 66.04184,1.60667 312.1875,1.86076 l 312.1875,0.32225 8.125,3.88284 c 15.28399,7.30401 23.91673,17.81632 29.13171,35.47445 2.99368,10.13666 2.99368,12.39876 0,22.53542 -3.37452,11.42625 -8.7191,20.65571 -15.33958,26.48965 -6.52172,5.74693 -10.23965,7.83513 -19.81635,11.12999 C 913.56386,474.92939 904.0996,475 603.55431,475 358.06355,475 293.75,475.32141 293.75,476.54826 c 0,0.85155 52.29798,53.86718 116.21771,117.8125 63.91975,63.94533 117.63945,118.20295 119.37714,120.57248 5.92122,8.07428 8.60409,17.16442 8.68946,29.44176 0.071,10.21584 -0.30066,12.0514 -4.04362,19.968 -5.62675,11.90094 -9.27641,16.33827 -18.16119,22.08079 -9.56496,6.18213 -23.8762,10.26651 -31.4545,8.977 z"
       id="path4148"
       inkscape:connector-curvature="0" />
    <path
       style="fill:#333"
       d="m 481.875,794.1911 c -8.11743,-1.05105 -15.27749,-3.54334 -21.25,-7.39671 -9.10455,-5.87414 -334.70377,-332.30613 -337.93696,-338.80129 -2.90383,-5.8335 -6.70162,-19.57201 -6.70162,-24.2431 0,-4.67109 3.79779,-18.4096 6.70162,-24.2431 3.23319,-6.49516 328.83241,-332.927155 337.93696,-338.801284 13.83827,-8.928269 33.53936,-9.944397 48.90144,-2.522205 26.41671,12.763248 36.2006,47.938739 20.04026,72.049739 -2.29174,3.41925 -56.64852,58.71586 -120.79286,122.88139 -84.02529,84.05301 -116.41415,117.21683 -115.86793,118.64027 0.68784,1.79248 29.77397,2.00559 313.61363,2.29795 l 312.85546,0.32224 6.99525,3.3862 c 14.29654,6.92055 24.52031,19.42105 27.48427,33.60476 0.77684,3.71748 1.91487,7.29341 2.52895,7.94654 1.42922,1.52008 1.45469,7.83096 0.0351,8.70829 -0.59476,0.36757 -1.72551,3.9164 -2.51279,7.88627 -0.78727,3.96986 -3.08686,10.10511 -5.1102,13.63388 -3.598,6.27507 -13.8217,15.9319 -20.04561,18.93417 -11.49703,5.5459 5.17858,5.27489 -324.57139,5.27489 -282.53009,0 -310.57572,0.17889 -311.26896,1.98545 -0.55119,1.43639 31.49009,34.24806 115.86419,118.65001 64.14434,64.16553 118.50112,119.46214 120.79286,122.88139 11.69466,17.44828 9.82661,43.64249 -4.31056,60.44356 -9.11588,10.83359 -28.9119,18.3542 -43.38114,16.48069 z"
       id="path4146"
       inkscape:connector-curvature="0" />
    <path
       style="fill:#333"
       d="m 477.92051,792.545 c -15.03362,-2.31897 -8.2616,4.01069 -185.83676,-173.69751 C 171.68092,498.35446 125.72039,451.58981 123.68253,447.5 c -3.49731,-7.01883 -6.50167,-17.99346 -6.50167,-23.75 0,-5.75654 3.00436,-16.73118 6.50167,-23.75 2.03786,-4.08981 47.99839,-50.85446 168.40122,-171.34749 C 471.87846,48.723102 462.65116,57.279199 479.46949,54.89743 c 21.98707,-3.113755 41.12718,6.348581 51.27962,25.351222 4.82313,9.027579 4.87574,9.275156 4.86243,22.876348 -0.0142,14.51257 -1.81269,20.94868 -8.13775,29.12186 -1.43785,1.85798 -55.17641,55.9886 -119.41903,120.29028 C 343.81214,316.8388 291.25,370.11589 291.25,370.93065 c 0,0.81476 1.086,2.0626 2.41334,2.77298 1.64209,0.87881 101.49363,1.29151 312.44613,1.29136 l 310.03279,-2.1e-4 7.04596,2.63623 c 12.64652,4.73167 26.48166,19.06452 28.83179,29.86899 0.37386,1.71875 1.55555,6.07813 2.62598,9.6875 1.76165,5.94009 1.76165,7.18491 0,13.125 -1.07043,3.60938 -2.25212,7.96875 -2.62598,9.6875 -2.35013,10.80448 -16.18527,25.13733 -28.83179,29.86899 l -7.04596,2.63624 -310.03279,-2.2e-4 c -210.9525,-1.5e-4 -310.80404,0.41255 -312.44613,1.29137 -1.32734,0.71037 -2.41334,1.95821 -2.41334,2.77297 0,0.81476 52.56214,54.09185 116.80476,118.39351 64.24262,64.30168 117.98118,118.4323 119.41903,120.29028 6.33566,8.18689 8.1246,14.60361 8.11895,29.12186 -0.005,12.66451 -0.28629,14.29275 -3.56388,20.625 -5.43307,10.49665 -9.17022,14.82273 -17.39975,20.14173 -10.82966,6.99953 -23.17937,9.4902 -36.7086,7.40327 z"
       id="path4144"
       inkscape:connector-curvature="0" />
    <path
       style="fill:#333"
       d="m 484.375,792.91799 c -11.05374,-1.95694 -16.41908,-3.5378 -21.33817,-6.28714 -7.01079,-3.9184 -333.41012,-330.50394 -337.98408,-338.1769 -2.85582,-4.7907 -7.78588,-20.43339 -7.78588,-24.70395 0,-4.2686 4.92962,-19.91284 7.78588,-24.7086 4.57256,-7.67751 330.74479,-334.126138 337.7618,-338.048021 15.77926,-8.819202 35.76094,-8.230839 50.92431,1.499471 21.79066,13.983031 28.80181,43.88275 15.3557,65.48585 -1.91957,3.08407 -56.5279,58.7875 -121.35184,123.78537 -106.08476,106.36944 -117.72697,118.4297 -116.51343,120.69722 1.34546,2.51403 1.9956,2.51991 314.12198,2.84147 l 312.77373,0.32224 8.2364,4.03038 c 13.3416,6.52853 23.18654,18.74471 26.13096,32.4248 0.71558,3.32466 1.94883,7.31045 2.74057,8.85732 1.08602,2.12185 1.08602,3.50315 0,5.625 -0.79174,1.54688 -2.04042,5.60148 -2.77483,9.01021 -3.52241,16.3489 -15.32488,28.66779 -33.55276,35.0209 -4.84513,1.68871 -40.91414,1.90639 -315.89351,1.90639 -310.33014,0 -310.42428,7.6e-4 -311.77734,2.52898 -1.22047,2.28047 10.22792,14.14145 116.50823,120.70695 64.82394,64.99787 119.43227,120.7013 121.35184,123.78537 10.52485,16.90968 8.48534,40.90378 -4.81388,56.63341 -8.65139,10.23242 -28.85548,18.71959 -39.90568,16.76328 z"
       id="path4142"
       inkscape:connector-curvature="0" />
    <path
       style="fill:#333"
       d="m 479.03486,791.24029 c -15.4714,-2.2865 -7.56761,5.09092 -184.86809,-172.55674 C 203.6706,528.01017 128.21291,451.83361 126.48301,449.40231 c -3.1952,-4.49074 -8.04789,-19.95846 -8.04789,-25.65231 0,-5.69099 4.85198,-21.16059 8.04405,-25.64693 1.7278,-2.42833 77.13014,-78.57781 167.56077,-169.22106 C 472.7452,49.756584 463.19443,58.625454 479.93554,56.259112 c 21.39691,-3.024435 40.51375,6.799468 50.14111,25.766893 4.05911,7.997092 4.297,9.167811 4.27399,21.033715 -0.0258,13.25017 -2.01965,20.08514 -8.15004,27.93714 -1.45059,1.85798 -55.18915,56.05994 -119.41903,120.44879 C 328.53654,329.88438 290,369.35549 290,371.05939 c 0,1.39868 0.70312,2.99813 1.5625,3.55434 0.85937,0.5562 142.46875,1.29252 314.6875,1.63627 l 313.125,0.625 6.67526,3.5157 c 8.2687,4.35493 16.9339,12.22231 20.83028,18.9124 3.08247,5.29261 7.11448,19.06194 7.15868,24.4469 0.0489,5.9466 -4.93233,21.41611 -8.5562,26.57225 -5.14591,7.32174 -15.29562,15.21032 -23.53782,18.29412 l -7.03899,2.63363 -310.03527,0 c -211.32474,0 -310.80509,0.41199 -312.45312,1.29398 -1.32979,0.71168 -2.41782,2.45177 -2.41782,3.86685 0,1.7434 37.64922,40.31528 116.78157,119.64352 64.22988,64.38885 117.96844,118.59081 119.41903,120.44879 6.12054,7.83937 8.12435,14.6921 8.15004,27.87186 0.022,11.29672 -0.32548,13.21249 -3.60983,19.90161 -9.90209,20.16719 -29.28834,30.27675 -51.70595,26.96368 z"
       id="path4140"
       inkscape:connector-curvature="0" />
  </g>
</svg>
