<svg xmlns="http://www.w3.org/2000/svg" xmlns:xlink="http://www.w3.org/1999/xlink" width="44" height="44" viewBox="0 0 44 44">
    <defs>
        <linearGradient id="a" x1="50%" x2="50%" y1="0%" y2="97.915%">
            <stop offset="0%" stop-opacity="0"/>
            <stop offset="100%" stop-opacity=".245"/>
        </linearGradient>
        <path id="b" d="M16 41c9.333-11.324 14-19.597 14-24.818C30 8.349 23.732 2 16 2S2 8.35 2 16.182C2 21.403 6.667 29.676 16 41z"/>
    </defs>
    <g fill="none" fill-rule="evenodd">
        <path fill="url(#a)" d="M16 44c15.312-8.015 24.04-13.871 26.182-17.567C45.395 20.889 40.837 16.395 32 16.395s-18.605 4.494-21.818 10.038C8.04 30.129 9.979 35.985 16 44z"/>
        <use fill="#1ab248" xlink:href="#b"/>
        <path stroke="#FFF" stroke-width="2" d="M15.228 41.636C5.751 30.138 1 21.715 1 16.182 1 7.8 7.713 1 16 1c8.287 0 15 6.8 15 15.182 0 5.533-4.751 13.956-14.228 25.454l-.772.936-.772-.936z"/>
        <circle cx="16" cy="16" r="10" fill="#FFF"/>
    </g>
</svg>