<?xml version="1.0" encoding="UTF-8" standalone="no"?>
<!-- Created with Inkscape (http://www.inkscape.org/) -->

<svg
   xmlns:dc="http://purl.org/dc/elements/1.1/"
   xmlns:cc="http://creativecommons.org/ns#"
   xmlns:rdf="http://www.w3.org/1999/02/22-rdf-syntax-ns#"
   xmlns:svg="http://www.w3.org/2000/svg"
   xmlns="http://www.w3.org/2000/svg"
   xmlns:sodipodi="http://sodipodi.sourceforge.net/DTD/sodipodi-0.dtd"
   xmlns:inkscape="http://www.inkscape.org/namespaces/inkscape"
   id="svg2"
   version="1.1"
   inkscape:version="0.91 r13725"
   width="1407.6598"
   height="1349.0764"
   viewBox="0 0 1407.6598 1349.0764"
   sodipodi:docname="starm.svg">
  <metadata
     id="metadata8">
    <rdf:RDF>
      <cc:Work
         rdf:about="">
        <dc:format>image/svg+xml</dc:format>
        <dc:type
           rdf:resource="http://purl.org/dc/dcmitype/StillImage" />
        <dc:title></dc:title>
      </cc:Work>
    </rdf:RDF>
  </metadata>
  <defs
     id="defs6" />
  <sodipodi:namedview
     pagecolor="#ffffff"
     bordercolor="#666666"
     borderopacity="1"
     objecttolerance="10"
     gridtolerance="10"
     guidetolerance="10"
     inkscape:pageopacity="0"
     inkscape:pageshadow="2"
     inkscape:window-width="1855"
     inkscape:window-height="1056"
     id="namedview4"
     showgrid="false"
     fit-margin-top="0"
     fit-margin-left="0"
     fit-margin-right="0"
     fit-margin-bottom="0"
     inkscape:zoom="0.15733333"
     inkscape:cx="2730.1356"
     inkscape:cy="-481.37501"
     inkscape:window-x="65"
     inkscape:window-y="24"
     inkscape:window-maximized="1"
     inkscape:current-layer="svg2" />
  <path
     style="fill:#fefefe"
     d="m 289.97149,1347.3876 c -26.9411,-7.3063 -43.3409,-28.8557 -43.4001,-57.0276 -0.012,-5.8603 8.3041,-57.7069 34.2115,-213.2812 18.8252,-113.04637 34.4595,-206.66005 34.7429,-208.03032 0.4725,-2.28526 -12.0183,-14.80521 -150.9666,-151.31808 C 64.97599,619.89265 11.82089,567.02201 9.4097905,563.41137 c -11.8953,-17.81339 -12.5837,-44.18047 -1.6601,-63.59024 6.0984995,-10.8362 19.3092995,-21.47764 31.8907995,-25.68822 2.4704,-0.82676 98.447,-15.40967 213.2813,-32.40646 114.8342,-16.9968 209.7878,-31.23419 211.008,-31.63867 1.8341,-0.60801 18.1771,-33.29521 94.3488,-188.70415 50.6717,-103.38281 93.7593,-190.647905 95.7503,-193.922405 12.3085,-20.2436999 41.2349,-31.8452999 64.5949,-25.9072999 12.8628,3.2697 26.3209,12.4238999 33.4074,22.7236999 1.5627,2.2714 44.7875,89.629325 96.055,194.128685 51.2675,104.49935 93.7281,190.45756 94.3569,191.01824 0.6287,0.56067 94.58861,14.82682 208.79951,31.70256 114.2109,16.87573 210.1875,31.29188 213.2812,32.03589 19.3354,4.64992 35.3355,20.21751 41.37,40.25188 2.3547,7.81756 2.3547,25.93244 0,33.75 -3.4044,11.30224 -7.8068,18.01398 -19.7948,30.17847 -6.1944,6.28567 -74.7548,73.73462 -152.3564,149.88657 -77.6016,76.15196 -141.2138,138.95203 -141.3607,139.55572 -0.1469,0.60369 15.3942,94.94379 34.5355,209.64466 33.0356,197.9596 34.7782,208.9992 34.3243,217.4533 -0.8426,15.6937 -6.3995,28.2488 -17.2984,39.084 -7.0713,7.0299 -17.9077,12.7406 -28.3257,14.9274 -9.8211,2.0616 -23.6498,1.3661 -32.3438,-1.6267 -3.6093,-1.2425 -90.09372,-46.4157 -192.18751,-100.3851 -102.0937,-53.9692 -186.0572,-98.2593 -186.5855,-98.4222 -0.5284,-0.1628 -85.3252,44.2778 -188.4375,98.757 -103.1123,54.4793 -189.7973,99.7631 -192.6332,100.6309 -8.192,2.5066 -25.1929,2.7803 -33.4586,0.5387 z m 249.5523,-247.8331 c 76.8282,-40.464 141.6979,-74.2515 144.1549,-75.0834 12.1844,-4.125 27.6069,-4.1846 39.5396,-0.1527 3.6399,1.2299 72.6414,37.0376 153.3365,79.5729 80.6951,42.5351 146.80771,77.2473 146.91691,77.1382 0.1092,-0.1091 -12.4658,-74.0077 -27.94422,-164.2191 -27.30649,-159.1466 -28.13009,-164.31303 -27.71599,-173.86427 0.5108,-11.78033 3.3448,-20.6434 9.5925,-30 2.95149,-4.42009 37.02001,-38.27963 124.04221,-123.28125 92.9059,-90.74885 119.6182,-117.33771 118.4003,-117.85327 -0.8649,-0.36617 -75.4008,-11.66279 -165.6351,-25.10359 -128.55821,-19.1493 -165.58421,-24.96132 -171.09381,-26.85689 -13.973,-4.80734 -24.4881,-13.85831 -31.9043,-27.46188 -2.1287,-3.90465 -35.9269,-71.64625 -75.107,-150.53687 -39.1802,-78.89063 -71.5254,-143.73 -71.8783,-144.08751 -0.3529,-0.3575 -33.933,66.37656 -74.6224,148.29792 -50.9198,102.5187 -75.3863,150.82495 -78.4902,154.96954 -7.1707,9.57509 -17.7093,16.67845 -29.5522,19.91918 -3.0123,0.82429 -79.3219,12.54389 -169.577,26.04354 -90.2551,13.49966 -164.2395,24.9132 -164.4098,25.36344 -0.1703,0.45022 53.2138,53.14103 118.6314,117.09068 65.4176,63.94964 120.5857,118.42502 122.5958,121.05639 4.2822,5.60575 8.2292,13.93936 10.0365,21.19057 3.1637,12.69346 3.0829,13.25856 -26.6885,186.56247 -15.2797,88.9453 -27.7819,162.0573 -27.7826,162.471 -8e-4,0.4137 3.4791,-1.128 7.733,-3.426 4.2539,-2.298 70.5937,-37.2851 147.4218,-77.7491 z"
     id="path4138"
     inkscape:connector-curvature="0" />
</svg>
