<?xml version="1.0" encoding="UTF-8" standalone="no"?>
<!-- Created with Inkscape (http://www.inkscape.org/) -->

<svg
   xmlns:dc="http://purl.org/dc/elements/1.1/"
   xmlns:cc="http://creativecommons.org/ns#"
   xmlns:rdf="http://www.w3.org/1999/02/22-rdf-syntax-ns#"
   xmlns:svg="http://www.w3.org/2000/svg"
   xmlns="http://www.w3.org/2000/svg"
   xmlns:sodipodi="http://sodipodi.sourceforge.net/DTD/sodipodi-0.dtd"
   xmlns:inkscape="http://www.inkscape.org/namespaces/inkscape"
   id="svg2"
   version="1.1"
   inkscape:version="0.91 r13725"
   width="189.91411"
   height="616.58142"
   viewBox="0 0 189.91411 616.58142"
   sodipodi:docname="arrow-right.svg">
  <metadata
     id="metadata8">
    <rdf:RDF>
      <cc:Work
         rdf:about="">
        <dc:format>image/svg+xml</dc:format>
        <dc:type
           rdf:resource="http://purl.org/dc/dcmitype/StillImage" />
        <dc:title></dc:title>
      </cc:Work>
    </rdf:RDF>
  </metadata>
  <defs
     id="defs6" />
  <sodipodi:namedview
     pagecolor="#ffffff"
     bordercolor="#666666"
     borderopacity="1"
     objecttolerance="10"
     gridtolerance="10"
     guidetolerance="10"
     inkscape:pageopacity="0"
     inkscape:pageshadow="2"
     inkscape:window-width="1855"
     inkscape:window-height="1056"
     id="namedview4"
     showgrid="false"
     fit-margin-top="0"
     fit-margin-left="0"
     fit-margin-right="0"
     fit-margin-bottom="0"
     inkscape:zoom="0.36875"
     inkscape:cx="404.49038"
     inkscape:cy="267.77843"
     inkscape:window-x="65"
     inkscape:window-y="24"
     inkscape:window-maximized="1"
     inkscape:current-layer="svg2" />
  <g
     id="g4138"
     transform="translate(-66.335892,-11.875)">
    <path
       style="fill:#333"
       d="m 75.523048,627.6029 c -1.431073,-0.61411 -4.102948,-2.9004 -5.9375,-5.08064 -6.920185,-8.22417 -10.727152,-0.24087 75.419292,-158.15612 L 223.75968,320.00045 145.45809,176.56272 C 81.504265,59.408125 67.046781,32.062766 66.557711,27.327956 66.011979,22.044592 66.350976,21.103102 70.38341,16.702956 74.401353,12.318622 75.388806,11.875 81.129913,11.875 c 5.369533,0 6.879025,0.564977 10.019161,3.75 2.033432,2.0625 40.012996,70.366779 84.399036,151.78729 C 240.42762,286.42545 256.25,316.34172 256.25,320 c 0,3.65827 -15.82238,33.57455 -80.70189,152.58771 -44.38604,81.42052 -82.266687,149.62588 -84.179224,151.56748 -3.75659,3.81369 -11.212612,5.43595 -15.845838,3.44771 z"
       id="path4152"
       inkscape:connector-curvature="0" />
    <path
       style="fill:#333"
       d="m 73.142099,624.79012 c -4.723135,-3.71522 -7.0917,-9.73566 -5.716573,-14.53044 0.597135,-2.08209 35.873794,-67.53916 78.392584,-145.46014 42.51879,-77.921 77.47165,-142.80314 77.67304,-144.18254 0.21364,-1.46342 -32.19484,-62.20059 -77.8125,-145.8294 C 58.742164,15.410833 63.314615,25.185385 71.75,16.75 c 3.484127,-3.484127 5.196079,-4.25 9.5,-4.25 4.26849,0 5.998492,0.759503 9.253614,4.0625 2.35369,2.38831 37.073826,64.717691 84.249996,151.24509 C 242.2827,291.66495 255,315.76765 255,319.89597 c 0,4.12838 -12.77784,28.345 -80.63369,152.81741 -50.75967,93.11178 -82.027106,149.18518 -84.394715,151.34912 -4.775403,4.36461 -11.818693,4.66912 -16.829496,0.72762 z"
       id="path4150"
       inkscape:connector-curvature="0" />
    <path
       style="fill:#333"
       d="M 75.247611,625.45925 C 70.631337,623.128 67.5,618.08691 67.5,612.98649 67.5,610.86694 96.861428,555.76196 145.9375,465.7765 189.07812,386.67421 224.375,321.07479 224.375,320 c 0,-1.07479 -35.29688,-66.67421 -78.4375,-145.7765 C 96.861428,84.238031 67.5,29.133066 67.5,27.013507 67.5,15.592095 80.656679,9.0397539 89.645551,15.984493 91.169354,17.161771 128.82455,84.78125 173.32377,166.25 246.44279,300.11561 254.23139,314.9165 254.2309,320 c -4.9e-4,5.08303 -7.81424,19.92794 -81.09586,154.06954 -50.83424,93.05178 -82.177555,149.15363 -83.995532,150.34481 -4.519228,2.96111 -9.374334,3.3263 -13.891897,1.0449 z"
       id="path4148"
       inkscape:connector-curvature="0" />
    <path
       style="fill:#333"
       d="m 73.384062,623.73045 c -4.286868,-3.37205 -6.368869,-9.79256 -4.645411,-14.3256 0.722527,-1.90039 36.280199,-67.56574 79.017049,-145.923 70.85696,-129.915 77.5922,-142.76224 76.44171,-145.81023 -0.69391,-1.83836 -35.7251,-66.52033 -77.8471,-143.73772 C 104.22832,96.71652 69.27549,31.832275 68.677351,29.746689 c -1.338502,-4.667084 1.04135,-11.032367 5.21874,-13.958323 4.680047,-3.278034 11.951994,-2.639831 15.942325,1.399134 1.86786,1.890625 39.588794,69.810286 83.824294,150.93257 63.08774,115.69488 80.4282,148.44047 80.4282,151.87993 0,3.43946 -17.34046,36.18505 -80.4282,151.87993 -44.2355,81.12228 -81.956434,149.04194 -83.824294,150.93257 -4.247417,4.29919 -11.632073,4.71116 -16.454353,0.91795 z"
       id="path4146"
       inkscape:connector-curvature="0" />
    <path
       style="fill:#333"
       d="M 75.478676,624.32116 C 71.196695,622.15347 68.75,617.9534 68.75,612.77051 c 0,-2.0855 29.95922,-58.2999 78.91124,-148.06618 L 226.57247,320 147.66124,175.29567 C 98.70922,85.529382 68.75,29.314987 68.75,27.229486 c 0,-4.936595 2.245407,-9.040076 6.23688,-11.397897 5.370321,-3.172327 9.510347,-2.598436 14.290264,1.980911 C 95.448915,23.7253 253.75,314.57335 253.75,320 c 0,2.88841 -21.82359,44.01664 -80.1491,151.04709 -44.08201,80.89285 -81.628888,148.61184 -83.437505,150.48662 -4.169334,4.3219 -9.61259,5.35513 -14.684719,2.78745 z"
       id="path4144"
       inkscape:connector-curvature="0" />
    <path
       style="fill:#333"
       d="m 74.687472,623.64986 c -3.42512,-1.99495 -6.250406,-8.47287 -5.330503,-12.22198 0.445725,-1.81659 36.032001,-67.90358 79.080621,-146.86 71.357,-130.87745 78.15882,-143.8522 77.00918,-146.89793 C 224.75321,315.8325 189.79129,251.27774 147.7536,174.2149 105.71591,97.152066 70.725985,32.534486 69.998204,30.620276 68.325973,26.221972 70.334129,19.533261 74.123794,16.878876 78.230884,14.002159 85.84168,14.47477 89.158602,17.8125 90.695834,19.359375 128.18262,87 172.46259,168.125 235.54431,283.6966 252.9716,316.57202 252.9716,320 c 0,3.42798 -17.42729,36.3034 -80.50901,151.875 C 128.18262,553 90.695834,620.64062 89.158602,622.1875 c -3.025326,3.0443 -10.464422,3.79605 -14.47113,1.46236 z"
       id="path4142"
       inkscape:connector-curvature="0" />
    <path
       style="fill:#333"
       d="m 76.277686,622.81056 c -6.305773,-3.17015 -7.593805,-8.61737 -3.862853,-16.3364 1.554936,-3.21704 37.171057,-68.80782 79.146927,-145.7573 68.65394,-125.85524 76.19508,-140.23125 75.07838,-143.125 C 225.95736,315.82259 190.43401,250.28942 147.69936,171.9626 104.96471,93.635786 70,28.56303 70,27.356479 c 0,-4.812813 2.604987,-8.777913 6.963269,-10.598918 4.08329,-1.706107 4.872595,-1.673145 8.930546,0.37296 4.107946,2.071315 10.70649,13.720708 85.527525,150.994479 44.59187,81.8125 81.07671,150.10799 81.0774,151.76776 7e-4,1.65977 -36.64677,70.20858 -81.4388,152.33069 -74.978191,137.4657 -81.768925,149.45035 -85.58485,151.04475 -5.033944,2.10331 -4.00117,2.1547 -9.197404,-0.45764 z"
       id="path4140"
       inkscape:connector-curvature="0" />
  </g>
</svg>
