<?xml version="1.0" encoding="UTF-8" standalone="no"?>
<!-- Created with Inkscape (http://www.inkscape.org/) -->

<svg
   xmlns:dc="http://purl.org/dc/elements/1.1/"
   xmlns:cc="http://creativecommons.org/ns#"
   xmlns:rdf="http://www.w3.org/1999/02/22-rdf-syntax-ns#"
   xmlns:svg="http://www.w3.org/2000/svg"
   xmlns="http://www.w3.org/2000/svg"
   xmlns:sodipodi="http://sodipodi.sourceforge.net/DTD/sodipodi-0.dtd"
   xmlns:inkscape="http://www.inkscape.org/namespaces/inkscape"
   id="svg2"
   version="1.1"
   inkscape:version="0.91 r13725"
   width="393.21875"
   height="363.41644"
   viewBox="0 0 393.21875 363.41644"
   sodipodi:docname="checkmark_active.svg">
  <metadata
     id="metadata8">
    <rdf:RDF>
      <cc:Work
         rdf:about="">
        <dc:format>image/svg+xml</dc:format>
        <dc:type
           rdf:resource="http://purl.org/dc/dcmitype/StillImage" />
        <dc:title></dc:title>
      </cc:Work>
    </rdf:RDF>
  </metadata>
  <defs
     id="defs6" />
  <sodipodi:namedview
     pagecolor="#ffffff"
     bordercolor="#666666"
     borderopacity="1"
     objecttolerance="10"
     gridtolerance="10"
     guidetolerance="10"
     inkscape:pageopacity="0"
     inkscape:pageshadow="2"
     inkscape:window-width="1855"
     inkscape:window-height="1056"
     id="namedview4"
     showgrid="false"
     inkscape:zoom="0.49166667"
     inkscape:cx="214.10063"
     inkscape:cy="122.57433"
     inkscape:window-x="65"
     inkscape:window-y="24"
     inkscape:window-maximized="1"
     inkscape:current-layer="svg2"
     fit-margin-top="0"
     fit-margin-left="0"
     fit-margin-right="0"
     fit-margin-bottom="0" />
  <g
     id="g4138"
     transform="translate(-43.187506,-58.140935)">
    <path
       style="fill:#e1e1da"
       d="m 186.9283,421.00056 c -1.08787,-0.4636 -25.15698,-23.13228 -53.48691,-50.37486 -28.32994,-27.24257 -60.020511,-57.70593 -70.423498,-67.69634 -19.85966,-19.07204 -21.201073,-20.92902 -19.103553,-26.44592 1.269095,-3.33797 47.595236,-52.0421 50.740227,-53.3448 1.415053,-0.58613 3.732909,-0.76412 5.189634,-0.3985 1.71451,0.43031 16.3198,13.85249 41.88442,38.49153 21.58857,20.80696 39.76961,37.80371 40.40229,37.77055 0.63269,-0.0332 42.28315,-53.00966 92.55659,-117.72559 50.27344,-64.71591 92.79203,-118.899727 94.48575,-120.408467 3.33607,-2.971722 7.5848,-3.562216 11.06668,-1.538068 2.89119,1.680764 53.42488,41.717345 54.90279,43.498125 0.69495,0.83735 1.26353,3.46153 1.26353,5.83149 0,4.29492 -0.38748,4.80667 -118.25467,156.18404 -65.04006,83.53125 -119.29597,152.84092 -120.56868,154.0215 -2.58739,2.40007 -7.65166,3.41501 -10.6546,2.13531 z"
       id="path4152"
       inkscape:connector-curvature="0" />
    <path
       style="fill:#c6c6b7"
       d="M 181.60173,415.54687 C 174.50455,409.10138 58.317717,297.62558 49.921875,289.20626 c -7.177505,-7.19757 -7.738086,-10.40673 -2.8125,-16.10071 9.602887,-11.10093 45.295191,-47.83912 47.540944,-48.93402 4.704534,-2.29366 7.142591,-0.72628 22.954591,14.75706 39.67458,38.84992 63.37076,61.19681 64.59162,60.9137 0.73774,-0.17107 42.33947,-53.04542 92.4483,-117.49854 50.10884,-64.45312 92.5488,-118.558594 94.31105,-120.234375 3.41284,-3.245387 7.2853,-3.953788 10.93522,-2.000411 3.00868,1.610194 50.54945,39.140514 53.46827,42.209686 1.90754,2.0058 2.57813,3.66106 2.57813,6.36373 0,3.4223 -7.39979,13.16743 -117.26995,154.43833 -64.49848,82.93205 -118.90401,152.36757 -120.90119,154.30116 -5.50169,5.32651 -8.63524,4.96305 -16.16463,-1.875 z"
       id="path4150"
       inkscape:connector-curvature="0" />
    <path
       style="fill:#b0b09c"
       d="M 135.27978,370.59964 C 107.02433,343.42943 75.152344,312.78226 64.453125,302.4948 38.682707,277.71617 38.65151,282.43411 64.768418,254.81313 93.54858,224.37552 93.885703,224.0625 97.886334,224.0625 c 3.156106,0 5.827846,2.37243 43.287046,38.4375 21.95784,21.14062 40.41486,38.41126 41.01561,38.37919 0.60074,-0.0321 42.22507,-52.98994 92.49851,-117.68414 C 324.96094,118.50083 367.30397,64.316137 368.78312,62.784604 370.94782,60.543243 372.26101,60 375.51437,60 c 3.83708,0 5.29216,0.980933 28.71688,19.359441 31.68975,24.863049 30.77279,23.988219 30.75282,29.340089 -0.0157,4.23455 -0.96421,5.48732 -116.79138,154.26922 -64.22651,82.5 -118.30496,151.58203 -120.17434,153.51562 C 195.13971,419.46189 194.00982,420 190.63639,420 l -3.98308,0 -51.37353,-49.40036 z"
       id="path4148"
       inkscape:connector-curvature="0" />
    <path
       style="fill:#919074"
       d="M 187.03125,418.88182 C 186,418.29818 182.68909,415.55277 179.67367,412.78091 172.44708,406.13803 56.121557,294.50278 50.438603,288.75663 c -5.189624,-5.24734 -6.26249,-8.39138 -4.274837,-12.52743 1.800366,-3.74633 43.967612,-48.27356 48.013903,-50.70111 2.718694,-1.63106 3.351197,-1.68475 6.221231,-0.52812 1.77578,0.71564 9.85748,7.78461 18.19485,15.91481 8.25,8.04502 25.88423,25.125 39.18719,37.95553 23.74881,22.90541 24.2189,23.29556 25.93648,21.52583 0.96211,-0.99131 42.7371,-54.53677 92.83332,-118.98989 50.09622,-64.45313 92.13193,-118.136719 93.41267,-119.296875 2.80779,-2.543396 7.43357,-2.75945 10.68736,-0.499167 8.01969,5.570967 52.21005,41.157822 53.14413,42.797392 1.45555,2.55489 1.50055,5.78472 0.11687,8.38841 -0.59853,1.12625 -54.13385,70.19881 -118.96738,153.49455 -74.311,95.47201 -118.79687,151.86494 -120.36214,152.57812 -3.05443,1.39169 -5.10888,1.39526 -7.551,0.0131 z"
       id="path4146"
       inkscape:connector-curvature="0" />
    <path
       style="fill:#72714e"
       d="M 181.60173,413.67187 C 174.69206,407.39667 58.15657,295.6033 50.859375,288.24977 c -6.349092,-6.39812 -6.648593,-9.71999 -1.412714,-15.66895 5.866587,-6.66555 39.671512,-42.24901 42.753378,-45.0027 3.825527,-3.41815 7.082139,-3.28835 11.761441,0.46875 2.08712,1.67579 20.10549,18.86719 40.04084,38.20313 19.93533,19.33594 36.97553,35.2834 37.86709,35.43882 1.17627,0.20504 25.89947,-30.91596 90.11019,-113.42868 48.66903,-62.54118 90.92001,-116.773812 93.89106,-120.516945 5.18791,-6.536096 5.55929,-6.805267 9.375,-6.79487 3.75365,0.01023 5.42292,1.153358 30.22309,20.697089 14.4375,11.377445 26.77734,21.367276 27.42187,22.199606 0.64454,0.83234 1.17188,3.08313 1.17188,5.00175 0,3.204 -9.56096,15.78171 -117.2715,154.27394 -64.49932,82.93205 -118.50598,151.9457 -120.01479,153.36366 -4.54897,4.27509 -8.09374,3.61809 -15.17448,-2.8125 z"
       id="path4144"
       inkscape:connector-curvature="0" />
    <path
       style="fill:#61603b"
       d="m 187.96875,418.18139 c -1.03125,-0.44145 -21.28125,-19.46909 -45,-42.28365 C 119.25,353.08318 87.951392,323.00684 73.416287,309.06143 58.881183,295.11602 46.751587,282.76091 46.46163,281.60563 c -0.289957,-1.15528 -0.151266,-3.079 0.308203,-4.27494 1.035078,-2.69418 45.364934,-49.54477 48.405476,-51.15796 3.726835,-1.97731 6.689271,0.0562 22.012191,15.10967 39.87307,39.17196 63.77047,61.66273 65.20998,61.37163 0.84387,-0.17066 43.3967,-54.09934 94.56184,-119.84153 51.16515,-65.74219 94.13934,-120.157183 95.49821,-120.922213 1.90495,-1.072474 3.07301,-1.163601 5.10137,-0.397983 1.44688,0.546139 14.49933,10.363434 29.00546,21.816213 26.92341,21.256413 28.45441,22.826663 26.93215,27.622853 -0.62377,1.96532 -235.16211,303.87785 -237.70371,305.9872 -1.8822,1.56208 -5.68945,2.17658 -7.82405,1.26282 z"
       id="path4142"
       inkscape:connector-curvature="0" />
    <path
       style="fill:#58572f"
       d="M 182.55037,412.73437 C 167.83732,399.34718 49.077514,284.76757 47.902723,282.82614 c -0.756418,-1.25002 -1.069417,-3.15738 -0.736078,-4.48552 0.534318,-2.1289 43.539548,-48.40752 47.675692,-51.3046 3.402404,-2.38313 6.516463,-0.2853 21.825073,14.70275 44.41026,43.48032 64.27976,62.14685 65.83344,61.84764 0.90072,-0.17346 40.37793,-50.09434 87.72712,-110.93528 47.3492,-60.84094 89.65549,-115.155036 94.01397,-120.698005 7.192,-9.146503 8.20716,-10.077125 10.98193,-10.0673 2.55889,0.0091 7.33729,3.383603 29.30738,20.697089 14.4375,11.377442 26.77734,21.367276 27.42187,22.199606 0.64454,0.83234 1.17188,2.66125 1.17188,4.06425 0,1.959 -27.2115,37.53895 -117.2715,153.33644 -64.49932,82.93205 -118.50598,151.9457 -120.01479,153.36366 -4.10886,3.86148 -6.51251,3.35275 -13.28834,-2.8125 z"
       id="path4140"
       inkscape:connector-curvature="0" />
  </g>
</svg>
