<?xml version="1.0" encoding="UTF-8" standalone="no"?>
<!-- Created with Inkscape (http://www.inkscape.org/) -->

<svg
   xmlns:dc="http://purl.org/dc/elements/1.1/"
   xmlns:cc="http://creativecommons.org/ns#"
   xmlns:rdf="http://www.w3.org/1999/02/22-rdf-syntax-ns#"
   xmlns:svg="http://www.w3.org/2000/svg"
   xmlns="http://www.w3.org/2000/svg"
   xmlns:sodipodi="http://sodipodi.sourceforge.net/DTD/sodipodi-0.dtd"
   xmlns:inkscape="http://www.inkscape.org/namespaces/inkscape"
   id="svg2"
   version="1.1"
   inkscape:version="0.91 r13725"
   width="391.87506"
   height="361.875"
   viewBox="0 0 391.87506 361.875"
   sodipodi:docname="checkmark_inactive.svg">
  <metadata
     id="metadata8">
    <rdf:RDF>
      <cc:Work
         rdf:about="">
        <dc:format>image/svg+xml</dc:format>
        <dc:type
           rdf:resource="http://purl.org/dc/dcmitype/StillImage" />
        <dc:title></dc:title>
      </cc:Work>
    </rdf:RDF>
  </metadata>
  <defs
     id="defs6" />
  <sodipodi:namedview
     pagecolor="#ffffff"
     bordercolor="#666666"
     borderopacity="1"
     objecttolerance="10"
     gridtolerance="10"
     guidetolerance="10"
     inkscape:pageopacity="0"
     inkscape:pageshadow="2"
     inkscape:window-width="1855"
     inkscape:window-height="1056"
     id="namedview4"
     showgrid="false"
     fit-margin-top="0"
     fit-margin-left="0"
     fit-margin-right="0"
     fit-margin-bottom="0"
     inkscape:zoom="0.49166667"
     inkscape:cx="718.64942"
     inkscape:cy="71.10699"
     inkscape:window-x="65"
     inkscape:window-y="24"
     inkscape:window-maximized="1"
     inkscape:current-layer="svg2" />
  <g
     id="g4138"
     transform="translate(-44.062445,-59.0625)">
    <path
       style="fill:#eaeae8"
       d="M 184.10952,418.82812 C 181.50481,416.87789 72.365123,312.32268 52.734375,292.97147 c -8.418508,-8.29864 -8.671875,-8.67323 -8.671875,-12.821 0,-5.35615 -0.191044,-5.10788 21.878275,-28.43172 C 92.94819,223.17611 93.003728,223.125 97.010437,223.125 c 1.883935,0 4.333403,0.48599 5.443283,1.07998 1.10987,0.59398 19.48467,17.92426 40.83289,38.51172 21.34821,20.58747 39.12067,37.08194 39.49435,36.6544 0.37368,-0.42754 41.50727,-53.30079 91.40799,-117.4961 49.9007,-64.19531 92.02518,-118.089844 93.60996,-119.765625 2.51526,-2.659704 3.48673,-3.046875 7.64509,-3.046875 l 4.76369,0 25.75553,20.195907 c 14.16555,11.10775 26.70475,21.256273 27.8649,22.552273 1.57588,1.76041 2.10938,3.51054 2.10938,6.91979 0,3.80846 -0.56915,5.31199 -3.4403,9.08834 -24.34577,32.02138 -231.1456,297.0181 -233.80616,299.60306 -3.05455,2.96776 -4.25315,3.51563 -7.69135,3.51563 -2.76402,0 -4.97829,-0.67788 -6.89017,-2.10938 z"
       id="path4152"
       inkscape:connector-curvature="0" />
    <path
       style="fill:#dadbda"
       d="M 187.03125,419.6358 C 185.48437,418.93683 165.02344,399.89812 141.5625,377.32756 118.10156,354.75701 86.986656,324.85537 72.418263,310.87947 44.078048,283.69185 42.867557,282.15388 45.287191,276.40852 c 1.727236,-4.10128 45.834046,-50.59083 49.447943,-52.11922 4.744941,-2.00674 8.508556,0.45056 23.858616,15.57751 7.73438,7.62195 25.20217,24.579 38.81734,37.68233 l 24.75484,23.82425 1.75216,-2.32731 c 0.96369,-1.28004 42.98026,-55.26962 93.37017,-119.97687 60.04053,-77.09993 92.53406,-118.086552 94.27586,-118.917495 5.12725,-2.446013 7.52131,-1.030786 35.5581,21.019839 23.9354,18.824943 27.02896,21.563156 27.99169,24.776456 0.92745,3.09554 0.8248,4.12475 -0.71723,7.19164 -2.35199,4.67778 -235.27739,303.7681 -237.87663,305.448 -3.17622,2.0528 -6.46217,2.41577 -9.4888,1.04815 z"
       id="path4150"
       inkscape:connector-curvature="0" />
    <path
       style="fill:#c7c7c6"
       d="M 184.53697,417.42187 C 181.51217,415.00069 71.023149,309.11587 53.203125,291.56086 45.895823,284.36223 45,283.10989 45,280.09304 c 0,-4.17871 0.249347,-4.48884 22.813062,-28.37429 27.653275,-29.27315 28.06121,-29.59575 33.645158,-26.60732 1.07797,0.57692 19.43438,17.89845 40.79201,38.49231 21.35763,20.59384 39.43008,37.31323 40.16099,37.15418 0.73092,-0.15904 41.8642,-52.39073 91.40728,-116.07042 49.54309,-63.67969 91.75792,-117.785156 93.81072,-120.234375 3.36636,-4.016419 4.11765,-4.452064 7.66096,-4.4423 3.69487,0.01018 5.49013,1.240455 30.17857,20.68114 14.4375,11.368673 26.98828,21.535535 27.89062,22.593035 0.93757,1.09877 1.64063,3.44989 1.64063,5.48645 0,3.30402 -8.54606,14.55221 -117.27022,154.34926 -64.49864,82.93205 -118.70338,152.15663 -120.45499,153.83241 -4.11056,3.93261 -8.22143,4.08389 -12.73782,0.46875 z"
       id="path4148"
       inkscape:connector-curvature="0" />
    <path
       style="fill:#c1c1be"
       d="M 135.72283,370.12908 C 107.73934,343.21569 76.089844,312.77946 65.390625,302.49299 45.961657,283.81357 45.9375,283.78531 45.9375,279.7371 c 0,-4.01543 0.224328,-4.28962 24.0507,-29.39517 C 93.396077,225.67733 94.135978,225 97.670859,225 c 3.509591,0 4.978401,1.29656 43.591061,38.47895 21.97749,21.16341 40.48351,38.35482 41.12447,38.20312 0.64095,-0.1517 43.0248,-54.06488 94.18632,-119.80707 51.16152,-65.74219 93.4991,-119.841196 94.0835,-120.220019 0.5844,-0.378823 2.82598,-0.695229 4.98129,-0.703125 3.68465,-0.0135 5.39287,1.142325 28.59375,19.347286 31.56571,24.768558 29.83495,23.120418 29.81532,28.391878 -0.0157,4.24588 -0.88539,5.39457 -116.79338,154.27773 -64.2276,82.5 -118.09226,151.37109 -119.69923,153.04687 -2.40542,2.50842 -3.63135,3.04688 -6.9369,3.04688 l -4.01514,0 -50.87909,-48.93342 z"
       id="path4146"
       inkscape:connector-curvature="0" />
    <path
       style="fill:#bfc0b9"
       d="M 185.5571,417.4157 C 183.39337,415.94927 76.025318,313.14495 54.609375,292.03397 c -7.611129,-7.50275 -8.671119,-8.94314 -8.665698,-11.77555 0.0034,-1.77494 0.741679,-4.31914 1.640625,-5.65378 3.44813,-5.1193 45.796233,-48.77399 47.802714,-49.27758 1.162143,-0.29168 3.197137,-0.25822 4.522218,0.0743 1.422456,0.35702 18.559086,16.16044 41.839656,38.58459 21.68674,20.88896 40.00849,37.85399 40.71501,37.70008 0.70651,-0.1539 41.8231,-52.38138 91.3702,-116.06107 49.54711,-63.67969 91.76007,-117.785156 93.80658,-120.234375 3.35947,-4.020539 4.10506,-4.453125 7.67522,-4.453125 3.72825,0 5.42658,1.154838 29.70982,20.202204 14.16555,11.111213 26.49381,21.072016 27.39615,22.135106 2.80063,3.29956 2.1191,8.45225 -1.79967,13.6065 -22.55165,29.66164 -231.01432,296.88073 -233.36033,299.13431 -3.65833,3.5142 -7.8462,4.01515 -11.70477,1.40008 z"
       id="path4144"
       inkscape:connector-curvature="0" />
    <path
       style="fill:#b6b6b5"
       d="M 182.07788,414.14062 C 175.94759,408.64771 59.792125,297.23433 51.328125,288.72877 44.666183,282.03411 44.16416,278.70282 48.969788,273.0795 c 4.520365,-5.28953 38.878071,-41.51535 42.710352,-45.03262 4.281676,-3.92973 7.384463,-3.92973 12.29025,0 2.092,1.67578 20.2304,18.97265 40.30753,38.43749 20.07715,19.46485 37.1302,35.39063 37.89571,35.39063 0.76551,0 41.19506,-51.14838 89.84347,-113.66305 48.64841,-62.51469 90.88251,-116.725622 93.85356,-120.468755 5.18791,-6.536096 5.55929,-6.805267 9.375,-6.79487 3.75365,0.01023 5.42292,1.153358 30.22309,20.697089 14.4375,11.377445 26.77734,21.367276 27.42187,22.199606 0.64454,0.83234 1.17188,3.08313 1.17188,5.00175 0,3.204 -9.56096,15.78171 -117.2715,154.27394 -64.49932,82.93205 -118.50598,151.9457 -120.01479,153.36366 -4.4327,4.16583 -8.08302,3.58376 -14.69833,-2.34375 z"
       id="path4142"
       inkscape:connector-curvature="0" />
    <path
       style="fill:#a5a5a5"
       d="M 142.93065,375.81893 C 118.71723,352.55061 87.199219,322.28409 72.890625,308.56001 47.147549,283.86857 46.875,283.56704 46.875,279.77813 c 0,-3.71125 0.679725,-4.54771 22.098501,-27.19421 12.154175,-12.85084 22.958725,-24.10345 24.01011,-25.0058 1.051389,-0.90234 3.394755,-1.64062 5.207486,-1.64062 2.991983,0 4.689653,1.36464 18.411773,14.79997 38.78797,37.97732 64.22817,62.07503 65.53324,62.07503 0.78656,0 41.20659,-51.11497 89.88099,-113.66305 48.64841,-62.51469 90.88251,-116.725622 93.85356,-120.468755 5.21477,-6.569935 5.54255,-6.805695 9.46174,-6.805695 3.87625,0 5.27474,0.958534 30.92622,21.197095 l 26.86638,21.197095 0,4.1695 c 0,4.1087 -1.70367,6.35926 -116.84267,154.34978 -64.26347,82.59916 -117.92052,151.34044 -119.2379,152.7584 -1.86232,2.00453 -3.25115,2.57813 -6.2423,2.57813 -3.79722,0 -4.41766,-0.54832 -47.87148,-42.30607 z"
       id="path4140"
       inkscape:connector-curvature="0" />
  </g>
</svg>
