<?xml version="1.0" encoding="UTF-8" standalone="no"?>
<!-- Created with Inkscape (http://www.inkscape.org/) -->

<svg
   xmlns:dc="http://purl.org/dc/elements/1.1/"
   xmlns:cc="http://creativecommons.org/ns#"
   xmlns:rdf="http://www.w3.org/1999/02/22-rdf-syntax-ns#"
   xmlns:svg="http://www.w3.org/2000/svg"
   xmlns="http://www.w3.org/2000/svg"
   xmlns:sodipodi="http://sodipodi.sourceforge.net/DTD/sodipodi-0.dtd"
   xmlns:inkscape="http://www.inkscape.org/namespaces/inkscape"
   id="svg2"
   version="1.1"
   inkscape:version="0.91 r13725"
   width="391.84113"
   height="361.875"
   viewBox="0 0 391.84113 361.875"
   sodipodi:docname="checkmarkd.svg">
  <metadata
     id="metadata8">
    <rdf:RDF>
      <cc:Work
         rdf:about="">
        <dc:format>image/svg+xml</dc:format>
        <dc:type
           rdf:resource="http://purl.org/dc/dcmitype/StillImage" />
        <dc:title></dc:title>
      </cc:Work>
    </rdf:RDF>
  </metadata>
  <defs
     id="defs6" />
  <sodipodi:namedview
     pagecolor="#ffffff"
     bordercolor="#666666"
     borderopacity="1"
     objecttolerance="10"
     gridtolerance="10"
     guidetolerance="10"
     inkscape:pageopacity="0"
     inkscape:pageshadow="2"
     inkscape:window-width="1855"
     inkscape:window-height="1056"
     id="namedview4"
     showgrid="false"
     fit-margin-top="0"
     fit-margin-left="0"
     fit-margin-right="0"
     fit-margin-bottom="0"
     inkscape:zoom="0.49166667"
     inkscape:cx="373.89897"
     inkscape:cy="79.24258"
     inkscape:window-x="65"
     inkscape:window-y="24"
     inkscape:window-maximized="1"
     inkscape:current-layer="svg2" />
  <g
     id="g4138"
     transform="translate(-44.067128,-59.0625)">
    <path
       style="fill:#d2d5d2"
       d="m 178.23865,413.12918 c -4.44532,-4.29458 -35.50428,-34.0917 -69.0199,-66.21583 -33.515625,-32.12412 -61.884623,-59.51272 -63.042218,-60.86355 -1.47079,-1.71631 -2.106121,-3.66873 -2.109375,-6.48228 -0.0044,-3.84872 0.485094,-4.55142 11.103239,-15.9375 6.109341,-6.5512 17.394497,-18.35479 25.078125,-26.2302 13.191028,-13.52028 14.168079,-14.3177 17.517504,-14.29688 4.112355,0.0256 1.691128,-2.129 51.591595,45.9097 17.43575,16.78524 32.04095,30.64092 32.45599,30.7904 0.41504,0.14949 42.03762,-52.79583 92.49459,-117.65625 50.45698,-64.86042 92.87792,-119.088196 94.26876,-120.506165 1.99178,-2.030622 3.39574,-2.578125 6.61107,-2.578125 2.33846,0 5.07243,0.689126 6.40024,1.613244 5.1846,3.608333 52.08859,41.007886 53.14754,42.377926 0.62813,0.81267 1.15547,3.3832 1.17188,5.71228 0.0296,4.20857 -0.69052,5.1604 -116.6793,154.21875 -64.19002,82.49123 -118.43466,151.77702 -120.54365,153.96842 -3.40839,3.5416 -4.30844,3.98438 -8.0991,3.98438 -4.07282,0 -4.62802,-0.35111 -12.34699,-7.80832 z"
       id="path4152"
       inkscape:connector-curvature="0" />
    <path
       style="fill:#acb0ad"
       d="M 187.31933,419.74435 C 185.37761,418.85933 65.466013,304.44922 48.598956,287.38838 c -4.085889,-4.13282 -4.977056,-6.97794 -3.376663,-10.78026 1.713667,-4.07146 46.86658,-51.17244 50.15486,-52.31874 1.871991,-0.65258 3.45661,-0.61593 5.192657,0.12009 1.37416,0.58261 20.05752,17.93428 41.51854,38.55928 21.46104,20.625 39.4908,37.5 40.06617,37.5 0.57536,0 42.88765,-53.74869 94.02732,-119.44155 51.13967,-65.69286 93.97812,-119.994311 95.19656,-120.669906 3.08413,-1.710072 5.48704,-1.579457 8.86767,0.482022 3.59603,2.19282 47.54333,36.794184 51.66373,40.676804 3.66795,3.45627 4.64546,7.20833 2.8274,10.85272 -1.84972,3.70784 -231.46868,298.69849 -236.31454,303.59243 -4.38727,4.43081 -7.41723,5.46316 -11.10333,3.78308 z"
       id="path4150"
       inkscape:connector-curvature="0" />
    <path
       style="fill:#898d89"
       d="M 179.33167,412.26562 C 131.55951,366.78649 47.096644,285.19861 46.205095,283.67046 c -2.458413,-4.21384 -1.492604,-6.87223 5.065192,-13.94194 20.175375,-21.75034 42.964635,-44.81451 44.714235,-45.25362 1.115569,-0.28 2.958365,-0.16502 4.095098,0.25548 1.13675,0.42051 19.8467,17.8446 41.57769,38.72022 21.73098,20.87561 39.96817,37.95565 40.52709,37.95565 0.55892,0 42.87793,-53.7746 94.04223,-119.49909 51.16432,-65.72451 93.76699,-120.040912 94.67263,-120.70313 2.93754,-2.14798 7.4147,-1.427337 11.7633,1.89342 16.99225,12.975894 48.86006,38.67214 50.42064,40.65609 2.50992,3.19084 2.42602,6.80027 -0.24928,10.72501 -2.08046,3.05208 -228.15949,293.6623 -232.93857,299.4277 -3.22472,3.89028 -6.76437,6.08027 -9.83922,6.08757 -1.97941,0.005 -4.53957,-1.84019 -10.72445,-7.7282 z"
       id="path4148"
       inkscape:connector-curvature="0" />
    <path
       style="fill:#7d807d"
       d="M 186.87935,418.35937 C 182.27993,415.78849 47.312772,285.5077 46.022975,282.39385 c -0.906897,-2.18943 -0.888359,-3.33152 0.09111,-5.61282 1.793956,-4.17837 46.12765,-50.46113 49.443262,-51.61697 2.121207,-0.73945 3.3474,-0.60334 5.540963,0.61505 1.54932,0.86055 20.1423,18.2287 41.31774,38.59589 21.17544,20.36719 39.09594,37.03125 39.82334,37.03125 0.72741,0 43.16998,-53.78906 94.31685,-119.53125 62.27778,-80.04942 93.90806,-119.981023 95.76068,-120.892939 2.1397,-1.053214 3.37655,-1.131375 5.45984,-0.345024 1.4814,0.559165 14.37822,10.223904 28.6596,21.477197 27.88436,21.972026 29.85713,24.062176 27.67746,29.324376 -1.89255,4.56901 -235.51553,304.0543 -239.03998,306.42943 -3.80252,2.56252 -4.42255,2.59969 -8.19449,0.49133 z"
       id="path4146"
       inkscape:connector-curvature="0" />
    <path
       style="fill:#707571"
       d="m 180.12671,412.1943 c -3.93688,-3.77751 -34.57984,-33.14697 -68.09546,-65.26547 -33.515625,-32.1185 -62.097656,-59.6204 -63.515625,-61.11534 -1.843515,-1.94358 -2.578125,-3.69145 -2.578125,-6.13414 0,-3.87657 -1.419424,-2.22141 29.807048,-34.75748 C 92.069827,227.91193 95.264062,225 97.5978,225 c 3.24208,0 3.80535,0.50711 49.8657,44.89376 17.9854,17.33187 33.45173,31.63999 34.36963,31.79582 1.23673,0.20996 23.72131,-28.07249 86.82902,-109.21875 46.83807,-60.22614 89.08847,-114.459111 93.88977,-120.517705 12.58332,-15.878444 9.63638,-16.56495 43.33722,10.095624 14.66872,11.60435 27.0021,21.621091 27.40753,22.259411 1.34253,2.11381 0.79633,7.89949 -0.96059,10.17478 -60.47871,78.32343 -233.6447,300.16921 -235.73302,302.00143 -5.12746,4.49867 -8.13218,3.71631 -16.47635,-4.29007 z"
       id="path4144"
       inkscape:connector-curvature="0" />
    <path
       style="fill:#4f514f"
       d="m 186.90837,417.8574 c -1.09883,-0.62626 -33.05096,-30.99877 -71.00471,-67.49446 -45.419792,-43.67491 -69.216821,-67.19246 -69.621174,-68.80354 -0.337885,-1.34624 -0.237327,-3.42093 0.223463,-4.61043 1.280189,-3.30473 47.061719,-50.92998 49.56141,-51.55737 1.201819,-0.30164 3.241435,0.0142 4.532491,0.70186 1.29106,0.68766 19.90254,18.12529 41.35883,38.75029 21.4563,20.625 39.53145,37.60213 40.16701,37.72696 0.63556,0.12482 42.71025,-53.22984 93.49931,-118.56593 50.78906,-65.33608 93.2738,-119.754612 94.41052,-120.930075 1.36938,-1.416065 3.16326,-2.137205 5.31641,-2.137205 2.80799,0 6.66807,2.680988 28.40198,19.726369 13.83379,10.849503 26.3125,20.981151 27.73046,22.514791 2.70808,2.92897 3.26362,6.28875 1.56475,9.46313 -2.04249,3.81641 -231.80707,298.57914 -235.74609,302.43633 -4.23542,4.14746 -6.79382,4.83151 -10.39466,2.77928 z"
       id="path4142"
       inkscape:connector-curvature="0" />
    <path
       style="fill:#323232"
       d="m 175.51493,406.64062 c -6.55938,-6.3164 -37.9761,-36.51358 -69.81491,-67.10484 -37.230814,-35.77199 -58.103857,-56.47757 -58.491555,-58.02228 -0.33155,-1.32099 -0.225806,-3.36476 0.234984,-4.54169 1.346514,-3.43921 46.219666,-50.03929 48.811251,-50.68973 1.266225,-0.3178 3.077006,-0.20893 4.02397,0.24193 0.94695,0.45085 19.48524,17.90568 41.19619,38.78849 21.71096,20.88281 40.10035,37.96875 40.86532,37.96875 0.76497,0 43.42071,-54 94.79054,-120 51.36983,-66 93.87801,-120.309946 94.46261,-120.688769 0.58461,-0.378823 2.40357,-0.695229 4.04214,-0.703125 2.47432,-0.01192 7.47835,3.529233 29.52606,20.894445 27.73562,21.845119 29.31027,23.488159 27.38831,28.578009 -1.17438,3.11009 -230.65386,298.31227 -235.73367,303.24756 -6.07546,5.90263 -7.41769,5.4005 -21.30124,-7.96875 z"
       id="path4140"
       inkscape:connector-curvature="0" />
  </g>
</svg>
