<?xml version="1.0" encoding="UTF-8" standalone="no"?>
<!-- Created with Inkscape (http://www.inkscape.org/) -->

<svg
   xmlns:dc="http://purl.org/dc/elements/1.1/"
   xmlns:cc="http://creativecommons.org/ns#"
   xmlns:rdf="http://www.w3.org/1999/02/22-rdf-syntax-ns#"
   xmlns:svg="http://www.w3.org/2000/svg"
   xmlns="http://www.w3.org/2000/svg"
   xmlns:sodipodi="http://sodipodi.sourceforge.net/DTD/sodipodi-0.dtd"
   xmlns:inkscape="http://www.inkscape.org/namespaces/inkscape"
   width="157.23711mm"
   height="40.335201mm"
   viewBox="0 0 557.13935 142.92"
   id="svg2"
   version="1.1"
   inkscape:version="0.91 r13725"
   sodipodi:docname="discount.svg">
  <defs
     id="defs4" />
  <sodipodi:namedview
     id="base"
     pagecolor="#000000"
     bordercolor="#666666"
     borderopacity="1.0"
     inkscape:pageopacity="0"
     inkscape:pageshadow="2"
     inkscape:zoom="0.35"
     inkscape:cx="297.76622"
     inkscape:cy="-30.806128"
     inkscape:document-units="px"
     inkscape:current-layer="layer1"
     showgrid="false"
     units="mm"
     fit-margin-top="0"
     fit-margin-left="0"
     fit-margin-right="0"
     fit-margin-bottom="0"
     inkscape:window-width="1855"
     inkscape:window-height="1056"
     inkscape:window-x="65"
     inkscape:window-y="24"
     inkscape:window-maximized="1" />
  <metadata
     id="metadata7">
    <rdf:RDF>
      <cc:Work
         rdf:about="">
        <dc:format>image/svg+xml</dc:format>
        <dc:type
           rdf:resource="http://purl.org/dc/dcmitype/StillImage" />
        <dc:title></dc:title>
      </cc:Work>
    </rdf:RDF>
  </metadata>
  <g
     inkscape:label="Layer 1"
     inkscape:groupmode="layer"
     id="layer1"
     transform="translate(302.76624,-487.20754)">
    <g
       transform="translate(-328.57143,393.98201)"
       style="font-style:normal;font-variant:normal;font-weight:normal;font-stretch:normal;font-size:40px;line-height:125%;font-family:'Svyaznoy RF';-inkscape-font-specification:'Svyaznoy RF, Normal';text-align:start;letter-spacing:0px;word-spacing:0px;writing-mode:lr-tb;text-anchor:start;fill:#ffffff;fill-opacity:1;stroke:none;stroke-width:1px;stroke-linecap:butt;stroke-linejoin:miter;stroke-opacity:1"
       id="flowRoot4162">
      <path
         d="m 107.70516,210.40553 q -15.660004,3.42 -32.760004,3.42 -49.14,0 -49.14,-31.68 l 0,-55.44 q 0,-33.479996 49.14,-33.479996 16.38,0 32.040004,3.42 l 0,12.959996 q -17.280004,-4.32 -31.680004,-4.32 -6.84,0 -12.06,0.9 -5.22,0.72 -10.26,2.88 -5.04,1.98 -7.74,6.48 -2.7,4.32 -2.7,10.98 l 0,54.72 q 0,20.16 33.48,20.16 14.4,0 31.680004,-4.32 l 0,13.32 z"
         style="font-style:normal;font-variant:normal;font-weight:normal;font-stretch:normal;font-size:180px;line-height:125%;font-family:Play;-inkscape-font-specification:'Play, Normal';text-align:start;writing-mode:lr-tb;text-anchor:start;fill:#ffffff"
         id="path4212" />
      <path
         d="m 129.74672,212.02553 0,-87.12 16.2,0 0,37.62 q 6.3,0 9.54,-1.8 3.42,-1.8 7.38,-8.1 l 8.82,-14.22 q 5.04,-8.28 10.26,-10.8 5.4,-2.7 15.3,-2.7 l 6.12,0 0,9.18 -3.42,0 q -9.18,0 -15.12,9.54 l -6.84,11.16 q -6.3,10.98 -12.96,12.6 5.04,1.26 19.8,17.64 l 24.3,27 -19.98,0 -23.76,-27 q -5.22,-5.94 -9.54,-8.82 -4.32,-2.88 -5.76,-3.06 -1.44,-0.18 -4.14,-0.18 l 0,39.06 -16.2,0 z"
         style="font-style:normal;font-variant:normal;font-weight:normal;font-stretch:normal;font-size:180px;line-height:125%;font-family:Play;-inkscape-font-specification:'Play, Normal';text-align:start;writing-mode:lr-tb;text-anchor:start;fill:#ffffff"
         id="path4214" />
      <path
         d="m 241.33828,212.02553 -21.06,0 0,-87.12 15.3,0 0,70.38 43.2,-70.38 21.06,0 0,87.12 -15.3,0 0,-72 -43.2,72 z"
         style="font-style:normal;font-variant:normal;font-weight:normal;font-stretch:normal;font-size:180px;line-height:125%;font-family:Play;-inkscape-font-specification:'Play, Normal';text-align:start;writing-mode:lr-tb;text-anchor:start;fill:#ffffff"
         id="path4216" />
      <path
         d="m 377.71641,200.50553 0,-64.08 -27.18,0 0,4.5 q 0,34.2 -9.72,59.58 l 36.9,0 z m -41.58,-69.48 0,-6.12 55.98,0 0,75.6 8.64,0 0,35.64 -13.86,0 0,-24.12 -56.34,0 0,24.12 -13.86,0 0,-35.64 8.28,0 q 11.16,-25.02 11.16,-69.48 z"
         style="font-style:normal;font-variant:normal;font-weight:normal;font-stretch:normal;font-size:180px;line-height:125%;font-family:Play;-inkscape-font-specification:'Play, Normal';text-align:start;writing-mode:lr-tb;text-anchor:start;fill:#ffffff"
         id="path4218" />
      <path
         d="m 423.65297,212.02553 0,-87.12 16.2,0 0,37.62 q 6.3,0 9.54,-1.8 3.42,-1.8 7.38,-8.1 l 8.82,-14.22 q 5.04,-8.28 10.26,-10.8 5.4,-2.7 15.3,-2.7 l 6.12,0 0,9.18 -3.42,0 q -9.18,0 -15.12,9.54 l -6.84,11.16 q -6.3,10.98 -12.96,12.6 5.04,1.26 19.8,17.64 l 24.3,27 -19.98,0 -23.76,-27 q -5.22,-5.94 -9.54,-8.82 -4.32,-2.88 -5.76,-3.06 -1.44,-0.18 -4.14,-0.18 l 0,39.06 -16.2,0 z"
         style="font-style:normal;font-variant:normal;font-weight:normal;font-stretch:normal;font-size:180px;line-height:125%;font-family:Play;-inkscape-font-specification:'Play, Normal';text-align:start;writing-mode:lr-tb;text-anchor:start;fill:#ffffff"
         id="path4220" />
      <path
         d="m 582.94453,212.02553 -15.66,0 0,-8.28 q -1.98,10.08 -26.28,10.08 -18,0 -25.02,-5.4 -6.84,-5.58 -6.84,-22.32 0,-14.58 6.48,-19.98 6.48,-5.58 25.02,-5.58 l 26.1,0 0,-13.86 q 0,-7.2 -4.5,-9.72 -4.32,-2.52 -16.56,-2.52 -13.32,0 -29.88,2.16 l 0,-11.88 q 17.82,-1.62 32.22,-1.62 21.96,0 28.44,5.4 6.48,5.22 6.48,21.96 l 0,61.56 z m -16.2,-17.28 0,-24.12 -25.02,0 q -11.16,0 -14.04,2.88 -2.7,2.88 -2.7,13.14 0,9.36 2.88,13.14 3.06,3.78 12.6,3.78 l 3.24,0 q 4.68,0 7.74,-0.18 3.24,-0.18 7.2,-0.9 3.96,-0.9 5.94,-2.7 2.16,-1.98 2.16,-5.04 z"
         style="font-style:normal;font-variant:normal;font-weight:normal;font-stretch:normal;font-size:180px;line-height:125%;font-family:Play;-inkscape-font-specification:'Play, Normal';text-align:start;writing-mode:lr-tb;text-anchor:start;fill:#ffffff"
         id="path4222" />
    </g>
  </g>
</svg>
