<?xml version="1.0" encoding="UTF-8" standalone="no"?>
<!-- Created with Inkscape (http://www.inkscape.org/) -->

<svg
   xmlns:dc="http://purl.org/dc/elements/1.1/"
   xmlns:cc="http://creativecommons.org/ns#"
   xmlns:rdf="http://www.w3.org/1999/02/22-rdf-syntax-ns#"
   xmlns:svg="http://www.w3.org/2000/svg"
   xmlns="http://www.w3.org/2000/svg"
   xmlns:sodipodi="http://sodipodi.sourceforge.net/DTD/sodipodi-0.dtd"
   xmlns:inkscape="http://www.inkscape.org/namespaces/inkscape"
   width="57.222233mm"
   height="34.035999mm"
   viewBox="0 0 202.75594 120.6"
   id="svg2"
   version="1.1"
   inkscape:version="0.91 r13725"
   sodipodi:docname="discount_prc.svg">
  <defs
     id="defs4" />
  <sodipodi:namedview
     id="base"
     pagecolor="#000000"
     bordercolor="#666666"
     borderopacity="1.0"
     inkscape:pageopacity="0"
     inkscape:pageshadow="2"
     inkscape:zoom="1"
     inkscape:cx="-165.31431"
     inkscape:cy="7.5096772"
     inkscape:document-units="px"
     inkscape:current-layer="layer1"
     showgrid="false"
     inkscape:window-width="1855"
     inkscape:window-height="1056"
     inkscape:window-x="65"
     inkscape:window-y="24"
     inkscape:window-maximized="1"
     fit-margin-top="0"
     fit-margin-left="0"
     fit-margin-right="0"
     fit-margin-bottom="0" />
  <metadata
     id="metadata7">
    <rdf:RDF>
      <cc:Work
         rdf:about="">
        <dc:format>image/svg+xml</dc:format>
        <dc:type
           rdf:resource="http://purl.org/dc/dcmitype/StillImage" />
        <dc:title></dc:title>
      </cc:Work>
    </rdf:RDF>
  </metadata>
  <g
     inkscape:label="Layer 1"
     inkscape:groupmode="layer"
     id="layer1"
     transform="translate(-164.34258,-221.49311)">
    <g
       style="font-style:normal;font-weight:normal;font-size:40px;line-height:125%;font-family:sans-serif;letter-spacing:0px;word-spacing:0px;fill:#ffffff;fill-opacity:1;stroke:none;stroke-width:1px;stroke-linecap:butt;stroke-linejoin:miter;stroke-opacity:1"
       id="flowRoot4136">
      <path
         d="m 214.38258,295.29311 -50.04,0 0,-12.96 50.04,0 0,12.96 z"
         style="font-style:normal;font-variant:normal;font-weight:normal;font-stretch:normal;font-size:180px;line-height:125%;font-family:Play;-inkscape-font-specification:'Play, Normal';text-align:start;writing-mode:lr-tb;text-anchor:start"
         id="path4169" />
      <path
         d="m 286.45852,243.63311 0,22.5 q 0,5.94 -2.34,9.72 -2.16,3.78 -6.66,5.4 -4.32,1.62 -8.64,2.16 -4.14,0.54 -10.62,0.54 -6.48,0 -10.8,-0.54 -4.14,-0.54 -8.64,-2.16 -4.5,-1.62 -6.84,-5.4 -2.16,-3.78 -2.16,-9.72 l 0,-22.5 q 0,-12.06 7.56,-16.02 7.74,-4.14 20.88,-4.14 13.14,0 20.7,4.14 7.56,3.96 7.56,16.02 z m -14.04,21.78 0,-22.5 q 0,-6.48 -3.42,-8.28 -3.24,-1.8 -10.8,-1.8 -7.74,0 -11.16,1.8 -3.24,1.8 -3.24,8.28 l 0,22.5 q 0,5.76 3.42,7.56 3.42,1.62 10.98,1.62 7.56,0 10.8,-1.62 3.42,-1.8 3.42,-7.56 z m 62.82,-43.92 -58.32,120.6 -13.86,0 58.32,-120.6 13.86,0 z m 31.86,80.28 0,22.5 q 0,5.94 -2.34,9.72 -2.16,3.78 -6.66,5.4 -4.32,1.62 -8.64,2.16 -4.14,0.54 -10.62,0.54 -6.48,0 -10.8,-0.54 -4.14,-0.54 -8.64,-2.16 -4.5,-1.62 -6.84,-5.4 -2.16,-3.78 -2.16,-9.72 l 0,-22.5 q 0,-12.06 7.56,-16.02 7.74,-4.14 20.88,-4.14 13.14,0 20.7,4.14 7.56,3.96 7.56,16.02 z m -14.04,21.78 0,-22.5 q 0,-6.48 -3.42,-8.28 -3.24,-1.8 -10.8,-1.8 -7.74,0 -11.16,1.8 -3.24,1.8 -3.24,8.28 l 0,22.5 q 0,5.76 3.42,7.56 3.42,1.62 10.98,1.62 7.56,0 10.8,-1.62 3.42,-1.8 3.42,-7.56 z"
         style="font-style:normal;font-variant:normal;font-weight:normal;font-stretch:normal;font-size:180px;line-height:125%;font-family:Play;-inkscape-font-specification:'Play, Normal';text-align:start;writing-mode:lr-tb;text-anchor:start"
         id="path4171" />
    </g>
  </g>
</svg>
