<?xml version="1.0" encoding="UTF-8" standalone="no"?>
<!-- Created with Inkscape (http://www.inkscape.org/) -->

<svg
   xmlns:dc="http://purl.org/dc/elements/1.1/"
   xmlns:cc="http://creativecommons.org/ns#"
   xmlns:rdf="http://www.w3.org/1999/02/22-rdf-syntax-ns#"
   xmlns:svg="http://www.w3.org/2000/svg"
   xmlns="http://www.w3.org/2000/svg"
   xmlns:sodipodi="http://sodipodi.sourceforge.net/DTD/sodipodi-0.dtd"
   xmlns:inkscape="http://www.inkscape.org/namespaces/inkscape"
   id="svg2"
   version="1.1"
   inkscape:version="0.91 r13725"
   width="851.30505"
   height="790.08771"
   viewBox="0 0 851.30505 790.08771"
   sodipodi:docname="menu.svg">
  <metadata
     id="metadata8">
    <rdf:RDF>
      <cc:Work
         rdf:about="">
        <dc:format>image/svg+xml</dc:format>
        <dc:type
           rdf:resource="http://purl.org/dc/dcmitype/StillImage" />
        <dc:title></dc:title>
      </cc:Work>
    </rdf:RDF>
  </metadata>
  <defs
     id="defs6" />
  <sodipodi:namedview
     pagecolor="#ffffff"
     bordercolor="#666666"
     borderopacity="1"
     objecttolerance="10"
     gridtolerance="10"
     guidetolerance="10"
     inkscape:pageopacity="0"
     inkscape:pageshadow="2"
     inkscape:window-width="1855"
     inkscape:window-height="1056"
     id="namedview4"
     showgrid="false"
     fit-margin-top="0"
     fit-margin-left="0"
     fit-margin-right="0"
     fit-margin-bottom="0"
     inkscape:zoom="0.20977778"
     inkscape:cx="1166.4278"
     inkscape:cy="257.39705"
     inkscape:window-x="65"
     inkscape:window-y="24"
     inkscape:window-maximized="1"
     inkscape:current-layer="svg2" />
  <g
     id="g4140"
     transform="translate(-137.33282,-153.75)">
    <path
       style="fill:#cecece"
       d="m 187.5,942.48566 c -23.74365,-4.09566 -43.65703,-23.4422 -48.61865,-47.23468 -2.24443,-10.76275 -1.82976,-79.25414 0.53479,-88.33228 2.78045,-10.67489 7.66507,-19.00858 16.23263,-27.69461 8.22899,-8.34277 16.61779,-13.2183 27.71785,-16.1095 10.58378,-2.75673 748.61674,-2.80418 758.96911,-0.0488 23.82732,6.34187 41.60667,26.19823 45.27341,50.56233 0.88467,5.87843 1.19259,22.06244 0.84425,44.375 -0.49458,31.68017 -0.81129,35.91807 -3.23191,43.24687 -1.47599,4.46875 -4.00937,10.29628 -5.62974,12.95008 -4.66308,7.63702 -15.39356,17.71273 -23.41973,21.99063 -15.06968,8.03206 11.77365,7.52811 -393.67201,7.39056 -203.15625,-0.0689 -371.90625,-0.56195 -375,-1.09561 z m -2.04756,-304.35299 c -4.2199,-0.91771 -10.9663,-3.26362 -14.992,-5.21312 -9.25431,-4.48154 -21.52547,-16.59197 -25.8452,-25.50673 C 138.11845,594.00526 137.5,588.85197 137.5,548.125 c 0,-40.94779 0.66897,-46.38469 7.21725,-58.65643 4.45441,-8.34773 16.9054,-20.84898 24.69291,-24.79257 15.32916,-7.76269 -16.77413,-7.179 393.00422,-7.14544 252.98684,0.0208 375.02262,0.44788 378.83562,1.32605 16.84472,3.87953 32.6836,16.62586 40.47327,32.57089 6.48018,13.26455 7.37565,21.64252 6.71509,62.82564 -0.61364,38.25666 -1.25409,42.40792 -8.51748,55.20812 -4.63688,8.17152 -16.36494,19.32811 -24.82447,23.61489 -14.39356,7.29376 9.06793,6.88722 -392.59641,6.80277 -303.13637,-0.0637 -370.75089,-0.37688 -377.04756,-1.74624 z m 0.0613,-303.73027 c -22.5686,-4.93195 -40.23843,-22.17188 -46.09916,-44.97753 -1.51176,-5.88265 -1.91458,-15.35613 -1.91458,-45.02705 0,-32.57817 0.30437,-38.6746 2.28807,-45.82842 5.79648,-20.90391 22.50679,-37.57912 43.17242,-43.08174 5.35552,-1.42601 68.0148,-1.7054 379.53951,-1.69227 251.61096,0.01 374.94555,0.43524 378.71524,1.30387 17.10422,3.94128 32.63053,16.38288 40.43405,32.40074 6.57831,13.50297 7.47495,21.818 6.80116,63.07166 -0.5057,30.96255 -0.87094,35.9648 -3.12967,42.86352 -3.36658,10.28224 -8.99544,18.85268 -17.46737,26.59555 -7.47247,6.82941 -10.76928,8.81094 -21.49445,12.91912 L 939.375,335.625 566.25,335.84536 c -306.54241,0.18104 -374.48321,-0.0765 -380.73634,-1.44296 z"
       id="path4154"
       inkscape:connector-curvature="0" />
    <path
       style="fill:#aeaeae"
       d="M 185.45244,941.88267 C 162.29551,936.84667 143.66549,918.1924 138.88135,895.25098 138.05232,891.27554 137.5,873.7623 137.5,851.4511 c 0,-40.48851 0.68102,-45.98338 7.21725,-58.23252 4.34294,-8.13884 16.61249,-20.40839 24.75132,-24.75133 14.53115,-7.75392 -14.71954,-7.21867 393.60656,-7.20241 318.91852,0.0127 373.51593,0.27196 379.2606,1.80096 23.85742,6.34989 41.60543,26.19345 45.28403,50.63086 0.90207,5.99249 1.19756,21.84075 0.82739,44.375 -0.51675,31.45764 -0.84919,35.88679 -3.24084,43.17834 -6.73198,20.52411 -24.09733,36.26179 -44.86905,40.6634 -12.20215,2.58569 -742.9906,2.55595 -754.88482,-0.0308 z m -0.12413,-303.77531 c -22.39237,-4.86492 -40.06032,-22.15527 -45.91375,-44.93249 -2.77642,-10.80378 -2.77523,-79.34532 0.001,-90.00617 5.28174,-20.27795 21.30874,-36.93129 41.56288,-43.18715 7.93887,-2.45208 12.46916,-2.48137 381.34016,-2.46671 409.21703,0.0163 378.5969,-0.57783 394.06026,7.64548 17.13059,9.10993 28.5586,25.94353 31.26502,46.05373 0.86924,6.45901 1.17038,22.991 0.80579,44.23708 -0.51086,29.76992 -0.89467,34.88022 -3.1344,41.73405 -6.93737,21.22916 -25.35271,37.42203 -47.13818,41.4493 -5.24213,0.96906 -114.47393,1.33667 -376.21974,1.26615 -305.37572,-0.0822 -370.17434,-0.39082 -376.6296,-1.79327 z M 187.5,334.83775 C 170.83241,332.08765 152.15887,318.47176 144.72589,303.64881 138.13926,290.51366 137.5,285.27188 137.5,244.39782 c 0,-32.76223 0.29716,-38.6486 2.31926,-45.94091 5.74286,-20.71052 21.40065,-36.40412 42.59511,-42.69251 6.1786,-1.83318 40.36407,-2.01165 380.00001,-1.98384 251.6177,0.0206 375.03193,0.45024 378.80086,1.3187 17.12985,3.94718 32.77565,16.55033 40.51098,32.63275 6.47422,13.46045 7.39082,22.02634 6.72423,62.83965 -0.5057,30.96255 -0.87094,35.9648 -3.12968,42.86352 -3.36657,10.28224 -8.99543,18.85268 -17.46736,26.59555 -7.47247,6.82941 -10.76929,8.81094 -21.49445,12.91912 l -6.98396,2.67515 -372.5,0.17355 c -218.04561,0.10159 -375.35066,-0.2968 -379.375,-0.9608 z"
       id="path4152"
       inkscape:connector-curvature="0" />
    <path
       style="fill:#8e8e8e"
       d="m 185.51366,941.89516 c -22.9589,-4.99542 -41.92051,-23.96015 -46.63652,-46.64418 -2.14679,-10.32602 -1.80189,-79.16867 0.43881,-87.58728 4.34099,-16.30971 16.23337,-31.76904 30.15262,-39.19645 14.53115,-7.75393 -14.71954,-7.21868 393.60656,-7.20241 306.43992,0.0125 373.65894,0.31055 378.79987,1.68128 24.50407,6.53359 42.34144,26.48915 45.6906,51.11642 0.77545,5.70205 1.11077,23.95811 0.81506,44.375 -0.44488,30.71762 -0.79506,35.5813 -3.05972,42.49763 -6.79899,20.76425 -24.205,36.5735 -45.1571,41.01452 -11.99368,2.54218 -742.95848,2.48937 -754.65018,-0.0545 z M 185.32832,638.11357 C 168.73585,634.4955 151.83156,621.73011 144.72708,607.4533 138.1645,594.26546 137.5,588.91694 137.5,549.28299 c 0,-20.04298 0.55729,-39.38033 1.23841,-42.97189 4.1284,-21.76895 22.52915,-41.19044 44.43029,-46.89496 6.5295,-1.70073 49.12754,-1.91614 378.9074,-1.91614 267.35727,0 373.40841,0.38896 378.17488,1.38702 24.22465,5.07245 44.35609,27.01211 47.04068,51.26585 0.56143,5.07218 0.94473,24.69088 0.85178,43.59713 -0.14191,28.86733 -0.52318,35.57668 -2.37955,41.875 -2.88743,9.79647 -7.27183,17.21045 -15.04011,25.43268 -7.06108,7.47368 -13.04507,11.34637 -23.94867,15.499 L 939.375,639.375 566.25,639.59435 c -310.56413,0.18256 -374.43225,-0.0657 -380.92168,-1.48078 z M 187.5,334.85806 C 171.17961,332.21346 152.05102,318.25668 144.72589,303.64881 138.16845,290.57188 137.5,285.18565 137.5,245.4239 c 0,-21.85491 0.5554,-39.21416 1.38135,-43.17488 4.62559,-22.1811 22.4065,-40.88365 44.28735,-46.58288 6.53101,-1.70112 49.16345,-1.91272 379.90643,-1.88558 246.66908,0.0203 374.4033,0.45784 378.03514,1.29511 20.24517,4.66727 36.94068,20.13143 44.09357,40.84154 2.8319,8.19933 2.91997,9.69924 2.88211,49.08279 -0.0376,39.12945 -0.14474,40.92411 -2.90975,48.75 -3.83205,10.84596 -8.97979,18.65569 -17.32279,26.28073 -7.47247,6.82941 -10.76928,8.81094 -21.49445,12.91912 l -6.98396,2.67515 -372.5,0.17355 C 353.87874,335.8978 191.43114,335.49508 187.5,334.85806 Z"
       id="path4150"
       inkscape:connector-curvature="0" />
    <path
       style="fill:#6f6f6f"
       d="m 185.32832,941.8646 c -22.96293,-5.0102 -42.36129,-24.7962 -46.47792,-47.40668 -1.79686,-9.86927 -1.77267,-76.05991 0.031,-84.7089 4.62559,-22.18109 22.4065,-40.88364 44.28735,-46.58288 6.53034,-1.70094 49.19717,-1.91448 379.90643,-1.9013 408.38806,0.0162 377.84148,-0.57754 393.30431,7.64549 16.58253,8.81847 28.76235,26.2466 30.89983,44.21467 0.5725,4.8125 0.92737,24.78125 0.78859,44.375 -0.22604,31.91251 -0.51556,36.4389 -2.7783,43.43518 -3.31531,10.25081 -8.94056,18.83105 -17.43615,26.59555 -7.47247,6.82941 -10.76929,8.81095 -21.49445,12.91912 L 939.375,943.125 566.25,943.34536 c -310.67808,0.18349 -374.42986,-0.0644 -380.92168,-1.48076 z m 0,-303.75 c -20.14122,-4.39455 -37.01801,-19.29091 -44.44763,-39.23191 -2.39416,-6.42592 -2.65114,-10.2247 -3.09525,-45.75769 -0.53535,-42.83301 0.0669,-48.76861 6.27785,-61.875 4.5385,-9.57713 15.9349,-21.47929 25.40528,-26.53275 C 183.99792,456.9643 154.8564,457.5 562.0761,457.5 c 267.35727,0 373.40841,0.38896 378.17488,1.38702 17.09787,3.58017 33.94642,16.94193 41.70617,33.07512 5.66679,11.78171 6.37955,19.13517 6.11028,63.03786 -0.18919,30.84404 -0.47242,35.17725 -2.75734,42.18517 -3.34898,10.27143 -8.97665,18.84528 -17.45668,26.59555 -7.47247,6.82942 -10.76928,8.81095 -21.49445,12.91913 L 939.375,639.375 566.25,639.59536 c -310.67808,0.18349 -374.42986,-0.0644 -380.92168,-1.48076 z M 187.5,334.85806 c -14.48639,-2.34741 -32.38394,-14.26912 -40.27713,-26.82892 -1.69508,-2.69728 -4.41625,-8.27914 -6.04701,-12.40414 -2.85251,-7.2154 -2.98229,-8.97045 -3.41989,-46.25 -0.50261,-42.81833 0.106,-48.78905 6.30732,-61.875 4.5385,-9.57713 15.9349,-21.47929 25.40528,-26.53275 14.53115,-7.75393 -14.71954,-7.21868 393.60656,-7.20241 318.91852,0.0128 373.51593,0.27196 379.2606,1.80096 20.33921,5.41347 35.46362,19.60761 42.79107,40.15909 2.47239,6.93436 2.64494,9.99633 2.74153,48.65011 0.0995,39.82776 0.005,41.53014 -2.73897,49.375 -6.55638,18.74372 -19.42432,31.84711 -38.35527,39.05702 l -7.39909,2.81798 -372.5,0.17355 C 353.87874,335.8978 191.43114,335.49508 187.5,334.85806 Z"
       id="path4148"
       inkscape:connector-curvature="0" />
    <path
       style="fill:#4f4f4f"
       d="m 185.32832,941.8646 c -14.77464,-3.22362 -30.33327,-13.96875 -38.08413,-26.30171 -1.70681,-2.71584 -4.43756,-8.31289 -6.06833,-12.43789 -2.85251,-7.2154 -2.98229,-8.97045 -3.41989,-46.25 -0.50261,-42.81833 0.10601,-48.78905 6.30732,-61.875 4.5385,-9.57713 15.9349,-21.47929 25.40528,-26.53275 C 183.99792,760.7143 154.8564,761.25 562.0761,761.25 c 270.34028,0 373.35524,0.38285 378.17488,1.40548 20.61763,4.37461 38.43011,20.61744 44.86014,40.90711 2.44927,7.7285 2.6379,11.16613 2.68544,48.93741 0.0472,37.53634 -0.14215,41.2188 -2.49092,48.43518 -3.34167,10.26693 -8.96882,18.84218 -17.45223,26.59555 -7.47247,6.82941 -10.76928,8.81094 -21.49445,12.91912 L 939.375,943.125 566.25,943.34536 c -310.67808,0.18349 -374.42986,-0.0644 -380.92168,-1.48076 z M 187.5,638.60806 c -14.48639,-2.34741 -32.38394,-14.26912 -40.27713,-26.82892 -1.69508,-2.69728 -4.41625,-8.27914 -6.04701,-12.40414 -2.85251,-7.2154 -2.98229,-8.97045 -3.41989,-46.25 -0.50261,-42.81833 0.106,-48.78905 6.30732,-61.875 4.5385,-9.57713 15.9349,-21.47929 25.40528,-26.53275 C 183.99829,456.9641 154.81457,457.5 562.5,457.5 c 409.77292,0 378.34204,-0.6115 393.86634,7.66286 13.76466,7.33649 24.11001,19.87393 28.72733,34.81442 2.29507,7.42624 2.49877,11.50488 2.44125,48.88248 -0.0513,33.27849 -0.42476,42.02052 -2.03066,47.52272 -5.25572,18.00728 -19.60342,32.89006 -38.73017,40.17455 l -7.39909,2.81797 -372.5,0.17355 C 353.87874,639.6478 191.43114,639.24508 187.5,638.60806 Z m 0,-303.74998 c -23.05905,-3.7366 -44.27828,-24.84049 -48.73101,-48.46619 -1.7301,-9.17969 -1.64122,-75.73388 0.11237,-84.14286 4.62559,-22.1811 22.4065,-40.88365 44.28735,-46.58289 6.53034,-1.70094 49.19718,-1.91448 379.90643,-1.9013 306.43992,0.0125 373.65895,0.31055 378.79987,1.68129 21.25065,5.66612 37.11409,20.80912 43.39108,41.42048 2.47638,8.13158 2.66366,11.53369 2.68341,48.75 0.0204,38.37972 -0.0941,40.33914 -2.81138,48.13339 -6.69727,19.21034 -20.81522,33.13222 -40.13811,39.58068 -6.60325,2.20363 -21.57444,2.30118 -378.75,2.46788 -212.63349,0.0992 -374.81896,-0.30348 -378.75,-0.94048 z"
       id="path4146"
       inkscape:connector-curvature="0" />
    <path
       style="fill:#313131"
       d="m 187.5,942.35088 c -10.36611,-1.66893 -24.04399,-8.9331 -31.95384,-16.97034 -7.7432,-7.86791 -14.90837,-21.29964 -16.79767,-31.48865 -1.71118,-9.22843 -1.60943,-75.78274 0.12865,-84.14287 4.76876,-22.93773 24.16255,-42.3298 47.12188,-47.11767 9.43272,-1.96706 744.85711,-1.96154 754.25196,0.006 14.42017,3.01948 30.46574,14.27553 38.58003,27.0641 8.02378,12.64593 8.66899,17.3326 8.66899,62.96998 0,38.34408 -0.17755,41.68915 -2.59725,48.93083 -4.99281,14.94255 -16.69539,28.56028 -30.23736,35.18574 -15.02017,7.34869 9.13811,6.93013 -392.16539,6.79449 -206.98129,-0.07 -371.13448,-0.60894 -375,-1.23129 z m 0.0842,-303.76238 c -16.61019,-2.77286 -34.2235,-15.59134 -42.33514,-30.81035 -6.87566,-12.90005 -7.7101,-19.3443 -7.73064,-59.70302 -0.02,-39.34839 0.62295,-44.59212 7.12103,-58.07513 4.00461,-8.30926 16.09835,-20.62398 24.82907,-25.28275 C 183.99829,456.9641 154.81457,457.5 562.5,457.5 c 329.97931,0 372.80436,0.21609 379.32306,1.91399 20.3459,5.29943 37.14527,21.01285 43.19758,40.40518 2.25948,7.23965 2.47665,11.5075 2.4488,48.125 -0.0171,22.50804 -0.58639,42.59184 -1.2943,45.6625 -4.42195,19.18073 -20.38408,36.27245 -40.23996,43.08763 l -7.81018,2.6807 -371.875,0.17356 c -217.54755,0.1015 -374.69315,-0.29689 -378.66575,-0.96006 z m 1.7908,-303.59809 c -25.32115,-3.89771 -45.87521,-23.6949 -50.62974,-48.76539 -1.71236,-9.02925 -1.60442,-75.62966 0.13609,-83.976 4.62559,-22.1811 22.4065,-40.88365 44.28735,-46.58288 6.5295,-1.70073 49.12754,-1.91614 378.9074,-1.91614 267.35727,0 373.40841,0.38896 378.17488,1.38702 14.56635,3.05008 30.36658,14.11914 38.53854,26.99868 8.06932,12.71776 8.71048,17.35768 8.71048,63.0354 0,38.10085 -0.18913,41.71919 -2.54643,48.71671 -6.12188,18.17254 -20.63784,32.83961 -38.51043,38.91133 l -8.31814,2.82586 -371.25,0.16374 c -204.1875,0.09 -374.0625,-0.2692 -377.5,-0.79833 z"
       id="path4144"
       inkscape:connector-curvature="0" />
    <path
       style="fill:#000000"
       d="m 953.75,468.75 c 0,-0.78283 -7.70834,-1.25 -20.625,-1.25 l -20.625,0 0,-3.125 0,-3.125 -42.5,0 c -37.62362,0 -42.5,-0.22316 -42.5,-1.94494 0,-1.73705 6.04534,-1.90281 56.5625,-1.55091 55.19174,0.38446 56.72911,0.4617 63.4375,3.18705 3.78125,1.53618 9.125,4.18529 11.875,5.88691 l 5,3.09387 -5.3125,0.039 c -2.92188,0.0215 -5.3125,-0.52348 -5.3125,-1.21098 z"
       id="path4142"
       inkscape:connector-curvature="0" />
  </g>
</svg>
