<?xml version="1.0" encoding="UTF-8" standalone="no"?>
<!-- Created with Inkscape (http://www.inkscape.org/) -->

<svg
   xmlns:dc="http://purl.org/dc/elements/1.1/"
   xmlns:cc="http://creativecommons.org/ns#"
   xmlns:rdf="http://www.w3.org/1999/02/22-rdf-syntax-ns#"
   xmlns:svg="http://www.w3.org/2000/svg"
   xmlns="http://www.w3.org/2000/svg"
   xmlns:sodipodi="http://sodipodi.sourceforge.net/DTD/sodipodi-0.dtd"
   xmlns:inkscape="http://www.inkscape.org/namespaces/inkscape"
   id="svg2"
   version="1.1"
   inkscape:version="0.91 r13725"
   width="22.369009"
   height="22.367336"
   viewBox="0 0 22.369009 22.367337"
   sodipodi:docname="plus_inactive.svg">
  <metadata
     id="metadata8">
    <rdf:RDF>
      <cc:Work
         rdf:about="">
        <dc:format>image/svg+xml</dc:format>
        <dc:type
           rdf:resource="http://purl.org/dc/dcmitype/StillImage" />
        <dc:title></dc:title>
      </cc:Work>
    </rdf:RDF>
  </metadata>
  <defs
     id="defs6" />
  <sodipodi:namedview
     pagecolor="#ffffff"
     bordercolor="#666666"
     borderopacity="1"
     objecttolerance="10"
     gridtolerance="10"
     guidetolerance="10"
     inkscape:pageopacity="0"
     inkscape:pageshadow="2"
     inkscape:window-width="1855"
     inkscape:window-height="1056"
     id="namedview4"
     showgrid="false"
     fit-margin-top="0"
     fit-margin-left="0"
     fit-margin-right="0"
     fit-margin-bottom="0"
     inkscape:zoom="10.557517"
     inkscape:cx="16.536143"
     inkscape:cy="5.8785538"
     inkscape:window-x="65"
     inkscape:window-y="24"
     inkscape:window-maximized="1"
     inkscape:current-layer="svg2" />
  <g
     id="g4138"
     transform="translate(0.00763574,0.00763445)">
    <path
       style="fill:#f5f5f5"
       d="m 8.5682064,22.288434 c -0.042851,-0.04867 -0.054575,-0.962786 -0.054575,-4.255156 l 0,-4.193169 -4.194445,0 c -3.57697274,0 -4.20362669,-0.0092 -4.25681587,-0.06237 -0.0933417,-0.09334 -0.0933417,-5.1083936 0,-5.2017353 0.05318918,-0.053189 0.67984313,-0.062371 4.25681587,-0.062371 l 4.194445,0 0,-4.194445 c 0,-3.57697274 0.00918,-4.20362669 0.062371,-4.25681587 0.093342,-0.0933417 5.1083946,-0.0933417 5.2017356,0 0.05319,0.05318918 0.06237,0.67984313 0.06237,4.25681587 l 0,4.194445 4.194445,0 c 3.576973,0 4.203627,0.00918 4.256816,0.062371 0.09334,0.093342 0.09334,5.1083943 0,5.2017353 -0.05319,0.05319 -0.679843,0.06237 -4.256816,0.06237 l -4.194445,0 0,4.194445 c 0,3.576973 -0.0092,4.203627 -0.06237,4.256816 -0.09299,0.09299 -5.1275731,0.09015 -5.2095319,-0.0029 z"
       id="path4152"
       inkscape:connector-curvature="0" />
    <path
       style="fill:#ececec"
       d="m 8.5905767,22.342826 c -0.00571,-0.006 -0.020441,-1.926482 -0.032745,-4.267731 l -0.02237,-4.256816 -4.256816,-0.02237 C 1.937397,13.783606 0.01691811,13.768871 0.01091491,13.763164 0.00491171,13.757458 0,12.593626 0,11.176871 0,9.7601148 0.00491171,8.5962826 0.01091491,8.5905767 0.01691811,8.5848704 1.937397,8.5701353 4.2786457,8.557832 l 4.256816,-0.02237 0.02237,-4.256816 C 8.5701353,1.937397 8.5848704,0.01691811 8.5905767,0.01091491 8.5962826,0.00491171 9.7601148,0 11.176871,0 c 1.416755,0 2.580587,0.00491171 2.586293,0.01091491 0.0057,0.0060032 0.02044,1.92648209 0.03275,4.26773079 l 0.02237,4.256816 4.256816,0.02237 c 2.341249,0.012303 4.261728,0.027038 4.267731,0.032745 0.006,0.00571 0.01092,1.1695381 0.01092,2.5862943 0,1.416755 -0.0049,2.580587 -0.01092,2.586293 -0.006,0.0057 -1.926482,0.02044 -4.267731,0.03275 l -4.256816,0.02237 -0.02237,4.256816 c -0.0123,2.341249 -0.02704,4.261728 -0.03275,4.267731 -0.0057,0.006 -1.169538,0.01092 -2.586293,0.01092 -1.4167562,0 -2.5805884,-0.0049 -2.5862943,-0.01092 z"
       id="path4150"
       inkscape:connector-curvature="0" />
    <path
       style="fill:#dedede"
       d="m 8.5837924,22.284681 c -0.014576,-0.03798 -0.026501,-1.963374 -0.026501,-4.278646 l 0,-4.209585 -4.2095855,0 c -2.315272,0 -4.24066255,-0.01193 -4.27864571,-0.0265 C 0.00717006,13.746199 0,13.476977 0,11.176871 0,8.8767635 0.00717006,8.607542 0.06906029,8.5837924 0.10704345,8.5692167 2.032434,8.5572915 4.347706,8.5572915 l 4.2095855,0 0,-4.2095855 c 0,-2.315272 0.011925,-4.24066255 0.026501,-4.27864571 C 8.607542,0.00717006 8.8767635,0 11.176871,0 c 2.300106,0 2.569328,0.00717006 2.593078,0.06906029 0.01457,0.03798316 0.0265,1.96337371 0.0265,4.27864571 l 0,4.2095855 4.209585,0 c 2.315272,0 4.240663,0.011925 4.278646,0.026501 0.06189,0.02375 0.06906,0.2929711 0.06906,2.5930785 0,2.300106 -0.0072,2.569328 -0.06906,2.593078 -0.03798,0.01457 -1.963374,0.0265 -4.278646,0.0265 l -4.209585,0 0,4.209585 c 0,2.315272 -0.01193,4.240663 -0.0265,4.278646 -0.02375,0.06189 -0.292972,0.06906 -2.593078,0.06906 -2.3001075,0 -2.569329,-0.0072 -2.5930786,-0.06906 z"
       id="path4148"
       inkscape:connector-curvature="0" />
    <path
       style="fill:#c3c3c3"
       d="M 8.5902501,18.06418 8.5791213,13.77462 4.2895607,13.763491 0,13.752362 0,11.176871 0,8.601379 4.2895607,8.5902501 8.5791213,8.5791213 8.5902501,4.2895607 8.601379,0 l 2.575492,0 2.575491,0 0.01113,4.2895607 0.01113,4.2895606 4.28956,0.011129 4.289561,0.011129 0,2.5754917 0,2.575491 -4.289561,0.01113 -4.28956,0.01113 -0.01113,4.28956 -0.01113,4.289561 -2.575492,0 -2.575491,0 -0.011129,-4.289561 z"
       id="path4146"
       inkscape:connector-curvature="0" />
    <path
       style="fill:#b9b9b9"
       d="m 8.6343259,18.080968 c 0.00972,-3.596611 0.00198,-4.28072 -0.048902,-4.322948 -0.044826,-0.0372 -1.1619436,-0.04718 -4.3229395,-0.03861 l -4.2624928104666,0.01155 4.05249e-8,-2.554089 4.05249e-8,-2.55409 L 4.2727728,8.6343259 c 3.5966111,0.00972 4.2807203,0.00198 4.3229479,-0.048902 0.037202,-0.044826 0.047181,-1.1619436 0.038614,-4.3229395 L 8.622781,-8.7104666e-6 l 2.55409,0 2.554089,0 L 13.719407,4.2624841 c -0.0086,3.1609959 0.0014,4.2781132 0.03861,4.3229395 0.04223,0.050881 0.726337,0.05862 4.322948,0.048902 l 4.272782,-0.011545 0,2.5540904 0,2.554089 -4.262493,-0.01155 c -3.160996,-0.0086 -4.278113,0.0014 -4.32294,0.03861 -0.05088,0.04223 -0.05862,0.726337 -0.0489,4.322948 l 0.01154,4.272782 -2.55409,0 -2.554089,0 0.011545,-4.272782 z"
       id="path4144"
       inkscape:connector-curvature="0" />
    <path
       style="fill:#adadad"
       d="m 8.622781,18.042354 0,-4.311394 -4.3113934,0 -4.3113933417858,0 0,-2.554089 0,-2.55409 4.3113933417858,0 4.3113934,0 0,-4.3113934 0,-4.3113933417858 2.55409,0 2.554089,0 0,4.3113933417858 0,4.3113934 4.311394,0 4.311393,0 0,2.55409 0,2.554089 -4.311393,0 -4.311394,0 0,4.311394 0,4.311393 -2.554089,0 -2.55409,0 0,-4.311393 z"
       id="path4142"
       inkscape:connector-curvature="0" />
    <path
       style="fill:#a5a5a5"
       d="m 8.6009511,22.310081 c 0,-0.02401 0.019647,-0.04366 0.04366,-0.04366 0.068182,0 0.05952,-8.480308 -0.00873,-8.54856 -0.068252,-0.06825 -8.5485595,-0.07691 -8.5485595,-0.0087 0,0.02401 -0.01964684,0.04366 -0.04365965,0.04366 C 0.01504655,13.75279 0,12.865044 0,11.176871 0,9.4886972 0.01504655,8.6009511 0.04365965,8.6009511 c 0.02401281,0 0.04365965,0.019647 0.04365965,0.04366 0,0.068182 8.4803077,0.05952 8.5485595,-0.00873 0.068252,-0.068252 0.076914,-8.5485595 0.00873,-8.5485595 -0.024013,0 -0.04366,-0.01964684 -0.04366,-0.04365965 C 8.6009511,0.01504655 9.4886972,0 11.176871,0 c 1.688173,0 2.575919,0.01504655 2.575919,0.04365965 0,0.02401281 -0.01965,0.04365965 -0.04366,0.04365965 -0.06818,0 -0.05952,8.4803077 0.0087,8.5485595 0.06825,0.068252 8.54856,0.076914 8.54856,0.00873 0,-0.024013 0.01965,-0.04366 0.04366,-0.04366 0.02861,0 0.04366,0.8877461 0.04366,2.5759202 0,1.688173 -0.01505,2.575919 -0.04366,2.575919 -0.02401,0 -0.04366,-0.01965 -0.04366,-0.04366 0,-0.06818 -8.480308,-0.05952 -8.54856,0.0087 -0.06825,0.06825 -0.07691,8.54856 -0.0087,8.54856 0.02401,0 0.04366,0.01965 0.04366,0.04366 0,0.02861 -0.887746,0.04366 -2.575919,0.04366 -1.6881738,0 -2.5759199,-0.01505 -2.5759199,-0.04366 z"
       id="path4140"
       inkscape:connector-curvature="0" />
  </g>
</svg>
