<?xml version="1.0" encoding="UTF-8" standalone="no"?>
<!-- Created with Inkscape (http://www.inkscape.org/) -->

<svg
   xmlns:dc="http://purl.org/dc/elements/1.1/"
   xmlns:cc="http://creativecommons.org/ns#"
   xmlns:rdf="http://www.w3.org/1999/02/22-rdf-syntax-ns#"
   xmlns:svg="http://www.w3.org/2000/svg"
   xmlns="http://www.w3.org/2000/svg"
   xmlns:sodipodi="http://sodipodi.sourceforge.net/DTD/sodipodi-0.dtd"
   xmlns:inkscape="http://www.inkscape.org/namespaces/inkscape"
   id="svg2"
   version="1.1"
   inkscape:version="0.91 r13725"
   width="390.16711"
   height="360.31796"
   viewBox="0 0 390.16711 360.31796"
   sodipodi:docname="sdcheckmark.svg">
  <metadata
     id="metadata8">
    <rdf:RDF>
      <cc:Work
         rdf:about="">
        <dc:format>image/svg+xml</dc:format>
        <dc:type
           rdf:resource="http://purl.org/dc/dcmitype/StillImage" />
        <dc:title></dc:title>
      </cc:Work>
    </rdf:RDF>
  </metadata>
  <defs
     id="defs6" />
  <sodipodi:namedview
     pagecolor="#ffffff"
     bordercolor="#666666"
     borderopacity="1"
     objecttolerance="10"
     gridtolerance="10"
     guidetolerance="10"
     inkscape:pageopacity="0"
     inkscape:pageshadow="2"
     inkscape:window-width="1855"
     inkscape:window-height="1056"
     id="namedview4"
     showgrid="false"
     fit-margin-top="0"
     fit-margin-left="0"
     fit-margin-right="0"
     fit-margin-bottom="0"
     inkscape:zoom="0.49166667"
     inkscape:cx="315.16712"
     inkscape:cy="1.1581094"
     inkscape:window-x="65"
     inkscape:window-y="24"
     inkscape:window-maximized="1"
     inkscape:current-layer="svg2" />
  <g
     id="g4138"
     transform="translate(-44.832881,-59.823186)">
    <path
       style="fill:#d1f3d5"
       d="m 181.60173,414.60937 c -6.99555,-6.3532 -123.346001,-117.97688 -131.211105,-125.8806 -6.859598,-6.89329 -7.229864,-10.07115 -1.881464,-16.14795 5.820951,-6.6137 39.60917,-42.20241 43.170979,-45.47145 4.282219,-3.93022 7.385804,-3.93022 12.28349,0 2.08829,1.67579 20.31836,19.07813 40.51128,38.67188 20.19291,19.59375 37.02465,35.74731 37.40386,35.89679 0.37921,0.14949 41.98271,-52.79131 92.45223,-117.6462 50.46951,-64.85489 92.96661,-119.293601 94.43799,-120.974911 2.21828,-2.534773 3.33923,-3.05508 6.5625,-3.046104 3.64099,0.01014 5.55032,1.320389 30.13726,20.68114 14.4375,11.368673 26.98828,21.535535 27.89062,22.593035 0.93757,1.09877 1.64063,3.44989 1.64063,5.48645 0,3.30402 -8.54606,14.55221 -117.27022,154.34926 -64.49864,82.93205 -118.70338,152.15663 -120.45499,153.83241 -5.01947,4.80217 -8.35367,4.30357 -15.67306,-2.34375 z"
       id="path4152"
       inkscape:connector-curvature="0" />
    <path
       style="fill:#a4e8ad"
       d="m 179.17615,412.19029 c -4.44532,-4.29534 -35.50428,-34.08989 -69.0199,-66.21011 -33.515625,-32.12022 -61.884623,-59.50819 -63.042218,-60.86217 -3.778596,-4.4196 -2.916235,-7.86353 3.745343,-14.95744 20.30046,-21.61796 42.518002,-44.45941 44.034366,-45.27094 0.9783,-0.52358 2.920837,-0.7011 4.316746,-0.39451 1.668123,0.36637 16.349703,13.84996 42.835633,39.34031 22.1637,21.33057 40.34448,38.7211 40.40173,38.6456 15.64297,-20.62781 185.97298,-238.95438 187.52873,-240.371655 2.79399,-2.545294 7.42088,-2.760349 10.67419,-0.496131 4.54853,3.165644 52.0189,40.891026 52.71689,41.894866 1.46691,2.10968 1.88712,5.65596 0.96094,8.10969 -0.73352,1.94331 -212.51259,275.05587 -232.58547,299.9447 -8.93762,11.08196 -11.66913,11.15796 -22.56698,0.62779 z"
       id="path4150"
       inkscape:connector-curvature="0" />
    <path
       style="fill:#75de84"
       d="m 186.92336,418.7949 c -1.09059,-0.62626 -33.25481,-31.21433 -71.47604,-67.97348 -44.833781,-43.11875 -69.706918,-67.68655 -70.095578,-69.2351 -0.344298,-1.37179 -0.04659,-3.52956 0.694788,-5.0358 0.713472,-1.44954 11.775577,-13.64141 24.582458,-27.09303 C 93.477116,225.45911 93.984356,225 97.650375,225 c 4.131945,0 -2.356013,-5.85851 62.656385,56.57755 12.11403,11.63397 22.29697,20.85478 22.62876,20.49069 0.33178,-0.36409 42.24583,-54.24012 93.14233,-119.72449 50.8965,-65.48438 93.3892,-119.800781 94.42823,-120.703125 4.54601,-3.947986 6.29695,-2.983681 33.67122,18.543931 14.11654,11.101506 26.82661,21.444104 28.24457,22.983544 3.32243,3.60704 3.29997,7.11842 -0.0753,11.76936 -10.2681,14.14903 -231.78172,297.9225 -235.02167,301.07816 -4.25533,4.14465 -6.82717,4.83184 -10.40156,2.77928 z"
       id="path4148"
       inkscape:connector-curvature="0" />
    <path
       style="fill:#52d665"
       d="m 185.36177,417.42187 c -1.84497,-1.41796 -33.94508,-32.04215 -71.33356,-68.05376 -50.087896,-48.24333 -68.133559,-66.17899 -68.566054,-68.14814 -0.326867,-1.48821 -0.07759,-3.62431 0.562531,-4.82038 1.064518,-1.98907 32.224793,-35.25393 43.537192,-46.47772 C 93.722744,225.7936 95.073075,225 97.936575,225 c 3.218535,0 5.571135,2.07559 41.098065,36.25884 20.72626,19.94236 38.98387,37.46379 40.57245,38.93651 l 2.88835,2.67766 93.67415,-120.46267 c 63.36524,-81.48614 94.50244,-120.812124 96.23409,-121.542705 1.40795,-0.594019 3.59344,-0.820641 4.8566,-0.503604 1.26318,0.317037 14.44189,10.173421 29.28601,21.903075 29.76297,23.518334 30.3904,24.229124 26.93315,30.511204 -2.65693,4.82783 -231.505,298.64596 -236.18447,303.23731 -4.80733,4.71683 -7.251,5.00479 -11.9332,1.40625 z"
       id="path4146"
       inkscape:connector-curvature="0" />
    <path
       style="fill:#2dcc43"
       d="m 187.96875,419.09096 c -3.15321,-1.32888 -141.525367,-134.8928 -142.082246,-137.1451 -0.285861,-1.15616 -0.349526,-3.01273 -0.141479,-4.12571 0.317387,-1.69793 41.309929,-46.1173 47.231173,-51.17952 C 94.031662,225.73828 96.378366,225 98.191097,225 c 2.992093,0 4.689153,1.36434 18.411773,14.80205 49.36149,48.33664 65.3577,63.29999 66.47997,62.18735 0.62475,-0.61939 42.90153,-54.77745 93.94841,-120.35122 51.04687,-65.57379 93.89642,-119.832879 95.22121,-120.575771 1.39065,-0.779821 3.37187,-1.100683 4.6875,-0.75915 1.25333,0.32536 14.30223,10.072628 28.99754,21.660597 28.58481,22.540504 30.15386,24.204364 27.89332,29.578494 -1.91705,4.5575 -236.15629,304.81861 -239.28135,306.72438 -3.11519,1.89974 -3.81941,1.98794 -6.58072,0.82423 z"
       id="path4144"
       inkscape:connector-curvature="0" />
    <path
       style="fill:#28cc3f"
       d="M 187.03125,418.24579 C 182.45275,415.40151 47.437421,285.19607 46.32018,282.54752 c -0.562963,-1.33456 -0.838489,-3.39467 -0.612279,-4.57801 0.499447,-2.61269 46.275453,-51.2192 49.349593,-52.40106 4.367944,-1.67928 7.289816,0.29471 22.547416,15.23282 8.27824,8.1049 26.14586,25.44316 39.70583,38.52948 21.24602,20.5039 24.83734,23.60977 25.97712,22.46565 0.72744,-0.73021 43.01826,-54.90577 93.97961,-120.39015 58.30039,-74.91491 93.61028,-119.52189 95.22794,-120.301437 1.65576,-0.797905 3.39547,-0.964105 4.88712,-0.466885 1.2739,0.42463 14.31368,10.209189 28.97731,21.743464 28.40931,22.346498 29.74857,23.771958 27.44323,29.209658 -1.89721,4.47501 -236.21067,304.79444 -239.27182,306.67455 -3.49368,2.14576 -4.01627,2.14438 -7.5,-0.0198 z"
       id="path4142"
       inkscape:connector-curvature="0" />
    <path
       style="fill:#1ac933"
       d="m 188.1469,418.70147 c -1.35464,-0.57487 -31.845,-29.31085 -67.75634,-63.85772 -35.91134,-34.54688 -67.354283,-64.73642 -69.873204,-67.08788 -3.892298,-3.63354 -4.579856,-4.79822 -4.579856,-7.75802 0,-4.01215 0.111027,-4.14257 30.257917,-35.54473 C 92.152095,227.83204 95.270091,225 97.612762,225 c 3.208998,0 3.387488,0.16115 50.811988,45.87662 17.95393,17.30692 33.14143,31.55304 33.75,31.65805 0.60857,0.105 43.2574,-54.03709 94.77516,-120.31577 60.62514,-77.9955 94.49158,-120.819549 96.00139,-121.393577 1.283,-0.487795 3.2904,-0.556638 4.46089,-0.152986 1.17049,0.403652 14.17718,10.2261 28.90376,21.827663 27.65121,21.78355 29.58162,23.76713 27.76927,28.53401 -0.91286,2.40099 -230.34214,297.58273 -236.20722,303.90217 -4.08695,4.40358 -6.2525,5.2415 -9.7311,3.76529 z"
       id="path4140"
       inkscape:connector-curvature="0" />
  </g>
</svg>
